<?xml version="1.0" encoding="UTF-8" standalone="no"?>
<!-- Created with Inkscape (http://www.inkscape.org/) -->

<svg
   width="209.5981mm"
   height="50.354855mm"
   viewBox="0 0 209.5981 50.354855"
   version="1.1"
   id="svg1"
   xml:space="preserve"
   xmlns:inkscape="http://www.inkscape.org/namespaces/inkscape"
   xmlns:sodipodi="http://sodipodi.sourceforge.net/DTD/sodipodi-0.dtd"
   xmlns:xlink="http://www.w3.org/1999/xlink"
   xmlns="http://www.w3.org/2000/svg"
   xmlns:svg="http://www.w3.org/2000/svg"><sodipodi:namedview
     id="namedview1"
     pagecolor="#505050"
     bordercolor="#eeeeee"
     borderopacity="1"
     inkscape:showpageshadow="0"
     inkscape:pageopacity="0"
     inkscape:pagecheckerboard="0"
     inkscape:deskcolor="#505050"
     inkscape:document-units="mm"><inkscape:page
       x="6.2092052e-13"
       y="0"
       width="209.59808"
       height="50.354855"
       id="page2"
       margin="0"
       bleed="0" /></sodipodi:namedview><defs
     id="defs1"><linearGradient
       id="d"
       x1="0"
       y1="318.51001"
       x2="1826.86"
       y2="318.51001"
       gradientUnits="userSpaceOnUse"><stop
         offset="0"
         stop-color="#ff7bac"
         id="stop1" /><stop
         offset=".58"
         stop-color="#3a62a8"
         stop-opacity=".8"
         id="stop2" /></linearGradient><style
       id="style1">.e{fill:#662d91;}.f{fill:#0071bc;}.g{fill:url(#d);}.h{fill:#93278f;}.i{opacity:.77;}.j{font-family:Consolas, Consolas;font-size:31px;}</style><style
       id="style1-2">.e,.f,.g{font-family:Consolas, Consolas;}.h{fill:#662d91;}.i{fill:#0071bc;}.j{fill:url(#d);}.f,.k{fill:#fff;}.f,.k,.g{font-size:31px;}.l{font-family:Calibri-Light, Calibri;}.m{fill:#93278f;}.n{opacity:.77;}</style><style
       id="style1-6">.e,.f,.g{font-family:Consolas, Consolas;}.h{fill:#662d91;}.i{fill:#0071bc;}.j{fill:url(#d);}.f,.k{fill:#fff;}.f,.k,.g{font-size:31px;}.l{font-family:Calibri-Light, Calibri;}.m{fill:#93278f;}.n{opacity:.77;}</style><style
       id="style1-4">.e{fill:#662d91;}.f{fill:#0071bc;}.g{fill:url(#d);}.h{fill:#93278f;}.i{opacity:.77;}.j{font-family:Consolas, Consolas;font-size:31px;}</style><style
       id="style1-5">.cls-1{fill:#101010;}</style><style
       id="style1-51">.e{fill:#662d91;}.f{fill:#0071bc;}.g{fill:url(#d);}.h{fill:#93278f;}.i{opacity:.77;}.j{font-family:Consolas, Consolas;font-size:31px;}</style><style
       id="style1-2-2">.e,.f,.g{font-family:Consolas, Consolas;}.h{fill:#662d91;}.i{fill:#0071bc;}.j{fill:url(#d);}.f,.k{fill:#fff;}.f,.k,.g{font-size:31px;}.l{font-family:Calibri-Light, Calibri;}.m{fill:#93278f;}.n{opacity:.77;}</style><style
       id="style1-6-2">.e,.f,.g{font-family:Consolas, Consolas;}.h{fill:#662d91;}.i{fill:#0071bc;}.j{fill:url(#d);}.f,.k{fill:#fff;}.f,.k,.g{font-size:31px;}.l{font-family:Calibri-Light, Calibri;}.m{fill:#93278f;}.n{opacity:.77;}</style><style
       id="style1-4-2">.e{fill:#662d91;}.f{fill:#0071bc;}.g{fill:url(#d);}.h{fill:#93278f;}.i{opacity:.77;}.j{font-family:Consolas, Consolas;font-size:31px;}</style><style
       id="style1-5-6">.cls-1{fill:#101010;}</style><style
       id="style1-3">.e{fill:#662d91;}.f{fill:#0071bc;}.g{fill:url(#d);}.h{fill:#93278f;}.i{opacity:.77;}.j{font-family:Consolas, Consolas;font-size:31px;}</style><style
       id="style1-2-4">.e,.f,.g{font-family:Consolas, Consolas;}.h{fill:#662d91;}.i{fill:#0071bc;}.j{fill:url(#d);}.f,.k{fill:#fff;}.f,.k,.g{font-size:31px;}.l{font-family:Calibri-Light, Calibri;}.m{fill:#93278f;}.n{opacity:.77;}</style><style
       id="style1-6-0">.e,.f,.g{font-family:Consolas, Consolas;}.h{fill:#662d91;}.i{fill:#0071bc;}.j{fill:url(#d);}.f,.k{fill:#fff;}.f,.k,.g{font-size:31px;}.l{font-family:Calibri-Light, Calibri;}.m{fill:#93278f;}.n{opacity:.77;}</style><style
       id="style1-4-0">.e{fill:#662d91;}.f{fill:#0071bc;}.g{fill:url(#d);}.h{fill:#93278f;}.i{opacity:.77;}.j{font-family:Consolas, Consolas;font-size:31px;}</style><style
       id="style1-5-5">.cls-1{fill:#101010;}</style><style
       id="style1-50">.f{font-family:EdwardianScriptITC, Edwardian Script ITC;font-size:355px;}.f,.g,.h{fill:#fff;}.i{fill:#662d91;}.j{stroke-width:3px;}.j,.k,.l,.m{fill:none;}.j,.k,.m{stroke:#fff;stroke-miterlimit:10;}.k{stroke-width:2px;}.n{fill:#0071bc;}.o{fill:url(#d);}.p{fill:url(#e);}.h,.q{font-family:Consolas, Consolas;font-size:31px;}.r{opacity:.69;}.r,.s{fill:#29abe2;}.t{fill:#93278f;}.m{stroke-width:4px;}.u{opacity:.77;}</style><style
       id="style1-3-0">.f{opacity:.83;}.g{font-family:EdwardianScriptITC, Edwardian Script ITC;font-size:249.87px;}.g,.h{fill:#fff;}.i{fill:#662d91;}.j{stroke-width:3px;}.j,.k{fill:none;stroke:#fff;stroke-miterlimit:10;}.l{fill:#0071bc;}.m{fill:url(#d);}.n{fill:url(#e);}.h,.o{font-family:Consolas, Consolas;font-size:31px;}.p{opacity:.69;}.p,.q{fill:#29abe2;}.r{fill:#93278f;}.k{stroke-width:4px;}</style><style
       id="style1-2-45">.f{opacity:.83;}.g{font-family:EdwardianScriptITC, Edwardian Script ITC;font-size:275.28px;}.g,.h{fill:#fff;}.i{fill:#662d91;}.j{stroke-width:2px;}.j,.k{fill:none;stroke:#fff;stroke-miterlimit:10;}.l{fill:#0071bc;}.m{fill:url(#d);}.n{fill:url(#e);}.h,.o{font-family:Consolas, Consolas;font-size:31px;}.p{opacity:.69;}.p,.q{fill:#29abe2;}.r{fill:#93278f;}.k{stroke-width:4px;}</style><linearGradient
       inkscape:collect="always"
       xlink:href="#d"
       id="linearGradient22"
       x1="1438.5734"
       y1="436.47345"
       x2="1803.799"
       y2="436.47345"
       gradientUnits="userSpaceOnUse"
       gradientTransform="matrix(0.2012961,0,0,0.2012961,-46.975355,476.59831)" /><filter
       inkscape:collect="always"
       style="color-interpolation-filters:sRGB"
       id="filter22"
       x="-0.0034582916"
       y="-0.018094434"
       width="1.0069166"
       height="1.0361889"><feGaussianBlur
         inkscape:collect="always"
         stdDeviation="0.31856994"
         id="feGaussianBlur22" /></filter><linearGradient
       inkscape:collect="always"
       xlink:href="#d"
       id="linearGradient24"
       x1="244.77945"
       y1="561.55609"
       x2="318.298"
       y2="561.55609"
       gradientUnits="userSpaceOnUse" /><filter
       inkscape:collect="always"
       style="color-interpolation-filters:sRGB"
       id="filter24"
       x="-0.010238009"
       y="-0.053567184"
       width="1.020476"
       height="1.1071344"><feGaussianBlur
         inkscape:collect="always"
         stdDeviation="0.94310204"
         id="feGaussianBlur24" /></filter></defs><g
     inkscape:label="Layer 1"
     inkscape:groupmode="layer"
     id="layer1"
     transform="translate(208.00265,12.139884)"><g
       id="g35"
       transform="translate(-422.19498,-595.94706)"><path
         d="m 264.4764,566.11024 q 0,0.52693 -3.66338,4.86778 -2.96082,3.56302 -4.66705,3.56302 -1.15421,0 -1.88187,-0.85312 -0.72766,-0.87821 -0.72766,-2.18297 0,-1.35495 0.80293,-2.93573 -2.50916,3.51283 -3.83902,4.74233 -1.32986,1.22949 -2.58444,1.22949 -1.32986,0 -2.23316,-1.12913 -0.9033,-1.15421 -0.9033,-2.88554 0,-4.81759 6.79984,-8.53116 2.98591,-1.65605 4.8176,-1.65605 1.55568,0 1.55568,1.5055 0,0.42656 -0.20073,1.12913 l 1.27967,-2.43389 q 0.75275,0.17564 1.32986,0.17564 0.67747,0 1.75641,-0.17564 l -4.44122,7.35185 q -2.30843,3.86411 -2.30843,5.0936 0,1.17931 0.97857,1.17931 1.00367,0 3.21174,-2.28334 2.20806,-2.30843 4.4914,-5.67071 0.15055,-0.25092 0.27601,-0.25092 0.15055,0 0.15055,0.15055 z m -6.90021,-4.16521 q 0,-1.22949 -1.12912,-1.22949 -2.30843,0 -6.07218,4.51649 -3.73865,4.5165 -3.73865,7.30167 0,1.63096 1.45531,1.63096 1.73133,0 5.99691,-5.74599 3.48773,-4.71723 3.48773,-6.47364 z m 20.42461,-13.32367 -11.26615,17.78998 q 2.63462,-3.6132 3.93939,-4.84269 1.30476,-1.22949 2.48407,-1.22949 1.40513,0 2.28334,1.15422 0.9033,1.12912 0.9033,2.86045 0,3.78884 -4.8176,7.45222 -3.5881,2.73499 -6.37328,2.73499 -1.30476,0 -2.13279,-0.97858 -0.80293,-1.00366 -0.80293,-2.58444 0,-1.88187 2.4088,-5.74599 l 10.38794,-16.66085 q 0.67748,0.20073 1.45532,0.20073 0.6022,0 1.53059,-0.15055 z m -3.48774,13.77532 q 0,-1.68114 -1.40513,-1.68114 -1.83169,0 -6.24782,6.04708 -3.3121,4.5165 -3.3121,6.07218 0,1.32986 1.30476,1.32986 2.25825,0 5.94672,-4.4914 3.71357,-4.5165 3.71357,-7.27658 z m 18.39218,3.66338 q 0,0.40146 -1.48041,1.88187 -2.20806,2.20807 -4.06485,2.20807 -0.77784,0 -1.38004,-0.3011 -3.3121,4.69214 -6.22273,4.69214 -1.5055,0 -2.58444,-1.22949 -1.05385,-1.25459 -1.05385,-2.98591 0,-3.86412 5.06852,-7.45222 3.56301,-2.53426 5.87144,-2.53426 2.15789,0 2.15789,2.30843 0,2.88554 -3.03609,6.95039 0.50183,0.3011 1.12912,0.3011 1.12912,0 2.63462,-1.05385 1.5055,-1.05385 2.45898,-2.53426 0.27601,-0.35128 0.40147,-0.35128 0.10037,0 0.10037,0.10037 z m -4.06485,-3.36228 q 0,-2.03243 -1.83169,-2.03243 -2.28334,0 -5.57035,4.36595 -3.287,4.36595 -3.287,7.35185 0,1.73133 1.65605,1.73133 2.70989,0 5.92163,-4.46632 -0.72766,-0.80293 -0.72766,-1.65604 0,-1.2295 0.97857,-2.53426 0.97858,-1.30477 1.90697,-1.30477 0.40146,0 0.55201,0.50184 0.40147,-0.87821 0.40147,-1.95715 z m 20.19878,3.41246 q 0,0.57711 -3.63829,4.86778 -3.011,3.56302 -4.76741,3.56302 -1.10403,0 -1.88188,-0.87821 -0.75275,-0.9033 -0.75275,-2.15788 0,-0.97858 0.97858,-2.73499 l -0.50183,0.67747 q -2.30844,2.96082 -3.38738,3.96448 -1.1793,1.12913 -2.23315,1.12913 -1.10404,0 -1.85679,-0.85312 -0.75275,-0.87821 -0.75275,-2.13279 0,-1.45532 1.12913,-3.33719 l 4.56668,-7.67804 q 0.85312,0.17564 1.32986,0.17564 0.47674,0 1.70623,-0.17564 l -5.97181,9.83592 q -0.9033,1.5055 -0.9033,2.65972 0,1.12912 0.95348,1.12912 2.53426,0 8.12969,-9.45955 l 2.45899,-4.16521 q 0.77784,0.17564 1.30476,0.17564 0.62729,0 1.78151,-0.17564 l -4.01467,6.54892 q -2.86044,4.66704 -2.86044,5.9969 0,1.07894 1.02875,1.07894 2.00734,0 6.52383,-6.32309 l 0.77784,-1.07895 0.45165,-0.55201 q 0.12546,-0.25092 0.25092,-0.25092 0.15055,0 0.15055,0.15055 z m 9.25882,-5.77108 -0.20073,0.37638 h -3.28701 l -5.59544,9.55992 q -1.02876,1.73132 -1.02876,2.76008 0,1.12912 1.17931,1.12912 2.28334,0 7.70314,-7.95405 0.17564,-0.25092 0.3011,-0.25092 0.15055,0 0.15055,0.15055 -0.0251,0.0753 -0.25092,0.40147 l -1.07894,1.48041 q -4.71723,6.54892 -7.10094,6.54892 -1.1793,0 -1.98224,-0.85312 -0.77784,-0.85312 -0.77784,-2.13279 0,-1.5055 1.32986,-3.76375 l 4.2154,-7.07584 h -2.55935 l 0.25092,-0.37638 h 2.50916 l 2.93572,-4.86778 q 0.75275,0.20074 1.43023,0.20074 0.70256,0 1.45531,-0.20074 l -2.88554,4.86778 z m 23.15959,5.7209 q 0,0.40146 -1.4804,1.88187 -2.20807,2.20807 -4.06485,2.20807 -0.77784,0 -1.38004,-0.3011 -3.3121,4.69214 -6.22273,4.69214 -1.5055,0 -2.58444,-1.22949 -1.05385,-1.25459 -1.05385,-2.98591 0,-3.86412 5.06851,-7.45222 3.56302,-2.53426 5.87145,-2.53426 2.15788,0 2.15788,2.30843 0,2.88554 -3.03609,6.95039 0.50183,0.3011 1.12913,0.3011 1.12912,0 2.63462,-1.05385 1.5055,-1.05385 2.45898,-2.53426 0.27601,-0.35128 0.40147,-0.35128 0.10036,0 0.10036,0.10037 z m -4.06484,-3.36228 q 0,-2.03243 -1.83169,-2.03243 -2.28334,0 -5.57035,4.36595 -3.28701,4.36595 -3.28701,7.35185 0,1.73133 1.65605,1.73133 2.7099,0 5.92163,-4.46632 -0.72766,-0.80293 -0.72766,-1.65604 0,-1.2295 0.97858,-2.53426 0.97857,-1.30477 1.90696,-1.30477 0.40147,0 0.55202,0.50184 0.40147,-0.87821 0.40147,-1.95715 z m 20.19878,3.41246 q 0,0.57711 -3.63829,4.86778 -3.011,3.56302 -4.76742,3.56302 -1.10403,0 -1.88187,-0.87821 -0.75275,-0.9033 -0.75275,-2.15788 0,-0.97858 0.97857,-2.73499 l -0.50183,0.67747 q -2.30843,2.96082 -3.38737,3.96448 -1.17931,1.12913 -2.23316,1.12913 -1.10403,0 -1.85678,-0.85312 -0.75275,-0.87821 -0.75275,-2.13279 0,-1.45532 1.12912,-3.33719 l 4.56668,-7.67804 q 0.85312,0.17564 1.32986,0.17564 0.47674,0 1.70623,-0.17564 l -5.97181,9.83592 q -0.9033,1.5055 -0.9033,2.65972 0,1.12912 0.95348,1.12912 2.53426,0 8.1297,-9.45955 l 2.45898,-4.16521 q 0.77784,0.17564 1.30477,0.17564 0.62729,0 1.7815,-0.17564 l -4.01466,6.54892 q -2.86045,4.66704 -2.86045,5.9969 0,1.07894 1.02876,1.07894 2.00733,0 6.52383,-6.32309 l 0.77784,-1.07895 0.45165,-0.55201 q 0.12546,-0.25092 0.25092,-0.25092 0.15055,0 0.15055,0.15055 z m 14.30224,0 q 0,0.20073 -1.5055,1.83169 -1.90697,2.1077 -3.58811,2.1077 -1.90696,0 -1.90696,-2.20806 0,-0.70257 0.3011,-1.78151 -1.58078,1.38004 -2.58444,2.73499 -0.97858,1.35495 -3.41247,5.52016 -1.32986,-0.10037 -1.55568,-0.10037 -0.10037,0 -1.53059,0.10037 l 4.11503,-6.67438 q 3.08627,-5.01833 3.08627,-6.22273 0,-0.70256 -0.57711,-0.70256 -1.40513,0 -5.0936,5.3947 -0.22583,0.35128 -0.40147,0.35128 -0.10036,-0.0251 -0.10036,-0.15055 0.0251,-0.12545 0.10036,-0.20073 l 0.45165,-0.62729 q 3.86412,-5.14379 5.24416,-5.14379 2.00733,0 2.00733,2.58444 0,1.93206 -2.05752,5.1187 1.30477,-1.5055 2.48408,-2.45898 0.95348,-2.23316 2.35861,-3.73866 1.43023,-1.5055 2.55935,-1.5055 0.77784,0 0.77784,0.67748 0,1.2044 -3.48774,3.43755 -0.55201,0.35129 -1.65605,1.02876 l -0.3011,0.25092 q -0.35128,1.15421 -0.35128,1.90696 0,2.1077 1.58077,2.1077 1.95715,0 4.26559,-3.23682 0.50183,-0.55202 0.62729,-0.55202 0.15055,0 0.15055,0.15055 z m 21.0017,-1.75641 q 0,4.08994 -5.0936,7.45222 -4.14012,2.73499 -6.47365,2.73499 -1.60586,0 -1.60586,-1.5055 0,-0.45165 0.25091,-1.22949 l -9.6101,16.03356 q -0.87821,-0.20073 -1.43022,-0.20073 -0.82803,0 -1.63096,0.3011 l 20.60024,-33.87373 q 0.67748,0.22582 1.32986,0.22582 0.67748,0 1.65605,-0.22582 l -7.45222,12.04399 q 2.68481,-3.56301 3.88921,-4.66705 1.22949,-1.10403 2.43389,-1.10403 1.32985,0 2.23315,1.15422 0.9033,1.15421 0.9033,2.86045 z m -1.85678,-2.00734 q 0,-1.63095 -1.45532,-1.63095 -1.83169,0 -6.14745,5.89653 -3.33719,4.56669 -3.33719,6.27292 0,1.27967 1.17931,1.27967 2.30843,0 6.02199,-4.4914 3.73866,-4.5165 3.73866,-7.32677 z m 17.84017,3.76375 q 0,0.20073 -1.5055,1.83169 -1.90697,2.1077 -3.58811,2.1077 -1.90696,0 -1.90696,-2.20806 0,-0.70257 0.3011,-1.78151 -1.58078,1.38004 -2.58444,2.73499 -0.97858,1.35495 -3.41247,5.52016 -1.32985,-0.10037 -1.55568,-0.10037 -0.10037,0 -1.53059,0.10037 l 4.11503,-6.67438 q 3.08627,-5.01833 3.08627,-6.22273 0,-0.70256 -0.5771,-0.70256 -1.40514,0 -5.09361,5.3947 -0.22582,0.35128 -0.40147,0.35128 -0.10036,-0.0251 -0.10036,-0.15055 0.0251,-0.12545 0.10036,-0.20073 l 0.45165,-0.62729 q 3.86412,-5.14379 5.24416,-5.14379 2.00733,0 2.00733,2.58444 0,1.93206 -2.05751,5.1187 1.30476,-1.5055 2.48407,-2.45898 0.95348,-2.23316 2.35861,-3.73866 1.43023,-1.5055 2.55935,-1.5055 0.77784,0 0.77784,0.67748 0,1.2044 -3.48774,3.43755 -0.55201,0.35129 -1.65604,1.02876 l -0.3011,0.25092 q -0.35129,1.15421 -0.35129,1.90696 0,2.1077 1.58078,2.1077 1.95715,0 4.26558,-3.23682 0.50183,-0.55202 0.62729,-0.55202 0.15055,0 0.15055,0.15055 z m 14.82916,-0.0502 q 0,0.40146 -1.48041,1.88187 -2.20806,2.20807 -4.06484,2.20807 -0.77785,0 -1.38005,-0.3011 -3.31209,4.69214 -6.22272,4.69214 -1.5055,0 -2.58444,-1.22949 -1.05385,-1.25459 -1.05385,-2.98591 0,-3.86412 5.06851,-7.45222 3.56301,-2.53426 5.87145,-2.53426 2.15788,0 2.15788,2.30843 0,2.88554 -3.03609,6.95039 0.50183,0.3011 1.12912,0.3011 1.12913,0 2.63463,-1.05385 1.50549,-1.05385 2.45898,-2.53426 0.27601,-0.35128 0.40146,-0.35128 0.10037,0 0.10037,0.10037 z m -4.06485,-3.36228 q 0,-2.03243 -1.83169,-2.03243 -2.28334,0 -5.57034,4.36595 -3.28701,4.36595 -3.28701,7.35185 0,1.73133 1.65605,1.73133 2.7099,0 5.92163,-4.46632 -0.72766,-0.80293 -0.72766,-1.65604 0,-1.2295 0.97857,-2.53426 0.97858,-1.30477 1.90697,-1.30477 0.40147,0 0.55202,0.50184 0.40146,-0.87821 0.40146,-1.95715 z m 12.59602,-6.9253 q 0,0.85312 -0.75275,1.58078 -0.72766,0.72765 -1.60586,0.72765 -1.02876,0 -1.02876,-1.07894 0,-0.80293 0.72766,-1.55568 0.75275,-0.75275 1.58077,-0.75275 1.07894,0 1.07894,1.07894 z m -0.70257,10.28758 q 0,0.37637 -2.78517,3.48774 -2.86045,3.21173 -7.8035,5.9969 l -1.27968,2.23316 q -3.8892,6.64929 -7.67804,9.76065 -4.01466,3.28701 -6.87511,3.28701 -2.55935,0 -2.55935,-2.35862 0,-2.88554 3.8892,-5.92163 2.13279,-1.65605 3.6132,-2.50916 2.28334,-1.30477 7.02566,-3.33719 l 0.35129,-0.17564 4.39104,-7.80351 q 1.83169,-3.18664 4.71723,-8.17987 0.70256,0.17564 1.1793,0.17564 0.70257,0 1.85679,-0.17564 -2.00734,3.26191 -6.07218,10.28757 l -2.30844,4.2154 q 3.23683,-1.8066 5.26925,-3.6132 2.05752,-1.8066 4.44122,-4.96815 0.3011,-0.50183 0.52693,-0.50183 0.0753,0 0.10036,0.10037 z M 417.23437,577 q -7.15112,3.63829 -9.08317,4.96814 -5.24416,3.6132 -5.24416,6.59911 0,0.80293 0.6022,1.32986 0.6022,0.55201 1.5055,0.55201 2.63462,0 5.21906,-2.93572 2.18298,-2.45898 6.69947,-10.01157 z m 26.92334,-10.88978 q 0,0.0753 -0.45165,0.65238 l -1.07895,1.35495 q -5.19397,6.42347 -8.90753,6.42347 -1.75642,0 -2.96082,-1.25459 -1.1793,-1.27967 -1.1793,-3.18664 0,-4.51649 6.298,-7.95405 3.3121,-1.8066 5.39471,-1.8066 0.9033,0 1.53059,0.55202 0.65238,0.52692 0.65238,1.30476 0,1.8066 -2.35862,3.08628 -2.35861,1.25458 -7.87877,2.35861 -1.70624,2.58444 -1.70624,4.31577 0,2.15788 2.33353,2.15788 3.96448,0 9.71047,-7.75332 0.3011,-0.40147 0.50183,-0.40147 0.10037,0.0251 0.10037,0.15055 z m -2.1077,-4.64195 q 0,-0.80294 -0.87821,-0.80294 -1.32986,0 -3.51283,1.85679 -2.15788,1.83169 -4.24049,4.76741 3.6132,-0.92839 6.12236,-2.60953 2.50917,-1.70623 2.50917,-3.21173 z m 14.55316,4.64195 q 0,0.32619 -3.53793,4.2154 -3.86411,4.2154 -6.57401,4.2154 -1.75641,0 -3.011,-1.32986 -1.25458,-1.35495 -1.25458,-3.21173 0,-2.1077 1.70623,-4.36595 1.70624,-2.25825 4.59178,-3.88921 2.43389,-1.40513 3.96448,-1.40513 1.85678,0 1.85678,2.20807 0,1.73132 -1.17931,3.46265 -1.15422,1.73132 -2.30843,1.73132 -1.12913,0 -1.12913,-1.12913 0,-1.32985 2.30844,-2.45898 1.7815,-0.8782 1.7815,-2.30843 0,-1.12912 -1.22949,-1.12912 -2.0826,0 -5.11869,4.14012 -3.03609,4.14012 -3.03609,6.95039 0,2.35861 2.20806,2.35861 3.46265,0 9.38428,-7.8035 0.32619,-0.40147 0.47674,-0.40147 0.10037,0.0251 0.10037,0.15055 z m 9.25881,-5.77108 -0.20074,0.37638 h -3.287 l -5.59544,9.55992 q -1.02876,1.73132 -1.02876,2.76008 0,1.12912 1.17931,1.12912 2.28334,0 7.70314,-7.95405 0.17564,-0.25092 0.3011,-0.25092 0.15055,0 0.15055,0.15055 -0.0251,0.0753 -0.25092,0.40147 l -1.07894,1.48041 q -4.71723,6.54892 -7.10094,6.54892 -1.17931,0 -1.98224,-0.85312 -0.77784,-0.85312 -0.77784,-2.13279 0,-1.5055 1.32986,-3.76375 l 4.21539,-7.07584 h -2.55934 l 0.25091,-0.37638 h 2.50917 l 2.93572,-4.86778 q 0.75275,0.20074 1.43023,0.20074 0.70256,0 1.45531,-0.20074 l -2.88554,4.86778 z"
         id="text197-1-4"
         style="font-size:51.3877px;font-family:EdwardianScriptITC, 'Edwardian Script ITC';-inkscape-font-specification:'EdwardianScriptITC, Edwardian Script ITC, Normal';fill:url(#linearGradient24);stroke-width:0.186674;filter:url(#filter24)"
         class="g"
         transform="matrix(0.92903078,0,0,1.0763906,-11.112501,-4.2333335)"
         aria-label="about our project" /><path
         d="m 262.30124,569.01283 q 0,0.52692 -3.66338,4.86778 -2.96081,3.56301 -4.66704,3.56301 -1.15422,0 -1.88188,-0.85311 -0.72766,-0.87821 -0.72766,-2.18298 0,-1.35494 0.80294,-2.93572 -2.50917,3.51283 -3.83903,4.74232 -1.32985,1.22949 -2.58444,1.22949 -1.32985,0 -2.23315,-1.12912 -0.9033,-1.15422 -0.9033,-2.88554 0,-4.8176 6.79983,-8.53116 2.98591,-1.65605 4.8176,-1.65605 1.55568,0 1.55568,1.5055 0,0.42656 -0.20073,1.12912 l 1.27968,-2.43389 q 0.75274,0.17564 1.32985,0.17564 0.67748,0 1.75642,-0.17564 l -4.44122,7.35186 q -2.30844,3.86411 -2.30844,5.0936 0,1.17931 0.97858,1.17931 1.00366,0 3.21173,-2.28334 2.20806,-2.30843 4.49141,-5.67071 0.15054,-0.25092 0.276,-0.25092 0.15055,0 0.15055,0.15055 z m -6.9002,-4.16521 q 0,-1.2295 -1.12912,-1.2295 -2.30844,0 -6.07218,4.5165 -3.73866,4.5165 -3.73866,7.30167 0,1.63096 1.45532,1.63096 1.73132,0 5.9969,-5.74599 3.48774,-4.71723 3.48774,-6.47364 z m 20.4246,-13.32367 -11.26615,17.78998 q 2.63462,-3.6132 3.93939,-4.84269 1.30477,-1.22949 2.48407,-1.22949 1.40514,0 2.28334,1.15422 0.9033,1.12912 0.9033,2.86044 0,3.78884 -4.81759,7.45222 -3.58811,2.73499 -6.37328,2.73499 -1.30477,0 -2.13279,-0.97857 -0.80294,-1.00367 -0.80294,-2.58444 0,-1.88187 2.4088,-5.74599 l 10.38795,-16.66085 q 0.67747,0.20073 1.45531,0.20073 0.6022,0 1.53059,-0.15055 z m -3.48774,13.77532 q 0,-1.68115 -1.40513,-1.68115 -1.83169,0 -6.24782,6.04709 -3.3121,4.5165 -3.3121,6.07218 0,1.32986 1.30477,1.32986 2.25825,0 5.94672,-4.49141 3.71356,-4.51649 3.71356,-7.27657 z m 18.39218,3.66338 q 0,0.40146 -1.48041,1.88187 -2.20806,2.20807 -4.06484,2.20807 -0.77784,0 -1.38004,-0.3011 -3.3121,4.69213 -6.22273,4.69213 -1.5055,0 -2.58444,-1.22949 -1.05385,-1.25458 -1.05385,-2.9859 0,-3.86412 5.06851,-7.45222 3.56302,-2.53426 5.87145,-2.53426 2.15788,0 2.15788,2.30843 0,2.88554 -3.03609,6.95039 0.50183,0.3011 1.12912,0.3011 1.12913,0 2.63463,-1.05385 1.5055,-1.05385 2.45898,-2.53426 0.27601,-0.35128 0.40147,-0.35128 0.10036,0 0.10036,0.10037 z m -4.06485,-3.36228 q 0,-2.03243 -1.83169,-2.03243 -2.28334,0 -5.57034,4.36595 -3.28701,4.36595 -3.28701,7.35185 0,1.73133 1.65605,1.73133 2.7099,0 5.92163,-4.46632 -0.72766,-0.80293 -0.72766,-1.65605 0,-1.22949 0.97858,-2.53425 0.97857,-1.30477 1.90696,-1.30477 0.40147,0 0.55202,0.50183 0.40146,-0.8782 0.40146,-1.95714 z m 20.19878,3.41246 q 0,0.57711 -3.63828,4.86778 -3.011,3.56301 -4.76742,3.56301 -1.10403,0 -1.88187,-0.8782 -0.75275,-0.9033 -0.75275,-2.15789 0,-0.97857 0.97857,-2.73499 l -0.50183,0.67748 q -2.30843,2.96081 -3.38737,3.96448 -1.17931,1.12912 -2.23316,1.12912 -1.10403,0 -1.85678,-0.85311 -0.75275,-0.87821 -0.75275,-2.13279 0,-1.45532 1.12912,-3.33719 l 4.56668,-7.67805 q 0.85312,0.17564 1.32986,0.17564 0.47674,0 1.70623,-0.17564 l -5.97181,9.83593 q -0.9033,1.5055 -0.9033,2.65972 0,1.12912 0.95348,1.12912 2.53426,0 8.1297,-9.45955 l 2.45898,-4.16522 q 0.77784,0.17564 1.30477,0.17564 0.62729,0 1.7815,-0.17564 l -4.01466,6.54892 q -2.86045,4.66705 -2.86045,5.99691 0,1.07894 1.02876,1.07894 2.00733,0 6.52383,-6.3231 l 0.77784,-1.07894 0.45165,-0.55201 q 0.12546,-0.25092 0.25091,-0.25092 0.15055,0 0.15055,0.15055 z m 9.25882,-5.77108 -0.20073,0.37637 h -3.28701 l -5.59543,9.55992 q -1.02876,1.73133 -1.02876,2.76009 0,1.12912 1.17931,1.12912 2.28334,0 7.70313,-7.95405 0.17564,-0.25092 0.3011,-0.25092 0.15055,0 0.15055,0.15055 -0.0251,0.0753 -0.25091,0.40147 l -1.07894,1.4804 q -4.71723,6.54892 -7.10094,6.54892 -1.17931,0 -1.98224,-0.85311 -0.77784,-0.85312 -0.77784,-2.13279 0,-1.5055 1.32985,-3.76375 l 4.2154,-7.07585 h -2.55935 l 0.25092,-0.37637 h 2.50916 l 2.93573,-4.86778 q 0.75275,0.20073 1.43022,0.20073 0.70257,0 1.45532,-0.20073 l -2.88554,4.86778 z m 23.1596,5.7209 q 0,0.40146 -1.48041,1.88187 -2.20807,2.20807 -4.06485,2.20807 -0.77784,0 -1.38004,-0.3011 -3.3121,4.69213 -6.22273,4.69213 -1.5055,0 -2.58444,-1.22949 -1.05385,-1.25458 -1.05385,-2.9859 0,-3.86412 5.06852,-7.45222 3.56301,-2.53426 5.87144,-2.53426 2.15788,0 2.15788,2.30843 0,2.88554 -3.03608,6.95039 0.50183,0.3011 1.12912,0.3011 1.12912,0 2.63462,-1.05385 1.5055,-1.05385 2.45898,-2.53426 0.27601,-0.35128 0.40147,-0.35128 0.10037,0 0.10037,0.10037 z m -4.06485,-3.36228 q 0,-2.03243 -1.83169,-2.03243 -2.28334,0 -5.57035,4.36595 -3.287,4.36595 -3.287,7.35185 0,1.73133 1.65605,1.73133 2.70989,0 5.92163,-4.46632 -0.72766,-0.80293 -0.72766,-1.65605 0,-1.22949 0.97857,-2.53425 0.97858,-1.30477 1.90697,-1.30477 0.40146,0 0.55201,0.50183 0.40147,-0.8782 0.40147,-1.95714 z m 20.19878,3.41246 q 0,0.57711 -3.63829,4.86778 -3.011,3.56301 -4.76741,3.56301 -1.10404,0 -1.88188,-0.8782 -0.75275,-0.9033 -0.75275,-2.15789 0,-0.97857 0.97858,-2.73499 l -0.50183,0.67748 q -2.30844,2.96081 -3.38738,3.96448 -1.1793,1.12912 -2.23315,1.12912 -1.10404,0 -1.85679,-0.85311 -0.75275,-0.87821 -0.75275,-2.13279 0,-1.45532 1.12913,-3.33719 l 4.56668,-7.67805 q 0.85311,0.17564 1.32986,0.17564 0.47674,0 1.70623,-0.17564 l -5.97181,9.83593 q -0.9033,1.5055 -0.9033,2.65972 0,1.12912 0.95348,1.12912 2.53426,0 8.12969,-9.45955 l 2.45899,-4.16522 q 0.77784,0.17564 1.30476,0.17564 0.62729,0 1.78151,-0.17564 l -4.01467,6.54892 q -2.86044,4.66705 -2.86044,5.99691 0,1.07894 1.02875,1.07894 2.00734,0 6.52383,-6.3231 l 0.77784,-1.07894 0.45165,-0.55201 q 0.12546,-0.25092 0.25092,-0.25092 0.15055,0 0.15055,0.15055 z m 14.30224,0 q 0,0.20073 -1.5055,1.83169 -1.90696,2.1077 -3.5881,2.1077 -1.90697,0 -1.90697,-2.20807 0,-0.70256 0.3011,-1.7815 -1.58077,1.38004 -2.58444,2.73499 -0.97857,1.35495 -3.41246,5.52016 -1.32986,-0.10037 -1.55569,-0.10037 -0.10036,0 -1.53059,0.10037 l 4.11503,-6.67438 q 3.08628,-5.01833 3.08628,-6.22273 0,-0.70257 -0.57711,-0.70257 -1.40513,0 -5.09361,5.39471 -0.22582,0.35128 -0.40146,0.35128 -0.10037,-0.0251 -0.10037,-0.15055 0.0251,-0.12546 0.10037,-0.20073 l 0.45165,-0.62729 q 3.86411,-5.14379 5.24415,-5.14379 2.00733,0 2.00733,2.58444 0,1.93206 -2.05751,5.1187 1.30476,-1.5055 2.48407,-2.45898 0.95348,-2.23316 2.35862,-3.73866 1.43022,-1.5055 2.55935,-1.5055 0.77784,0 0.77784,0.67747 0,1.2044 -3.48774,3.43756 -0.55202,0.35128 -1.65605,1.02876 l -0.3011,0.25091 q -0.35128,1.15422 -0.35128,1.90697 0,2.1077 1.58077,2.1077 1.95715,0 4.26558,-3.23682 0.50183,-0.55202 0.62729,-0.55202 0.15055,0 0.15055,0.15055 z m 21.00171,-1.75642 q 0,4.08994 -5.09361,7.45222 -4.14012,2.73499 -6.47364,2.73499 -1.60587,0 -1.60587,-1.50549 0,-0.45165 0.25092,-1.2295 l -9.6101,16.03357 q -0.87821,-0.20073 -1.43023,-0.20073 -0.82802,0 -1.63096,0.3011 l 20.60025,-33.87373 q 0.67747,0.22582 1.32986,0.22582 0.67747,0 1.65604,-0.22582 l -7.45222,12.04399 q 2.68481,-3.56301 3.88921,-4.66705 1.22949,-1.10403 2.43389,-1.10403 1.32986,0 2.23316,1.15422 0.9033,1.15421 0.9033,2.86044 z m -1.85679,-2.00733 q 0,-1.63096 -1.45531,-1.63096 -1.83169,0 -6.14746,5.89654 -3.33718,4.56668 -3.33718,6.27292 0,1.27967 1.1793,1.27967 2.30843,0 6.022,-4.49141 3.73865,-4.51649 3.73865,-7.32676 z m 17.84017,3.76375 q 0,0.20073 -1.5055,1.83169 -1.90696,2.1077 -3.5881,2.1077 -1.90697,0 -1.90697,-2.20807 0,-0.70256 0.3011,-1.7815 -1.58077,1.38004 -2.58444,2.73499 -0.97857,1.35495 -3.41246,5.52016 -1.32986,-0.10037 -1.55568,-0.10037 -0.10037,0 -1.53059,0.10037 l 4.11503,-6.67438 q 3.08627,-5.01833 3.08627,-6.22273 0,-0.70257 -0.57711,-0.70257 -1.40513,0 -5.0936,5.39471 -0.22583,0.35128 -0.40147,0.35128 -0.10037,-0.0251 -0.10037,-0.15055 0.0251,-0.12546 0.10037,-0.20073 l 0.45165,-0.62729 q 3.86411,-5.14379 5.24415,-5.14379 2.00734,0 2.00734,2.58444 0,1.93206 -2.05752,5.1187 1.30477,-1.5055 2.48407,-2.45898 0.95349,-2.23316 2.35862,-3.73866 1.43022,-1.5055 2.55935,-1.5055 0.77784,0 0.77784,0.67747 0,1.2044 -3.48774,3.43756 -0.55202,0.35128 -1.65605,1.02876 l -0.3011,0.25091 q -0.35128,1.15422 -0.35128,1.90697 0,2.1077 1.58077,2.1077 1.95715,0 4.26558,-3.23682 0.50183,-0.55202 0.62729,-0.55202 0.15055,0 0.15055,0.15055 z m 14.82916,-0.0502 q 0,0.40146 -1.4804,1.88187 -2.20807,2.20807 -4.06485,2.20807 -0.77784,0 -1.38004,-0.3011 -3.3121,4.69213 -6.22273,4.69213 -1.5055,0 -2.58444,-1.22949 -1.05385,-1.25458 -1.05385,-2.9859 0,-3.86412 5.06851,-7.45222 3.56302,-2.53426 5.87145,-2.53426 2.15788,0 2.15788,2.30843 0,2.88554 -3.03609,6.95039 0.50184,0.3011 1.12913,0.3011 1.12912,0 2.63462,-1.05385 1.5055,-1.05385 2.45898,-2.53426 0.27601,-0.35128 0.40147,-0.35128 0.10036,0 0.10036,0.10037 z m -4.06484,-3.36228 q 0,-2.03243 -1.83169,-2.03243 -2.28334,0 -5.57035,4.36595 -3.28701,4.36595 -3.28701,7.35185 0,1.73133 1.65605,1.73133 2.7099,0 5.92163,-4.46632 -0.72766,-0.80293 -0.72766,-1.65605 0,-1.22949 0.97858,-2.53425 0.97857,-1.30477 1.90696,-1.30477 0.40147,0 0.55202,0.50183 0.40147,-0.8782 0.40147,-1.95714 z m 12.59601,-6.9253 q 0,0.85312 -0.75274,1.58077 -0.72766,0.72766 -1.60587,0.72766 -1.02876,0 -1.02876,-1.07894 0,-0.80293 0.72766,-1.55568 0.75275,-0.75275 1.58077,-0.75275 1.07894,0 1.07894,1.07894 z m -0.70256,10.28758 q 0,0.37637 -2.78517,3.48774 -2.86045,3.21173 -7.80351,5.9969 l -1.27967,2.23316 q -3.88921,6.64928 -7.67805,9.76065 -4.01466,3.287 -6.87511,3.287 -2.55935,0 -2.55935,-2.35861 0,-2.88554 3.88921,-5.92163 2.13279,-1.65605 3.6132,-2.50916 2.28334,-1.30477 7.02566,-3.33719 l 0.35128,-0.17565 4.39104,-7.8035 q 1.83169,-3.18664 4.71723,-8.17988 0.70257,0.17564 1.17931,0.17564 0.70256,0 1.85678,-0.17564 -2.00733,3.26192 -6.07218,10.28758 l -2.30843,4.2154 q 3.23682,-1.8066 5.26925,-3.6132 2.05751,-1.8066 4.44122,-4.96815 0.3011,-0.50183 0.52692,-0.50183 0.0753,0 0.10037,0.10037 z m -14.30224,10.93996 q -7.15112,3.63829 -9.08318,4.96814 -5.24415,3.6132 -5.24415,6.59911 0,0.80293 0.6022,1.32985 0.6022,0.55202 1.50549,0.55202 2.63463,0 5.21907,-2.93572 2.18297,-2.45898 6.69947,-10.01157 z m 26.92333,-10.88978 q 0,0.0753 -0.45165,0.65238 l -1.07894,1.35495 q -5.19397,6.42346 -8.90754,6.42346 -1.75641,0 -2.96081,-1.25458 -1.17931,-1.27967 -1.17931,-3.18664 0,-4.51649 6.29801,-7.95405 3.31209,-1.8066 5.3947,-1.8066 0.9033,0 1.53059,0.55202 0.65238,0.52692 0.65238,1.30476 0,1.8066 -2.35861,3.08628 -2.35862,1.25458 -7.87878,2.35861 -1.70623,2.58444 -1.70623,4.31576 0,2.15789 2.33352,2.15789 3.96448,0 9.71047,-7.75332 0.3011,-0.40147 0.50183,-0.40147 0.10037,0.0251 0.10037,0.15055 z m -2.1077,-4.64196 q 0,-0.80293 -0.87821,-0.80293 -1.32985,0 -3.51283,1.85678 -2.15788,1.83169 -4.24049,4.76742 3.6132,-0.92839 6.12237,-2.60953 2.50916,-1.70624 2.50916,-3.21174 z m 14.55316,4.64196 q 0,0.32619 -3.53792,4.2154 -3.86412,4.21539 -6.57401,4.21539 -1.75642,0 -3.011,-1.32985 -1.25458,-1.35495 -1.25458,-3.21173 0,-2.1077 1.70623,-4.36595 1.70623,-2.25825 4.59177,-3.88921 2.43389,-1.40513 3.96448,-1.40513 1.85678,0 1.85678,2.20807 0,1.73132 -1.1793,3.46264 -1.15422,1.73133 -2.30844,1.73133 -1.12912,0 -1.12912,-1.12913 0,-1.32985 2.30843,-2.45898 1.78151,-0.87821 1.78151,-2.30843 0,-1.12913 -1.22949,-1.12913 -2.08261,0 -5.1187,4.14013 -3.03609,4.14012 -3.03609,6.95038 0,2.35862 2.20807,2.35862 3.46264,0 9.38427,-7.8035 0.32619,-0.40147 0.47674,-0.40147 0.10037,0.0251 0.10037,0.15055 z m 9.25881,-5.77108 -0.20073,0.37637 h -3.28701 l -5.59544,9.55992 q -1.02875,1.73133 -1.02875,2.76009 0,1.12912 1.1793,1.12912 2.28334,0 7.70314,-7.95405 0.17564,-0.25092 0.3011,-0.25092 0.15055,0 0.15055,0.15055 -0.0251,0.0753 -0.25092,0.40147 l -1.07894,1.4804 q -4.71723,6.54892 -7.10093,6.54892 -1.17931,0 -1.98224,-0.85311 -0.77785,-0.85312 -0.77785,-2.13279 0,-1.5055 1.32986,-3.76375 l 4.2154,-7.07585 h -2.55935 l 0.25092,-0.37637 h 2.50916 l 2.93573,-4.86778 q 0.75274,0.20073 1.43022,0.20073 0.70257,0 1.45532,-0.20073 l -2.88554,4.86778 z"
         id="text197-1-8"
         style="font-size:51.3877px;font-family:EdwardianScriptITC, 'Edwardian Script ITC';-inkscape-font-specification:'EdwardianScriptITC, Edwardian Script ITC, Normal';fill:url(#linearGradient22);stroke-width:0.186674;filter:url(#filter22)"
         class="g"
         transform="matrix(0.92903078,0,0,1.0763906,-9.5250005,-7.4083337)"
         aria-label="about our project" /><path
         d="m 251.63068,562.04738 q 0,0.52692 -3.66338,4.86778 -2.96082,3.56301 -4.66705,3.56301 -1.15421,0 -1.88187,-0.85312 -0.72766,-0.8782 -0.72766,-2.18297 0,-1.35495 0.80293,-2.93572 -2.50916,3.51283 -3.83902,4.74232 -1.32986,1.22949 -2.58444,1.22949 -1.32986,0 -2.23316,-1.12912 -0.90329,-1.15422 -0.90329,-2.88554 0,-4.8176 6.79983,-8.53117 2.98591,-1.65604 4.8176,-1.65604 1.55568,0 1.55568,1.5055 0,0.42655 -0.20073,1.12912 l 1.27967,-2.43389 q 0.75275,0.17564 1.32986,0.17564 0.67747,0 1.75642,-0.17564 l -4.44123,7.35185 q -2.30843,3.86412 -2.30843,5.09361 0,1.17931 0.97858,1.17931 1.00366,0 3.21173,-2.28334 2.20806,-2.30844 4.4914,-5.67072 0.15055,-0.25091 0.27601,-0.25091 0.15055,0 0.15055,0.15055 z m -6.9002,-4.16522 q 0,-1.22949 -1.12913,-1.22949 -2.30843,0 -6.07218,4.5165 -3.73865,4.51649 -3.73865,7.30167 0,1.63096 1.45531,1.63096 1.73133,0 5.99691,-5.74599 3.48774,-4.71723 3.48774,-6.47365 z m 20.4246,-13.32366 -11.26615,17.78998 q 2.63462,-3.6132 3.93939,-4.84269 1.30476,-1.22949 2.48407,-1.22949 1.40513,0 2.28334,1.15421 0.9033,1.12913 0.9033,2.86045 0,3.78884 -4.8176,7.45222 -3.5881,2.73499 -6.37328,2.73499 -1.30476,0 -2.13279,-0.97857 -0.80293,-1.00367 -0.80293,-2.58444 0,-1.88188 2.4088,-5.74599 l 10.38794,-16.66086 q 0.67748,0.20074 1.45532,0.20074 0.6022,0 1.53059,-0.15055 z m -3.48774,13.77531 q 0,-1.68114 -1.40513,-1.68114 -1.83169,0 -6.24782,6.04709 -3.3121,4.5165 -3.3121,6.07218 0,1.32986 1.30477,1.32986 2.25824,0 5.94672,-4.49141 3.71356,-4.5165 3.71356,-7.27658 z m 18.39218,3.66338 q 0,0.40147 -1.48041,1.88188 -2.20806,2.20806 -4.06485,2.20806 -0.77784,0 -1.38004,-0.3011 -3.31209,4.69214 -6.22273,4.69214 -1.50549,0 -2.58444,-1.22949 -1.05384,-1.25458 -1.05384,-2.98591 0,-3.86411 5.06851,-7.45222 3.56301,-2.53425 5.87144,-2.53425 2.15789,0 2.15789,2.30843 0,2.88554 -3.03609,6.95038 0.50183,0.3011 1.12912,0.3011 1.12913,0 2.63462,-1.05384 1.5055,-1.05385 2.45899,-2.53426 0.276,-0.35128 0.40146,-0.35128 0.10037,0 0.10037,0.10036 z m -4.06485,-3.36228 q 0,-2.03242 -1.83169,-2.03242 -2.28334,0 -5.57034,4.36594 -3.28701,4.36595 -3.28701,7.35186 0,1.73132 1.65605,1.73132 2.7099,0 5.92163,-4.46631 -0.72766,-0.80293 -0.72766,-1.65605 0,-1.22949 0.97857,-2.53426 0.97858,-1.30476 1.90697,-1.30476 0.40147,0 0.55202,0.50183 0.40146,-0.87821 0.40146,-1.95715 z m 20.19878,3.41247 q 0,0.5771 -3.63829,4.86778 -3.011,3.56301 -4.76741,3.56301 -1.10403,0 -1.88187,-0.87821 -0.75275,-0.9033 -0.75275,-2.15788 0,-0.97857 0.97857,-2.73499 l -0.50183,0.67748 q -2.30843,2.96081 -3.38738,3.96448 -1.1793,1.12912 -2.23315,1.12912 -1.10403,0 -1.85678,-0.85312 -0.75275,-0.8782 -0.75275,-2.13279 0,-1.45531 1.12912,-3.33719 l 4.56668,-7.67804 q 0.85312,0.17564 1.32986,0.17564 0.47674,0 1.70623,-0.17564 l -5.97181,9.83593 q -0.9033,1.5055 -0.9033,2.65971 0,1.12913 0.95348,1.12913 2.53426,0 8.1297,-9.45956 l 2.45898,-4.16521 q 0.77784,0.17564 1.30476,0.17564 0.62729,0 1.78151,-0.17564 l -4.01466,6.54892 q -2.86045,4.66705 -2.86045,5.9969 0,1.07895 1.02876,1.07895 2.00733,0 6.52382,-6.3231 l 0.77785,-1.07894 0.45165,-0.55202 q 0.12545,-0.25091 0.25091,-0.25091 0.15055,0 0.15055,0.15055 z m 9.25882,-5.77108 -0.20073,0.37637 h -3.28701 l -5.59544,9.55992 q -1.02875,1.73132 -1.02875,2.76008 0,1.12913 1.1793,1.12913 2.28334,0 7.70314,-7.95406 0.17564,-0.25091 0.3011,-0.25091 0.15055,0 0.15055,0.15055 -0.0251,0.0753 -0.25092,0.40146 l -1.07894,1.48041 q -4.71723,6.54892 -7.10093,6.54892 -1.17931,0 -1.98224,-0.85312 -0.77785,-0.85311 -0.77785,-2.13279 0,-1.5055 1.32986,-3.76374 l 4.2154,-7.07585 h -2.55935 l 0.25092,-0.37637 h 2.50916 l 2.93572,-4.86778 q 0.75275,0.20073 1.43023,0.20073 0.70257,0 1.45531,-0.20073 l -2.88554,4.86778 z m 23.15959,5.72089 q 0,0.40147 -1.4804,1.88188 -2.20807,2.20806 -4.06485,2.20806 -0.77784,0 -1.38004,-0.3011 -3.3121,4.69214 -6.22273,4.69214 -1.5055,0 -2.58444,-1.22949 -1.05385,-1.25458 -1.05385,-2.98591 0,-3.86411 5.06851,-7.45222 3.56302,-2.53425 5.87145,-2.53425 2.15788,0 2.15788,2.30843 0,2.88554 -3.03609,6.95038 0.50184,0.3011 1.12913,0.3011 1.12912,0 2.63462,-1.05384 1.5055,-1.05385 2.45898,-2.53426 0.27601,-0.35128 0.40147,-0.35128 0.10036,0 0.10036,0.10036 z m -4.06484,-3.36228 q 0,-2.03242 -1.83169,-2.03242 -2.28334,0 -5.57035,4.36594 -3.28701,4.36595 -3.28701,7.35186 0,1.73132 1.65605,1.73132 2.7099,0 5.92163,-4.46631 -0.72766,-0.80293 -0.72766,-1.65605 0,-1.22949 0.97858,-2.53426 0.97857,-1.30476 1.90696,-1.30476 0.40147,0 0.55202,0.50183 0.40147,-0.87821 0.40147,-1.95715 z m 20.19878,3.41247 q 0,0.5771 -3.63829,4.86778 -3.011,3.56301 -4.76742,3.56301 -1.10403,0 -1.88187,-0.87821 -0.75275,-0.9033 -0.75275,-2.15788 0,-0.97857 0.97858,-2.73499 l -0.50184,0.67748 q -2.30843,2.96081 -3.38737,3.96448 -1.17931,1.12912 -2.23316,1.12912 -1.10403,0 -1.85678,-0.85312 -0.75275,-0.8782 -0.75275,-2.13279 0,-1.45531 1.12913,-3.33719 l 4.56668,-7.67804 q 0.85311,0.17564 1.32985,0.17564 0.47674,0 1.70624,-0.17564 l -5.97182,9.83593 q -0.9033,1.5055 -0.9033,2.65971 0,1.12913 0.95349,1.12913 2.53425,0 8.12969,-9.45956 l 2.45898,-4.16521 q 0.77784,0.17564 1.30477,0.17564 0.62729,0 1.78151,-0.17564 l -4.01467,6.54892 q -2.86045,4.66705 -2.86045,5.9969 0,1.07895 1.02876,1.07895 2.00733,0 6.52383,-6.3231 l 0.77784,-1.07894 0.45165,-0.55202 q 0.12546,-0.25091 0.25092,-0.25091 0.15055,0 0.15055,0.15055 z m 14.30224,0 q 0,0.20073 -1.5055,1.83169 -1.90697,2.10769 -3.58811,2.10769 -1.90696,0 -1.90696,-2.20806 0,-0.70257 0.3011,-1.78151 -1.58078,1.38004 -2.58444,2.73499 -0.97858,1.35495 -3.41247,5.52017 -1.32985,-0.10037 -1.55568,-0.10037 -0.10037,0 -1.53059,0.10037 l 4.11503,-6.67438 q 3.08627,-5.01833 3.08627,-6.22273 0,-0.70257 -0.5771,-0.70257 -1.40514,0 -5.09361,5.39471 -0.22582,0.35128 -0.40147,0.35128 -0.10036,-0.0251 -0.10036,-0.15055 0.0251,-0.12546 0.10036,-0.20073 l 0.45165,-0.6273 q 3.86412,-5.14378 5.24416,-5.14378 2.00733,0 2.00733,2.58444 0,1.93205 -2.05751,5.11869 1.30476,-1.5055 2.48407,-2.45898 0.95348,-2.23316 2.35861,-3.73865 1.43023,-1.5055 2.55935,-1.5055 0.77784,0 0.77784,0.67747 0,1.2044 -3.48774,3.43756 -0.55201,0.35128 -1.65604,1.02875 l -0.3011,0.25092 q -0.35129,1.15422 -0.35129,1.90697 0,2.10769 1.58078,2.10769 1.95715,0 4.26558,-3.23682 0.50183,-0.55201 0.62729,-0.55201 0.15055,0 0.15055,0.15055 z m 21.0017,-1.75642 q 0,4.08994 -5.0936,7.45222 -4.14012,2.73499 -6.47365,2.73499 -1.60586,0 -1.60586,-1.5055 0,-0.45165 0.25091,-1.22949 l -9.6101,16.03356 q -0.87821,-0.20073 -1.43022,-0.20073 -0.82803,0 -1.63096,0.3011 l 20.60025,-33.87373 q 0.67747,0.22583 1.32985,0.22583 0.67748,0 1.65605,-0.22583 l -7.45222,12.044 q 2.68481,-3.56302 3.88921,-4.66705 1.22949,-1.10403 2.43389,-1.10403 1.32986,0 2.23315,1.15421 0.9033,1.15422 0.9033,2.86045 z m -1.85678,-2.00733 q 0,-1.63096 -1.45531,-1.63096 -1.83169,0 -6.14746,5.89654 -3.33719,4.56668 -3.33719,6.27291 0,1.27968 1.17931,1.27968 2.30843,0 6.022,-4.49141 3.73865,-4.5165 3.73865,-7.32676 z m 17.84017,3.76375 q 0,0.20073 -1.5055,1.83169 -1.90696,2.10769 -3.5881,2.10769 -1.90697,0 -1.90697,-2.20806 0,-0.70257 0.3011,-1.78151 -1.58077,1.38004 -2.58444,2.73499 -0.97857,1.35495 -3.41246,5.52017 -1.32986,-0.10037 -1.55569,-0.10037 -0.10036,0 -1.53059,0.10037 l 4.11503,-6.67438 q 3.08628,-5.01833 3.08628,-6.22273 0,-0.70257 -0.57711,-0.70257 -1.40513,0 -5.09361,5.39471 -0.22582,0.35128 -0.40146,0.35128 -0.10037,-0.0251 -0.10037,-0.15055 0.0251,-0.12546 0.10037,-0.20073 l 0.45165,-0.6273 q 3.86411,-5.14378 5.24415,-5.14378 2.00733,0 2.00733,2.58444 0,1.93205 -2.05751,5.11869 1.30476,-1.5055 2.48407,-2.45898 0.95348,-2.23316 2.35862,-3.73865 1.43022,-1.5055 2.55934,-1.5055 0.77785,0 0.77785,0.67747 0,1.2044 -3.48774,3.43756 -0.55202,0.35128 -1.65605,1.02875 l -0.3011,0.25092 q -0.35129,1.15422 -0.35129,1.90697 0,2.10769 1.58078,2.10769 1.95715,0 4.26558,-3.23682 0.50183,-0.55201 0.62729,-0.55201 0.15055,0 0.15055,0.15055 z m 14.82916,-0.0502 q 0,0.40147 -1.48041,1.88188 -2.20806,2.20806 -4.06484,2.20806 -0.77784,0 -1.38004,-0.3011 -3.3121,4.69214 -6.22273,4.69214 -1.5055,0 -2.58444,-1.22949 -1.05385,-1.25458 -1.05385,-2.98591 0,-3.86411 5.06851,-7.45222 3.56302,-2.53425 5.87145,-2.53425 2.15788,0 2.15788,2.30843 0,2.88554 -3.03609,6.95038 0.50183,0.3011 1.12912,0.3011 1.12913,0 2.63463,-1.05384 1.5055,-1.05385 2.45898,-2.53426 0.27601,-0.35128 0.40147,-0.35128 0.10036,0 0.10036,0.10036 z m -4.06485,-3.36228 q 0,-2.03242 -1.83169,-2.03242 -2.28334,0 -5.57034,4.36594 -3.28701,4.36595 -3.28701,7.35186 0,1.73132 1.65605,1.73132 2.7099,0 5.92163,-4.46631 -0.72766,-0.80293 -0.72766,-1.65605 0,-1.22949 0.97858,-2.53426 0.97857,-1.30476 1.90696,-1.30476 0.40147,0 0.55202,0.50183 0.40146,-0.87821 0.40146,-1.95715 z m 12.59602,-6.92529 q 0,0.85311 -0.75275,1.58077 -0.72766,0.72766 -1.60586,0.72766 -1.02876,0 -1.02876,-1.07894 0,-0.80294 0.72766,-1.55569 0.75275,-0.75275 1.58077,-0.75275 1.07894,0 1.07894,1.07895 z m -0.70256,10.28757 q 0,0.37638 -2.78518,3.48774 -2.86045,3.21173 -7.8035,5.99691 l -1.27967,2.23315 q -3.88921,6.64929 -7.67805,9.76065 -4.01466,3.28701 -6.87511,3.28701 -2.55935,0 -2.55935,-2.35861 0,-2.88554 3.88921,-5.92163 2.13279,-1.65605 3.61319,-2.50917 2.28334,-1.30476 7.02567,-3.33719 l 0.35128,-0.17564 4.39104,-7.8035 q 1.83169,-3.18664 4.71723,-8.17988 0.70256,0.17564 1.17931,0.17564 0.70256,0 1.85678,-0.17564 -2.00733,3.26191 -6.07218,10.28758 l -2.30843,4.21539 q 3.23682,-1.8066 5.26924,-3.61319 2.05752,-1.8066 4.44122,-4.96815 0.3011,-0.50183 0.52693,-0.50183 0.0753,0 0.10037,0.10036 z m -14.30224,10.93996 q -7.15112,3.63829 -9.08318,4.96815 -5.24416,3.6132 -5.24416,6.5991 0,0.80294 0.6022,1.32986 0.6022,0.55202 1.5055,0.55202 2.63463,0 5.21907,-2.93573 2.18297,-2.45898 6.69947,-10.01157 z m 26.92333,-10.88977 q 0,0.0753 -0.45165,0.65238 l -1.07894,1.35495 q -5.19397,6.42346 -8.90754,6.42346 -1.75641,0 -2.96081,-1.25458 -1.17931,-1.27968 -1.17931,-3.18664 0,-4.5165 6.298,-7.95406 3.3121,-1.80659 5.39471,-1.80659 0.9033,0 1.53059,0.55201 0.65238,0.52693 0.65238,1.30477 0,1.8066 -2.35861,3.08627 -2.35862,1.25458 -7.87878,2.35862 -1.70623,2.58444 -1.70623,4.31576 0,2.15788 2.33352,2.15788 3.96448,0 9.71047,-7.75332 0.3011,-0.40146 0.50183,-0.40146 0.10037,0.0251 0.10037,0.15055 z m -2.1077,-4.64196 q 0,-0.80293 -0.87821,-0.80293 -1.32986,0 -3.51283,1.85678 -2.15788,1.83169 -4.24049,4.76741 3.6132,-0.92839 6.12236,-2.60953 2.50917,-1.70623 2.50917,-3.21173 z m 14.55316,4.64196 q 0,0.32619 -3.53792,4.21539 -3.86412,4.2154 -6.57402,4.2154 -1.75641,0 -3.01099,-1.32986 -1.25459,-1.35495 -1.25459,-3.21173 0,-2.1077 1.70624,-4.36595 1.70623,-2.25824 4.59177,-3.8892 2.43389,-1.40513 3.96448,-1.40513 1.85678,0 1.85678,2.20806 0,1.73133 -1.17931,3.46265 -1.15421,1.73132 -2.30843,1.73132 -1.12912,0 -1.12912,-1.12912 0,-1.32986 2.30843,-2.45898 1.78151,-0.87821 1.78151,-2.30843 0,-1.12913 -1.2295,-1.12913 -2.0826,0 -5.11869,4.14012 -3.03609,4.14013 -3.03609,6.95039 0,2.35862 2.20806,2.35862 3.46265,0 9.38428,-7.80351 0.32619,-0.40146 0.47674,-0.40146 0.10037,0.0251 0.10037,0.15055 z m 9.25881,-5.77108 -0.20073,0.37637 h -3.28701 l -5.59544,9.55992 q -1.02876,1.73132 -1.02876,2.76008 0,1.12913 1.17931,1.12913 2.28334,0 7.70314,-7.95406 0.17564,-0.25091 0.3011,-0.25091 0.15055,0 0.15055,0.15055 -0.0251,0.0753 -0.25092,0.40146 l -1.07894,1.48041 q -4.71723,6.54892 -7.10094,6.54892 -1.1793,0 -1.98224,-0.85312 -0.77784,-0.85311 -0.77784,-2.13279 0,-1.5055 1.32986,-3.76374 l 4.2154,-7.07585 h -2.55935 l 0.25091,-0.37637 h 2.50917 l 2.93572,-4.86778 q 0.75275,0.20073 1.43023,0.20073 0.70256,0 1.45531,-0.20073 l -2.88554,4.86778 z"
         id="text197-1"
         style="font-size:51.3877px;font-family:EdwardianScriptITC, 'Edwardian Script ITC';-inkscape-font-specification:'EdwardianScriptITC, Edwardian Script ITC, Normal';fill:#ffffff;stroke-width:0.186674"
         class="g"
         transform="scale(0.92903078,1.0763906)"
         aria-label="about our project" /></g></g></svg>
