<?xml version="1.0" encoding="UTF-8" standalone="no"?>
<!-- Created with Inkscape (http://www.inkscape.org/) -->

<svg
   width="21.392525mm"
   height="5.0974259mm"
   viewBox="0 0 21.392525 5.0974259"
   version="1.1"
   id="svg1"
   xml:space="preserve"
   xmlns:inkscape="http://www.inkscape.org/namespaces/inkscape"
   xmlns:sodipodi="http://sodipodi.sourceforge.net/DTD/sodipodi-0.dtd"
   xmlns:xlink="http://www.w3.org/1999/xlink"
   xmlns="http://www.w3.org/2000/svg"
   xmlns:svg="http://www.w3.org/2000/svg"><sodipodi:namedview
     id="namedview1"
     pagecolor="#505050"
     bordercolor="#eeeeee"
     borderopacity="1"
     inkscape:showpageshadow="0"
     inkscape:pageopacity="0"
     inkscape:pagecheckerboard="0"
     inkscape:deskcolor="#505050"
     inkscape:document-units="mm"><inkscape:page
       x="0"
       y="1.1205541e-22"
       width="21.392525"
       height="5.0974259"
       id="page2"
       margin="0"
       bleed="0" /></sodipodi:namedview><defs
     id="defs1"><style
       id="style1">.e{fill:#662d91;}.f{fill:#0071bc;}.g{fill:url(#d);}.h{fill:#93278f;}.i{opacity:.77;}.j{font-family:Consolas, Consolas;font-size:31px;}</style><style
       id="style1-2">.e,.f,.g{font-family:Consolas, Consolas;}.h{fill:#662d91;}.i{fill:#0071bc;}.j{fill:url(#d);}.f,.k{fill:#fff;}.f,.k,.g{font-size:31px;}.l{font-family:Calibri-Light, Calibri;}.m{fill:#93278f;}.n{opacity:.77;}</style><style
       id="style1-6">.e,.f,.g{font-family:Consolas, Consolas;}.h{fill:#662d91;}.i{fill:#0071bc;}.j{fill:url(#d);}.f,.k{fill:#fff;}.f,.k,.g{font-size:31px;}.l{font-family:Calibri-Light, Calibri;}.m{fill:#93278f;}.n{opacity:.77;}</style><style
       id="style1-4">.e{fill:#662d91;}.f{fill:#0071bc;}.g{fill:url(#d);}.h{fill:#93278f;}.i{opacity:.77;}.j{font-family:Consolas, Consolas;font-size:31px;}</style><style
       id="style1-5">.cls-1{fill:#101010;}</style><linearGradient
       id="linearGradient71"
       inkscape:collect="always"><stop
         style="stop-color:#2c8bd1;stop-opacity:1;"
         offset="0"
         id="stop70" /><stop
         style="stop-color:#8379b9;stop-opacity:1;"
         offset="0.485623"
         id="stop72" /><stop
         style="stop-color:#df67a1;stop-opacity:1;"
         offset="0.9936102"
         id="stop71" /></linearGradient><style
       id="style1-51">.e{fill:#662d91;}.f{fill:#0071bc;}.g{fill:url(#d);}.h{fill:#93278f;}.i{opacity:.77;}.j{font-family:Consolas, Consolas;font-size:31px;}</style><style
       id="style1-2-2">.e,.f,.g{font-family:Consolas, Consolas;}.h{fill:#662d91;}.i{fill:#0071bc;}.j{fill:url(#d);}.f,.k{fill:#fff;}.f,.k,.g{font-size:31px;}.l{font-family:Calibri-Light, Calibri;}.m{fill:#93278f;}.n{opacity:.77;}</style><style
       id="style1-6-2">.e,.f,.g{font-family:Consolas, Consolas;}.h{fill:#662d91;}.i{fill:#0071bc;}.j{fill:url(#d);}.f,.k{fill:#fff;}.f,.k,.g{font-size:31px;}.l{font-family:Calibri-Light, Calibri;}.m{fill:#93278f;}.n{opacity:.77;}</style><style
       id="style1-4-2">.e{fill:#662d91;}.f{fill:#0071bc;}.g{fill:url(#d);}.h{fill:#93278f;}.i{opacity:.77;}.j{font-family:Consolas, Consolas;font-size:31px;}</style><style
       id="style1-5-6">.cls-1{fill:#101010;}</style><linearGradient
       inkscape:collect="always"
       xlink:href="#linearGradient71"
       id="linearGradient73"
       gradientUnits="userSpaceOnUse"
       x1="210.48405"
       y1="11.174063"
       x2="295.00546"
       y2="11.174063"
       gradientTransform="matrix(1.0865563,0,0,1.0865563,-177.10734,26.684283)" /></defs><g
     inkscape:label="Layer 1"
     inkscape:groupmode="layer"
     id="layer1"
     transform="translate(158.59835,-25.232537)"><path
       d="m -154.40046,30.261642 h -0.73633 l -0.3454,-1.081732 h -2.06478 l -0.34919,1.081732 h -0.70218 l 1.64727,-4.960786 h 0.92612 z m -1.2753,-1.685225 -0.83882,-2.65309 -0.83881,2.65309 z m 5.26652,0.201165 q 0,0.356782 -0.14043,0.633857 -0.13664,0.27328 -0.39474,0.463057 -0.2543,0.189778 -0.61867,0.288462 -0.36058,0.09868 -0.80466,0.09868 h -1.29808 v -4.960786 h 1.41954 q 1.65865,0 1.65865,1.206986 0,0.402328 -0.19357,0.69079 -0.18978,0.288462 -0.62247,0.428897 0.20116,0.03796 0.37955,0.129049 0.18219,0.09109 0.31883,0.235324 0.13664,0.144231 0.21635,0.3416 0.0797,0.197369 0.0797,0.44408 z m -0.88056,-2.178647 q 0,-0.151822 -0.0455,-0.284666 -0.0455,-0.13664 -0.15941,-0.231529 -0.11387,-0.09868 -0.30744,-0.155618 -0.19358,-0.05693 -0.48963,-0.05693 h -0.69838 v 1.552381 h 0.67561 q 0.23153,0 0.41751,-0.04934 0.18977,-0.04934 0.32262,-0.151823 0.13664,-0.102479 0.20875,-0.254302 0.0759,-0.155617 0.0759,-0.368168 z m 0.1632,2.20142 q 0,-0.189778 -0.0797,-0.3416 -0.0797,-0.151822 -0.23153,-0.254302 -0.15182,-0.106275 -0.37197,-0.163208 -0.21634,-0.05693 -0.48962,-0.05693 h -0.69079 v 1.707999 h 0.71356 q 0.58072,0 0.86539,-0.216347 0.28466,-0.216346 0.28466,-0.675608 z m 5.29689,-1.051368 q 0,0.668017 -0.15941,1.153848 -0.15562,0.485831 -0.4251,0.804657 -0.26569,0.315031 -0.62627,0.470648 -0.35678,0.151822 -0.75531,0.151822 -0.47824,0 -0.83502,-0.170799 -0.35299,-0.174596 -0.58831,-0.501013 -0.23153,-0.326418 -0.3454,-0.793271 -0.11387,-0.470648 -0.11387,-1.058959 0,-0.660426 0.15562,-1.146256 0.15562,-0.485831 0.42131,-0.800862 0.26948,-0.318826 0.62626,-0.470648 0.35679,-0.155618 0.75532,-0.155618 0.47824,0 0.83122,0.174596 0.35679,0.174595 0.59211,0.501013 0.23532,0.322621 0.34919,0.789474 0.11766,0.466853 0.11766,1.051368 z m -0.70217,0.04934 q 0,-0.436488 -0.0683,-0.797066 -0.0645,-0.364373 -0.21255,-0.626266 -0.14803,-0.261893 -0.38336,-0.406124 -0.23152,-0.144231 -0.56174,-0.144231 -0.31882,0 -0.55035,0.155618 -0.22774,0.151822 -0.37576,0.417511 -0.14803,0.261893 -0.22014,0.618675 -0.0721,0.352986 -0.0721,0.751519 0,0.440284 0.0683,0.804657 0.0683,0.360577 0.21255,0.62247 0.14803,0.258098 0.37956,0.402329 0.23153,0.144231 0.55794,0.144231 0.31883,0 0.55036,-0.151822 0.23153,-0.155618 0.37955,-0.417511 0.15182,-0.265689 0.22394,-0.618675 0.0721,-0.352986 0.0721,-0.755315 z m 4.87178,0.736337 q 0,0.40992 -0.11766,0.743929 -0.11387,0.330213 -0.3378,0.565537 -0.22394,0.231528 -0.55036,0.360577 -0.32262,0.125253 -0.74393,0.125253 -0.46305,0 -0.78568,-0.121457 -0.32262,-0.121458 -0.52758,-0.3416 -0.20116,-0.223937 -0.29605,-0.535173 -0.0911,-0.311235 -0.0911,-0.694586 v -3.33629 h 0.6756 v 3.283153 q 0,0.292257 0.0531,0.512399 0.0569,0.220142 0.18219,0.368169 0.12525,0.148026 0.32262,0.223937 0.20117,0.07591 0.48963,0.07591 0.53897,0 0.79327,-0.311235 0.25809,-0.311235 0.25809,-0.876773 v -3.275561 h 0.67561 z m 4.45428,-2.656886 h -1.46888 v 4.383862 h -0.6832 v -4.38386 h -1.46888 v -0.576924 h 3.62096 z"
       id="AboutButton"
       style="font-size:7.77329px;font-family:Consolas, Consolas;-inkscape-font-specification:'Consolas, Consolas, Normal';letter-spacing:0.0969831px;word-spacing:0.0300983px;fill:url(#linearGradient73);fill-opacity:0.952038;stroke-width:26.2905;stroke-opacity:0.612903"
       aria-label="ABOUT"
       inkscape:export-filename="AboutButton.svg"
       inkscape:export-xdpi="96"
       inkscape:export-ydpi="96" /></g></svg>
