<?xml version="1.0" encoding="UTF-8" standalone="no"?>
<!-- Created with Inkscape (http://www.inkscape.org/) -->

<svg
   width="62.60548mm"
   height="6.3890805mm"
   viewBox="0 0 62.60548 6.3890805"
   version="1.1"
   id="svg1"
   xml:space="preserve"
   xmlns:inkscape="http://www.inkscape.org/namespaces/inkscape"
   xmlns:sodipodi="http://sodipodi.sourceforge.net/DTD/sodipodi-0.dtd"
   xmlns:xlink="http://www.w3.org/1999/xlink"
   xmlns="http://www.w3.org/2000/svg"
   xmlns:svg="http://www.w3.org/2000/svg"><sodipodi:namedview
     id="namedview1"
     pagecolor="#505050"
     bordercolor="#eeeeee"
     borderopacity="1"
     inkscape:showpageshadow="0"
     inkscape:pageopacity="0"
     inkscape:pagecheckerboard="0"
     inkscape:deskcolor="#505050"
     inkscape:document-units="mm"><inkscape:page
       x="0"
       y="0"
       width="62.60548"
       height="6.3890805"
       id="page2"
       margin="0"
       bleed="0" /></sodipodi:namedview><defs
     id="defs1"><style
       id="style1">.e{fill:#662d91;}.f{fill:#0071bc;}.g{fill:url(#d);}.h{fill:#93278f;}.i{opacity:.77;}.j{font-family:Consolas, Consolas;font-size:31px;}</style><style
       id="style1-2">.e,.f,.g{font-family:Consolas, Consolas;}.h{fill:#662d91;}.i{fill:#0071bc;}.j{fill:url(#d);}.f,.k{fill:#fff;}.f,.k,.g{font-size:31px;}.l{font-family:Calibri-Light, Calibri;}.m{fill:#93278f;}.n{opacity:.77;}</style><style
       id="style1-6">.e,.f,.g{font-family:Consolas, Consolas;}.h{fill:#662d91;}.i{fill:#0071bc;}.j{fill:url(#d);}.f,.k{fill:#fff;}.f,.k,.g{font-size:31px;}.l{font-family:Calibri-Light, Calibri;}.m{fill:#93278f;}.n{opacity:.77;}</style><style
       id="style1-4">.e{fill:#662d91;}.f{fill:#0071bc;}.g{fill:url(#d);}.h{fill:#93278f;}.i{opacity:.77;}.j{font-family:Consolas, Consolas;font-size:31px;}</style><style
       id="style1-5">.cls-1{fill:#101010;}</style><style
       id="style1-51">.e{fill:#662d91;}.f{fill:#0071bc;}.g{fill:url(#d);}.h{fill:#93278f;}.i{opacity:.77;}.j{font-family:Consolas, Consolas;font-size:31px;}</style><style
       id="style1-2-2">.e,.f,.g{font-family:Consolas, Consolas;}.h{fill:#662d91;}.i{fill:#0071bc;}.j{fill:url(#d);}.f,.k{fill:#fff;}.f,.k,.g{font-size:31px;}.l{font-family:Calibri-Light, Calibri;}.m{fill:#93278f;}.n{opacity:.77;}</style><style
       id="style1-6-2">.e,.f,.g{font-family:Consolas, Consolas;}.h{fill:#662d91;}.i{fill:#0071bc;}.j{fill:url(#d);}.f,.k{fill:#fff;}.f,.k,.g{font-size:31px;}.l{font-family:Calibri-Light, Calibri;}.m{fill:#93278f;}.n{opacity:.77;}</style><style
       id="style1-4-2">.e{fill:#662d91;}.f{fill:#0071bc;}.g{fill:url(#d);}.h{fill:#93278f;}.i{opacity:.77;}.j{font-family:Consolas, Consolas;font-size:31px;}</style><style
       id="style1-5-6">.cls-1{fill:#101010;}</style><style
       id="style1-3">.e{fill:#662d91;}.f{fill:#0071bc;}.g{fill:url(#d);}.h{fill:#93278f;}.i{opacity:.77;}.j{font-family:Consolas, Consolas;font-size:31px;}</style><style
       id="style1-2-4">.e,.f,.g{font-family:Consolas, Consolas;}.h{fill:#662d91;}.i{fill:#0071bc;}.j{fill:url(#d);}.f,.k{fill:#fff;}.f,.k,.g{font-size:31px;}.l{font-family:Calibri-Light, Calibri;}.m{fill:#93278f;}.n{opacity:.77;}</style><style
       id="style1-6-0">.e,.f,.g{font-family:Consolas, Consolas;}.h{fill:#662d91;}.i{fill:#0071bc;}.j{fill:url(#d);}.f,.k{fill:#fff;}.f,.k,.g{font-size:31px;}.l{font-family:Calibri-Light, Calibri;}.m{fill:#93278f;}.n{opacity:.77;}</style><style
       id="style1-4-0">.e{fill:#662d91;}.f{fill:#0071bc;}.g{fill:url(#d);}.h{fill:#93278f;}.i{opacity:.77;}.j{font-family:Consolas, Consolas;font-size:31px;}</style><style
       id="style1-5-5">.cls-1{fill:#101010;}</style><style
       id="style1-50">.f{font-family:EdwardianScriptITC, Edwardian Script ITC;font-size:355px;}.f,.g,.h{fill:#fff;}.i{fill:#662d91;}.j{stroke-width:3px;}.j,.k,.l,.m{fill:none;}.j,.k,.m{stroke:#fff;stroke-miterlimit:10;}.k{stroke-width:2px;}.n{fill:#0071bc;}.o{fill:url(#d);}.p{fill:url(#e);}.h,.q{font-family:Consolas, Consolas;font-size:31px;}.r{opacity:.69;}.r,.s{fill:#29abe2;}.t{fill:#93278f;}.m{stroke-width:4px;}.u{opacity:.77;}</style><style
       id="style1-3-0">.f{opacity:.83;}.g{font-family:EdwardianScriptITC, Edwardian Script ITC;font-size:249.87px;}.g,.h{fill:#fff;}.i{fill:#662d91;}.j{stroke-width:3px;}.j,.k{fill:none;stroke:#fff;stroke-miterlimit:10;}.l{fill:#0071bc;}.m{fill:url(#d);}.n{fill:url(#e);}.h,.o{font-family:Consolas, Consolas;font-size:31px;}.p{opacity:.69;}.p,.q{fill:#29abe2;}.r{fill:#93278f;}.k{stroke-width:4px;}</style><style
       id="style1-2-45">.f{opacity:.83;}.g{font-family:EdwardianScriptITC, Edwardian Script ITC;font-size:275.28px;}.g,.h{fill:#fff;}.i{fill:#662d91;}.j{stroke-width:2px;}.j,.k{fill:none;stroke:#fff;stroke-miterlimit:10;}.l{fill:#0071bc;}.m{fill:url(#d);}.n{fill:url(#e);}.h,.o{font-family:Consolas, Consolas;font-size:31px;}.p{opacity:.69;}.p,.q{fill:#29abe2;}.r{fill:#93278f;}.k{stroke-width:4px;}</style><style
       id="style1-68">.e{fill:#662d91;}.f{fill:#0071bc;}.g{fill:url(#d);}.h{fill:#93278f;}.i{opacity:.77;}.j{font-family:Consolas, Consolas;font-size:31px;}</style><style
       id="style1-2-3">.e,.f,.g{font-family:Consolas, Consolas;}.h{fill:#662d91;}.i{fill:#0071bc;}.j{fill:url(#d);}.f,.k{fill:#fff;}.f,.k,.g{font-size:31px;}.l{font-family:Calibri-Light, Calibri;}.m{fill:#93278f;}.n{opacity:.77;}</style><style
       id="style1-6-1">.e,.f,.g{font-family:Consolas, Consolas;}.h{fill:#662d91;}.i{fill:#0071bc;}.j{fill:url(#d);}.f,.k{fill:#fff;}.f,.k,.g{font-size:31px;}.l{font-family:Calibri-Light, Calibri;}.m{fill:#93278f;}.n{opacity:.77;}</style><style
       id="style1-4-4">.e{fill:#662d91;}.f{fill:#0071bc;}.g{fill:url(#d);}.h{fill:#93278f;}.i{opacity:.77;}.j{font-family:Consolas, Consolas;font-size:31px;}</style><style
       id="style1-5-8">.cls-1{fill:#101010;}</style><style
       id="style1-8">.f{font-family:EdwardianScriptITC, Edwardian Script ITC;font-size:355px;}.f,.g,.h{fill:#fff;}.i{fill:#662d91;}.j{stroke-width:3px;}.j,.k,.l,.m{fill:none;}.j,.k,.m{stroke:#fff;stroke-miterlimit:10;}.k{stroke-width:2px;}.n{fill:#0071bc;}.o{fill:url(#d);}.p{fill:url(#e);}.h,.q{font-family:Consolas, Consolas;font-size:31px;}.r{opacity:.69;}.r,.s{fill:#29abe2;}.t{fill:#93278f;}.m{stroke-width:4px;}.u{opacity:.77;}</style><style
       id="style1-3-4">.f{opacity:.83;}.g{font-family:EdwardianScriptITC, Edwardian Script ITC;font-size:249.87px;}.g,.h{fill:#fff;}.i{fill:#662d91;}.j{stroke-width:3px;}.j,.k{fill:none;stroke:#fff;stroke-miterlimit:10;}.l{fill:#0071bc;}.m{fill:url(#d);}.n{fill:url(#e);}.h,.o{font-family:Consolas, Consolas;font-size:31px;}.p{opacity:.69;}.p,.q{fill:#29abe2;}.r{fill:#93278f;}.k{stroke-width:4px;}</style><style
       id="style1-2-9">.f{opacity:.83;}.g{font-family:EdwardianScriptITC, Edwardian Script ITC;font-size:275.28px;}.g,.h{fill:#fff;}.i{fill:#662d91;}.j{stroke-width:2px;}.j,.k{fill:none;stroke:#fff;stroke-miterlimit:10;}.l{fill:#0071bc;}.m{fill:url(#d);}.n{fill:url(#e);}.h,.o{font-family:Consolas, Consolas;font-size:31px;}.p{opacity:.69;}.p,.q{fill:#29abe2;}.r{fill:#93278f;}.k{stroke-width:4px;}</style><style
       id="style1-9">.f{font-family:EdwardianScriptITC, Edwardian Script ITC;font-size:355px;}.f,.g,.h{fill:#fff;}.i{fill:#662d91;}.j{stroke-width:3px;}.j,.k,.l,.m{fill:none;}.j,.k,.m{stroke:#fff;stroke-miterlimit:10;}.k{stroke-width:2px;}.n{fill:#0071bc;}.o{fill:url(#d);}.p{fill:url(#e);}.h,.q{font-family:Consolas, Consolas;font-size:31px;}.r{opacity:.69;}.r,.s{fill:#29abe2;}.t{fill:#93278f;}.m{stroke-width:4px;}.u{opacity:.77;}</style><style
       id="style1-3-8">.f{opacity:.83;}.g{font-family:EdwardianScriptITC, Edwardian Script ITC;font-size:249.87px;}.g,.h{fill:#fff;}.i{fill:#662d91;}.j{stroke-width:3px;}.j,.k{fill:none;stroke:#fff;stroke-miterlimit:10;}.l{fill:#0071bc;}.m{fill:url(#d);}.n{fill:url(#e);}.h,.o{font-family:Consolas, Consolas;font-size:31px;}.p{opacity:.69;}.p,.q{fill:#29abe2;}.r{fill:#93278f;}.k{stroke-width:4px;}</style><style
       id="style1-2-30">.f{opacity:.83;}.g{font-family:EdwardianScriptITC, Edwardian Script ITC;font-size:275.28px;}.g,.h{fill:#fff;}.i{fill:#662d91;}.j{stroke-width:2px;}.j,.k{fill:none;stroke:#fff;stroke-miterlimit:10;}.l{fill:#0071bc;}.m{fill:url(#d);}.n{fill:url(#e);}.h,.o{font-family:Consolas, Consolas;font-size:31px;}.p{opacity:.69;}.p,.q{fill:#29abe2;}.r{fill:#93278f;}.k{stroke-width:4px;}</style><style
       id="style1-30">.f{font-family:EdwardianScriptITC, Edwardian Script ITC;font-size:355px;}.f,.g,.h{fill:#fff;}.i{fill:#662d91;}.j{stroke-width:3px;}.j,.k,.l,.m{fill:none;}.j,.k,.m{stroke:#fff;stroke-miterlimit:10;}.k{stroke-width:2px;}.n{fill:#0071bc;}.o{fill:url(#d);}.p{fill:url(#e);}.h,.q{font-family:Consolas, Consolas;font-size:31px;}.r{opacity:.69;}.r,.s{fill:#29abe2;}.t{fill:#93278f;}.m{stroke-width:4px;}.u{opacity:.77;}</style><style
       id="style1-3-04">.f{opacity:.83;}.g{font-family:EdwardianScriptITC, Edwardian Script ITC;font-size:249.87px;}.g,.h{fill:#fff;}.i{fill:#662d91;}.j{stroke-width:3px;}.j,.k{fill:none;stroke:#fff;stroke-miterlimit:10;}.l{fill:#0071bc;}.m{fill:url(#d);}.n{fill:url(#e);}.h,.o{font-family:Consolas, Consolas;font-size:31px;}.p{opacity:.69;}.p,.q{fill:#29abe2;}.r{fill:#93278f;}.k{stroke-width:4px;}</style><style
       id="style1-2-8">.f{opacity:.83;}.g{font-family:EdwardianScriptITC, Edwardian Script ITC;font-size:275.28px;}.g,.h{fill:#fff;}.i{fill:#662d91;}.j{stroke-width:2px;}.j,.k{fill:none;stroke:#fff;stroke-miterlimit:10;}.l{fill:#0071bc;}.m{fill:url(#d);}.n{fill:url(#e);}.h,.o{font-family:Consolas, Consolas;font-size:31px;}.p{opacity:.69;}.p,.q{fill:#29abe2;}.r{fill:#93278f;}.k{stroke-width:4px;}</style><style
       id="style1-57">.f{font-family:EdwardianScriptITC, Edwardian Script ITC;font-size:355px;}.f,.g,.h{fill:#fff;}.i{fill:#662d91;}.j{stroke-width:3px;}.j,.k,.l,.m{fill:none;}.j,.k,.m{stroke:#fff;stroke-miterlimit:10;}.k{stroke-width:2px;}.n{fill:#0071bc;}.o{fill:url(#d);}.p{fill:url(#e);}.h,.q{font-family:Consolas, Consolas;font-size:31px;}.r{opacity:.69;}.r,.s{fill:#29abe2;}.t{fill:#93278f;}.m{stroke-width:4px;}.u{opacity:.77;}</style><style
       id="style1-3-7">.f{opacity:.83;}.g{font-family:EdwardianScriptITC, Edwardian Script ITC;font-size:249.87px;}.g,.h{fill:#fff;}.i{fill:#662d91;}.j{stroke-width:3px;}.j,.k{fill:none;stroke:#fff;stroke-miterlimit:10;}.l{fill:#0071bc;}.m{fill:url(#d);}.n{fill:url(#e);}.h,.o{font-family:Consolas, Consolas;font-size:31px;}.p{opacity:.69;}.p,.q{fill:#29abe2;}.r{fill:#93278f;}.k{stroke-width:4px;}</style><style
       id="style1-47">.f{font-family:EdwardianScriptITC, Edwardian Script ITC;font-size:355px;}.f,.g,.h{fill:#fff;}.i{fill:#662d91;}.j{stroke-width:3px;}.j,.k,.l,.m{fill:none;}.j,.k,.m{stroke:#fff;stroke-miterlimit:10;}.k{stroke-width:2px;}.n{fill:#0071bc;}.o{fill:url(#d);}.p{fill:url(#e);}.h,.q{font-family:Consolas, Consolas;font-size:31px;}.r{opacity:.69;}.r,.s{fill:#29abe2;}.t{fill:#93278f;}.m{stroke-width:4px;}.u{opacity:.77;}</style><style
       id="style1-3-83">.f{opacity:.83;}.g{font-family:EdwardianScriptITC, Edwardian Script ITC;font-size:249.87px;}.g,.h{fill:#fff;}.i{fill:#662d91;}.j{stroke-width:3px;}.j,.k{fill:none;stroke:#fff;stroke-miterlimit:10;}.l{fill:#0071bc;}.m{fill:url(#d);}.n{fill:url(#e);}.h,.o{font-family:Consolas, Consolas;font-size:31px;}.p{opacity:.69;}.p,.q{fill:#29abe2;}.r{fill:#93278f;}.k{stroke-width:4px;}</style><style
       id="style1-35">.f{font-family:EdwardianScriptITC, Edwardian Script ITC;font-size:355px;}.f,.g,.h{fill:#fff;}.i{fill:#662d91;}.j{stroke-width:3px;}.j,.k,.l,.m{fill:none;}.j,.k,.m{stroke:#fff;stroke-miterlimit:10;}.k{stroke-width:2px;}.n{fill:#0071bc;}.o{fill:url(#d);}.p{fill:url(#e);}.h,.q{font-family:Consolas, Consolas;font-size:31px;}.r{opacity:.69;}.r,.s{fill:#29abe2;}.t{fill:#93278f;}.m{stroke-width:4px;}.u{opacity:.77;}</style><style
       id="style1-3-6">.f{opacity:.83;}.g{font-family:EdwardianScriptITC, Edwardian Script ITC;font-size:249.87px;}.g,.h{fill:#fff;}.i{fill:#662d91;}.j{stroke-width:3px;}.j,.k{fill:none;stroke:#fff;stroke-miterlimit:10;}.l{fill:#0071bc;}.m{fill:url(#d);}.n{fill:url(#e);}.h,.o{font-family:Consolas, Consolas;font-size:31px;}.p{opacity:.69;}.p,.q{fill:#29abe2;}.r{fill:#93278f;}.k{stroke-width:4px;}</style><style
       id="style1-27">.f{font-family:EdwardianScriptITC, Edwardian Script ITC;font-size:355px;}.f,.g,.h{fill:#fff;}.i{fill:#662d91;}.j{stroke-width:3px;}.j,.k,.l,.m{fill:none;}.j,.k,.m{stroke:#fff;stroke-miterlimit:10;}.k{stroke-width:2px;}.n{fill:#0071bc;}.o{fill:url(#d);}.p{fill:url(#e);}.h,.q{font-family:Consolas, Consolas;font-size:31px;}.r{opacity:.69;}.r,.s{fill:#29abe2;}.t{fill:#93278f;}.m{stroke-width:4px;}.u{opacity:.77;}</style><style
       id="style1-3-2">.f{opacity:.83;}.g{font-family:EdwardianScriptITC, Edwardian Script ITC;font-size:249.87px;}.g,.h{fill:#fff;}.i{fill:#662d91;}.j{stroke-width:3px;}.j,.k{fill:none;stroke:#fff;stroke-miterlimit:10;}.l{fill:#0071bc;}.m{fill:url(#d);}.n{fill:url(#e);}.h,.o{font-family:Consolas, Consolas;font-size:31px;}.p{opacity:.69;}.p,.q{fill:#29abe2;}.r{fill:#93278f;}.k{stroke-width:4px;}</style><style
       id="style1-44">.e{fill:#662d91;}.f{fill:#0071bc;}.g{fill:url(#d);}.h{fill:#93278f;}.i{opacity:.77;}.j{font-family:Consolas, Consolas;font-size:31px;}</style><style
       id="style1-2-42">.e,.f,.g{font-family:Consolas, Consolas;}.h{fill:#662d91;}.i{fill:#0071bc;}.j{fill:url(#d);}.f,.k{fill:#fff;}.f,.k,.g{font-size:31px;}.l{font-family:Calibri-Light, Calibri;}.m{fill:#93278f;}.n{opacity:.77;}</style><style
       id="style1-6-7">.e,.f,.g{font-family:Consolas, Consolas;}.h{fill:#662d91;}.i{fill:#0071bc;}.j{fill:url(#d);}.f,.k{fill:#fff;}.f,.k,.g{font-size:31px;}.l{font-family:Calibri-Light, Calibri;}.m{fill:#93278f;}.n{opacity:.77;}</style><style
       id="style1-4-9">.e{fill:#662d91;}.f{fill:#0071bc;}.g{fill:url(#d);}.h{fill:#93278f;}.i{opacity:.77;}.j{font-family:Consolas, Consolas;font-size:31px;}</style><style
       id="style1-5-1">.cls-1{fill:#101010;}</style><linearGradient
       id="linearGradient10-0"
       inkscape:collect="always"><stop
         style="stop-color:#8dc0ee;stop-opacity:1;"
         offset="0"
         id="stop10-6" /><stop
         style="stop-color:#f7ace1;stop-opacity:1;"
         offset="1"
         id="stop11-4" /></linearGradient><style
       id="style1-53">.e{fill:#662d91;}.f{fill:#0071bc;}.g{fill:url(#d);}.h{fill:#93278f;}.i{opacity:.77;}.j{font-family:Consolas, Consolas;font-size:31px;}</style><style
       id="style1-2-0">.e,.f,.g{font-family:Consolas, Consolas;}.h{fill:#662d91;}.i{fill:#0071bc;}.j{fill:url(#d);}.f,.k{fill:#fff;}.f,.k,.g{font-size:31px;}.l{font-family:Calibri-Light, Calibri;}.m{fill:#93278f;}.n{opacity:.77;}</style><style
       id="style1-6-8">.e,.f,.g{font-family:Consolas, Consolas;}.h{fill:#662d91;}.i{fill:#0071bc;}.j{fill:url(#d);}.f,.k{fill:#fff;}.f,.k,.g{font-size:31px;}.l{font-family:Calibri-Light, Calibri;}.m{fill:#93278f;}.n{opacity:.77;}</style><style
       id="style1-4-91">.e{fill:#662d91;}.f{fill:#0071bc;}.g{fill:url(#d);}.h{fill:#93278f;}.i{opacity:.77;}.j{font-family:Consolas, Consolas;font-size:31px;}</style><linearGradient
       inkscape:collect="always"
       xlink:href="#linearGradient10-0"
       id="linearGradient20"
       gradientUnits="userSpaceOnUse"
       gradientTransform="matrix(1.3217827,0,0,1.3217827,-1219.3172,545.1452)"
       x1="152.43982"
       y1="10.475478"
       x2="203.10255"
       y2="10.475478" /><style
       id="style1-5-3">.cls-1{fill:#101010;}</style></defs><g
     inkscape:label="Layer 1"
     inkscape:groupmode="layer"
     id="layer1"
     transform="translate(1070.0567,-282.02627)"><g
       id="g13"
       transform="translate(-19.815498,-113.44873)"><path
         d="m -1047.0869,400.23975 q -0.5484,0.22706 -1.1493,0.22706 -0.9676,0 -1.4881,-0.57638 -0.5169,-0.57987 -0.5169,-1.71166 0,-0.54843 0.1432,-0.99207 0.1432,-0.44363 0.4087,-0.75103 0.2655,-0.3109 0.6427,-0.47857 0.3773,-0.16768 0.8454,-0.16768 0.3179,0 0.5903,0.0559 0.2725,0.0524 0.524,0.16418 v 0.6113 q -0.248,-0.13623 -0.5135,-0.20609 -0.2655,-0.0734 -0.5799,-0.0734 -0.3213,0 -0.5833,0.12226 -0.2585,0.11877 -0.4402,0.34932 -0.1816,0.22706 -0.2794,0.55891 -0.098,0.32836 -0.098,0.75104 0,0.88727 0.3598,1.33789 0.3598,0.45062 1.0549,0.45062 0.2934,0 0.5624,-0.0664 0.269,-0.0699 0.517,-0.19212 z m 3.9248,0.17117 h -0.6078 v -2.23914 q 0,-0.40521 -0.1537,-0.60432 -0.1502,-0.20261 -0.4332,-0.20261 -0.1222,0 -0.2305,0.0349 -0.1048,0.0314 -0.2201,0.11527 -0.1153,0.0804 -0.2515,0.22007 -0.1362,0.13973 -0.3144,0.34932 v 2.32647 h -0.6078 V 395.475 h 0.6078 v 1.42871 l -0.021,0.55193 q 0.1433,-0.17117 0.2795,-0.28644 0.1397,-0.11877 0.276,-0.19213 0.1397,-0.0734 0.2829,-0.1048 0.1432,-0.0314 0.2969,-0.0314 0.524,0 0.8104,0.32137 0.2865,0.31788 0.2865,0.96063 z m 4.2566,-1.78153 q 0,0.4087 -0.1152,0.75104 -0.1153,0.33884 -0.3319,0.58336 -0.2166,0.24103 -0.5275,0.37727 -0.3109,0.13274 -0.7056,0.13274 -0.3773,0 -0.6777,-0.11528 -0.2969,-0.11877 -0.5065,-0.34582 -0.2061,-0.22706 -0.3179,-0.56241 -0.1083,-0.33535 -0.1083,-0.77199 0,-0.40871 0.1153,-0.74405 0.1153,-0.33884 0.3319,-0.57987 0.2165,-0.24453 0.5274,-0.37727 0.3109,-0.13623 0.7057,-0.13623 0.3772,0 0.6742,0.11876 0.3004,0.11528 0.5065,0.34234 0.2096,0.22356 0.3178,0.55891 0.1118,0.33534 0.1118,0.7685 z m -0.6218,0.0279 q 0,-0.32487 -0.073,-0.5659 -0.07,-0.24452 -0.2026,-0.40521 -0.1328,-0.16418 -0.3249,-0.24453 -0.1886,-0.0838 -0.4227,-0.0838 -0.2724,0 -0.4681,0.10829 -0.1921,0.10479 -0.3178,0.28295 -0.1223,0.17815 -0.1817,0.41569 -0.056,0.23404 -0.056,0.49254 0,0.32486 0.07,0.56939 0.073,0.24452 0.2061,0.4087 0.1327,0.16069 0.3214,0.24452 0.1886,0.0804 0.4261,0.0804 0.2725,0 0.4646,-0.1048 0.1956,-0.10829 0.3179,-0.28644 0.1258,-0.17815 0.1817,-0.4122 0.059,-0.23753 0.059,-0.49952 z m 4.6444,-0.0279 q 0,0.4087 -0.1153,0.75104 -0.1152,0.33884 -0.3318,0.58336 -0.2166,0.24103 -0.5275,0.37727 -0.3109,0.13274 -0.7056,0.13274 -0.3773,0 -0.6777,-0.11528 -0.2969,-0.11877 -0.5065,-0.34582 -0.2061,-0.22706 -0.3179,-0.56241 -0.1083,-0.33535 -0.1083,-0.77199 0,-0.40871 0.1153,-0.74405 0.1153,-0.33884 0.3319,-0.57987 0.2165,-0.24453 0.5274,-0.37727 0.3109,-0.13623 0.7057,-0.13623 0.3772,0 0.6741,0.11876 0.3005,0.11528 0.5066,0.34234 0.2095,0.22356 0.3178,0.55891 0.1118,0.33534 0.1118,0.7685 z m -0.6218,0.0279 q 0,-0.32487 -0.073,-0.5659 -0.07,-0.24452 -0.2026,-0.40521 -0.1328,-0.16418 -0.3249,-0.24453 -0.1886,-0.0838 -0.4227,-0.0838 -0.2724,0 -0.4681,0.10829 -0.1921,0.10479 -0.3178,0.28295 -0.1223,0.17815 -0.1817,0.41569 -0.056,0.23404 -0.056,0.49254 0,0.32486 0.07,0.56939 0.073,0.24452 0.2061,0.4087 0.1327,0.16069 0.3214,0.24452 0.1886,0.0804 0.4261,0.0804 0.2725,0 0.4646,-0.1048 0.1956,-0.10829 0.3179,-0.28644 0.1258,-0.17815 0.1816,-0.4122 0.059,-0.23753 0.059,-0.49952 z m 4.3684,0.79644 q 0,0.18514 -0.063,0.33186 -0.063,0.14671 -0.1712,0.26199 -0.1083,0.11178 -0.2515,0.19212 -0.1432,0.0804 -0.3074,0.13274 -0.1607,0.0524 -0.3319,0.0768 -0.1711,0.0245 -0.3353,0.0245 -0.3563,0 -0.6567,-0.0314 -0.2969,-0.0314 -0.5834,-0.1013 v -0.55892 q 0.3074,0.0873 0.6113,0.13275 0.3039,0.0454 0.6043,0.0454 0.4367,0 0.6463,-0.11877 0.2096,-0.11877 0.2096,-0.33884 0,-0.0943 -0.035,-0.16767 -0.031,-0.0768 -0.1187,-0.14323 -0.087,-0.0699 -0.2725,-0.14322 -0.1816,-0.0734 -0.4995,-0.16767 -0.2376,-0.0699 -0.4402,-0.15719 -0.1991,-0.0908 -0.3458,-0.21309 -0.1467,-0.12226 -0.2305,-0.28644 -0.084,-0.16418 -0.084,-0.38774 0,-0.14672 0.066,-0.32138 0.07,-0.17466 0.234,-0.32487 0.1642,-0.1502 0.4437,-0.24801 0.2794,-0.1013 0.6986,-0.1013 0.2061,0 0.4576,0.0244 0.2515,0.021 0.524,0.0769 v 0.54144 q -0.2864,-0.0699 -0.5449,-0.1013 -0.255,-0.0349 -0.4437,-0.0349 -0.227,0 -0.3842,0.0349 -0.1537,0.0349 -0.2515,0.0978 -0.094,0.0594 -0.1363,0.14322 -0.042,0.0803 -0.042,0.17466 0,0.0943 0.035,0.17117 0.038,0.0768 0.1363,0.1502 0.1013,0.0699 0.2794,0.14323 0.1782,0.0699 0.4646,0.1537 0.3109,0.0908 0.524,0.19212 0.2131,0.0978 0.3458,0.22007 0.1328,0.12226 0.1887,0.27596 0.059,0.15371 0.059,0.34932 z m 4.2078,-0.98158 q 0,0.12925 0,0.21657 0,0.0873 -0.011,0.16418 h -2.4627 q 0,0.53796 0.3004,0.82789 0.3004,0.28644 0.8663,0.28644 0.1537,0 0.3074,-0.0105 0.1537,-0.014 0.297,-0.0349 0.1432,-0.021 0.2724,-0.0454 0.1328,-0.0279 0.2445,-0.0594 v 0.49952 q -0.248,0.0699 -0.5624,0.11179 -0.3108,0.0454 -0.6462,0.0454 -0.4506,0 -0.7755,-0.12227 -0.3249,-0.12226 -0.5344,-0.35281 -0.2061,-0.23404 -0.3074,-0.56939 -0.098,-0.33884 -0.098,-0.76501 0,-0.37028 0.1048,-0.69864 0.1083,-0.33185 0.3109,-0.57987 0.2061,-0.25151 0.5031,-0.39822 0.2969,-0.14671 0.6741,-0.14671 0.3668,0 0.6498,0.11527 0.2829,0.11528 0.4751,0.32836 0.1956,0.20959 0.2934,0.5135 0.1013,0.30042 0.1013,0.67419 z m -0.6323,-0.0873 q 0.01,-0.23405 -0.045,-0.42617 -0.056,-0.19562 -0.1747,-0.33535 -0.1152,-0.13973 -0.2899,-0.21658 -0.1747,-0.0803 -0.4052,-0.0803 -0.1991,0 -0.3633,0.0768 -0.1642,0.0768 -0.2829,0.21658 -0.1188,0.13973 -0.1922,0.33534 -0.073,0.19562 -0.091,0.42967 z m 7.996,2.02605 -0.014,-0.47158 q -0.2865,0.28295 -0.5834,0.4087 -0.2934,0.12576 -0.6183,0.12576 -0.3004,0 -0.5135,-0.0768 -0.2131,-0.0768 -0.3528,-0.2096 -0.1362,-0.13623 -0.2026,-0.31788 -0.063,-0.18164 -0.063,-0.39473 0,-0.52747 0.3913,-0.82439 0.3947,-0.30041 1.1632,-0.30041 h 0.7266 v -0.30741 q 0,-0.31089 -0.1991,-0.49603 -0.1991,-0.18863 -0.6078,-0.18863 -0.297,0 -0.5869,0.0664 -0.2864,0.0664 -0.5938,0.18863 v -0.54843 q 0.1152,-0.0419 0.255,-0.0803 0.1432,-0.0419 0.3004,-0.0734 0.1572,-0.0314 0.3283,-0.0489 0.1712,-0.0209 0.3459,-0.0209 0.3178,0 0.5728,0.0699 0.255,0.0699 0.4297,0.21308 0.1782,0.14323 0.2725,0.3598 0.094,0.21658 0.094,0.51001 v 2.41729 z m -0.066,-1.59639 h -0.772 q -0.2271,0 -0.3913,0.0454 -0.1641,0.0454 -0.2689,0.12925 -0.1048,0.0838 -0.1572,0.2026 -0.049,0.11528 -0.049,0.26199 0,0.10131 0.031,0.19562 0.031,0.0908 0.1013,0.16418 0.07,0.0699 0.1817,0.11179 0.1117,0.0419 0.2724,0.0419 0.2096,0 0.4786,-0.12575 0.2725,-0.12925 0.5729,-0.40521 z m 8.6632,0.63925 q 0,0.18514 -0.063,0.33186 -0.063,0.14671 -0.1711,0.26199 -0.1083,0.11178 -0.2515,0.19212 -0.1433,0.0804 -0.3074,0.13274 -0.1607,0.0524 -0.3319,0.0768 -0.1712,0.0245 -0.3353,0.0245 -0.3563,0 -0.6568,-0.0314 -0.2969,-0.0314 -0.5833,-0.1013 v -0.55892 q 0.3074,0.0873 0.6113,0.13275 0.3039,0.0454 0.6043,0.0454 0.4367,0 0.6462,-0.11877 0.2096,-0.11877 0.2096,-0.33884 0,-0.0943 -0.035,-0.16767 -0.031,-0.0768 -0.1188,-0.14323 -0.087,-0.0699 -0.2724,-0.14322 -0.1817,-0.0734 -0.4996,-0.16767 -0.2375,-0.0699 -0.4401,-0.15719 -0.1991,-0.0908 -0.3458,-0.21309 -0.1467,-0.12226 -0.2306,-0.28644 -0.084,-0.16418 -0.084,-0.38774 0,-0.14672 0.066,-0.32138 0.07,-0.17466 0.234,-0.32487 0.1642,-0.1502 0.4436,-0.24801 0.2795,-0.1013 0.6987,-0.1013 0.2061,0 0.4576,0.0244 0.2515,0.021 0.524,0.0769 v 0.54144 q -0.2865,-0.0699 -0.545,-0.1013 -0.255,-0.0349 -0.4436,-0.0349 -0.2271,0 -0.3843,0.0349 -0.1537,0.0349 -0.2515,0.0978 -0.094,0.0594 -0.1362,0.14322 -0.042,0.0803 -0.042,0.17466 0,0.0943 0.035,0.17117 0.038,0.0768 0.1362,0.1502 0.1013,0.0699 0.2795,0.14323 0.1781,0.0699 0.4646,0.1537 0.3109,0.0908 0.524,0.19212 0.2131,0.0978 0.3458,0.22007 0.1327,0.12226 0.1886,0.27596 0.059,0.15371 0.059,0.34932 z m 4.0715,0.90823 q -0.2061,0.0524 -0.4262,0.0734 -0.22,0.0245 -0.4471,0.0245 -0.6602,0 -0.9851,-0.29692 -0.3248,-0.30041 -0.3248,-0.91871 v -1.83043 h -0.9816 v -0.51001 h 0.9816 v -0.96412 l 0.6078,-0.15719 v 1.12131 h 1.5754 v 0.51001 h -1.5754 v 1.78153 q 0,0.37726 0.1991,0.5659 0.2026,0.18513 0.5938,0.18513 0.1677,0 0.3668,-0.0245 0.1991,-0.0279 0.4157,-0.0838 z m 4.316,-3.45826 -1.1946,3.13689 q -0.1852,0.47857 -0.3843,0.82439 -0.1956,0.34583 -0.4297,0.5659 -0.234,0.22357 -0.5135,0.32836 -0.2794,0.1048 -0.6252,0.1048 -0.091,0 -0.1642,-0.003 -0.073,-0.003 -0.1607,-0.0105 v -0.55192 q 0.077,0.0105 0.1677,0.0175 0.091,0.0105 0.1921,0.0105 0.1677,0 0.3109,-0.0489 0.1467,-0.0489 0.276,-0.16069 0.1292,-0.10828 0.248,-0.28294 0.1187,-0.17466 0.2305,-0.42268 l -1.4008,-3.50717 h 0.6917 l 0.8873,2.31948 0.1781,0.54494 0.2026,-0.55891 0.8209,-2.30551 z m 2.0979,-0.92919 h -1.0375 v -0.49952 h 1.65228 v 4.42937 h 1.04446 v 0.50651 h -2.81204 v -0.50651 h 1.1528 z m 5.79013,2.49764 q 0,0.12925 -0.004,0.21657 -0.003,0.0873 -0.0105,0.16418 h -2.4627 q 0,0.53796 0.30042,0.82789 0.30041,0.28644 0.86631,0.28644 0.1537,0 0.3074,-0.0105 0.1537,-0.014 0.29692,-0.0349 0.14322,-0.021 0.27247,-0.0454 0.13274,-0.0279 0.24452,-0.0594 v 0.49952 q -0.24801,0.0699 -0.5624,0.11179 -0.31089,0.0454 -0.64624,0.0454 -0.45062,0 -0.77549,-0.12227 -0.32487,-0.12226 -0.53446,-0.35281 -0.2061,-0.23404 -0.3074,-0.56939 -0.0978,-0.33884 -0.0978,-0.76501 0,-0.37028 0.1048,-0.69864 0.10829,-0.33185 0.31089,-0.57987 0.2061,-0.25151 0.50302,-0.39822 0.29692,-0.14671 0.67419,-0.14671 0.36678,0 0.64973,0.11527 0.28295,0.11528 0.47508,0.32836 0.19561,0.20959 0.29342,0.5135 0.10131,0.30042 0.10131,0.67419 z m -0.63227,-0.0873 q 0.0105,-0.23405 -0.0454,-0.42617 -0.0559,-0.19562 -0.17466,-0.33535 -0.11528,-0.13973 -0.28994,-0.21658 -0.17466,-0.0803 -0.40521,-0.0803 -0.19911,0 -0.36329,0.0768 -0.16418,0.0768 -0.28295,0.21658 -0.11877,0.13973 -0.19212,0.33534 -0.0734,0.19562 -0.0908,0.42967 z m 7.15068,-1.54399 q 0.10829,0 0.2061,0.0454 0.0978,0.0419 0.17116,0.11527 0.0734,0.0734 0.11528,0.17117 0.0454,0.0978 0.0454,0.2061 0,0.11178 -0.0454,0.20959 -0.0419,0.0943 -0.11528,0.16767 -0.0734,0.0734 -0.17116,0.11528 -0.0978,0.0419 -0.2061,0.0419 -0.11178,0 -0.20959,-0.0419 -0.0943,-0.0419 -0.16768,-0.11528 -0.0734,-0.0733 -0.11527,-0.16767 -0.0419,-0.0978 -0.0419,-0.20959 0,-0.10829 0.0419,-0.2061 0.0419,-0.0978 0.11527,-0.17117 0.0734,-0.0734 0.16768,-0.11527 0.0978,-0.0454 0.20959,-0.0454 z m 0,2.56051 q 0.10829,0 0.2061,0.0454 0.0978,0.0419 0.17116,0.11527 0.0734,0.0734 0.11528,0.17117 0.0454,0.0978 0.0454,0.2061 0,0.11178 -0.0454,0.20959 -0.0419,0.0943 -0.11528,0.16767 -0.0734,0.0734 -0.17116,0.11528 -0.0978,0.0419 -0.2061,0.0419 -0.11178,0 -0.20959,-0.0419 -0.0943,-0.0419 -0.16768,-0.11528 -0.0734,-0.0734 -0.11527,-0.16767 -0.0419,-0.0978 -0.0419,-0.20959 0,-0.10829 0.0419,-0.2061 0.0419,-0.0978 0.11527,-0.17117 0.0734,-0.0734 0.16768,-0.11527 0.0978,-0.0454 0.20959,-0.0454 z"
         id="ChooseStyle"
         style="font-size:7.15406px;font-family:Consolas, Consolas;-inkscape-font-specification:'Consolas, Consolas, Normal';letter-spacing:0.0892573px;word-spacing:0.0277006px;fill:url(#linearGradient20);stroke-width:24.1962;stroke-opacity:0.612903"
         aria-label="Choose a style :" /></g></g></svg>
