<?xml version="1.0" encoding="UTF-8" standalone="no"?>
<!-- Created with Inkscape (http://www.inkscape.org/) -->

<svg
   width="63.765873mm"
   height="19.146957mm"
   viewBox="0 0 63.765873 19.146957"
   version="1.1"
   id="svg1"
   xml:space="preserve"
   xmlns:inkscape="http://www.inkscape.org/namespaces/inkscape"
   xmlns:sodipodi="http://sodipodi.sourceforge.net/DTD/sodipodi-0.dtd"
   xmlns:xlink="http://www.w3.org/1999/xlink"
   xmlns="http://www.w3.org/2000/svg"
   xmlns:svg="http://www.w3.org/2000/svg"><sodipodi:namedview
     id="namedview1"
     pagecolor="#505050"
     bordercolor="#eeeeee"
     borderopacity="1"
     inkscape:showpageshadow="0"
     inkscape:pageopacity="0"
     inkscape:pagecheckerboard="0"
     inkscape:deskcolor="#505050"
     inkscape:document-units="mm"><inkscape:page
       x="0"
       y="0"
       width="63.765873"
       height="19.146957"
       id="page2"
       margin="0"
       bleed="0" /></sodipodi:namedview><defs
     id="defs1"><style
       id="style1">.e{fill:#662d91;}.f{fill:#0071bc;}.g{fill:url(#d);}.h{fill:#93278f;}.i{opacity:.77;}.j{font-family:Consolas, Consolas;font-size:31px;}</style><style
       id="style1-2">.e,.f,.g{font-family:Consolas, Consolas;}.h{fill:#662d91;}.i{fill:#0071bc;}.j{fill:url(#d);}.f,.k{fill:#fff;}.f,.k,.g{font-size:31px;}.l{font-family:Calibri-Light, Calibri;}.m{fill:#93278f;}.n{opacity:.77;}</style><style
       id="style1-6">.e,.f,.g{font-family:Consolas, Consolas;}.h{fill:#662d91;}.i{fill:#0071bc;}.j{fill:url(#d);}.f,.k{fill:#fff;}.f,.k,.g{font-size:31px;}.l{font-family:Calibri-Light, Calibri;}.m{fill:#93278f;}.n{opacity:.77;}</style><style
       id="style1-4">.e{fill:#662d91;}.f{fill:#0071bc;}.g{fill:url(#d);}.h{fill:#93278f;}.i{opacity:.77;}.j{font-family:Consolas, Consolas;font-size:31px;}</style><style
       id="style1-5">.cls-1{fill:#101010;}</style><style
       id="style1-51">.e{fill:#662d91;}.f{fill:#0071bc;}.g{fill:url(#d);}.h{fill:#93278f;}.i{opacity:.77;}.j{font-family:Consolas, Consolas;font-size:31px;}</style><style
       id="style1-2-2">.e,.f,.g{font-family:Consolas, Consolas;}.h{fill:#662d91;}.i{fill:#0071bc;}.j{fill:url(#d);}.f,.k{fill:#fff;}.f,.k,.g{font-size:31px;}.l{font-family:Calibri-Light, Calibri;}.m{fill:#93278f;}.n{opacity:.77;}</style><style
       id="style1-6-2">.e,.f,.g{font-family:Consolas, Consolas;}.h{fill:#662d91;}.i{fill:#0071bc;}.j{fill:url(#d);}.f,.k{fill:#fff;}.f,.k,.g{font-size:31px;}.l{font-family:Calibri-Light, Calibri;}.m{fill:#93278f;}.n{opacity:.77;}</style><style
       id="style1-4-2">.e{fill:#662d91;}.f{fill:#0071bc;}.g{fill:url(#d);}.h{fill:#93278f;}.i{opacity:.77;}.j{font-family:Consolas, Consolas;font-size:31px;}</style><style
       id="style1-5-6">.cls-1{fill:#101010;}</style><style
       id="style1-3">.e{fill:#662d91;}.f{fill:#0071bc;}.g{fill:url(#d);}.h{fill:#93278f;}.i{opacity:.77;}.j{font-family:Consolas, Consolas;font-size:31px;}</style><style
       id="style1-2-4">.e,.f,.g{font-family:Consolas, Consolas;}.h{fill:#662d91;}.i{fill:#0071bc;}.j{fill:url(#d);}.f,.k{fill:#fff;}.f,.k,.g{font-size:31px;}.l{font-family:Calibri-Light, Calibri;}.m{fill:#93278f;}.n{opacity:.77;}</style><style
       id="style1-6-0">.e,.f,.g{font-family:Consolas, Consolas;}.h{fill:#662d91;}.i{fill:#0071bc;}.j{fill:url(#d);}.f,.k{fill:#fff;}.f,.k,.g{font-size:31px;}.l{font-family:Calibri-Light, Calibri;}.m{fill:#93278f;}.n{opacity:.77;}</style><style
       id="style1-4-0">.e{fill:#662d91;}.f{fill:#0071bc;}.g{fill:url(#d);}.h{fill:#93278f;}.i{opacity:.77;}.j{font-family:Consolas, Consolas;font-size:31px;}</style><style
       id="style1-5-5">.cls-1{fill:#101010;}</style><style
       id="style1-50">.f{font-family:EdwardianScriptITC, Edwardian Script ITC;font-size:355px;}.f,.g,.h{fill:#fff;}.i{fill:#662d91;}.j{stroke-width:3px;}.j,.k,.l,.m{fill:none;}.j,.k,.m{stroke:#fff;stroke-miterlimit:10;}.k{stroke-width:2px;}.n{fill:#0071bc;}.o{fill:url(#d);}.p{fill:url(#e);}.h,.q{font-family:Consolas, Consolas;font-size:31px;}.r{opacity:.69;}.r,.s{fill:#29abe2;}.t{fill:#93278f;}.m{stroke-width:4px;}.u{opacity:.77;}</style><style
       id="style1-3-0">.f{opacity:.83;}.g{font-family:EdwardianScriptITC, Edwardian Script ITC;font-size:249.87px;}.g,.h{fill:#fff;}.i{fill:#662d91;}.j{stroke-width:3px;}.j,.k{fill:none;stroke:#fff;stroke-miterlimit:10;}.l{fill:#0071bc;}.m{fill:url(#d);}.n{fill:url(#e);}.h,.o{font-family:Consolas, Consolas;font-size:31px;}.p{opacity:.69;}.p,.q{fill:#29abe2;}.r{fill:#93278f;}.k{stroke-width:4px;}</style><style
       id="style1-2-45">.f{opacity:.83;}.g{font-family:EdwardianScriptITC, Edwardian Script ITC;font-size:275.28px;}.g,.h{fill:#fff;}.i{fill:#662d91;}.j{stroke-width:2px;}.j,.k{fill:none;stroke:#fff;stroke-miterlimit:10;}.l{fill:#0071bc;}.m{fill:url(#d);}.n{fill:url(#e);}.h,.o{font-family:Consolas, Consolas;font-size:31px;}.p{opacity:.69;}.p,.q{fill:#29abe2;}.r{fill:#93278f;}.k{stroke-width:4px;}</style><style
       id="style1-68">.e{fill:#662d91;}.f{fill:#0071bc;}.g{fill:url(#d);}.h{fill:#93278f;}.i{opacity:.77;}.j{font-family:Consolas, Consolas;font-size:31px;}</style><style
       id="style1-2-3">.e,.f,.g{font-family:Consolas, Consolas;}.h{fill:#662d91;}.i{fill:#0071bc;}.j{fill:url(#d);}.f,.k{fill:#fff;}.f,.k,.g{font-size:31px;}.l{font-family:Calibri-Light, Calibri;}.m{fill:#93278f;}.n{opacity:.77;}</style><style
       id="style1-6-1">.e,.f,.g{font-family:Consolas, Consolas;}.h{fill:#662d91;}.i{fill:#0071bc;}.j{fill:url(#d);}.f,.k{fill:#fff;}.f,.k,.g{font-size:31px;}.l{font-family:Calibri-Light, Calibri;}.m{fill:#93278f;}.n{opacity:.77;}</style><style
       id="style1-4-4">.e{fill:#662d91;}.f{fill:#0071bc;}.g{fill:url(#d);}.h{fill:#93278f;}.i{opacity:.77;}.j{font-family:Consolas, Consolas;font-size:31px;}</style><style
       id="style1-5-8">.cls-1{fill:#101010;}</style><style
       id="style1-8">.f{font-family:EdwardianScriptITC, Edwardian Script ITC;font-size:355px;}.f,.g,.h{fill:#fff;}.i{fill:#662d91;}.j{stroke-width:3px;}.j,.k,.l,.m{fill:none;}.j,.k,.m{stroke:#fff;stroke-miterlimit:10;}.k{stroke-width:2px;}.n{fill:#0071bc;}.o{fill:url(#d);}.p{fill:url(#e);}.h,.q{font-family:Consolas, Consolas;font-size:31px;}.r{opacity:.69;}.r,.s{fill:#29abe2;}.t{fill:#93278f;}.m{stroke-width:4px;}.u{opacity:.77;}</style><style
       id="style1-3-4">.f{opacity:.83;}.g{font-family:EdwardianScriptITC, Edwardian Script ITC;font-size:249.87px;}.g,.h{fill:#fff;}.i{fill:#662d91;}.j{stroke-width:3px;}.j,.k{fill:none;stroke:#fff;stroke-miterlimit:10;}.l{fill:#0071bc;}.m{fill:url(#d);}.n{fill:url(#e);}.h,.o{font-family:Consolas, Consolas;font-size:31px;}.p{opacity:.69;}.p,.q{fill:#29abe2;}.r{fill:#93278f;}.k{stroke-width:4px;}</style><style
       id="style1-2-9">.f{opacity:.83;}.g{font-family:EdwardianScriptITC, Edwardian Script ITC;font-size:275.28px;}.g,.h{fill:#fff;}.i{fill:#662d91;}.j{stroke-width:2px;}.j,.k{fill:none;stroke:#fff;stroke-miterlimit:10;}.l{fill:#0071bc;}.m{fill:url(#d);}.n{fill:url(#e);}.h,.o{font-family:Consolas, Consolas;font-size:31px;}.p{opacity:.69;}.p,.q{fill:#29abe2;}.r{fill:#93278f;}.k{stroke-width:4px;}</style><style
       id="style1-9">.f{font-family:EdwardianScriptITC, Edwardian Script ITC;font-size:355px;}.f,.g,.h{fill:#fff;}.i{fill:#662d91;}.j{stroke-width:3px;}.j,.k,.l,.m{fill:none;}.j,.k,.m{stroke:#fff;stroke-miterlimit:10;}.k{stroke-width:2px;}.n{fill:#0071bc;}.o{fill:url(#d);}.p{fill:url(#e);}.h,.q{font-family:Consolas, Consolas;font-size:31px;}.r{opacity:.69;}.r,.s{fill:#29abe2;}.t{fill:#93278f;}.m{stroke-width:4px;}.u{opacity:.77;}</style><style
       id="style1-3-8">.f{opacity:.83;}.g{font-family:EdwardianScriptITC, Edwardian Script ITC;font-size:249.87px;}.g,.h{fill:#fff;}.i{fill:#662d91;}.j{stroke-width:3px;}.j,.k{fill:none;stroke:#fff;stroke-miterlimit:10;}.l{fill:#0071bc;}.m{fill:url(#d);}.n{fill:url(#e);}.h,.o{font-family:Consolas, Consolas;font-size:31px;}.p{opacity:.69;}.p,.q{fill:#29abe2;}.r{fill:#93278f;}.k{stroke-width:4px;}</style><style
       id="style1-2-30">.f{opacity:.83;}.g{font-family:EdwardianScriptITC, Edwardian Script ITC;font-size:275.28px;}.g,.h{fill:#fff;}.i{fill:#662d91;}.j{stroke-width:2px;}.j,.k{fill:none;stroke:#fff;stroke-miterlimit:10;}.l{fill:#0071bc;}.m{fill:url(#d);}.n{fill:url(#e);}.h,.o{font-family:Consolas, Consolas;font-size:31px;}.p{opacity:.69;}.p,.q{fill:#29abe2;}.r{fill:#93278f;}.k{stroke-width:4px;}</style><style
       id="style1-30">.f{font-family:EdwardianScriptITC, Edwardian Script ITC;font-size:355px;}.f,.g,.h{fill:#fff;}.i{fill:#662d91;}.j{stroke-width:3px;}.j,.k,.l,.m{fill:none;}.j,.k,.m{stroke:#fff;stroke-miterlimit:10;}.k{stroke-width:2px;}.n{fill:#0071bc;}.o{fill:url(#d);}.p{fill:url(#e);}.h,.q{font-family:Consolas, Consolas;font-size:31px;}.r{opacity:.69;}.r,.s{fill:#29abe2;}.t{fill:#93278f;}.m{stroke-width:4px;}.u{opacity:.77;}</style><style
       id="style1-3-04">.f{opacity:.83;}.g{font-family:EdwardianScriptITC, Edwardian Script ITC;font-size:249.87px;}.g,.h{fill:#fff;}.i{fill:#662d91;}.j{stroke-width:3px;}.j,.k{fill:none;stroke:#fff;stroke-miterlimit:10;}.l{fill:#0071bc;}.m{fill:url(#d);}.n{fill:url(#e);}.h,.o{font-family:Consolas, Consolas;font-size:31px;}.p{opacity:.69;}.p,.q{fill:#29abe2;}.r{fill:#93278f;}.k{stroke-width:4px;}</style><style
       id="style1-2-8">.f{opacity:.83;}.g{font-family:EdwardianScriptITC, Edwardian Script ITC;font-size:275.28px;}.g,.h{fill:#fff;}.i{fill:#662d91;}.j{stroke-width:2px;}.j,.k{fill:none;stroke:#fff;stroke-miterlimit:10;}.l{fill:#0071bc;}.m{fill:url(#d);}.n{fill:url(#e);}.h,.o{font-family:Consolas, Consolas;font-size:31px;}.p{opacity:.69;}.p,.q{fill:#29abe2;}.r{fill:#93278f;}.k{stroke-width:4px;}</style><style
       id="style1-57">.f{font-family:EdwardianScriptITC, Edwardian Script ITC;font-size:355px;}.f,.g,.h{fill:#fff;}.i{fill:#662d91;}.j{stroke-width:3px;}.j,.k,.l,.m{fill:none;}.j,.k,.m{stroke:#fff;stroke-miterlimit:10;}.k{stroke-width:2px;}.n{fill:#0071bc;}.o{fill:url(#d);}.p{fill:url(#e);}.h,.q{font-family:Consolas, Consolas;font-size:31px;}.r{opacity:.69;}.r,.s{fill:#29abe2;}.t{fill:#93278f;}.m{stroke-width:4px;}.u{opacity:.77;}</style><style
       id="style1-3-7">.f{opacity:.83;}.g{font-family:EdwardianScriptITC, Edwardian Script ITC;font-size:249.87px;}.g,.h{fill:#fff;}.i{fill:#662d91;}.j{stroke-width:3px;}.j,.k{fill:none;stroke:#fff;stroke-miterlimit:10;}.l{fill:#0071bc;}.m{fill:url(#d);}.n{fill:url(#e);}.h,.o{font-family:Consolas, Consolas;font-size:31px;}.p{opacity:.69;}.p,.q{fill:#29abe2;}.r{fill:#93278f;}.k{stroke-width:4px;}</style><style
       id="style1-47">.f{font-family:EdwardianScriptITC, Edwardian Script ITC;font-size:355px;}.f,.g,.h{fill:#fff;}.i{fill:#662d91;}.j{stroke-width:3px;}.j,.k,.l,.m{fill:none;}.j,.k,.m{stroke:#fff;stroke-miterlimit:10;}.k{stroke-width:2px;}.n{fill:#0071bc;}.o{fill:url(#d);}.p{fill:url(#e);}.h,.q{font-family:Consolas, Consolas;font-size:31px;}.r{opacity:.69;}.r,.s{fill:#29abe2;}.t{fill:#93278f;}.m{stroke-width:4px;}.u{opacity:.77;}</style><style
       id="style1-3-83">.f{opacity:.83;}.g{font-family:EdwardianScriptITC, Edwardian Script ITC;font-size:249.87px;}.g,.h{fill:#fff;}.i{fill:#662d91;}.j{stroke-width:3px;}.j,.k{fill:none;stroke:#fff;stroke-miterlimit:10;}.l{fill:#0071bc;}.m{fill:url(#d);}.n{fill:url(#e);}.h,.o{font-family:Consolas, Consolas;font-size:31px;}.p{opacity:.69;}.p,.q{fill:#29abe2;}.r{fill:#93278f;}.k{stroke-width:4px;}</style><style
       id="style1-35">.f{font-family:EdwardianScriptITC, Edwardian Script ITC;font-size:355px;}.f,.g,.h{fill:#fff;}.i{fill:#662d91;}.j{stroke-width:3px;}.j,.k,.l,.m{fill:none;}.j,.k,.m{stroke:#fff;stroke-miterlimit:10;}.k{stroke-width:2px;}.n{fill:#0071bc;}.o{fill:url(#d);}.p{fill:url(#e);}.h,.q{font-family:Consolas, Consolas;font-size:31px;}.r{opacity:.69;}.r,.s{fill:#29abe2;}.t{fill:#93278f;}.m{stroke-width:4px;}.u{opacity:.77;}</style><style
       id="style1-3-6">.f{opacity:.83;}.g{font-family:EdwardianScriptITC, Edwardian Script ITC;font-size:249.87px;}.g,.h{fill:#fff;}.i{fill:#662d91;}.j{stroke-width:3px;}.j,.k{fill:none;stroke:#fff;stroke-miterlimit:10;}.l{fill:#0071bc;}.m{fill:url(#d);}.n{fill:url(#e);}.h,.o{font-family:Consolas, Consolas;font-size:31px;}.p{opacity:.69;}.p,.q{fill:#29abe2;}.r{fill:#93278f;}.k{stroke-width:4px;}</style><style
       id="style1-27">.f{font-family:EdwardianScriptITC, Edwardian Script ITC;font-size:355px;}.f,.g,.h{fill:#fff;}.i{fill:#662d91;}.j{stroke-width:3px;}.j,.k,.l,.m{fill:none;}.j,.k,.m{stroke:#fff;stroke-miterlimit:10;}.k{stroke-width:2px;}.n{fill:#0071bc;}.o{fill:url(#d);}.p{fill:url(#e);}.h,.q{font-family:Consolas, Consolas;font-size:31px;}.r{opacity:.69;}.r,.s{fill:#29abe2;}.t{fill:#93278f;}.m{stroke-width:4px;}.u{opacity:.77;}</style><style
       id="style1-3-2">.f{opacity:.83;}.g{font-family:EdwardianScriptITC, Edwardian Script ITC;font-size:249.87px;}.g,.h{fill:#fff;}.i{fill:#662d91;}.j{stroke-width:3px;}.j,.k{fill:none;stroke:#fff;stroke-miterlimit:10;}.l{fill:#0071bc;}.m{fill:url(#d);}.n{fill:url(#e);}.h,.o{font-family:Consolas, Consolas;font-size:31px;}.p{opacity:.69;}.p,.q{fill:#29abe2;}.r{fill:#93278f;}.k{stroke-width:4px;}</style><style
       id="style1-44">.e{fill:#662d91;}.f{fill:#0071bc;}.g{fill:url(#d);}.h{fill:#93278f;}.i{opacity:.77;}.j{font-family:Consolas, Consolas;font-size:31px;}</style><style
       id="style1-2-42">.e,.f,.g{font-family:Consolas, Consolas;}.h{fill:#662d91;}.i{fill:#0071bc;}.j{fill:url(#d);}.f,.k{fill:#fff;}.f,.k,.g{font-size:31px;}.l{font-family:Calibri-Light, Calibri;}.m{fill:#93278f;}.n{opacity:.77;}</style><style
       id="style1-6-7">.e,.f,.g{font-family:Consolas, Consolas;}.h{fill:#662d91;}.i{fill:#0071bc;}.j{fill:url(#d);}.f,.k{fill:#fff;}.f,.k,.g{font-size:31px;}.l{font-family:Calibri-Light, Calibri;}.m{fill:#93278f;}.n{opacity:.77;}</style><style
       id="style1-4-9">.e{fill:#662d91;}.f{fill:#0071bc;}.g{fill:url(#d);}.h{fill:#93278f;}.i{opacity:.77;}.j{font-family:Consolas, Consolas;font-size:31px;}</style><style
       id="style1-5-1">.cls-1{fill:#101010;}</style><style
       id="style1-53">.e{fill:#662d91;}.f{fill:#0071bc;}.g{fill:url(#d);}.h{fill:#93278f;}.i{opacity:.77;}.j{font-family:Consolas, Consolas;font-size:31px;}</style><style
       id="style1-2-0">.e,.f,.g{font-family:Consolas, Consolas;}.h{fill:#662d91;}.i{fill:#0071bc;}.j{fill:url(#d);}.f,.k{fill:#fff;}.f,.k,.g{font-size:31px;}.l{font-family:Calibri-Light, Calibri;}.m{fill:#93278f;}.n{opacity:.77;}</style><style
       id="style1-6-8">.e,.f,.g{font-family:Consolas, Consolas;}.h{fill:#662d91;}.i{fill:#0071bc;}.j{fill:url(#d);}.f,.k{fill:#fff;}.f,.k,.g{font-size:31px;}.l{font-family:Calibri-Light, Calibri;}.m{fill:#93278f;}.n{opacity:.77;}</style><style
       id="style1-4-91">.e{fill:#662d91;}.f{fill:#0071bc;}.g{fill:url(#d);}.h{fill:#93278f;}.i{opacity:.77;}.j{font-family:Consolas, Consolas;font-size:31px;}</style><style
       id="style1-5-3">.cls-1{fill:#101010;}</style><style
       id="style1-36">.e{fill:#662d91;}.f{fill:#0071bc;}.g{fill:url(#d);}.h{fill:#93278f;}.i{opacity:.77;}.j{font-family:Consolas, Consolas;font-size:31px;}</style><style
       id="style1-2-5">.e,.f,.g{font-family:Consolas, Consolas;}.h{fill:#662d91;}.i{fill:#0071bc;}.j{fill:url(#d);}.f,.k{fill:#fff;}.f,.k,.g{font-size:31px;}.l{font-family:Calibri-Light, Calibri;}.m{fill:#93278f;}.n{opacity:.77;}</style><style
       id="style1-6-28">.e,.f,.g{font-family:Consolas, Consolas;}.h{fill:#662d91;}.i{fill:#0071bc;}.j{fill:url(#d);}.f,.k{fill:#fff;}.f,.k,.g{font-size:31px;}.l{font-family:Calibri-Light, Calibri;}.m{fill:#93278f;}.n{opacity:.77;}</style><style
       id="style1-4-1">.e{fill:#662d91;}.f{fill:#0071bc;}.g{fill:url(#d);}.h{fill:#93278f;}.i{opacity:.77;}.j{font-family:Consolas, Consolas;font-size:31px;}</style><style
       id="style1-5-0">.cls-1{fill:#101010;}</style><style
       id="style1-1">.e{fill:#662d91;}.f{fill:#0071bc;}.g{fill:url(#d);}.h{fill:#93278f;}.i{opacity:.77;}.j{font-family:Consolas, Consolas;font-size:31px;}</style><style
       id="style1-2-7">.e,.f,.g{font-family:Consolas, Consolas;}.h{fill:#662d91;}.i{fill:#0071bc;}.j{fill:url(#d);}.f,.k{fill:#fff;}.f,.k,.g{font-size:31px;}.l{font-family:Calibri-Light, Calibri;}.m{fill:#93278f;}.n{opacity:.77;}</style><style
       id="style1-6-4">.e,.f,.g{font-family:Consolas, Consolas;}.h{fill:#662d91;}.i{fill:#0071bc;}.j{fill:url(#d);}.f,.k{fill:#fff;}.f,.k,.g{font-size:31px;}.l{font-family:Calibri-Light, Calibri;}.m{fill:#93278f;}.n{opacity:.77;}</style><style
       id="style1-4-8">.e{fill:#662d91;}.f{fill:#0071bc;}.g{fill:url(#d);}.h{fill:#93278f;}.i{opacity:.77;}.j{font-family:Consolas, Consolas;font-size:31px;}</style><style
       id="style1-5-2">.cls-1{fill:#101010;}</style><style
       id="style1-80">.e{fill:#662d91;}.f{fill:#0071bc;}.g{fill:url(#d);}.h{fill:#93278f;}.i{opacity:.77;}.j{font-family:Consolas, Consolas;font-size:31px;}</style><style
       id="style1-2-72">.e,.f,.g{font-family:Consolas, Consolas;}.h{fill:#662d91;}.i{fill:#0071bc;}.j{fill:url(#d);}.f,.k{fill:#fff;}.f,.k,.g{font-size:31px;}.l{font-family:Calibri-Light, Calibri;}.m{fill:#93278f;}.n{opacity:.77;}</style><style
       id="style1-6-25">.e,.f,.g{font-family:Consolas, Consolas;}.h{fill:#662d91;}.i{fill:#0071bc;}.j{fill:url(#d);}.f,.k{fill:#fff;}.f,.k,.g{font-size:31px;}.l{font-family:Calibri-Light, Calibri;}.m{fill:#93278f;}.n{opacity:.77;}</style><style
       id="style1-4-910">.e{fill:#662d91;}.f{fill:#0071bc;}.g{fill:url(#d);}.h{fill:#93278f;}.i{opacity:.77;}.j{font-family:Consolas, Consolas;font-size:31px;}</style><style
       id="style1-5-85">.cls-1{fill:#101010;}</style><style
       id="style1-10">.e{fill:#662d91;}.f{fill:#0071bc;}.g{fill:url(#d);}.h{fill:#93278f;}.i{opacity:.77;}.j{font-family:Consolas, Consolas;font-size:31px;}</style><style
       id="style1-2-48">.e,.f,.g{font-family:Consolas, Consolas;}.h{fill:#662d91;}.i{fill:#0071bc;}.j{fill:url(#d);}.f,.k{fill:#fff;}.f,.k,.g{font-size:31px;}.l{font-family:Calibri-Light, Calibri;}.m{fill:#93278f;}.n{opacity:.77;}</style><style
       id="style1-6-5">.e,.f,.g{font-family:Consolas, Consolas;}.h{fill:#662d91;}.i{fill:#0071bc;}.j{fill:url(#d);}.f,.k{fill:#fff;}.f,.k,.g{font-size:31px;}.l{font-family:Calibri-Light, Calibri;}.m{fill:#93278f;}.n{opacity:.77;}</style><style
       id="style1-4-92">.e{fill:#662d91;}.f{fill:#0071bc;}.g{fill:url(#d);}.h{fill:#93278f;}.i{opacity:.77;}.j{font-family:Consolas, Consolas;font-size:31px;}</style><style
       id="style1-5-54">.cls-1{fill:#101010;}</style><style
       id="style1-7">.e{fill:#662d91;}.f{fill:#0071bc;}.g{fill:url(#d);}.h{fill:#93278f;}.i{opacity:.77;}.j{font-family:Consolas, Consolas;font-size:31px;}</style><linearGradient
       id="d-0"
       x1="0"
       y1="491.51001"
       x2="1826.86"
       y2="491.51001"
       gradientUnits="userSpaceOnUse"><stop
         offset="0"
         stop-color="#ff7bac"
         id="stop1-3" /><stop
         offset=".58"
         stop-color="#3a62a8"
         stop-opacity=".8"
         id="stop2-6" /></linearGradient><style
       id="style1-2-96">.e,.f,.g{font-family:Consolas, Consolas;}.h{fill:#662d91;}.i{fill:#0071bc;}.j{fill:url(#d);}.f,.k{fill:#fff;}.f,.k,.g{font-size:31px;}.l{font-family:Calibri-Light, Calibri;}.m{fill:#93278f;}.n{opacity:.77;}</style><style
       id="style1-6-17">.e,.f,.g{font-family:Consolas, Consolas;}.h{fill:#662d91;}.i{fill:#0071bc;}.j{fill:url(#d);}.f,.k{fill:#fff;}.f,.k,.g{font-size:31px;}.l{font-family:Calibri-Light, Calibri;}.m{fill:#93278f;}.n{opacity:.77;}</style><style
       id="style1-4-7">.e{fill:#662d91;}.f{fill:#0071bc;}.g{fill:url(#d);}.h{fill:#93278f;}.i{opacity:.77;}.j{font-family:Consolas, Consolas;font-size:31px;}</style><style
       id="style1-5-19">.cls-1{fill:#101010;}</style><linearGradient
       inkscape:collect="always"
       xlink:href="#d-0"
       id="linearGradient1-9"
       gradientUnits="userSpaceOnUse"
       x1="0"
       y1="491.51001"
       x2="1826.86"
       y2="491.51001"
       gradientTransform="matrix(-0.03490442,0,0,0.01947668,-1011.9266,402.59079)" /></defs><g
     inkscape:label="Layer 1"
     inkscape:groupmode="layer"
     id="layer1"
     transform="translate(1095.5079,-289.14113)"><g
       id="g13"
       transform="translate(-19.815498,-113.44873)"><g
         id="g727"><rect
           width="63.765488"
           height="19.145966"
           rx="1.0122281"
           ry="0.56482375"
           id="Download_Menu_Container"
           x="1011.9266"
           y="402.58984"
           style="opacity:0.659228;stroke:none;stroke-width:3.97041;stroke-dasharray:none"
           transform="scale(-1,1)" /><path
           class="j"
           d="m -1074.6802,402.64922 c -0.5006,0 -0.9076,0.2271 -0.9076,0.50639 v 18.01632 c 0,0.2793 0.407,0.5064 0.9076,0.5064 h 61.7413 c 0.5006,0 0.9076,-0.2271 0.9076,-0.5064 v -18.01632 c 0,-0.27929 -0.407,-0.50639 -0.9076,-0.50639 h -61.7413 m 0,-0.0584 h 61.7413 c 0.5592,0 1.0123,0.25281 1.0123,0.56482 v 18.01632 c 0,0.31202 -0.4531,0.56483 -1.0123,0.56483 h -61.7413 c -0.5592,0 -1.0123,-0.25281 -1.0123,-0.56483 v -18.01632 c 4e-4,-0.31201 0.4534,-0.56482 1.0123,-0.56482 z"
           id="Download_Menu_Container_Stroke"
           style="font-size:31px;font-family:Consolas, Consolas;opacity:0.659228;fill:url(#linearGradient1-9);stroke:none;stroke-width:3.97041;stroke-dasharray:none" /><path
           d="m -1070.8326,420.357 q 0.037,0 0.069,0.014 0.034,0.014 0.057,0.0389 0.025,0.0249 0.039,0.0583 0.014,0.0324 0.014,0.0702 0,0.0367 -0.014,0.0691 -0.014,0.0324 -0.039,0.0573 -0.024,0.0238 -0.057,0.0378 -0.032,0.014 -0.069,0.014 -0.038,0 -0.07,-0.014 -0.032,-0.014 -0.057,-0.0378 -0.024,-0.0248 -0.038,-0.0573 -0.014,-0.0324 -0.014,-0.0691 0,-0.0378 0.014,-0.0702 0.014,-0.0335 0.038,-0.0583 0.025,-0.0249 0.057,-0.0389 0.033,-0.014 0.07,-0.014 z m 1.6914,0.3252 q -0.064,0.0162 -0.1318,0.0227 -0.068,0.008 -0.1383,0.008 -0.2042,0 -0.3047,-0.0918 -0.1005,-0.0929 -0.1005,-0.28414 v -0.56613 h -0.3036 v -0.15774 h 0.3036 v -0.29818 l 0.188,-0.0486 v 0.3468 h 0.4873 v 0.15774 h -0.4873 v 0.551 q 0,0.11668 0.062,0.17502 0.063,0.0573 0.1837,0.0573 0.052,0 0.1134,-0.008 0.062,-0.009 0.1286,-0.0259 z m 1.3478,0.0151 h -0.2496 l -0.2927,-0.41379 -0.2896,0.41379 h -0.2431 l 0.4203,-0.54452 -0.4008,-0.5402 h 0.2409 l 0.2852,0.41704 0.2798,-0.41704 h 0.2323 l -0.4073,0.54452 z m 1.1404,-0.0151 q -0.064,0.0162 -0.1318,0.0227 -0.068,0.008 -0.1383,0.008 -0.2042,0 -0.3046,-0.0918 -0.1005,-0.0929 -0.1005,-0.28414 v -0.56613 h -0.3036 v -0.15774 h 0.3036 v -0.29818 l 0.188,-0.0486 v 0.3468 h 0.4872 v 0.15774 h -0.4872 v 0.551 q 0,0.11668 0.062,0.17502 0.063,0.0573 0.1836,0.0573 0.052,0 0.1135,-0.008 0.062,-0.009 0.1285,-0.0259 z"
           id=".txt"
           style="font-size:2.21264px;font-family:Consolas, Consolas;-inkscape-font-specification:'Consolas, Consolas, Normal';letter-spacing:0.0276059px;word-spacing:0.00856734px;fill:#f5e9e9;fill-opacity:0.952038;stroke-width:7.48347;stroke-opacity:0.612903"
           aria-label=".txt" /><path
           d="m -1056.4838,420.24964 q 0.037,0 0.069,0.014 0.034,0.014 0.057,0.0389 0.025,0.0249 0.039,0.0583 0.014,0.0324 0.014,0.0702 0,0.0367 -0.014,0.0691 -0.014,0.0324 -0.039,0.0573 -0.024,0.0238 -0.057,0.0378 -0.032,0.014 -0.069,0.014 -0.038,0 -0.07,-0.014 -0.032,-0.014 -0.057,-0.0378 -0.024,-0.0248 -0.038,-0.0573 -0.014,-0.0324 -0.014,-0.0691 0,-0.0378 0.014,-0.0702 0.014,-0.0335 0.038,-0.0583 0.025,-0.0248 0.057,-0.0389 0.032,-0.014 0.07,-0.014 z m 1.7444,-0.22148 q 0,0.14478 -0.041,0.25281 -0.04,0.10804 -0.1112,0.17935 -0.071,0.0713 -0.1686,0.10696 -0.097,0.0357 -0.2107,0.0357 -0.052,0 -0.1037,-0.005 -0.051,-0.005 -0.1037,-0.0184 v 0.45377 h -0.188 v -1.52768 h 0.1675 l 0.012,0.18151 q 0.081,-0.11128 0.1728,-0.15558 0.092,-0.0454 0.1988,-0.0454 0.093,0 0.1632,0.0389 0.07,0.0389 0.1177,0.1102 0.048,0.0702 0.071,0.1707 0.024,0.0994 0.024,0.22256 z m -0.1923,0.009 q 0,-0.0854 -0.013,-0.15666 -0.012,-0.0713 -0.039,-0.12208 -0.027,-0.0508 -0.069,-0.0789 -0.042,-0.0292 -0.1005,-0.0292 -0.036,0 -0.072,0.0119 -0.037,0.0108 -0.077,0.0378 -0.039,0.0259 -0.083,0.0702 -0.043,0.0432 -0.093,0.10804 v 0.52615 q 0.052,0.0216 0.1091,0.0346 0.057,0.0119 0.1124,0.0119 0.1523,0 0.2387,-0.10264 0.086,-0.10372 0.086,-0.31115 z m 0.4543,0.0335 q 0,-0.13829 0.038,-0.24525 0.038,-0.10804 0.1069,-0.18151 0.07,-0.0745 0.1675,-0.11236 0.098,-0.0389 0.2182,-0.0389 0.052,0 0.1016,0.006 0.051,0.006 0.099,0.0205 v -0.45593 h 0.189 v 1.5266 h -0.1685 l -0.01,-0.20528 q -0.079,0.11452 -0.1707,0.16962 -0.092,0.0551 -0.1988,0.0551 -0.093,0 -0.1642,-0.0389 -0.07,-0.0389 -0.1178,-0.10912 -0.046,-0.0713 -0.07,-0.1707 -0.024,-0.0994 -0.024,-0.2204 z m 0.1923,-0.0119 q 0,0.19663 0.057,0.29387 0.058,0.0961 0.1642,0.0961 0.071,0 0.1502,-0.0637 0.08,-0.0637 0.1675,-0.18907 v -0.50346 q -0.047,-0.0216 -0.1027,-0.0324 -0.056,-0.0119 -0.1113,-0.0119 -0.1534,0 -0.2398,0.0994 -0.085,0.0994 -0.085,0.31115 z m 2.0696,-0.82001 q -0.148,-0.0313 -0.255,-0.0313 -0.2539,0 -0.2539,0.26577 v 0.19015 h 0.4754 v 0.15666 h -0.4754 v 0.77032 h -0.1912 v -0.77032 h -0.349 v -0.15666 h 0.349 v -0.17934 q 0,-0.43324 0.4516,-0.43324 0.1124,0 0.2485,0.0259 z m -1.1355,0.26685 z"
           id=".pdf"
           style="font-size:2.21264px;font-family:Consolas, Consolas;-inkscape-font-specification:'Consolas, Consolas, Normal';letter-spacing:0.0276059px;word-spacing:0.00856734px;fill:#f5e9e9;fill-opacity:0.952038;stroke-width:7.48347;stroke-opacity:0.612903"
           aria-label=".pdf" /><path
           d="m -1038.6855,420.24964 q 0.037,0 0.069,0.014 0.034,0.014 0.057,0.0389 0.025,0.0249 0.039,0.0583 0.014,0.0324 0.014,0.0702 0,0.0367 -0.014,0.0691 -0.014,0.0324 -0.039,0.0573 -0.024,0.0238 -0.057,0.0378 -0.032,0.014 -0.069,0.014 -0.038,0 -0.07,-0.014 -0.032,-0.014 -0.057,-0.0378 -0.024,-0.0248 -0.038,-0.0573 -0.014,-0.0324 -0.014,-0.0691 0,-0.0378 0.014,-0.0702 0.014,-0.0335 0.038,-0.0583 0.025,-0.0248 0.057,-0.0389 0.032,-0.014 0.07,-0.014 z m 0.7622,-0.17934 q 0,-0.13829 0.038,-0.24525 0.038,-0.10804 0.107,-0.18151 0.07,-0.0745 0.1675,-0.11236 0.098,-0.0389 0.2182,-0.0389 0.052,0 0.1016,0.006 0.051,0.006 0.099,0.0205 v -0.45593 h 0.189 v 1.5266 h -0.1685 l -0.01,-0.20528 q -0.079,0.11452 -0.1707,0.16962 -0.092,0.0551 -0.1988,0.0551 -0.093,0 -0.1642,-0.0389 -0.07,-0.0389 -0.1178,-0.10912 -0.046,-0.0713 -0.07,-0.1707 -0.024,-0.0994 -0.024,-0.2204 z m 0.1923,-0.0119 q 0,0.19663 0.057,0.29387 0.058,0.0961 0.1642,0.0961 0.071,0 0.1502,-0.0637 0.08,-0.0637 0.1675,-0.18907 v -0.50346 q -0.046,-0.0216 -0.1027,-0.0324 -0.056,-0.0119 -0.1113,-0.0119 -0.1534,0 -0.2398,0.0994 -0.085,0.0994 -0.085,0.31115 z m 2.0512,-0.0194 q 0,0.1264 -0.036,0.23228 -0.036,0.1048 -0.1027,0.18043 -0.067,0.0745 -0.1631,0.11668 -0.096,0.0411 -0.2182,0.0411 -0.1167,0 -0.2096,-0.0357 -0.092,-0.0367 -0.1567,-0.10696 -0.064,-0.0702 -0.098,-0.17394 -0.034,-0.10372 -0.034,-0.23877 0,-0.1264 0.036,-0.23012 0.036,-0.1048 0.1027,-0.17935 0.067,-0.0756 0.1631,-0.11668 0.096,-0.0421 0.2183,-0.0421 0.1166,0 0.2085,0.0367 0.093,0.0357 0.1566,0.10588 0.065,0.0691 0.098,0.17286 0.035,0.10372 0.035,0.23769 z m -0.1923,0.009 q 0,-0.10048 -0.023,-0.17502 -0.022,-0.0756 -0.063,-0.12533 -0.041,-0.0508 -0.1005,-0.0756 -0.058,-0.0259 -0.1307,-0.0259 -0.084,0 -0.1448,0.0335 -0.059,0.0324 -0.098,0.0875 -0.038,0.0551 -0.056,0.12856 -0.017,0.0724 -0.017,0.15234 0,0.10048 0.022,0.1761 0.023,0.0756 0.064,0.12641 0.041,0.0497 0.099,0.0756 0.058,0.0249 0.1319,0.0249 0.084,0 0.1436,-0.0324 0.061,-0.0335 0.098,-0.0886 0.039,-0.0551 0.056,-0.12748 0.018,-0.0735 0.018,-0.1545 z m 1.3349,0.50238 q -0.073,0.0281 -0.1513,0.0411 -0.077,0.014 -0.1588,0.014 -0.2571,0 -0.3965,-0.13937 -0.1383,-0.13937 -0.1383,-0.40731 0,-0.12856 0.04,-0.23336 0.04,-0.1048 0.1124,-0.17935 0.072,-0.0745 0.1728,-0.11452 0.1005,-0.041 0.2215,-0.041 0.084,0 0.1577,0.0119 0.073,0.0119 0.1405,0.0389 v 0.17934 q -0.07,-0.0367 -0.1437,-0.0529 -0.072,-0.0173 -0.1502,-0.0173 -0.072,0 -0.1372,0.0281 -0.064,0.027 -0.1123,0.0789 -0.049,0.0519 -0.077,0.12641 -0.028,0.0745 -0.028,0.16854 0,0.19663 0.095,0.29495 0.096,0.0972 0.2658,0.0972 0.077,0 0.148,-0.0173 0.072,-0.0173 0.1394,-0.0519 z m 1.3792,0.04 h -0.2496 l -0.2928,-0.41379 -0.2895,0.41379 h -0.2431 l 0.4202,-0.54452 -0.4008,-0.5402 h 0.2409 l 0.2853,0.41703 0.2798,-0.41703 h 0.2323 l -0.4073,0.54452 z"
           id=".docx"
           style="font-size:2.21264px;font-family:Consolas, Consolas;-inkscape-font-specification:'Consolas, Consolas, Normal';letter-spacing:0.0276059px;word-spacing:0.00856734px;fill:#f5e9e9;fill-opacity:0.952038;stroke-width:7.48347;stroke-opacity:0.612903"
           aria-label=".docx" /><path
           d="m -1021.9069,420.24964 q 0.037,0 0.069,0.014 0.034,0.014 0.057,0.0389 0.025,0.0249 0.039,0.0583 0.014,0.0324 0.014,0.0702 0,0.0367 -0.014,0.0691 -0.014,0.0324 -0.039,0.0573 -0.024,0.0238 -0.057,0.0378 -0.032,0.014 -0.069,0.014 -0.038,0 -0.07,-0.014 -0.032,-0.014 -0.057,-0.0378 -0.024,-0.0248 -0.038,-0.0573 -0.014,-0.0324 -0.014,-0.0691 0,-0.0378 0.014,-0.0702 0.014,-0.0335 0.038,-0.0583 0.025,-0.0248 0.057,-0.0389 0.032,-0.014 0.07,-0.014 z m 1.6893,0.34033 h -0.188 v -0.69253 q 0,-0.12533 -0.047,-0.18691 -0.047,-0.0627 -0.134,-0.0627 -0.038,0 -0.071,0.0108 -0.032,0.01 -0.068,0.0357 -0.036,0.0249 -0.078,0.0681 -0.042,0.0432 -0.097,0.10804 v 0.71954 h -0.188 v -1.5266 h 0.188 v 0.44188 l -0.01,0.17071 q 0.044,-0.0529 0.087,-0.0886 0.043,-0.0367 0.085,-0.0594 0.043,-0.0227 0.088,-0.0324 0.044,-0.01 0.092,-0.01 0.162,0 0.2506,0.0994 0.089,0.0983 0.089,0.29711 z m 1.2463,-0.0151 q -0.064,0.0162 -0.1318,0.0227 -0.068,0.008 -0.1383,0.008 -0.2042,0 -0.3047,-0.0918 -0.1005,-0.0929 -0.1005,-0.28414 v -0.56613 h -0.3036 v -0.15774 h 0.3036 v -0.29818 l 0.188,-0.0486 v 0.3468 h 0.4873 v 0.15774 h -0.4873 v 0.551 q 0,0.11668 0.062,0.17502 0.063,0.0573 0.1837,0.0573 0.052,0 0.1134,-0.008 0.062,-0.009 0.1286,-0.0259 z m 1.1436,0.0151 V 419.811 q 0,-0.0508 0,-0.0832 0,-0.0324 -0.012,-0.0508 -0.01,-0.0194 -0.021,-0.027 -0.012,-0.008 -0.03,-0.008 -0.022,0 -0.04,0.013 -0.018,0.013 -0.04,0.0421 -0.02,0.0292 -0.047,0.0778 -0.025,0.0475 -0.059,0.11776 v 0.69686 h -0.1718 v -0.75844 q 0,-0.0594 0,-0.0961 0,-0.0367 -0.012,-0.0573 -0.01,-0.0205 -0.02,-0.0281 -0.013,-0.008 -0.031,-0.008 -0.019,0 -0.037,0.0108 -0.017,0.0108 -0.039,0.0389 -0.021,0.0281 -0.046,0.0767 -0.026,0.0486 -0.062,0.12424 v 0.69686 h -0.1729 v -1.08472 h 0.1437 l 0.01,0.20636 q 0.028,-0.0616 0.054,-0.1048 0.027,-0.0432 0.055,-0.0691 0.028,-0.027 0.059,-0.0389 0.032,-0.013 0.071,-0.013 0.088,0 0.1329,0.0573 0.045,0.0573 0.045,0.17718 0.026,-0.0562 0.051,-0.0994 0.025,-0.0443 0.053,-0.0735 0.029,-0.0303 0.064,-0.0454 0.035,-0.0162 0.08,-0.0162 0.2042,0 0.2042,0.31439 v 0.78977 z m 0.8401,-1.3721 h -0.3209 v -0.1545 h 0.511 v 1.36994 h 0.3231 v 0.15666 h -0.8697 v -0.15666 h 0.3565 z"
           id=".html"
           style="font-size:2.21264px;font-family:Consolas, Consolas;-inkscape-font-specification:'Consolas, Consolas, Normal';letter-spacing:0.0276059px;word-spacing:0.00856734px;fill:#f5e9e9;fill-opacity:0.952038;stroke-width:7.48347;stroke-opacity:0.612903"
           aria-label=".html" /></g></g></g></svg>
