<?xml version="1.0" encoding="UTF-8" standalone="no"?>
<!-- Created with Inkscape (http://www.inkscape.org/) -->

<svg
   width="124.94806"
   height="50.759434"
   viewBox="0 0 33.059173 13.4301"
   version="1.1"
   id="svg1"
   xml:space="preserve"
   inkscape:version="1.3.2 (091e20e, 2023-11-25, custom)"
   sodipodi:docname="GO_Button.svg"
   inkscape:export-filename="Ascii_Web_Elements\ThinkerToy_Button.svg"
   inkscape:export-xdpi="96"
   inkscape:export-ydpi="96"
   xmlns:inkscape="http://www.inkscape.org/namespaces/inkscape"
   xmlns:sodipodi="http://sodipodi.sourceforge.net/DTD/sodipodi-0.dtd"
   xmlns:xlink="http://www.w3.org/1999/xlink"
   xmlns="http://www.w3.org/2000/svg"
   xmlns:svg="http://www.w3.org/2000/svg"><sodipodi:namedview
     id="namedview1"
     pagecolor="#505050"
     bordercolor="#eeeeee"
     borderopacity="1"
     inkscape:showpageshadow="0"
     inkscape:pageopacity="0"
     inkscape:pagecheckerboard="0"
     inkscape:deskcolor="#505050"
     inkscape:document-units="mm"
     inkscape:zoom="0.67954657"
     inkscape:cx="-254.58152"
     inkscape:cy="691.63766"
     inkscape:window-width="1350"
     inkscape:window-height="720"
     inkscape:window-x="0"
     inkscape:window-y="0"
     inkscape:window-maximized="0"
     inkscape:current-layer="layer1"><inkscape:page
       x="0"
       y="4.4645545e-17"
       width="33.059174"
       height="13.4301"
       id="page2"
       margin="0"
       bleed="0" /></sodipodi:namedview><defs
     id="defs1"><linearGradient
       id="linearGradient8"
       inkscape:collect="always"><stop
         style="stop-color:#d6d6d6;stop-opacity:1;"
         offset="0"
         id="stop8" /><stop
         style="stop-color:#f2aeea;stop-opacity:0.87224668;"
         offset="1"
         id="stop9" /></linearGradient><style
       id="style1">.e{fill:#662d91;}.f{fill:#0071bc;}.g{fill:url(#d);}.h{fill:#93278f;}.i{opacity:.77;}.j{font-family:Consolas, Consolas;font-size:31px;}</style><style
       id="style1-2">.e,.f,.g{font-family:Consolas, Consolas;}.h{fill:#662d91;}.i{fill:#0071bc;}.j{fill:url(#d);}.f,.k{fill:#fff;}.f,.k,.g{font-size:31px;}.l{font-family:Calibri-Light, Calibri;}.m{fill:#93278f;}.n{opacity:.77;}</style><style
       id="style1-6">.e,.f,.g{font-family:Consolas, Consolas;}.h{fill:#662d91;}.i{fill:#0071bc;}.j{fill:url(#d);}.f,.k{fill:#fff;}.f,.k,.g{font-size:31px;}.l{font-family:Calibri-Light, Calibri;}.m{fill:#93278f;}.n{opacity:.77;}</style><style
       id="style1-4">.e{fill:#662d91;}.f{fill:#0071bc;}.g{fill:url(#d);}.h{fill:#93278f;}.i{opacity:.77;}.j{font-family:Consolas, Consolas;font-size:31px;}</style><style
       id="style1-5">.cls-1{fill:#101010;}</style><linearGradient
       inkscape:collect="always"
       xlink:href="#linearGradient8"
       id="linearGradient9"
       x1="213.76091"
       y1="243.51685"
       x2="246.82008"
       y2="243.51685"
       gradientUnits="userSpaceOnUse" /></defs><g
     id="layer1"
     inkscape:groupmode="layer"
     inkscape:label="Layer 1"
     transform="translate(-210.88448,-196.20982)"><g
       id="GO_Button-7"
       transform="translate(-2.8764289,-40.591967)"
       style="fill:url(#linearGradient9);fill-opacity:1"
       inkscape:export-filename="GO_Button_Focus.svg"
       inkscape:export-xdpi="96"
       inkscape:export-ydpi="96"><g
         id="g18"
         style="fill:#e9e9e9;fill-opacity:1"><path
           fill-rule="evenodd"
           clip-rule="evenodd"
           d="m 232.47831,240.97982 c -0.38938,0.10899 -0.78423,0.21943 -1.24127,0.34361 -0.22326,0.0632 -0.27409,0.0776 -0.48184,-0.17501 -0.24919,-0.29753 -0.43194,-0.49 -0.78092,-0.66511 -1.04674,-0.54258 -2.06032,-0.38504 -3.00736,0.26262 -1.1298,0.77007 -1.71133,1.90772 -1.6947,3.32545 0.0165,1.40026 0.93041,2.55547 2.24307,2.74794 1.1298,0.15755 2.07684,-0.26251 2.8245,-1.15511 0.14949,-0.19247 0.28255,-0.4027 0.44867,-0.64765 h -3.20674 c -0.34898,0 -0.43205,-0.22749 -0.31572,-0.52513 0.21602,-0.54258 0.6148,-1.45264 0.84735,-1.90772 0.0499,-0.10507 0.16623,-0.28007 0.41541,-0.28007 h 5.34682 c 0.24019,-0.80169 0.62988,-1.55916 1.14974,-2.27593 1.21296,-1.68034 2.67511,-2.55548 4.65226,-2.92295 1.6948,-0.3151 3.2898,-0.14009 4.73532,0.8926 1.31266,0.94518 2.12674,2.22282 2.34276,3.90316 0.28245,2.36281 -0.36551,4.2882 -1.91072,5.93341 -1.09663,1.17267 -2.44246,1.90783 -3.98767,2.24038 -0.29474,0.0574 -0.58948,0.0847 -0.87958,0.11158 -0.15135,0.014 -0.30146,0.0279 -0.4496,0.046 -1.51205,-0.035 -2.89103,-0.4901 -4.0542,-1.54025 -0.81791,-0.74487 -1.38126,-1.66019 -1.66133,-2.72573 -0.19433,0.41344 -0.42667,0.80933 -0.69797,1.186 -1.19633,1.66277 -2.75817,2.69546 -4.73532,2.97553 -1.62837,0.22749 -3.14032,-0.10506 -4.46955,-1.15521 -1.22952,-0.98021 -1.92736,-2.2754 -2.11012,-3.8856 -0.21601,-1.90782 0.31568,-3.62308 1.41229,-5.12831 1.17971,-1.62775 2.74156,-2.66044 4.65228,-3.02802 1.56184,-0.29753 3.05715,-0.10496 4.40308,0.85768 0.88051,0.61253 1.51194,1.45275 1.92735,2.46787 0.0997,0.15755 0.0332,0.24505 -0.16623,0.29754 -0.58225,0.15579 -1.06182,0.28999 -1.55006,0.42646 z m 10.99261,1.99368 c 0.003,0.0588 0.007,0.12077 0.0116,0.1872 -0.0831,1.50522 -0.79756,2.62542 -2.11011,3.34301 -0.88062,0.47254 -1.7945,0.52512 -2.70828,0.10507 -1.19633,-0.56015 -1.82776,-1.94286 -1.52868,-3.3081 0.36562,-1.64521 1.36246,-2.6779 2.90767,-3.04548 1.57847,-0.38503 3.09052,0.59507 3.3896,2.32789 0.0234,0.12397 0.0304,0.24784 0.0382,0.39041 z"
           fill="#00acd7"
           id="path1-7-1"
           style="fill:#e9e9e9;fill-opacity:1;stroke:none;stroke-width:1.0331" /><path
           d="m 216.28642,240.78095 c -0.0332,0.0525 -0.0166,0.0875 0.0498,0.0875 l 4.94829,0.0176 c 0.0498,0 0.13292,-0.0526 0.16616,-0.10506 l 0.28246,-0.45508 c 0.0332,-0.0525 0.0166,-0.10497 -0.0498,-0.10497 h -4.86521 c -0.0665,0 -0.14955,0.035 -0.18277,0.0875 z"
           fill="#00acd7"
           id="path2-56-1"
           style="fill:#e9e9e9;fill-opacity:1;stroke:none;stroke-width:1.0331" /><path
           d="m 213.77751,242.39114 c -0.0332,0.0525 -0.0166,0.0875 0.0498,0.0875 l 6.79259,-0.0175 c 0.0665,0 0.13292,-0.035 0.14953,-0.10506 l 0.13293,-0.42006 c 0.0166,-0.0525 -0.0166,-0.10496 -0.0831,-0.10496 h -6.51013 c -0.0665,0 -0.14953,0.0349 -0.18277,0.0875 z"
           fill="#00acd7"
           id="path3-0-5"
           style="fill:#e9e9e9;fill-opacity:1;stroke:none;stroke-width:1.0331" /><path
           d="m 217.79838,243.98397 c -0.0332,0.0525 -0.0166,0.10497 0.0498,0.10497 l 2.5557,0.0176 c 0.0498,0 0.1163,-0.0525 0.1163,-0.12253 l 0.0332,-0.42005 c 0,-0.0701 -0.0332,-0.12253 -0.0997,-0.12253 h -2.25661 c -0.0665,0 -0.13293,0.0525 -0.16615,0.10496 z"
           fill="#00acd7"
           id="path4-1-2"
           style="fill:#e9e9e9;fill-opacity:1;stroke:none;stroke-width:1.0331" /></g></g></g></svg>
