<?xml version="1.0" encoding="UTF-8" standalone="no"?>
<!-- Created with Inkscape (http://www.inkscape.org/) -->

<svg
   width="37.083618"
   height="49.131714"
   viewBox="0 0 9.8117071 12.999433"
   version="1.1"
   id="svg1"
   xml:space="preserve"
   inkscape:version="1.3.2 (091e20e, 2023-11-25, custom)"
   sodipodi:docname="Ascii_Template_Elements.svg"
   inkscape:export-filename="Ascii_Web_Elements\ThinkerToy_Button.svg"
   inkscape:export-xdpi="96"
   inkscape:export-ydpi="96"
   xmlns:inkscape="http://www.inkscape.org/namespaces/inkscape"
   xmlns:sodipodi="http://sodipodi.sourceforge.net/DTD/sodipodi-0.dtd"
   xmlns="http://www.w3.org/2000/svg"
   xmlns:svg="http://www.w3.org/2000/svg"><sodipodi:namedview
     id="namedview1"
     pagecolor="#505050"
     bordercolor="#eeeeee"
     borderopacity="1"
     inkscape:showpageshadow="0"
     inkscape:pageopacity="0"
     inkscape:pagecheckerboard="0"
     inkscape:deskcolor="#505050"
     inkscape:document-units="mm"
     inkscape:zoom="0.67954657"
     inkscape:cx="-254.58152"
     inkscape:cy="691.63766"
     inkscape:window-width="1350"
     inkscape:window-height="720"
     inkscape:window-x="0"
     inkscape:window-y="0"
     inkscape:window-maximized="0"
     inkscape:current-layer="layer1" /><defs
     id="defs1"><style
       id="style1">.e{fill:#662d91;}.f{fill:#0071bc;}.g{fill:url(#d);}.h{fill:#93278f;}.i{opacity:.77;}.j{font-family:Consolas, Consolas;font-size:31px;}</style><style
       id="style1-2">.e,.f,.g{font-family:Consolas, Consolas;}.h{fill:#662d91;}.i{fill:#0071bc;}.j{fill:url(#d);}.f,.k{fill:#fff;}.f,.k,.g{font-size:31px;}.l{font-family:Calibri-Light, Calibri;}.m{fill:#93278f;}.n{opacity:.77;}</style><style
       id="style1-6">.e,.f,.g{font-family:Consolas, Consolas;}.h{fill:#662d91;}.i{fill:#0071bc;}.j{fill:url(#d);}.f,.k{fill:#fff;}.f,.k,.g{font-size:31px;}.l{font-family:Calibri-Light, Calibri;}.m{fill:#93278f;}.n{opacity:.77;}</style><style
       id="style1-4">.e{fill:#662d91;}.f{fill:#0071bc;}.g{fill:url(#d);}.h{fill:#93278f;}.i{opacity:.77;}.j{font-family:Consolas, Consolas;font-size:31px;}</style><style
       id="style1-5">.cls-1{fill:#101010;}</style></defs><g
     id="layer1"
     inkscape:groupmode="layer"
     inkscape:label="Layer 1"
     transform="translate(-466.6656,-156.38155)"><g
       id="HTML_Button"
       transform="translate(0,-46.56669)"><path
         style="fill:#333333;stroke-width:0.0253895"
         d="m 474.58448,215.94766 h -7.1834 c -0.40563,-0.001 -0.73427,-0.32986 -0.73549,-0.73548 v -11.52847 c 10e-4,-0.40562 0.32986,-0.73426 0.73549,-0.73548 h 8.34076 c 0.40562,0.001 0.73426,0.32986 0.73548,0.73548 v 10.3766"
         id="path1-4" /><path
         style="fill:#e21b1b;stroke-width:0.0253895"
         d="m 474.58408,214.4377 v 1.50996 l 1.89324,-1.88735 h -1.51565 c -0.2082,6.1e-4 -0.37698,0.16919 -0.37759,0.37739 z"
         id="path2-7" /><path
         style="fill:#e21b1b;stroke-width:0.0253895"
         d="m 468.387,206.9941 2.17334,-1.00928 v 0.47976 l -1.643,0.71964 v 0.009 l 1.643,0.71964 v 0.47874 l -2.17334,-1.00928 z"
         id="path3-10" /><path
         style="fill:#e21b1b;stroke-width:0.0253895"
         d="m 470.89488,208.57455 0.96866,-3.28236 h 0.45721 l -0.96866,3.28236 z"
         id="path4-7" /><path
         style="fill:#e21b1b;stroke-width:0.0253895"
         d="m 474.75591,207.39647 -2.17334,0.99527 v -0.47894 l 1.68018,-0.71944 v -0.009 l -1.67917,-0.71964 v -0.47976 l 2.17335,0.99527 z"
         id="path5" /><path
         style="fill:#ffffff;stroke-width:0.0253895"
         d="m 468.52614,212.06815 h -0.47489 l 0.50779,-2.42541 h 0.47489 l -0.18281,0.86365 c 0.0908,-0.0741 0.19174,-0.13508 0.2996,-0.18118 0.0949,-0.0374 0.19601,-0.0563 0.29797,-0.0555 0.12431,-0.007 0.24618,0.0372 0.33738,0.12186 0.0841,0.0851 0.12918,0.20129 0.1241,0.32093 -0.005,0.11049 -0.0197,0.22018 -0.0449,0.32783 l -0.21571,1.02777 h -0.47488 l 0.21997,-1.04727 c 0.0171,-0.0719 0.0286,-0.14482 0.0347,-0.21835 0.002,-0.0524 -0.0175,-0.10359 -0.0546,-0.14056 -0.0406,-0.037 -0.0942,-0.0561 -0.14889,-0.053 -0.0833,10e-4 -0.16351,0.0305 -0.2283,0.0827 -0.0928,0.0705 -0.16717,0.16229 -0.21652,0.26791 -0.0485,0.13385 -0.0851,0.27156 -0.10928,0.41192 z"
         id="path6-0" /><path
         style="fill:#ffffff;stroke-width:0.0253895"
         d="m 470.23373,210.66299 0.0727,-0.35221 h 0.23155 l 0.0579,-0.28131 0.54435,-0.32763 -0.12735,0.60935 h 0.28964 l -0.0727,0.3522 h -0.29127 l -0.15396,0.7363 c -0.0175,0.0754 -0.0309,0.15152 -0.0406,0.2283 -0.002,0.0323 0.011,0.0636 0.0347,0.0853 0.0372,0.0242 0.0817,0.0349 0.12573,0.0305 0.0209,0 0.0731,-0.004 0.15701,-0.0116 l -0.0743,0.3522 c -0.0827,0.0169 -0.16696,0.0252 -0.25146,0.025 -0.12938,0.011 -0.25856,-0.0234 -0.3656,-0.0969 -0.0776,-0.0674 -0.12005,-0.16676 -0.11477,-0.26933 0.011,-0.12593 0.0313,-0.25105 0.0609,-0.37394 l 0.14726,-0.70664 z"
         id="path7" /><path
         style="fill:#ffffff;stroke-width:0.0253895"
         d="m 471.59542,210.31078 h 0.44686 l -0.0443,0.21368 c 0.14137,-0.15497 0.3388,-0.24678 0.54841,-0.25511 0.10827,-0.007 0.21592,0.0221 0.3061,0.0827 0.0725,0.0565 0.12146,0.13791 0.13731,0.2283 0.0676,-0.0943 0.15741,-0.17021 0.26141,-0.2216 0.10887,-0.0585 0.23053,-0.0892 0.35403,-0.0894 0.11984,-0.007 0.23744,0.0333 0.32763,0.11253 0.0794,0.0782 0.12207,0.18646 0.1174,0.29797 -0.006,0.10602 -0.0219,0.21124 -0.0465,0.31442 l -0.22444,1.07388 h -0.47489 l 0.22485,-1.07368 c 0.027,-0.13466 0.0406,-0.21083 0.0406,-0.2283 0.002,-0.0429 -0.0138,-0.0845 -0.0439,-0.11496 -0.0366,-0.0307 -0.0837,-0.0459 -0.13141,-0.0422 -0.12979,0.006 -0.24801,0.0764 -0.31605,0.18707 -0.0888,0.14502 -0.14746,0.3065 -0.17224,0.47488 l -0.16595,0.79724 h -0.47488 l 0.22159,-1.0621 c 0.0191,-0.0782 0.0321,-0.15762 0.039,-0.23785 10e-4,-0.0431 -0.0156,-0.0845 -0.0469,-0.11415 -0.0358,-0.0313 -0.0825,-0.0473 -0.12999,-0.0447 -0.0567,0.001 -0.11192,0.0175 -0.16046,0.0465 -0.0565,0.0321 -0.10583,0.0754 -0.14482,0.12735 -0.0463,0.0634 -0.0825,0.13386 -0.10684,0.2084 -0.0136,0.0396 -0.0349,0.12959 -0.0644,0.26974 l -0.16981,0.80678 h -0.47468 z"
         id="path8" /><path
         style="fill:#ffffff;stroke-width:0.0253895"
         d="m 474.25259,212.06815 0.50779,-2.42541 h 0.47326 l -0.50637,2.42541 z"
         id="path9-8" /></g></g></svg>
