<?xml version="1.0" encoding="UTF-8" standalone="no"?>
<!-- Created with Inkscape (http://www.inkscape.org/) -->

<svg
   width="243.04021mm"
   height="138.71904mm"
   viewBox="0 0 243.04021 138.71904"
   version="1.1"
   id="svg1"
   xml:space="preserve"
   xmlns:inkscape="http://www.inkscape.org/namespaces/inkscape"
   xmlns:sodipodi="http://sodipodi.sourceforge.net/DTD/sodipodi-0.dtd"
   xmlns:xlink="http://www.w3.org/1999/xlink"
   xmlns="http://www.w3.org/2000/svg"
   xmlns:svg="http://www.w3.org/2000/svg"><sodipodi:namedview
     id="namedview1"
     pagecolor="#505050"
     bordercolor="#eeeeee"
     borderopacity="1"
     inkscape:showpageshadow="0"
     inkscape:pageopacity="0"
     inkscape:pagecheckerboard="0"
     inkscape:deskcolor="#505050"
     inkscape:document-units="mm"><inkscape:page
       x="0"
       y="2.2334207e-13"
       width="243.04021"
       height="138.71906"
       id="page2"
       margin="0"
       bleed="0" /></sodipodi:namedview><defs
     id="defs1"><style
       id="style1">.e{fill:#662d91;}.f{fill:#0071bc;}.g{fill:url(#d);}.h{fill:#93278f;}.i{opacity:.77;}.j{font-family:Consolas, Consolas;font-size:31px;}</style><style
       id="style1-2">.e,.f,.g{font-family:Consolas, Consolas;}.h{fill:#662d91;}.i{fill:#0071bc;}.j{fill:url(#d);}.f,.k{fill:#fff;}.f,.k,.g{font-size:31px;}.l{font-family:Calibri-Light, Calibri;}.m{fill:#93278f;}.n{opacity:.77;}</style><style
       id="style1-6">.e,.f,.g{font-family:Consolas, Consolas;}.h{fill:#662d91;}.i{fill:#0071bc;}.j{fill:url(#d);}.f,.k{fill:#fff;}.f,.k,.g{font-size:31px;}.l{font-family:Calibri-Light, Calibri;}.m{fill:#93278f;}.n{opacity:.77;}</style><style
       id="style1-4">.e{fill:#662d91;}.f{fill:#0071bc;}.g{fill:url(#d);}.h{fill:#93278f;}.i{opacity:.77;}.j{font-family:Consolas, Consolas;font-size:31px;}</style><style
       id="style1-5">.cls-1{fill:#101010;}</style><style
       id="style1-51">.e{fill:#662d91;}.f{fill:#0071bc;}.g{fill:url(#d);}.h{fill:#93278f;}.i{opacity:.77;}.j{font-family:Consolas, Consolas;font-size:31px;}</style><style
       id="style1-2-2">.e,.f,.g{font-family:Consolas, Consolas;}.h{fill:#662d91;}.i{fill:#0071bc;}.j{fill:url(#d);}.f,.k{fill:#fff;}.f,.k,.g{font-size:31px;}.l{font-family:Calibri-Light, Calibri;}.m{fill:#93278f;}.n{opacity:.77;}</style><style
       id="style1-6-2">.e,.f,.g{font-family:Consolas, Consolas;}.h{fill:#662d91;}.i{fill:#0071bc;}.j{fill:url(#d);}.f,.k{fill:#fff;}.f,.k,.g{font-size:31px;}.l{font-family:Calibri-Light, Calibri;}.m{fill:#93278f;}.n{opacity:.77;}</style><style
       id="style1-4-2">.e{fill:#662d91;}.f{fill:#0071bc;}.g{fill:url(#d);}.h{fill:#93278f;}.i{opacity:.77;}.j{font-family:Consolas, Consolas;font-size:31px;}</style><style
       id="style1-5-6">.cls-1{fill:#101010;}</style><style
       id="style1-3">.e{fill:#662d91;}.f{fill:#0071bc;}.g{fill:url(#d);}.h{fill:#93278f;}.i{opacity:.77;}.j{font-family:Consolas, Consolas;font-size:31px;}</style><style
       id="style1-2-4">.e,.f,.g{font-family:Consolas, Consolas;}.h{fill:#662d91;}.i{fill:#0071bc;}.j{fill:url(#d);}.f,.k{fill:#fff;}.f,.k,.g{font-size:31px;}.l{font-family:Calibri-Light, Calibri;}.m{fill:#93278f;}.n{opacity:.77;}</style><style
       id="style1-6-0">.e,.f,.g{font-family:Consolas, Consolas;}.h{fill:#662d91;}.i{fill:#0071bc;}.j{fill:url(#d);}.f,.k{fill:#fff;}.f,.k,.g{font-size:31px;}.l{font-family:Calibri-Light, Calibri;}.m{fill:#93278f;}.n{opacity:.77;}</style><style
       id="style1-4-0">.e{fill:#662d91;}.f{fill:#0071bc;}.g{fill:url(#d);}.h{fill:#93278f;}.i{opacity:.77;}.j{font-family:Consolas, Consolas;font-size:31px;}</style><style
       id="style1-5-5">.cls-1{fill:#101010;}</style><style
       id="style1-50">.f{font-family:EdwardianScriptITC, Edwardian Script ITC;font-size:355px;}.f,.g,.h{fill:#fff;}.i{fill:#662d91;}.j{stroke-width:3px;}.j,.k,.l,.m{fill:none;}.j,.k,.m{stroke:#fff;stroke-miterlimit:10;}.k{stroke-width:2px;}.n{fill:#0071bc;}.o{fill:url(#d);}.p{fill:url(#e);}.h,.q{font-family:Consolas, Consolas;font-size:31px;}.r{opacity:.69;}.r,.s{fill:#29abe2;}.t{fill:#93278f;}.m{stroke-width:4px;}.u{opacity:.77;}</style><style
       id="style1-3-0">.f{opacity:.83;}.g{font-family:EdwardianScriptITC, Edwardian Script ITC;font-size:249.87px;}.g,.h{fill:#fff;}.i{fill:#662d91;}.j{stroke-width:3px;}.j,.k{fill:none;stroke:#fff;stroke-miterlimit:10;}.l{fill:#0071bc;}.m{fill:url(#d);}.n{fill:url(#e);}.h,.o{font-family:Consolas, Consolas;font-size:31px;}.p{opacity:.69;}.p,.q{fill:#29abe2;}.r{fill:#93278f;}.k{stroke-width:4px;}</style><style
       id="style1-2-45">.f{opacity:.83;}.g{font-family:EdwardianScriptITC, Edwardian Script ITC;font-size:275.28px;}.g,.h{fill:#fff;}.i{fill:#662d91;}.j{stroke-width:2px;}.j,.k{fill:none;stroke:#fff;stroke-miterlimit:10;}.l{fill:#0071bc;}.m{fill:url(#d);}.n{fill:url(#e);}.h,.o{font-family:Consolas, Consolas;font-size:31px;}.p{opacity:.69;}.p,.q{fill:#29abe2;}.r{fill:#93278f;}.k{stroke-width:4px;}</style><style
       id="style1-68">.e{fill:#662d91;}.f{fill:#0071bc;}.g{fill:url(#d);}.h{fill:#93278f;}.i{opacity:.77;}.j{font-family:Consolas, Consolas;font-size:31px;}</style><style
       id="style1-2-3">.e,.f,.g{font-family:Consolas, Consolas;}.h{fill:#662d91;}.i{fill:#0071bc;}.j{fill:url(#d);}.f,.k{fill:#fff;}.f,.k,.g{font-size:31px;}.l{font-family:Calibri-Light, Calibri;}.m{fill:#93278f;}.n{opacity:.77;}</style><style
       id="style1-6-1">.e,.f,.g{font-family:Consolas, Consolas;}.h{fill:#662d91;}.i{fill:#0071bc;}.j{fill:url(#d);}.f,.k{fill:#fff;}.f,.k,.g{font-size:31px;}.l{font-family:Calibri-Light, Calibri;}.m{fill:#93278f;}.n{opacity:.77;}</style><style
       id="style1-4-4">.e{fill:#662d91;}.f{fill:#0071bc;}.g{fill:url(#d);}.h{fill:#93278f;}.i{opacity:.77;}.j{font-family:Consolas, Consolas;font-size:31px;}</style><style
       id="style1-5-8">.cls-1{fill:#101010;}</style><style
       id="style1-8">.f{font-family:EdwardianScriptITC, Edwardian Script ITC;font-size:355px;}.f,.g,.h{fill:#fff;}.i{fill:#662d91;}.j{stroke-width:3px;}.j,.k,.l,.m{fill:none;}.j,.k,.m{stroke:#fff;stroke-miterlimit:10;}.k{stroke-width:2px;}.n{fill:#0071bc;}.o{fill:url(#d);}.p{fill:url(#e);}.h,.q{font-family:Consolas, Consolas;font-size:31px;}.r{opacity:.69;}.r,.s{fill:#29abe2;}.t{fill:#93278f;}.m{stroke-width:4px;}.u{opacity:.77;}</style><style
       id="style1-3-4">.f{opacity:.83;}.g{font-family:EdwardianScriptITC, Edwardian Script ITC;font-size:249.87px;}.g,.h{fill:#fff;}.i{fill:#662d91;}.j{stroke-width:3px;}.j,.k{fill:none;stroke:#fff;stroke-miterlimit:10;}.l{fill:#0071bc;}.m{fill:url(#d);}.n{fill:url(#e);}.h,.o{font-family:Consolas, Consolas;font-size:31px;}.p{opacity:.69;}.p,.q{fill:#29abe2;}.r{fill:#93278f;}.k{stroke-width:4px;}</style><style
       id="style1-2-9">.f{opacity:.83;}.g{font-family:EdwardianScriptITC, Edwardian Script ITC;font-size:275.28px;}.g,.h{fill:#fff;}.i{fill:#662d91;}.j{stroke-width:2px;}.j,.k{fill:none;stroke:#fff;stroke-miterlimit:10;}.l{fill:#0071bc;}.m{fill:url(#d);}.n{fill:url(#e);}.h,.o{font-family:Consolas, Consolas;font-size:31px;}.p{opacity:.69;}.p,.q{fill:#29abe2;}.r{fill:#93278f;}.k{stroke-width:4px;}</style><style
       id="style1-9">.f{font-family:EdwardianScriptITC, Edwardian Script ITC;font-size:355px;}.f,.g,.h{fill:#fff;}.i{fill:#662d91;}.j{stroke-width:3px;}.j,.k,.l,.m{fill:none;}.j,.k,.m{stroke:#fff;stroke-miterlimit:10;}.k{stroke-width:2px;}.n{fill:#0071bc;}.o{fill:url(#d);}.p{fill:url(#e);}.h,.q{font-family:Consolas, Consolas;font-size:31px;}.r{opacity:.69;}.r,.s{fill:#29abe2;}.t{fill:#93278f;}.m{stroke-width:4px;}.u{opacity:.77;}</style><style
       id="style1-3-8">.f{opacity:.83;}.g{font-family:EdwardianScriptITC, Edwardian Script ITC;font-size:249.87px;}.g,.h{fill:#fff;}.i{fill:#662d91;}.j{stroke-width:3px;}.j,.k{fill:none;stroke:#fff;stroke-miterlimit:10;}.l{fill:#0071bc;}.m{fill:url(#d);}.n{fill:url(#e);}.h,.o{font-family:Consolas, Consolas;font-size:31px;}.p{opacity:.69;}.p,.q{fill:#29abe2;}.r{fill:#93278f;}.k{stroke-width:4px;}</style><style
       id="style1-2-30">.f{opacity:.83;}.g{font-family:EdwardianScriptITC, Edwardian Script ITC;font-size:275.28px;}.g,.h{fill:#fff;}.i{fill:#662d91;}.j{stroke-width:2px;}.j,.k{fill:none;stroke:#fff;stroke-miterlimit:10;}.l{fill:#0071bc;}.m{fill:url(#d);}.n{fill:url(#e);}.h,.o{font-family:Consolas, Consolas;font-size:31px;}.p{opacity:.69;}.p,.q{fill:#29abe2;}.r{fill:#93278f;}.k{stroke-width:4px;}</style><style
       id="style1-30">.f{font-family:EdwardianScriptITC, Edwardian Script ITC;font-size:355px;}.f,.g,.h{fill:#fff;}.i{fill:#662d91;}.j{stroke-width:3px;}.j,.k,.l,.m{fill:none;}.j,.k,.m{stroke:#fff;stroke-miterlimit:10;}.k{stroke-width:2px;}.n{fill:#0071bc;}.o{fill:url(#d);}.p{fill:url(#e);}.h,.q{font-family:Consolas, Consolas;font-size:31px;}.r{opacity:.69;}.r,.s{fill:#29abe2;}.t{fill:#93278f;}.m{stroke-width:4px;}.u{opacity:.77;}</style><style
       id="style1-3-04">.f{opacity:.83;}.g{font-family:EdwardianScriptITC, Edwardian Script ITC;font-size:249.87px;}.g,.h{fill:#fff;}.i{fill:#662d91;}.j{stroke-width:3px;}.j,.k{fill:none;stroke:#fff;stroke-miterlimit:10;}.l{fill:#0071bc;}.m{fill:url(#d);}.n{fill:url(#e);}.h,.o{font-family:Consolas, Consolas;font-size:31px;}.p{opacity:.69;}.p,.q{fill:#29abe2;}.r{fill:#93278f;}.k{stroke-width:4px;}</style><style
       id="style1-2-8">.f{opacity:.83;}.g{font-family:EdwardianScriptITC, Edwardian Script ITC;font-size:275.28px;}.g,.h{fill:#fff;}.i{fill:#662d91;}.j{stroke-width:2px;}.j,.k{fill:none;stroke:#fff;stroke-miterlimit:10;}.l{fill:#0071bc;}.m{fill:url(#d);}.n{fill:url(#e);}.h,.o{font-family:Consolas, Consolas;font-size:31px;}.p{opacity:.69;}.p,.q{fill:#29abe2;}.r{fill:#93278f;}.k{stroke-width:4px;}</style><style
       id="style1-57">.f{font-family:EdwardianScriptITC, Edwardian Script ITC;font-size:355px;}.f,.g,.h{fill:#fff;}.i{fill:#662d91;}.j{stroke-width:3px;}.j,.k,.l,.m{fill:none;}.j,.k,.m{stroke:#fff;stroke-miterlimit:10;}.k{stroke-width:2px;}.n{fill:#0071bc;}.o{fill:url(#d);}.p{fill:url(#e);}.h,.q{font-family:Consolas, Consolas;font-size:31px;}.r{opacity:.69;}.r,.s{fill:#29abe2;}.t{fill:#93278f;}.m{stroke-width:4px;}.u{opacity:.77;}</style><style
       id="style1-3-7">.f{opacity:.83;}.g{font-family:EdwardianScriptITC, Edwardian Script ITC;font-size:249.87px;}.g,.h{fill:#fff;}.i{fill:#662d91;}.j{stroke-width:3px;}.j,.k{fill:none;stroke:#fff;stroke-miterlimit:10;}.l{fill:#0071bc;}.m{fill:url(#d);}.n{fill:url(#e);}.h,.o{font-family:Consolas, Consolas;font-size:31px;}.p{opacity:.69;}.p,.q{fill:#29abe2;}.r{fill:#93278f;}.k{stroke-width:4px;}</style><style
       id="style1-47">.f{font-family:EdwardianScriptITC, Edwardian Script ITC;font-size:355px;}.f,.g,.h{fill:#fff;}.i{fill:#662d91;}.j{stroke-width:3px;}.j,.k,.l,.m{fill:none;}.j,.k,.m{stroke:#fff;stroke-miterlimit:10;}.k{stroke-width:2px;}.n{fill:#0071bc;}.o{fill:url(#d);}.p{fill:url(#e);}.h,.q{font-family:Consolas, Consolas;font-size:31px;}.r{opacity:.69;}.r,.s{fill:#29abe2;}.t{fill:#93278f;}.m{stroke-width:4px;}.u{opacity:.77;}</style><style
       id="style1-3-83">.f{opacity:.83;}.g{font-family:EdwardianScriptITC, Edwardian Script ITC;font-size:249.87px;}.g,.h{fill:#fff;}.i{fill:#662d91;}.j{stroke-width:3px;}.j,.k{fill:none;stroke:#fff;stroke-miterlimit:10;}.l{fill:#0071bc;}.m{fill:url(#d);}.n{fill:url(#e);}.h,.o{font-family:Consolas, Consolas;font-size:31px;}.p{opacity:.69;}.p,.q{fill:#29abe2;}.r{fill:#93278f;}.k{stroke-width:4px;}</style><style
       id="style1-35">.f{font-family:EdwardianScriptITC, Edwardian Script ITC;font-size:355px;}.f,.g,.h{fill:#fff;}.i{fill:#662d91;}.j{stroke-width:3px;}.j,.k,.l,.m{fill:none;}.j,.k,.m{stroke:#fff;stroke-miterlimit:10;}.k{stroke-width:2px;}.n{fill:#0071bc;}.o{fill:url(#d);}.p{fill:url(#e);}.h,.q{font-family:Consolas, Consolas;font-size:31px;}.r{opacity:.69;}.r,.s{fill:#29abe2;}.t{fill:#93278f;}.m{stroke-width:4px;}.u{opacity:.77;}</style><style
       id="style1-3-6">.f{opacity:.83;}.g{font-family:EdwardianScriptITC, Edwardian Script ITC;font-size:249.87px;}.g,.h{fill:#fff;}.i{fill:#662d91;}.j{stroke-width:3px;}.j,.k{fill:none;stroke:#fff;stroke-miterlimit:10;}.l{fill:#0071bc;}.m{fill:url(#d);}.n{fill:url(#e);}.h,.o{font-family:Consolas, Consolas;font-size:31px;}.p{opacity:.69;}.p,.q{fill:#29abe2;}.r{fill:#93278f;}.k{stroke-width:4px;}</style><style
       id="style1-27">.f{font-family:EdwardianScriptITC, Edwardian Script ITC;font-size:355px;}.f,.g,.h{fill:#fff;}.i{fill:#662d91;}.j{stroke-width:3px;}.j,.k,.l,.m{fill:none;}.j,.k,.m{stroke:#fff;stroke-miterlimit:10;}.k{stroke-width:2px;}.n{fill:#0071bc;}.o{fill:url(#d);}.p{fill:url(#e);}.h,.q{font-family:Consolas, Consolas;font-size:31px;}.r{opacity:.69;}.r,.s{fill:#29abe2;}.t{fill:#93278f;}.m{stroke-width:4px;}.u{opacity:.77;}</style><style
       id="style1-3-2">.f{opacity:.83;}.g{font-family:EdwardianScriptITC, Edwardian Script ITC;font-size:249.87px;}.g,.h{fill:#fff;}.i{fill:#662d91;}.j{stroke-width:3px;}.j,.k{fill:none;stroke:#fff;stroke-miterlimit:10;}.l{fill:#0071bc;}.m{fill:url(#d);}.n{fill:url(#e);}.h,.o{font-family:Consolas, Consolas;font-size:31px;}.p{opacity:.69;}.p,.q{fill:#29abe2;}.r{fill:#93278f;}.k{stroke-width:4px;}</style><style
       id="style1-44">.e{fill:#662d91;}.f{fill:#0071bc;}.g{fill:url(#d);}.h{fill:#93278f;}.i{opacity:.77;}.j{font-family:Consolas, Consolas;font-size:31px;}</style><style
       id="style1-2-42">.e,.f,.g{font-family:Consolas, Consolas;}.h{fill:#662d91;}.i{fill:#0071bc;}.j{fill:url(#d);}.f,.k{fill:#fff;}.f,.k,.g{font-size:31px;}.l{font-family:Calibri-Light, Calibri;}.m{fill:#93278f;}.n{opacity:.77;}</style><style
       id="style1-6-7">.e,.f,.g{font-family:Consolas, Consolas;}.h{fill:#662d91;}.i{fill:#0071bc;}.j{fill:url(#d);}.f,.k{fill:#fff;}.f,.k,.g{font-size:31px;}.l{font-family:Calibri-Light, Calibri;}.m{fill:#93278f;}.n{opacity:.77;}</style><style
       id="style1-4-9">.e{fill:#662d91;}.f{fill:#0071bc;}.g{fill:url(#d);}.h{fill:#93278f;}.i{opacity:.77;}.j{font-family:Consolas, Consolas;font-size:31px;}</style><style
       id="style1-5-1">.cls-1{fill:#101010;}</style><style
       id="style1-53">.e{fill:#662d91;}.f{fill:#0071bc;}.g{fill:url(#d);}.h{fill:#93278f;}.i{opacity:.77;}.j{font-family:Consolas, Consolas;font-size:31px;}</style><style
       id="style1-2-0">.e,.f,.g{font-family:Consolas, Consolas;}.h{fill:#662d91;}.i{fill:#0071bc;}.j{fill:url(#d);}.f,.k{fill:#fff;}.f,.k,.g{font-size:31px;}.l{font-family:Calibri-Light, Calibri;}.m{fill:#93278f;}.n{opacity:.77;}</style><style
       id="style1-6-8">.e,.f,.g{font-family:Consolas, Consolas;}.h{fill:#662d91;}.i{fill:#0071bc;}.j{fill:url(#d);}.f,.k{fill:#fff;}.f,.k,.g{font-size:31px;}.l{font-family:Calibri-Light, Calibri;}.m{fill:#93278f;}.n{opacity:.77;}</style><style
       id="style1-4-91">.e{fill:#662d91;}.f{fill:#0071bc;}.g{fill:url(#d);}.h{fill:#93278f;}.i{opacity:.77;}.j{font-family:Consolas, Consolas;font-size:31px;}</style><style
       id="style1-5-3">.cls-1{fill:#101010;}</style><style
       id="style1-36">.e{fill:#662d91;}.f{fill:#0071bc;}.g{fill:url(#d);}.h{fill:#93278f;}.i{opacity:.77;}.j{font-family:Consolas, Consolas;font-size:31px;}</style><style
       id="style1-2-5">.e,.f,.g{font-family:Consolas, Consolas;}.h{fill:#662d91;}.i{fill:#0071bc;}.j{fill:url(#d);}.f,.k{fill:#fff;}.f,.k,.g{font-size:31px;}.l{font-family:Calibri-Light, Calibri;}.m{fill:#93278f;}.n{opacity:.77;}</style><style
       id="style1-6-28">.e,.f,.g{font-family:Consolas, Consolas;}.h{fill:#662d91;}.i{fill:#0071bc;}.j{fill:url(#d);}.f,.k{fill:#fff;}.f,.k,.g{font-size:31px;}.l{font-family:Calibri-Light, Calibri;}.m{fill:#93278f;}.n{opacity:.77;}</style><style
       id="style1-4-1">.e{fill:#662d91;}.f{fill:#0071bc;}.g{fill:url(#d);}.h{fill:#93278f;}.i{opacity:.77;}.j{font-family:Consolas, Consolas;font-size:31px;}</style><style
       id="style1-5-0">.cls-1{fill:#101010;}</style><style
       id="style1-1">.e{fill:#662d91;}.f{fill:#0071bc;}.g{fill:url(#d);}.h{fill:#93278f;}.i{opacity:.77;}.j{font-family:Consolas, Consolas;font-size:31px;}</style><style
       id="style1-2-7">.e,.f,.g{font-family:Consolas, Consolas;}.h{fill:#662d91;}.i{fill:#0071bc;}.j{fill:url(#d);}.f,.k{fill:#fff;}.f,.k,.g{font-size:31px;}.l{font-family:Calibri-Light, Calibri;}.m{fill:#93278f;}.n{opacity:.77;}</style><style
       id="style1-6-4">.e,.f,.g{font-family:Consolas, Consolas;}.h{fill:#662d91;}.i{fill:#0071bc;}.j{fill:url(#d);}.f,.k{fill:#fff;}.f,.k,.g{font-size:31px;}.l{font-family:Calibri-Light, Calibri;}.m{fill:#93278f;}.n{opacity:.77;}</style><style
       id="style1-4-8">.e{fill:#662d91;}.f{fill:#0071bc;}.g{fill:url(#d);}.h{fill:#93278f;}.i{opacity:.77;}.j{font-family:Consolas, Consolas;font-size:31px;}</style><style
       id="style1-5-2">.cls-1{fill:#101010;}</style><style
       id="style1-80">.e{fill:#662d91;}.f{fill:#0071bc;}.g{fill:url(#d);}.h{fill:#93278f;}.i{opacity:.77;}.j{font-family:Consolas, Consolas;font-size:31px;}</style><style
       id="style1-2-72">.e,.f,.g{font-family:Consolas, Consolas;}.h{fill:#662d91;}.i{fill:#0071bc;}.j{fill:url(#d);}.f,.k{fill:#fff;}.f,.k,.g{font-size:31px;}.l{font-family:Calibri-Light, Calibri;}.m{fill:#93278f;}.n{opacity:.77;}</style><style
       id="style1-6-25">.e,.f,.g{font-family:Consolas, Consolas;}.h{fill:#662d91;}.i{fill:#0071bc;}.j{fill:url(#d);}.f,.k{fill:#fff;}.f,.k,.g{font-size:31px;}.l{font-family:Calibri-Light, Calibri;}.m{fill:#93278f;}.n{opacity:.77;}</style><style
       id="style1-4-910">.e{fill:#662d91;}.f{fill:#0071bc;}.g{fill:url(#d);}.h{fill:#93278f;}.i{opacity:.77;}.j{font-family:Consolas, Consolas;font-size:31px;}</style><style
       id="style1-5-85">.cls-1{fill:#101010;}</style><style
       id="style1-10">.e{fill:#662d91;}.f{fill:#0071bc;}.g{fill:url(#d);}.h{fill:#93278f;}.i{opacity:.77;}.j{font-family:Consolas, Consolas;font-size:31px;}</style><style
       id="style1-2-48">.e,.f,.g{font-family:Consolas, Consolas;}.h{fill:#662d91;}.i{fill:#0071bc;}.j{fill:url(#d);}.f,.k{fill:#fff;}.f,.k,.g{font-size:31px;}.l{font-family:Calibri-Light, Calibri;}.m{fill:#93278f;}.n{opacity:.77;}</style><style
       id="style1-6-5">.e,.f,.g{font-family:Consolas, Consolas;}.h{fill:#662d91;}.i{fill:#0071bc;}.j{fill:url(#d);}.f,.k{fill:#fff;}.f,.k,.g{font-size:31px;}.l{font-family:Calibri-Light, Calibri;}.m{fill:#93278f;}.n{opacity:.77;}</style><style
       id="style1-4-92">.e{fill:#662d91;}.f{fill:#0071bc;}.g{fill:url(#d);}.h{fill:#93278f;}.i{opacity:.77;}.j{font-family:Consolas, Consolas;font-size:31px;}</style><style
       id="style1-5-54">.cls-1{fill:#101010;}</style><style
       id="style1-7">.e{fill:#662d91;}.f{fill:#0071bc;}.g{fill:url(#d);}.h{fill:#93278f;}.i{opacity:.77;}.j{font-family:Consolas, Consolas;font-size:31px;}</style><linearGradient
       id="d-0"
       x1="0"
       y1="491.51001"
       x2="1826.86"
       y2="491.51001"
       gradientUnits="userSpaceOnUse"><stop
         offset="0"
         stop-color="#ff7bac"
         id="stop1-3" /><stop
         offset=".58"
         stop-color="#3a62a8"
         stop-opacity=".8"
         id="stop2-6" /></linearGradient><style
       id="style1-2-96">.e,.f,.g{font-family:Consolas, Consolas;}.h{fill:#662d91;}.i{fill:#0071bc;}.j{fill:url(#d);}.f,.k{fill:#fff;}.f,.k,.g{font-size:31px;}.l{font-family:Calibri-Light, Calibri;}.m{fill:#93278f;}.n{opacity:.77;}</style><style
       id="style1-6-17">.e,.f,.g{font-family:Consolas, Consolas;}.h{fill:#662d91;}.i{fill:#0071bc;}.j{fill:url(#d);}.f,.k{fill:#fff;}.f,.k,.g{font-size:31px;}.l{font-family:Calibri-Light, Calibri;}.m{fill:#93278f;}.n{opacity:.77;}</style><style
       id="style1-4-7">.e{fill:#662d91;}.f{fill:#0071bc;}.g{fill:url(#d);}.h{fill:#93278f;}.i{opacity:.77;}.j{font-family:Consolas, Consolas;font-size:31px;}</style><style
       id="style1-5-19">.cls-1{fill:#101010;}</style><style
       id="style1-75">.e{fill:#662d91;}.f{fill:#0071bc;}.g{fill:url(#d);}.h{fill:#93278f;}.i{opacity:.77;}.j{font-family:Consolas, Consolas;font-size:31px;}</style><style
       id="style1-2-33">.e,.f,.g{font-family:Consolas, Consolas;}.h{fill:#662d91;}.i{fill:#0071bc;}.j{fill:url(#d);}.f,.k{fill:#fff;}.f,.k,.g{font-size:31px;}.l{font-family:Calibri-Light, Calibri;}.m{fill:#93278f;}.n{opacity:.77;}</style><style
       id="style1-6-24">.e,.f,.g{font-family:Consolas, Consolas;}.h{fill:#662d91;}.i{fill:#0071bc;}.j{fill:url(#d);}.f,.k{fill:#fff;}.f,.k,.g{font-size:31px;}.l{font-family:Calibri-Light, Calibri;}.m{fill:#93278f;}.n{opacity:.77;}</style><style
       id="style1-4-12">.e{fill:#662d91;}.f{fill:#0071bc;}.g{fill:url(#d);}.h{fill:#93278f;}.i{opacity:.77;}.j{font-family:Consolas, Consolas;font-size:31px;}</style><style
       id="style1-5-9">.cls-1{fill:#101010;}</style><style
       id="style1-56">.e{fill:#662d91;}.f{fill:#0071bc;}.g{fill:url(#d);}.h{fill:#93278f;}.i{opacity:.77;}.j{font-family:Consolas, Consolas;font-size:31px;}</style><style
       id="style1-2-80">.e,.f,.g{font-family:Consolas, Consolas;}.h{fill:#662d91;}.i{fill:#0071bc;}.j{fill:url(#d);}.f,.k{fill:#fff;}.f,.k,.g{font-size:31px;}.l{font-family:Calibri-Light, Calibri;}.m{fill:#93278f;}.n{opacity:.77;}</style><style
       id="style1-6-77">.e,.f,.g{font-family:Consolas, Consolas;}.h{fill:#662d91;}.i{fill:#0071bc;}.j{fill:url(#d);}.f,.k{fill:#fff;}.f,.k,.g{font-size:31px;}.l{font-family:Calibri-Light, Calibri;}.m{fill:#93278f;}.n{opacity:.77;}</style><style
       id="style1-4-43">.e{fill:#662d91;}.f{fill:#0071bc;}.g{fill:url(#d);}.h{fill:#93278f;}.i{opacity:.77;}.j{font-family:Consolas, Consolas;font-size:31px;}</style><style
       id="style1-5-13">.cls-1{fill:#101010;}</style><style
       id="style1-90">.e{fill:#662d91;}.f{fill:#0071bc;}.g{fill:url(#d);}.h{fill:#93278f;}.i{opacity:.77;}.j{font-family:Consolas, Consolas;font-size:31px;}</style><style
       id="style1-2-429">.e,.f,.g{font-family:Consolas, Consolas;}.h{fill:#662d91;}.i{fill:#0071bc;}.j{fill:url(#d);}.f,.k{fill:#fff;}.f,.k,.g{font-size:31px;}.l{font-family:Calibri-Light, Calibri;}.m{fill:#93278f;}.n{opacity:.77;}</style><style
       id="style1-6-31">.e,.f,.g{font-family:Consolas, Consolas;}.h{fill:#662d91;}.i{fill:#0071bc;}.j{fill:url(#d);}.f,.k{fill:#fff;}.f,.k,.g{font-size:31px;}.l{font-family:Calibri-Light, Calibri;}.m{fill:#93278f;}.n{opacity:.77;}</style><style
       id="style1-4-48">.e{fill:#662d91;}.f{fill:#0071bc;}.g{fill:url(#d);}.h{fill:#93278f;}.i{opacity:.77;}.j{font-family:Consolas, Consolas;font-size:31px;}</style><style
       id="style1-5-20">.cls-1{fill:#101010;}</style><style
       id="style1-66">.e{fill:#662d91;}.f{fill:#0071bc;}.g{fill:url(#d);}.h{fill:#93278f;}.i{opacity:.77;}.j{font-family:Consolas, Consolas;font-size:31px;}</style><style
       id="style1-2-0-5">.e,.f,.g{font-family:Consolas, Consolas;}.h{fill:#662d91;}.i{fill:#0071bc;}.j{fill:url(#d);}.f,.k{fill:#fff;}.f,.k,.g{font-size:31px;}.l{font-family:Calibri-Light, Calibri;}.m{fill:#93278f;}.n{opacity:.77;}</style><style
       id="style1-6-3">.e,.f,.g{font-family:Consolas, Consolas;}.h{fill:#662d91;}.i{fill:#0071bc;}.j{fill:url(#d);}.f,.k{fill:#fff;}.f,.k,.g{font-size:31px;}.l{font-family:Calibri-Light, Calibri;}.m{fill:#93278f;}.n{opacity:.77;}</style><style
       id="style1-4-8-5">.e{fill:#662d91;}.f{fill:#0071bc;}.g{fill:url(#d);}.h{fill:#93278f;}.i{opacity:.77;}.j{font-family:Consolas, Consolas;font-size:31px;}</style><style
       id="style1-5-0-9">.cls-1{fill:#101010;}</style><linearGradient
       gradientUnits="userSpaceOnUse"
       y2="318.51001"
       x2="1826.86"
       y1="318.51001"
       x1="0"
       id="linearGradient135"><stop
         offset="0"
         stop-color="#ff7bac"
         id="stop134" /><stop
         offset="0.57999998"
         stop-color="#3a62a8"
         stop-opacity=".8"
         id="stop135"
         style="stop-color:#3a62a8;stop-opacity:0.94377512;" /></linearGradient><style
       id="style1-48">.e{fill:#662d91;}.f{fill:#0071bc;}.g{fill:url(#d);}.h{fill:#93278f;}.i{opacity:.77;}.j{font-family:Consolas, Consolas;font-size:31px;}</style><style
       id="style1-2-35">.e,.f,.g{font-family:Consolas, Consolas;}.h{fill:#662d91;}.i{fill:#0071bc;}.j{fill:url(#d);}.f,.k{fill:#fff;}.f,.k,.g{font-size:31px;}.l{font-family:Calibri-Light, Calibri;}.m{fill:#93278f;}.n{opacity:.77;}</style><style
       id="style1-6-52">.e,.f,.g{font-family:Consolas, Consolas;}.h{fill:#662d91;}.i{fill:#0071bc;}.j{fill:url(#d);}.f,.k{fill:#fff;}.f,.k,.g{font-size:31px;}.l{font-family:Calibri-Light, Calibri;}.m{fill:#93278f;}.n{opacity:.77;}</style><style
       id="style1-4-6">.e{fill:#662d91;}.f{fill:#0071bc;}.g{fill:url(#d);}.h{fill:#93278f;}.i{opacity:.77;}.j{font-family:Consolas, Consolas;font-size:31px;}</style><style
       id="style1-5-89">.cls-1{fill:#101010;}</style><style
       id="style1-0">.e{fill:#662d91;}.f{fill:#0071bc;}.g{fill:url(#d);}.h{fill:#93278f;}.i{opacity:.77;}.j{font-family:Consolas, Consolas;font-size:31px;}</style><style
       id="style1-2-58">.e,.f,.g{font-family:Consolas, Consolas;}.h{fill:#662d91;}.i{fill:#0071bc;}.j{fill:url(#d);}.f,.k{fill:#fff;}.f,.k,.g{font-size:31px;}.l{font-family:Calibri-Light, Calibri;}.m{fill:#93278f;}.n{opacity:.77;}</style><style
       id="style1-6-37">.e,.f,.g{font-family:Consolas, Consolas;}.h{fill:#662d91;}.i{fill:#0071bc;}.j{fill:url(#d);}.f,.k{fill:#fff;}.f,.k,.g{font-size:31px;}.l{font-family:Calibri-Light, Calibri;}.m{fill:#93278f;}.n{opacity:.77;}</style><linearGradient
       inkscape:collect="always"
       xlink:href="#d-0"
       id="linearGradient17"
       gradientUnits="userSpaceOnUse"
       x1="0"
       y1="491.51001"
       x2="1826.86"
       y2="491.51001"
       gradientTransform="matrix(0.13303641,0,0,0.14111517,-1764.8472,-282.08452)" /><style
       id="style1-4-83">.e{fill:#662d91;}.f{fill:#0071bc;}.g{fill:url(#d);}.h{fill:#93278f;}.i{opacity:.77;}.j{font-family:Consolas, Consolas;font-size:31px;}</style><linearGradient
       inkscape:collect="always"
       xlink:href="#linearGradient135"
       id="linearGradient18-8"
       gradientUnits="userSpaceOnUse"
       x1="0"
       y1="318.51001"
       x2="1826.86"
       y2="318.51001"
       gradientTransform="matrix(0.13701626,0,0,0.13701626,-1814.7223,-265.52775)" /><style
       id="style1-5-7">.cls-1{fill:#101010;}</style></defs><g
     inkscape:label="Layer 1"
     inkscape:groupmode="layer"
     id="layer1"
     transform="translate(1764.847,282.08452)"><g
       id="g728"><g
         id="g727"><rect
           width="242.242"
           height="137.87234"
           rx="3.8454053"
           ry="4.0673623"
           id="Output_Container"
           x="1522.2061"
           y="-281.66116"
           style="opacity:0.77;stroke:none;stroke-width:20.7666;stroke-dasharray:none"
           transform="scale(-1,1)" /><path
           class="j"
           d="m -1525.6651,-281.66117 c 1.9078,0 3.459,1.6454 3.459,3.66899 v 130.53436 c 0,2.02359 -1.5512,3.66898 -3.459,3.66898 h -235.3241 c -1.9077,0 -3.4589,-1.64539 -3.4589,-3.66898 v -130.53436 c 0,-2.02359 1.5512,-3.66899 3.4589,-3.66899 h 235.3241 m 0,-0.42335 h -235.3241 c -2.1312,0 -3.858,1.83168 -3.858,4.09234 v 130.53436 c 0,2.26066 1.7268,4.09234 3.858,4.09234 h 235.3241 c 2.1313,0 3.8581,-1.83168 3.8581,-4.09234 v -130.53436 c 0,-2.26066 -1.7281,-4.09234 -3.8581,-4.09234 z"
           id="Input_Area_Container_Stroke"
           style="font-size:31px;font-family:Consolas, Consolas;opacity:0.77;fill:url(#linearGradient17);stroke:none;stroke-width:0.136034;stroke-dasharray:none" /><path
           style="font-size:4.24752px;font-family:Consolas, Consolas;opacity:0.77;fill:url(#linearGradient18-8);stroke-width:0.136034"
           d="m -1813.1046,-266.37457 q -0.019,0.13274 -0.021,0.21985 0,0.0871 0.01,0.13688 0.015,0.0498 0.044,0.0705 0.029,0.0187 0.073,0.0187 0.058,0 0.1099,-0.0602 0.052,-0.0622 0.091,-0.18873 0.041,-0.12859 0.064,-0.32354 0.025,-0.19495 0.025,-0.4625 0,-0.29865 -0.037,-0.53301 -0.037,-0.23436 -0.1182,-0.39821 -0.081,-0.16384 -0.2115,-0.24888 -0.1286,-0.0871 -0.3132,-0.0871 -0.141,0 -0.2738,0.0726 -0.1306,0.0705 -0.2447,0.20117 -0.112,0.12859 -0.2053,0.3111 -0.091,0.18044 -0.1577,0.40028 -0.064,0.21984 -0.1016,0.47287 -0.035,0.25302 -0.035,0.52679 0,0.66782 0.2011,0.99551 0.2012,0.32977 0.5662,0.32977 0.1846,0 0.3443,-0.0436 0.1597,-0.0415 0.3318,-0.12651 v 0.26754 q -0.17,0.0788 -0.3401,0.11822 -0.1701,0.0394 -0.3567,0.0394 -0.5289,0 -0.784,-0.39613 -0.253,-0.39614 -0.2572,-1.1801 0,-0.31317 0.042,-0.59938 0.044,-0.28829 0.1245,-0.53717 0.083,-0.24887 0.1991,-0.45212 0.1182,-0.20533 0.2654,-0.34843 0.1494,-0.14518 0.3236,-0.22399 0.1742,-0.0809 0.3712,-0.0809 0.2468,0 0.4273,0.10163 0.1825,0.0996 0.3007,0.29035 0.1182,0.18874 0.1742,0.46458 0.058,0.27584 0.058,0.62841 0,0.35673 -0.048,0.61183 -0.044,0.25303 -0.1245,0.4148 -0.081,0.16177 -0.197,0.2385 -0.1141,0.0747 -0.2551,0.0747 -0.1618,0 -0.2406,-0.083 -0.079,-0.083 -0.079,-0.22399 -0.079,0.15969 -0.17,0.23436 -0.091,0.0726 -0.2199,0.0726 -0.1949,0 -0.2924,-0.14518 -0.098,-0.14725 -0.098,-0.4625 0,-0.11407 0.012,-0.24473 0.015,-0.13066 0.046,-0.26132 0.033,-0.13274 0.085,-0.25303 0.052,-0.12236 0.1265,-0.21362 0.077,-0.0933 0.1805,-0.14933 0.1037,-0.056 0.2364,-0.056 0.079,0 0.1472,0.0187 0.069,0.0187 0.1,0.0373 l 0.2675,-0.0643 z m -0.2115,-0.73834 q -0.019,-0.0249 -0.058,-0.0435 -0.037,-0.0207 -0.095,-0.0207 -0.062,0 -0.112,0.0436 -0.05,0.0436 -0.089,0.11615 -0.037,0.0726 -0.064,0.16592 -0.025,0.0913 -0.043,0.18873 -0.017,0.0975 -0.025,0.19288 -0.01,0.0933 -0.01,0.16799 0,0.1991 0.025,0.28621 0.025,0.0871 0.095,0.0871 0.025,0 0.05,-0.0104 0.025,-0.0104 0.052,-0.0394 0.029,-0.0311 0.062,-0.085 0.033,-0.0539 0.073,-0.14103 z m 3.0052,-0.83581 -1.3834,2.07606 h 1.4103 v 0.34428 h -1.8728 v -0.27584 l 1.3917,-2.09887 h -1.3543 v -0.33599 h 1.8085 z m 2.4805,1.04736 q 0,0.36502 -0.087,0.63049 -0.085,0.26547 -0.2323,0.43969 -0.1452,0.17214 -0.3422,0.25717 -0.195,0.083 -0.4128,0.083 -0.2613,0 -0.4562,-0.0933 -0.1929,-0.0954 -0.3215,-0.27376 -0.1265,-0.17837 -0.1887,-0.43347 -0.062,-0.25717 -0.062,-0.57864 0,-0.36087 0.085,-0.62634 0.085,-0.26547 0.2302,-0.43761 0.1472,-0.17422 0.3422,-0.25718 0.1949,-0.085 0.4127,-0.085 0.2613,0 0.4542,0.0954 0.195,0.0954 0.3236,0.27377 0.1285,0.17629 0.1908,0.43139 0.064,0.2551 0.064,0.57449 z m -0.3837,0.027 q 0,-0.23851 -0.037,-0.43553 -0.035,-0.19911 -0.1161,-0.34221 -0.081,-0.14311 -0.2095,-0.22192 -0.1265,-0.0788 -0.3069,-0.0788 -0.1742,0 -0.3008,0.085 -0.1244,0.083 -0.2053,0.22814 -0.081,0.14311 -0.1203,0.33806 -0.039,0.19288 -0.039,0.41065 0,0.24058 0.037,0.43969 0.037,0.19702 0.1161,0.34013 0.081,0.14103 0.2074,0.21984 0.1265,0.0788 0.3049,0.0788 0.1742,0 0.3007,-0.083 0.1265,-0.085 0.2074,-0.22813 0.083,-0.14518 0.1224,-0.33806 0.039,-0.19288 0.039,-0.41273 z m 2.5883,1.34602 h -0.4812 l -0.7901,-1.6903 -0.2282,-0.54338 v 1.36675 0.86693 h -0.3443 v -2.7107 h 0.475 l 0.7528,1.60112 0.2717,0.62012 v -1.45179 -0.76945 h 0.3443 z m 2.2026,0 h -1.541 v -2.7107 h 1.541 v 0.3111 h -1.1718 v 0.83996 h 1.1261 v 0.3111 h -1.1261 v 0.93329 h 1.1718 z m 2.5302,-1.35431 q 0,0.31109 -0.062,0.56827 -0.062,0.2551 -0.1887,0.43968 -0.1265,0.18251 -0.3153,0.28414 -0.1866,0.0996 -0.4396,0.0996 -0.2178,0 -0.3962,-0.0809 -0.1783,-0.083 -0.3049,-0.25302 -0.1265,-0.17007 -0.1949,-0.43346 -0.068,-0.2634 -0.068,-0.62427 0,-0.3111 0.062,-0.56827 0.064,-0.25718 0.1887,-0.43969 0.1265,-0.18458 0.3153,-0.28414 0.1887,-0.10162 0.4396,-0.10162 0.2178,0 0.3962,0.083 0.1783,0.0809 0.3048,0.25302 0.1266,0.17007 0.195,0.43347 0.068,0.26339 0.068,0.62427 z m -0.365,0.0124 q 0,-0.0705 -0.01,-0.13896 0,-0.0705 -0.01,-0.13688 l -1.1469,0.85241 q 0.031,0.10785 0.079,0.1991 0.048,0.0913 0.1141,0.15762 0.068,0.0643 0.1535,0.10163 0.087,0.0353 0.197,0.0353 0.141,0 0.2551,-0.0684 0.1161,-0.0684 0.197,-0.20326 0.081,-0.1348 0.1245,-0.33391 0.043,-0.20117 0.043,-0.46457 z m -1.2402,-0.0249 q 0,0.0643 0,0.12859 0,0.0643 0.01,0.12444 l 1.1469,-0.84826 q -0.031,-0.10577 -0.079,-0.19288 -0.048,-0.0871 -0.1141,-0.14933 -0.066,-0.0643 -0.1514,-0.0995 -0.085,-0.0353 -0.1908,-0.0353 -0.141,0 -0.2572,0.0684 -0.114,0.0685 -0.1949,0.20533 -0.081,0.13481 -0.1245,0.33598 -0.043,0.19911 -0.043,0.4625 z m 3.8555,1.36676 h -1.7027 v -0.33599 h 0.6968 v -1.97858 l -0.6491,0.35258 -0.1328,-0.30695 0.8628,-0.4542 h 0.3194 v 2.38715 h 0.6056 z m 2.5012,0 h -0.3608 l -0.054,-1.6903 -0.023,-0.64916 -0.1265,0.37747 -0.4003,1.07847 h -0.2551 l -0.3816,-1.03699 -0.1265,-0.41895 -0.01,0.6782 -0.048,1.66126 h -0.3484 l 0.1327,-2.7107 h 0.4376 l 0.365,1.0204 0.1183,0.34428 0.114,-0.34428 0.3837,-1.0204 h 0.4501 z m 1.0827,-2.3996 h -0.6243 v -0.3111 h 1.6218 v 0.3111 h -0.6242 v 2.08435 h 0.6242 v 0.31525 h -1.6218 v -0.31525 h 0.6243 z m 3.4448,2.3996 h -0.4811 l -0.7902,-1.6903 -0.2281,-0.54338 v 1.36675 0.86693 h -0.3443 v -2.7107 h 0.4749 l 0.7529,1.60112 0.2717,0.62012 v -1.45179 -0.76945 h 0.3442 z m 2.3312,-2.24613 q -0.1514,-0.0809 -0.3111,-0.12444 -0.1597,-0.0456 -0.3484,-0.0456 -0.2157,0 -0.3837,0.0767 -0.168,0.0767 -0.2841,0.21777 -0.1141,0.13896 -0.1763,0.33599 -0.06,0.19703 -0.06,0.43553 0,0.24888 0.05,0.44591 0.05,0.19703 0.1555,0.33391 0.1058,0.13689 0.2697,0.20948 0.1659,0.0726 0.3961,0.0726 0.039,0 0.085,-0.004 0.046,-0.004 0.091,-0.0104 0.046,-0.008 0.087,-0.0187 0.043,-0.0104 0.077,-0.0228 v -0.86278 h -0.5537 v -0.30488 h 0.9187 v 1.38543 q -0.085,0.0394 -0.1804,0.0705 -0.093,0.0311 -0.1929,0.0519 -0.097,0.0207 -0.1949,0.0311 -0.097,0.0104 -0.1888,0.0104 -0.2779,0 -0.5019,-0.0871 -0.2219,-0.0871 -0.3795,-0.25717 -0.1556,-0.17214 -0.2406,-0.42724 -0.083,-0.2551 -0.083,-0.59109 0,-0.33391 0.093,-0.5973 0.093,-0.26547 0.2613,-0.44799 0.1701,-0.18458 0.4065,-0.27998 0.2385,-0.0975 0.5247,-0.0975 0.1825,0 0.3464,0.0332 0.1659,0.0311 0.3173,0.10163 z m 2.4909,-0.46457 -0.1826,2.7107 h -0.479 l -0.336,-0.9644 -0.093,-0.30903 -0.097,0.33391 -0.3111,0.93952 h -0.4625 l -0.1867,-2.7107 h 0.3484 l 0.1058,1.84377 0.031,0.50606 0.1307,-0.42932 0.3277,-1.00588 h 0.2551 l 0.3774,1.07847 0.1266,0.35673 0.01,-0.37332 0.1079,-1.97651 z m 2.217,1.85207 q 0,0.18666 -0.068,0.3505 -0.066,0.16385 -0.1908,0.28621 -0.1244,0.12029 -0.3007,0.19081 -0.1742,0.0684 -0.3879,0.0684 -0.224,0 -0.3961,-0.0705 -0.1721,-0.0726 -0.2883,-0.21984 -0.1161,-0.14932 -0.1763,-0.37539 -0.06,-0.22606 -0.06,-0.53509 0,-0.2074 0.027,-0.40235 0.027,-0.19495 0.089,-0.36709 0.062,-0.17215 0.1659,-0.31525 0.1037,-0.14311 0.2572,-0.24473 0.1556,-0.1037 0.365,-0.1597 0.2095,-0.0581 0.4854,-0.0581 h 0.2675 v 0.31525 h -0.2904 q -0.2426,0 -0.421,0.0581 -0.1783,0.0581 -0.2986,0.16384 -0.1203,0.10578 -0.1846,0.2551 -0.064,0.14933 -0.081,0.33391 l -0.01,0.085 q 0.1307,-0.0767 0.3007,-0.12237 0.1722,-0.0477 0.3713,-0.0477 0.2053,0 0.3588,0.0602 0.1555,0.0601 0.2571,0.16799 0.1037,0.10577 0.1556,0.2551 0.052,0.14933 0.052,0.32769 z m -0.3774,0.0228 q 0,-0.12444 -0.031,-0.22399 -0.029,-0.10162 -0.093,-0.17006 -0.064,-0.0705 -0.1638,-0.10785 -0.097,-0.0394 -0.2344,-0.0394 -0.079,0 -0.1597,0.0145 -0.081,0.0145 -0.1597,0.0415 -0.077,0.0249 -0.1472,0.0581 -0.07,0.0332 -0.1286,0.0705 0,0.26754 0.037,0.44798 0.037,0.17836 0.11,0.28621 0.075,0.10785 0.1825,0.15347 0.1078,0.0456 0.2488,0.0456 0.1183,0 0.2157,-0.0373 0.1,-0.0394 0.1701,-0.11407 0.073,-0.0747 0.112,-0.18044 0.042,-0.10784 0.042,-0.24473 z m 2.7895,-0.60767 q 0,0.15762 -0.033,0.29243 -0.035,0.13273 -0.1099,0.23021 -0.075,0.0975 -0.1867,0.15347 -0.1099,0.0539 -0.2571,0.0539 -0.1141,0 -0.2054,-0.0373 -0.091,-0.0394 -0.17,-0.0975 -0.077,-0.0581 -0.1431,-0.12651 -0.064,-0.0684 -0.1286,-0.12652 -0.062,-0.0581 -0.1245,-0.0954 -0.062,-0.0394 -0.1327,-0.0394 -0.1224,0 -0.1825,0.0975 -0.058,0.0975 -0.058,0.30695 h -0.3318 q 0,-0.15762 0.031,-0.29036 0.037,-0.13481 0.1099,-0.23228 0.075,-0.0995 0.1846,-0.15348 0.112,-0.056 0.2592,-0.056 0.1141,0 0.2054,0.0394 0.091,0.0373 0.168,0.0954 0.079,0.0581 0.1431,0.12652 0.066,0.0684 0.1285,0.12651 0.064,0.0581 0.1266,0.0975 0.062,0.0373 0.1327,0.0373 0.1307,0 0.1867,-0.0954 0.056,-0.0954 0.056,-0.30695 z m 2.2109,-0.97685 -1.3834,2.07606 h 1.4103 v 0.34428 h -1.8728 v -0.27584 l 1.3917,-2.09887 h -1.3544 v -0.33599 h 1.8086 z m 2.4804,1.04736 q 0,0.36502 -0.087,0.63049 -0.085,0.26547 -0.2323,0.43969 -0.1451,0.17214 -0.3422,0.25717 -0.1949,0.083 -0.4127,0.083 -0.2613,0 -0.4563,-0.0933 -0.1928,-0.0954 -0.3214,-0.27376 -0.1265,-0.17837 -0.1888,-0.43347 -0.062,-0.25717 -0.062,-0.57864 0,-0.36087 0.085,-0.62634 0.085,-0.26547 0.2302,-0.43761 0.1472,-0.17422 0.3422,-0.25718 0.1949,-0.085 0.4127,-0.085 0.2613,0 0.4542,0.0954 0.195,0.0954 0.3235,0.27377 0.1286,0.17629 0.1908,0.43139 0.064,0.2551 0.064,0.57449 z m -0.3836,0.027 q 0,-0.23851 -0.037,-0.43553 -0.035,-0.19911 -0.1161,-0.34221 -0.081,-0.14311 -0.2095,-0.22192 -0.1265,-0.0788 -0.3069,-0.0788 -0.1743,0 -0.3008,0.085 -0.1244,0.083 -0.2053,0.22814 -0.081,0.14311 -0.1203,0.33806 -0.039,0.19288 -0.039,0.41065 0,0.24058 0.037,0.43969 0.037,0.19702 0.1162,0.34013 0.081,0.14103 0.2074,0.21984 0.1265,0.0788 0.3049,0.0788 0.1742,0 0.3007,-0.083 0.1265,-0.085 0.2074,-0.22813 0.083,-0.14518 0.1223,-0.33806 0.04,-0.19288 0.04,-0.41273 z m 2.5883,1.34602 h -0.4812 l -0.7902,-1.6903 -0.2281,-0.54338 v 1.36675 0.86693 h -0.3443 v -2.7107 h 0.475 l 0.7528,1.60112 0.2717,0.62012 v -1.45179 -0.76945 h 0.3443 z m 2.2026,0 h -1.541 v -2.7107 h 1.541 v 0.3111 h -1.1718 v 0.83996 h 1.1261 v 0.3111 h -1.1261 v 0.93329 h 1.1718 z m 2.5302,-1.35431 q 0,0.31109 -0.062,0.56827 -0.062,0.2551 -0.1887,0.43968 -0.1265,0.18251 -0.3153,0.28414 -0.1866,0.0996 -0.4397,0.0996 -0.2177,0 -0.3961,-0.0809 -0.1784,-0.083 -0.3049,-0.25302 -0.1265,-0.17007 -0.1949,-0.43346 -0.069,-0.2634 -0.069,-0.62427 0,-0.3111 0.062,-0.56827 0.064,-0.25718 0.1887,-0.43969 0.1265,-0.18458 0.3152,-0.28414 0.1888,-0.10162 0.4397,-0.10162 0.2178,0 0.3961,0.083 0.1784,0.0809 0.3049,0.25302 0.1265,0.17007 0.195,0.43347 0.068,0.26339 0.068,0.62427 z m -0.365,0.0124 q 0,-0.0705 -0.01,-0.13896 0,-0.0705 -0.01,-0.13688 l -1.1469,0.85241 q 0.031,0.10785 0.079,0.1991 0.048,0.0913 0.1141,0.15762 0.068,0.0643 0.1534,0.10163 0.087,0.0353 0.1971,0.0353 0.141,0 0.2551,-0.0684 0.1161,-0.0684 0.197,-0.20326 0.081,-0.1348 0.1244,-0.33391 0.044,-0.20117 0.044,-0.46457 z m -1.2402,-0.0249 q 0,0.0643 0,0.12859 0,0.0643 0.01,0.12444 l 1.1469,-0.84826 q -0.031,-0.10577 -0.079,-0.19288 -0.048,-0.0871 -0.1141,-0.14933 -0.066,-0.0643 -0.1514,-0.0995 -0.085,-0.0353 -0.1908,-0.0353 -0.1411,0 -0.2572,0.0684 -0.1141,0.0685 -0.195,0.20533 -0.081,0.13481 -0.1244,0.33598 -0.043,0.19911 -0.043,0.4625 z m 3.8555,1.36676 h -1.7027 v -0.33599 h 0.6968 v -1.97858 l -0.6491,0.35258 -0.1328,-0.30695 0.8628,-0.4542 h 0.3194 v 2.38715 h 0.6056 z m 2.2731,-2.93054 -1.4228,3.37645 h -0.3443 l 1.4228,-3.37645 z m 2.551,1.55756 q 0,0.36502 -0.087,0.63049 -0.085,0.26547 -0.2323,0.43969 -0.1452,0.17214 -0.3422,0.25717 -0.195,0.083 -0.4127,0.083 -0.2614,0 -0.4563,-0.0933 -0.1929,-0.0954 -0.3215,-0.27376 -0.1265,-0.17837 -0.1887,-0.43347 -0.062,-0.25717 -0.062,-0.57864 0,-0.36087 0.085,-0.62634 0.085,-0.26547 0.2302,-0.43761 0.1473,-0.17422 0.3422,-0.25718 0.195,-0.085 0.4127,-0.085 0.2614,0 0.4542,0.0954 0.195,0.0954 0.3236,0.27377 0.1286,0.17629 0.1908,0.43139 0.064,0.2551 0.064,0.57449 z m -0.3837,0.027 q 0,-0.23851 -0.037,-0.43553 -0.035,-0.19911 -0.1162,-0.34221 -0.081,-0.14311 -0.2095,-0.22192 -0.1265,-0.0788 -0.3069,-0.0788 -0.1742,0 -0.3007,0.085 -0.1245,0.083 -0.2054,0.22814 -0.081,0.14311 -0.1202,0.33806 -0.04,0.19288 -0.04,0.41065 0,0.24058 0.037,0.43969 0.037,0.19702 0.1161,0.34013 0.081,0.14103 0.2074,0.21984 0.1265,0.0788 0.3049,0.0788 0.1742,0 0.3007,-0.083 0.1265,-0.085 0.2074,-0.22813 0.083,-0.14518 0.1224,-0.33806 0.039,-0.19288 0.039,-0.41273 z m 2.6091,0.40236 q 0,0.22399 -0.064,0.4065 -0.062,0.18043 -0.1846,0.30902 -0.1224,0.12651 -0.3007,0.19703 -0.1763,0.0684 -0.4065,0.0684 -0.2531,0 -0.4294,-0.0664 -0.1762,-0.0664 -0.2882,-0.18666 -0.11,-0.12236 -0.1618,-0.29243 -0.05,-0.17006 -0.05,-0.37954 v -1.82303 h 0.3692 v 1.794 q 0,0.15969 0.029,0.27999 0.031,0.12029 0.1,0.20117 0.068,0.0809 0.1763,0.12237 0.1099,0.0415 0.2675,0.0415 0.2945,0 0.4335,-0.17007 0.141,-0.17007 0.141,-0.47909 v -1.78985 h 0.3692 z m 2.0428,-1.76704 v 1.88318 q 0,0.17421 -0.052,0.33184 -0.052,0.15555 -0.1576,0.27169 -0.1058,0.11614 -0.2655,0.18458 -0.1597,0.0684 -0.3754,0.0684 -0.081,0 -0.1659,-0.0124 -0.083,-0.0104 -0.1618,-0.029 -0.077,-0.0207 -0.1452,-0.0477 -0.068,-0.029 -0.1182,-0.0622 v -0.37124 q 0.1286,0.0933 0.2842,0.14725 0.1576,0.0539 0.3111,0.0539 0.226,0 0.3484,-0.13689 0.1224,-0.13895 0.1224,-0.3982 v -1.56379 h -1.0308 v -0.31939 z m 2.7004,1.32528 q 0,0.19495 -0.031,0.37331 -0.029,0.17837 -0.095,0.33184 -0.066,0.15348 -0.1722,0.27999 -0.1058,0.12444 -0.2592,0.21362 -0.1535,0.0892 -0.3568,0.13896 -0.2032,0.0477 -0.4625,0.0477 h -0.5807 v -2.7107 h 0.699 q 0.6346,0 0.9457,0.32769 0.3132,0.32562 0.3132,0.99759 z m -0.3879,0.027 q 0,-0.28828 -0.054,-0.48739 -0.054,-0.1991 -0.1638,-0.32147 -0.11,-0.12236 -0.2759,-0.17628 -0.1659,-0.056 -0.3899,-0.056 h -0.3173 v 2.08021 h 0.2758 q 0.925,0 0.925,-1.03907 z m 2.8538,1.35846 h -0.4023 l -0.1887,-0.59109 h -1.1283 l -0.1908,0.59109 h -0.3837 l 0.9001,-2.7107 h 0.5061 z m -0.6968,-0.92085 -0.4584,-1.44972 -0.4583,1.44972 z m 2.7231,-2.00969 -1.4227,3.37645 h -0.3443 l 1.4227,-3.37645 z m 2.6443,2.93054 h -0.4023 l -0.1887,-0.59109 h -1.1283 l -0.1908,0.59109 h -0.3837 l 0.9001,-2.7107 h 0.5061 z m -0.6968,-0.92085 -0.4584,-1.44972 -0.4583,1.44972 z m 2.7854,0.18666 q 0,0.19288 -0.079,0.33806 -0.079,0.14518 -0.2198,0.24265 -0.141,0.0954 -0.3401,0.14311 -0.1971,0.0477 -0.4356,0.0477 -0.1078,0 -0.2157,-0.008 -0.1057,-0.008 -0.2053,-0.0207 -0.098,-0.0124 -0.1846,-0.029 -0.087,-0.0166 -0.1576,-0.0353 v -0.35672 q 0.1556,0.0581 0.3484,0.0913 0.195,0.0332 0.4418,0.0332 0.1784,0 0.3028,-0.027 0.1265,-0.029 0.2053,-0.083 0.081,-0.056 0.1162,-0.13481 0.037,-0.0788 0.037,-0.18043 0,-0.10992 -0.062,-0.18666 -0.06,-0.0788 -0.1597,-0.13896 -0.1,-0.0622 -0.2282,-0.11199 -0.1265,-0.0519 -0.2592,-0.10578 -0.1327,-0.0539 -0.2613,-0.11614 -0.1265,-0.0643 -0.2261,-0.14933 -0.099,-0.0871 -0.1618,-0.20325 -0.06,-0.11614 -0.06,-0.27584 0,-0.13895 0.058,-0.27376 0.058,-0.13481 0.1804,-0.23851 0.1224,-0.10577 0.3132,-0.17007 0.1928,-0.0643 0.4583,-0.0643 0.069,0 0.1473,0.006 0.081,0.006 0.1617,0.0187 0.083,0.0104 0.1618,0.0249 0.081,0.0145 0.1493,0.0311 v 0.33184 q -0.1597,-0.0456 -0.3194,-0.0684 -0.1597,-0.0249 -0.309,-0.0249 -0.3173,0 -0.4666,0.10578 -0.1494,0.10577 -0.1494,0.28413 0,0.10992 0.06,0.18873 0.062,0.0788 0.1618,0.14104 0.1,0.0622 0.226,0.11406 0.1286,0.0498 0.2614,0.1037 0.1327,0.0539 0.2592,0.11822 0.1286,0.0643 0.2281,0.15348 0.1,0.0871 0.1597,0.20532 0.062,0.11822 0.062,0.27999 z m 2.3311,0.63256 q -0.3256,0.13481 -0.6823,0.13481 -0.5745,0 -0.8835,-0.34221 -0.307,-0.34428 -0.307,-1.01625 0,-0.32561 0.085,-0.58901 0.085,-0.26339 0.2427,-0.44591 0.1576,-0.18458 0.3816,-0.28413 0.224,-0.0996 0.5019,-0.0996 0.1887,0 0.3505,0.0332 0.1618,0.0311 0.3111,0.0975 v 0.36295 q -0.1472,-0.0809 -0.3049,-0.12237 -0.1576,-0.0435 -0.3442,-0.0435 -0.1909,0 -0.3464,0.0726 -0.1535,0.0705 -0.2613,0.20739 -0.1079,0.13481 -0.1659,0.33184 -0.058,0.19496 -0.058,0.44591 0,0.52679 0.2136,0.79433 0.2136,0.26755 0.6263,0.26755 0.1743,0 0.334,-0.0394 0.1597,-0.0415 0.3069,-0.11407 z m 1.2527,-2.29797 h -0.6243 v -0.3111 h 1.6219 v 0.3111 h -0.6243 v 2.08435 h 0.6243 v 0.31525 h -1.6219 v -0.31525 h 0.6243 z m 2.3353,0 h -0.6243 v -0.3111 h 1.6219 v 0.3111 h -0.6243 v 2.08435 h 0.6243 v 0.31525 h -1.6219 v -0.31525 h 0.6243 z m 3.1421,1.43934 h -1.2403 v -0.34013 h 1.2403 z m 2.8621,0.96026 h -0.4024 l -0.1887,-0.59109 h -1.1282 l -0.1909,0.59109 h -0.3836 l 0.9001,-2.7107 h 0.506 z m -0.6969,-0.92085 -0.4583,-1.44972 -0.4584,1.44972 z m 2.8974,0.92085 h -0.4169 l -0.4044,-0.86693 q -0.046,-0.0996 -0.093,-0.16384 -0.048,-0.0664 -0.1037,-0.1037 -0.054,-0.0394 -0.1203,-0.056 -0.064,-0.0166 -0.1452,-0.0166 h -0.1742 v 1.20706 h -0.3692 v -2.7107 h 0.7259 q 0.2364,0 0.4065,0.0519 0.1701,0.0519 0.2779,0.14518 0.1099,0.0933 0.1597,0.22606 0.052,0.13066 0.052,0.29036 0,0.12651 -0.037,0.24058 -0.037,0.112 -0.112,0.20533 -0.073,0.0913 -0.1825,0.1597 -0.1078,0.0664 -0.2489,0.0996 0.1141,0.0394 0.1929,0.13895 0.081,0.0975 0.1639,0.26133 z m -0.5911,-1.96614 q 0,-0.21777 -0.1369,-0.32561 -0.1348,-0.10785 -0.3816,-0.10785 h -0.3484 v 0.89596 h 0.2986 q 0.1307,0 0.2344,-0.029 0.1058,-0.0311 0.1784,-0.0892 0.075,-0.0601 0.114,-0.14518 0.042,-0.0871 0.042,-0.1991 z m 2.9036,-0.42931 h -0.8027 v 2.39545 h -0.3733 v -2.39545 h -0.8026 v -0.31525 h 1.9786 z m 1.9661,1.43519 h -1.2402 v -0.34013 h 1.2402 z m 2.7895,-1.75044 -0.1825,2.7107 h -0.4791 l -0.336,-0.9644 -0.093,-0.30903 -0.098,0.33391 -0.3111,0.93952 h -0.4625 l -0.1866,-2.7107 h 0.3484 l 0.1058,1.84377 0.031,0.50606 0.1306,-0.42932 0.3277,-1.00588 h 0.2551 l 0.3775,1.07847 0.1265,0.35673 0.01,-0.37332 0.1079,-1.97651 z m 2.0512,2.7107 h -1.541 v -2.7107 h 1.541 v 0.3111 h -1.1718 v 0.83996 h 1.1262 v 0.3111 h -1.1262 v 0.93329 h 1.1718 z m 2.4846,-0.81093 q 0,0.19496 -0.077,0.34636 -0.075,0.14932 -0.2157,0.25302 -0.139,0.1037 -0.3381,0.15763 -0.197,0.0539 -0.4396,0.0539 h -0.7094 v -2.7107 h 0.7757 q 0.9064,0 0.9064,0.65953 0,0.21984 -0.1058,0.37746 -0.1037,0.15763 -0.3402,0.23436 0.11,0.0207 0.2074,0.0705 0.1,0.0498 0.1743,0.12859 0.075,0.0788 0.1182,0.18665 0.043,0.10785 0.043,0.24266 z m -0.4811,-1.19047 q 0,-0.083 -0.025,-0.15555 -0.025,-0.0747 -0.087,-0.12651 -0.062,-0.0539 -0.168,-0.085 -0.1058,-0.0311 -0.2676,-0.0311 h -0.3816 v 0.84826 h 0.3692 q 0.1265,0 0.2281,-0.027 0.1037,-0.027 0.1763,-0.083 0.075,-0.056 0.1141,-0.13896 0.042,-0.085 0.042,-0.20118 z m 0.089,1.20291 q 0,-0.10369 -0.043,-0.18665 -0.044,-0.083 -0.1265,-0.13896 -0.083,-0.0581 -0.2033,-0.0892 -0.1182,-0.0311 -0.2675,-0.0311 h -0.3775 v 0.93329 h 0.3899 q 0.3173,0 0.4729,-0.11822 0.1555,-0.11821 0.1555,-0.36917 z m 2.6257,-2.13205 -1.4227,3.37645 h -0.3443 l 1.4227,-3.37645 z m 1.3108,0.53094 h -0.6243 v -0.3111 h 1.6219 v 0.3111 h -0.6243 v 2.08435 h 0.6243 v 0.31525 h -1.6219 v -0.31525 h 0.6243 z m 3.4449,2.3996 h -0.4812 l -0.7902,-1.6903 -0.2281,-0.54338 v 1.36675 0.86693 h -0.3443 v -2.7107 h 0.4749 l 0.7529,1.60112 0.2717,0.62012 v -1.45179 -0.76945 h 0.3443 z m 2.3519,-1.88111 q 0,0.16592 -0.062,0.32977 -0.062,0.16177 -0.1928,0.29036 -0.1307,0.12858 -0.334,0.20947 -0.2032,0.0788 -0.4853,0.0788 h -0.336 v 0.9727 h -0.3691 v -2.7107 h 0.7632 q 0.2012,0 0.3858,0.0456 0.1845,0.0435 0.3235,0.1431 0.141,0.0995 0.224,0.25718 0.083,0.15762 0.083,0.38368 z m -0.3837,0.0166 q 0,-0.26133 -0.1722,-0.40028 -0.17,-0.13896 -0.477,-0.13896 h -0.3775 v 1.1158 h 0.3443 q 0.3277,0 0.504,-0.1431 0.1784,-0.14311 0.1784,-0.43346 z m 2.7231,0.92085 q 0,0.22399 -0.064,0.4065 -0.062,0.18043 -0.1846,0.30902 -0.1223,0.12651 -0.3007,0.19703 -0.1763,0.0684 -0.4065,0.0684 -0.253,0 -0.4293,-0.0664 -0.1763,-0.0664 -0.2883,-0.18666 -0.1099,-0.12236 -0.1618,-0.29243 -0.05,-0.17006 -0.05,-0.37954 v -1.82303 h 0.3691 v 1.794 q 0,0.15969 0.029,0.27999 0.031,0.12029 0.1,0.20117 0.068,0.0809 0.1763,0.12237 0.1099,0.0415 0.2675,0.0415 0.2945,0 0.4335,-0.17007 0.141,-0.17007 0.141,-0.47909 v -1.78985 h 0.3692 z m 2.3809,-1.45179 h -0.8026 v 2.39545 h -0.3733 v -2.39545 h -0.8026 v -0.31525 h 1.9785 z"
           id="text4-6"
           class="g"
           transform="scale(0.97095346,1.0299155)"
           aria-label="@ZONE01MINGW6~ZONE01/OUJDA/ASCII-ART-WEB/INPUT" /></g></g></g></svg>
