<?xml version="1.0" encoding="UTF-8" standalone="no"?>
<!-- Created with Inkscape (http://www.inkscape.org/) -->

<svg
   width="177.85271mm"
   height="6.7027726mm"
   viewBox="0 0 177.85271 6.7027726"
   version="1.1"
   id="svg1"
   xml:space="preserve"
   xmlns:inkscape="http://www.inkscape.org/namespaces/inkscape"
   xmlns:sodipodi="http://sodipodi.sourceforge.net/DTD/sodipodi-0.dtd"
   xmlns:xlink="http://www.w3.org/1999/xlink"
   xmlns="http://www.w3.org/2000/svg"
   xmlns:svg="http://www.w3.org/2000/svg"><sodipodi:namedview
     id="namedview1"
     pagecolor="#505050"
     bordercolor="#eeeeee"
     borderopacity="1"
     inkscape:showpageshadow="0"
     inkscape:pageopacity="0"
     inkscape:pagecheckerboard="0"
     inkscape:deskcolor="#505050"
     inkscape:document-units="mm"><inkscape:page
       x="0"
       y="0"
       width="177.85271"
       height="6.7027726"
       id="page2"
       margin="0"
       bleed="0" /></sodipodi:namedview><defs
     id="defs1"><style
       id="style1">.e{fill:#662d91;}.f{fill:#0071bc;}.g{fill:url(#d);}.h{fill:#93278f;}.i{opacity:.77;}.j{font-family:Consolas, Consolas;font-size:31px;}</style><style
       id="style1-2">.e,.f,.g{font-family:Consolas, Consolas;}.h{fill:#662d91;}.i{fill:#0071bc;}.j{fill:url(#d);}.f,.k{fill:#fff;}.f,.k,.g{font-size:31px;}.l{font-family:Calibri-Light, Calibri;}.m{fill:#93278f;}.n{opacity:.77;}</style><style
       id="style1-6">.e,.f,.g{font-family:Consolas, Consolas;}.h{fill:#662d91;}.i{fill:#0071bc;}.j{fill:url(#d);}.f,.k{fill:#fff;}.f,.k,.g{font-size:31px;}.l{font-family:Calibri-Light, Calibri;}.m{fill:#93278f;}.n{opacity:.77;}</style><style
       id="style1-4">.e{fill:#662d91;}.f{fill:#0071bc;}.g{fill:url(#d);}.h{fill:#93278f;}.i{opacity:.77;}.j{font-family:Consolas, Consolas;font-size:31px;}</style><style
       id="style1-5">.cls-1{fill:#101010;}</style><style
       id="style1-51">.e{fill:#662d91;}.f{fill:#0071bc;}.g{fill:url(#d);}.h{fill:#93278f;}.i{opacity:.77;}.j{font-family:Consolas, Consolas;font-size:31px;}</style><style
       id="style1-2-2">.e,.f,.g{font-family:Consolas, Consolas;}.h{fill:#662d91;}.i{fill:#0071bc;}.j{fill:url(#d);}.f,.k{fill:#fff;}.f,.k,.g{font-size:31px;}.l{font-family:Calibri-Light, Calibri;}.m{fill:#93278f;}.n{opacity:.77;}</style><style
       id="style1-6-2">.e,.f,.g{font-family:Consolas, Consolas;}.h{fill:#662d91;}.i{fill:#0071bc;}.j{fill:url(#d);}.f,.k{fill:#fff;}.f,.k,.g{font-size:31px;}.l{font-family:Calibri-Light, Calibri;}.m{fill:#93278f;}.n{opacity:.77;}</style><style
       id="style1-4-2">.e{fill:#662d91;}.f{fill:#0071bc;}.g{fill:url(#d);}.h{fill:#93278f;}.i{opacity:.77;}.j{font-family:Consolas, Consolas;font-size:31px;}</style><style
       id="style1-5-6">.cls-1{fill:#101010;}</style><style
       id="style1-3">.e{fill:#662d91;}.f{fill:#0071bc;}.g{fill:url(#d);}.h{fill:#93278f;}.i{opacity:.77;}.j{font-family:Consolas, Consolas;font-size:31px;}</style><style
       id="style1-2-4">.e,.f,.g{font-family:Consolas, Consolas;}.h{fill:#662d91;}.i{fill:#0071bc;}.j{fill:url(#d);}.f,.k{fill:#fff;}.f,.k,.g{font-size:31px;}.l{font-family:Calibri-Light, Calibri;}.m{fill:#93278f;}.n{opacity:.77;}</style><style
       id="style1-6-0">.e,.f,.g{font-family:Consolas, Consolas;}.h{fill:#662d91;}.i{fill:#0071bc;}.j{fill:url(#d);}.f,.k{fill:#fff;}.f,.k,.g{font-size:31px;}.l{font-family:Calibri-Light, Calibri;}.m{fill:#93278f;}.n{opacity:.77;}</style><style
       id="style1-4-0">.e{fill:#662d91;}.f{fill:#0071bc;}.g{fill:url(#d);}.h{fill:#93278f;}.i{opacity:.77;}.j{font-family:Consolas, Consolas;font-size:31px;}</style><style
       id="style1-5-5">.cls-1{fill:#101010;}</style><style
       id="style1-50">.f{font-family:EdwardianScriptITC, Edwardian Script ITC;font-size:355px;}.f,.g,.h{fill:#fff;}.i{fill:#662d91;}.j{stroke-width:3px;}.j,.k,.l,.m{fill:none;}.j,.k,.m{stroke:#fff;stroke-miterlimit:10;}.k{stroke-width:2px;}.n{fill:#0071bc;}.o{fill:url(#d);}.p{fill:url(#e);}.h,.q{font-family:Consolas, Consolas;font-size:31px;}.r{opacity:.69;}.r,.s{fill:#29abe2;}.t{fill:#93278f;}.m{stroke-width:4px;}.u{opacity:.77;}</style><style
       id="style1-3-0">.f{opacity:.83;}.g{font-family:EdwardianScriptITC, Edwardian Script ITC;font-size:249.87px;}.g,.h{fill:#fff;}.i{fill:#662d91;}.j{stroke-width:3px;}.j,.k{fill:none;stroke:#fff;stroke-miterlimit:10;}.l{fill:#0071bc;}.m{fill:url(#d);}.n{fill:url(#e);}.h,.o{font-family:Consolas, Consolas;font-size:31px;}.p{opacity:.69;}.p,.q{fill:#29abe2;}.r{fill:#93278f;}.k{stroke-width:4px;}</style><style
       id="style1-2-45">.f{opacity:.83;}.g{font-family:EdwardianScriptITC, Edwardian Script ITC;font-size:275.28px;}.g,.h{fill:#fff;}.i{fill:#662d91;}.j{stroke-width:2px;}.j,.k{fill:none;stroke:#fff;stroke-miterlimit:10;}.l{fill:#0071bc;}.m{fill:url(#d);}.n{fill:url(#e);}.h,.o{font-family:Consolas, Consolas;font-size:31px;}.p{opacity:.69;}.p,.q{fill:#29abe2;}.r{fill:#93278f;}.k{stroke-width:4px;}</style><style
       id="style1-68">.e{fill:#662d91;}.f{fill:#0071bc;}.g{fill:url(#d);}.h{fill:#93278f;}.i{opacity:.77;}.j{font-family:Consolas, Consolas;font-size:31px;}</style><style
       id="style1-2-3">.e,.f,.g{font-family:Consolas, Consolas;}.h{fill:#662d91;}.i{fill:#0071bc;}.j{fill:url(#d);}.f,.k{fill:#fff;}.f,.k,.g{font-size:31px;}.l{font-family:Calibri-Light, Calibri;}.m{fill:#93278f;}.n{opacity:.77;}</style><style
       id="style1-6-1">.e,.f,.g{font-family:Consolas, Consolas;}.h{fill:#662d91;}.i{fill:#0071bc;}.j{fill:url(#d);}.f,.k{fill:#fff;}.f,.k,.g{font-size:31px;}.l{font-family:Calibri-Light, Calibri;}.m{fill:#93278f;}.n{opacity:.77;}</style><style
       id="style1-4-4">.e{fill:#662d91;}.f{fill:#0071bc;}.g{fill:url(#d);}.h{fill:#93278f;}.i{opacity:.77;}.j{font-family:Consolas, Consolas;font-size:31px;}</style><style
       id="style1-5-8">.cls-1{fill:#101010;}</style><style
       id="style1-8">.f{font-family:EdwardianScriptITC, Edwardian Script ITC;font-size:355px;}.f,.g,.h{fill:#fff;}.i{fill:#662d91;}.j{stroke-width:3px;}.j,.k,.l,.m{fill:none;}.j,.k,.m{stroke:#fff;stroke-miterlimit:10;}.k{stroke-width:2px;}.n{fill:#0071bc;}.o{fill:url(#d);}.p{fill:url(#e);}.h,.q{font-family:Consolas, Consolas;font-size:31px;}.r{opacity:.69;}.r,.s{fill:#29abe2;}.t{fill:#93278f;}.m{stroke-width:4px;}.u{opacity:.77;}</style><style
       id="style1-3-4">.f{opacity:.83;}.g{font-family:EdwardianScriptITC, Edwardian Script ITC;font-size:249.87px;}.g,.h{fill:#fff;}.i{fill:#662d91;}.j{stroke-width:3px;}.j,.k{fill:none;stroke:#fff;stroke-miterlimit:10;}.l{fill:#0071bc;}.m{fill:url(#d);}.n{fill:url(#e);}.h,.o{font-family:Consolas, Consolas;font-size:31px;}.p{opacity:.69;}.p,.q{fill:#29abe2;}.r{fill:#93278f;}.k{stroke-width:4px;}</style><style
       id="style1-2-9">.f{opacity:.83;}.g{font-family:EdwardianScriptITC, Edwardian Script ITC;font-size:275.28px;}.g,.h{fill:#fff;}.i{fill:#662d91;}.j{stroke-width:2px;}.j,.k{fill:none;stroke:#fff;stroke-miterlimit:10;}.l{fill:#0071bc;}.m{fill:url(#d);}.n{fill:url(#e);}.h,.o{font-family:Consolas, Consolas;font-size:31px;}.p{opacity:.69;}.p,.q{fill:#29abe2;}.r{fill:#93278f;}.k{stroke-width:4px;}</style><style
       id="style1-9">.f{font-family:EdwardianScriptITC, Edwardian Script ITC;font-size:355px;}.f,.g,.h{fill:#fff;}.i{fill:#662d91;}.j{stroke-width:3px;}.j,.k,.l,.m{fill:none;}.j,.k,.m{stroke:#fff;stroke-miterlimit:10;}.k{stroke-width:2px;}.n{fill:#0071bc;}.o{fill:url(#d);}.p{fill:url(#e);}.h,.q{font-family:Consolas, Consolas;font-size:31px;}.r{opacity:.69;}.r,.s{fill:#29abe2;}.t{fill:#93278f;}.m{stroke-width:4px;}.u{opacity:.77;}</style><style
       id="style1-3-8">.f{opacity:.83;}.g{font-family:EdwardianScriptITC, Edwardian Script ITC;font-size:249.87px;}.g,.h{fill:#fff;}.i{fill:#662d91;}.j{stroke-width:3px;}.j,.k{fill:none;stroke:#fff;stroke-miterlimit:10;}.l{fill:#0071bc;}.m{fill:url(#d);}.n{fill:url(#e);}.h,.o{font-family:Consolas, Consolas;font-size:31px;}.p{opacity:.69;}.p,.q{fill:#29abe2;}.r{fill:#93278f;}.k{stroke-width:4px;}</style><style
       id="style1-2-30">.f{opacity:.83;}.g{font-family:EdwardianScriptITC, Edwardian Script ITC;font-size:275.28px;}.g,.h{fill:#fff;}.i{fill:#662d91;}.j{stroke-width:2px;}.j,.k{fill:none;stroke:#fff;stroke-miterlimit:10;}.l{fill:#0071bc;}.m{fill:url(#d);}.n{fill:url(#e);}.h,.o{font-family:Consolas, Consolas;font-size:31px;}.p{opacity:.69;}.p,.q{fill:#29abe2;}.r{fill:#93278f;}.k{stroke-width:4px;}</style><style
       id="style1-30">.f{font-family:EdwardianScriptITC, Edwardian Script ITC;font-size:355px;}.f,.g,.h{fill:#fff;}.i{fill:#662d91;}.j{stroke-width:3px;}.j,.k,.l,.m{fill:none;}.j,.k,.m{stroke:#fff;stroke-miterlimit:10;}.k{stroke-width:2px;}.n{fill:#0071bc;}.o{fill:url(#d);}.p{fill:url(#e);}.h,.q{font-family:Consolas, Consolas;font-size:31px;}.r{opacity:.69;}.r,.s{fill:#29abe2;}.t{fill:#93278f;}.m{stroke-width:4px;}.u{opacity:.77;}</style><style
       id="style1-3-04">.f{opacity:.83;}.g{font-family:EdwardianScriptITC, Edwardian Script ITC;font-size:249.87px;}.g,.h{fill:#fff;}.i{fill:#662d91;}.j{stroke-width:3px;}.j,.k{fill:none;stroke:#fff;stroke-miterlimit:10;}.l{fill:#0071bc;}.m{fill:url(#d);}.n{fill:url(#e);}.h,.o{font-family:Consolas, Consolas;font-size:31px;}.p{opacity:.69;}.p,.q{fill:#29abe2;}.r{fill:#93278f;}.k{stroke-width:4px;}</style><style
       id="style1-2-8">.f{opacity:.83;}.g{font-family:EdwardianScriptITC, Edwardian Script ITC;font-size:275.28px;}.g,.h{fill:#fff;}.i{fill:#662d91;}.j{stroke-width:2px;}.j,.k{fill:none;stroke:#fff;stroke-miterlimit:10;}.l{fill:#0071bc;}.m{fill:url(#d);}.n{fill:url(#e);}.h,.o{font-family:Consolas, Consolas;font-size:31px;}.p{opacity:.69;}.p,.q{fill:#29abe2;}.r{fill:#93278f;}.k{stroke-width:4px;}</style><style
       id="style1-57">.f{font-family:EdwardianScriptITC, Edwardian Script ITC;font-size:355px;}.f,.g,.h{fill:#fff;}.i{fill:#662d91;}.j{stroke-width:3px;}.j,.k,.l,.m{fill:none;}.j,.k,.m{stroke:#fff;stroke-miterlimit:10;}.k{stroke-width:2px;}.n{fill:#0071bc;}.o{fill:url(#d);}.p{fill:url(#e);}.h,.q{font-family:Consolas, Consolas;font-size:31px;}.r{opacity:.69;}.r,.s{fill:#29abe2;}.t{fill:#93278f;}.m{stroke-width:4px;}.u{opacity:.77;}</style><style
       id="style1-3-7">.f{opacity:.83;}.g{font-family:EdwardianScriptITC, Edwardian Script ITC;font-size:249.87px;}.g,.h{fill:#fff;}.i{fill:#662d91;}.j{stroke-width:3px;}.j,.k{fill:none;stroke:#fff;stroke-miterlimit:10;}.l{fill:#0071bc;}.m{fill:url(#d);}.n{fill:url(#e);}.h,.o{font-family:Consolas, Consolas;font-size:31px;}.p{opacity:.69;}.p,.q{fill:#29abe2;}.r{fill:#93278f;}.k{stroke-width:4px;}</style><style
       id="style1-47">.f{font-family:EdwardianScriptITC, Edwardian Script ITC;font-size:355px;}.f,.g,.h{fill:#fff;}.i{fill:#662d91;}.j{stroke-width:3px;}.j,.k,.l,.m{fill:none;}.j,.k,.m{stroke:#fff;stroke-miterlimit:10;}.k{stroke-width:2px;}.n{fill:#0071bc;}.o{fill:url(#d);}.p{fill:url(#e);}.h,.q{font-family:Consolas, Consolas;font-size:31px;}.r{opacity:.69;}.r,.s{fill:#29abe2;}.t{fill:#93278f;}.m{stroke-width:4px;}.u{opacity:.77;}</style><style
       id="style1-3-83">.f{opacity:.83;}.g{font-family:EdwardianScriptITC, Edwardian Script ITC;font-size:249.87px;}.g,.h{fill:#fff;}.i{fill:#662d91;}.j{stroke-width:3px;}.j,.k{fill:none;stroke:#fff;stroke-miterlimit:10;}.l{fill:#0071bc;}.m{fill:url(#d);}.n{fill:url(#e);}.h,.o{font-family:Consolas, Consolas;font-size:31px;}.p{opacity:.69;}.p,.q{fill:#29abe2;}.r{fill:#93278f;}.k{stroke-width:4px;}</style><style
       id="style1-35">.f{font-family:EdwardianScriptITC, Edwardian Script ITC;font-size:355px;}.f,.g,.h{fill:#fff;}.i{fill:#662d91;}.j{stroke-width:3px;}.j,.k,.l,.m{fill:none;}.j,.k,.m{stroke:#fff;stroke-miterlimit:10;}.k{stroke-width:2px;}.n{fill:#0071bc;}.o{fill:url(#d);}.p{fill:url(#e);}.h,.q{font-family:Consolas, Consolas;font-size:31px;}.r{opacity:.69;}.r,.s{fill:#29abe2;}.t{fill:#93278f;}.m{stroke-width:4px;}.u{opacity:.77;}</style><style
       id="style1-3-6">.f{opacity:.83;}.g{font-family:EdwardianScriptITC, Edwardian Script ITC;font-size:249.87px;}.g,.h{fill:#fff;}.i{fill:#662d91;}.j{stroke-width:3px;}.j,.k{fill:none;stroke:#fff;stroke-miterlimit:10;}.l{fill:#0071bc;}.m{fill:url(#d);}.n{fill:url(#e);}.h,.o{font-family:Consolas, Consolas;font-size:31px;}.p{opacity:.69;}.p,.q{fill:#29abe2;}.r{fill:#93278f;}.k{stroke-width:4px;}</style><style
       id="style1-27">.f{font-family:EdwardianScriptITC, Edwardian Script ITC;font-size:355px;}.f,.g,.h{fill:#fff;}.i{fill:#662d91;}.j{stroke-width:3px;}.j,.k,.l,.m{fill:none;}.j,.k,.m{stroke:#fff;stroke-miterlimit:10;}.k{stroke-width:2px;}.n{fill:#0071bc;}.o{fill:url(#d);}.p{fill:url(#e);}.h,.q{font-family:Consolas, Consolas;font-size:31px;}.r{opacity:.69;}.r,.s{fill:#29abe2;}.t{fill:#93278f;}.m{stroke-width:4px;}.u{opacity:.77;}</style><style
       id="style1-3-2">.f{opacity:.83;}.g{font-family:EdwardianScriptITC, Edwardian Script ITC;font-size:249.87px;}.g,.h{fill:#fff;}.i{fill:#662d91;}.j{stroke-width:3px;}.j,.k{fill:none;stroke:#fff;stroke-miterlimit:10;}.l{fill:#0071bc;}.m{fill:url(#d);}.n{fill:url(#e);}.h,.o{font-family:Consolas, Consolas;font-size:31px;}.p{opacity:.69;}.p,.q{fill:#29abe2;}.r{fill:#93278f;}.k{stroke-width:4px;}</style><style
       id="style1-44">.e{fill:#662d91;}.f{fill:#0071bc;}.g{fill:url(#d);}.h{fill:#93278f;}.i{opacity:.77;}.j{font-family:Consolas, Consolas;font-size:31px;}</style><style
       id="style1-2-42">.e,.f,.g{font-family:Consolas, Consolas;}.h{fill:#662d91;}.i{fill:#0071bc;}.j{fill:url(#d);}.f,.k{fill:#fff;}.f,.k,.g{font-size:31px;}.l{font-family:Calibri-Light, Calibri;}.m{fill:#93278f;}.n{opacity:.77;}</style><style
       id="style1-6-7">.e,.f,.g{font-family:Consolas, Consolas;}.h{fill:#662d91;}.i{fill:#0071bc;}.j{fill:url(#d);}.f,.k{fill:#fff;}.f,.k,.g{font-size:31px;}.l{font-family:Calibri-Light, Calibri;}.m{fill:#93278f;}.n{opacity:.77;}</style><style
       id="style1-4-9">.e{fill:#662d91;}.f{fill:#0071bc;}.g{fill:url(#d);}.h{fill:#93278f;}.i{opacity:.77;}.j{font-family:Consolas, Consolas;font-size:31px;}</style><style
       id="style1-5-1">.cls-1{fill:#101010;}</style><style
       id="style1-53">.e{fill:#662d91;}.f{fill:#0071bc;}.g{fill:url(#d);}.h{fill:#93278f;}.i{opacity:.77;}.j{font-family:Consolas, Consolas;font-size:31px;}</style><style
       id="style1-2-0">.e,.f,.g{font-family:Consolas, Consolas;}.h{fill:#662d91;}.i{fill:#0071bc;}.j{fill:url(#d);}.f,.k{fill:#fff;}.f,.k,.g{font-size:31px;}.l{font-family:Calibri-Light, Calibri;}.m{fill:#93278f;}.n{opacity:.77;}</style><style
       id="style1-6-8">.e,.f,.g{font-family:Consolas, Consolas;}.h{fill:#662d91;}.i{fill:#0071bc;}.j{fill:url(#d);}.f,.k{fill:#fff;}.f,.k,.g{font-size:31px;}.l{font-family:Calibri-Light, Calibri;}.m{fill:#93278f;}.n{opacity:.77;}</style><style
       id="style1-4-91">.e{fill:#662d91;}.f{fill:#0071bc;}.g{fill:url(#d);}.h{fill:#93278f;}.i{opacity:.77;}.j{font-family:Consolas, Consolas;font-size:31px;}</style><style
       id="style1-5-3">.cls-1{fill:#101010;}</style><style
       id="style1-36">.e{fill:#662d91;}.f{fill:#0071bc;}.g{fill:url(#d);}.h{fill:#93278f;}.i{opacity:.77;}.j{font-family:Consolas, Consolas;font-size:31px;}</style><style
       id="style1-2-5">.e,.f,.g{font-family:Consolas, Consolas;}.h{fill:#662d91;}.i{fill:#0071bc;}.j{fill:url(#d);}.f,.k{fill:#fff;}.f,.k,.g{font-size:31px;}.l{font-family:Calibri-Light, Calibri;}.m{fill:#93278f;}.n{opacity:.77;}</style><style
       id="style1-6-28">.e,.f,.g{font-family:Consolas, Consolas;}.h{fill:#662d91;}.i{fill:#0071bc;}.j{fill:url(#d);}.f,.k{fill:#fff;}.f,.k,.g{font-size:31px;}.l{font-family:Calibri-Light, Calibri;}.m{fill:#93278f;}.n{opacity:.77;}</style><style
       id="style1-4-1">.e{fill:#662d91;}.f{fill:#0071bc;}.g{fill:url(#d);}.h{fill:#93278f;}.i{opacity:.77;}.j{font-family:Consolas, Consolas;font-size:31px;}</style><style
       id="style1-5-0">.cls-1{fill:#101010;}</style><style
       id="style1-1">.e{fill:#662d91;}.f{fill:#0071bc;}.g{fill:url(#d);}.h{fill:#93278f;}.i{opacity:.77;}.j{font-family:Consolas, Consolas;font-size:31px;}</style><style
       id="style1-2-7">.e,.f,.g{font-family:Consolas, Consolas;}.h{fill:#662d91;}.i{fill:#0071bc;}.j{fill:url(#d);}.f,.k{fill:#fff;}.f,.k,.g{font-size:31px;}.l{font-family:Calibri-Light, Calibri;}.m{fill:#93278f;}.n{opacity:.77;}</style><style
       id="style1-6-4">.e,.f,.g{font-family:Consolas, Consolas;}.h{fill:#662d91;}.i{fill:#0071bc;}.j{fill:url(#d);}.f,.k{fill:#fff;}.f,.k,.g{font-size:31px;}.l{font-family:Calibri-Light, Calibri;}.m{fill:#93278f;}.n{opacity:.77;}</style><style
       id="style1-4-8">.e{fill:#662d91;}.f{fill:#0071bc;}.g{fill:url(#d);}.h{fill:#93278f;}.i{opacity:.77;}.j{font-family:Consolas, Consolas;font-size:31px;}</style><style
       id="style1-5-2">.cls-1{fill:#101010;}</style><style
       id="style1-80">.e{fill:#662d91;}.f{fill:#0071bc;}.g{fill:url(#d);}.h{fill:#93278f;}.i{opacity:.77;}.j{font-family:Consolas, Consolas;font-size:31px;}</style><style
       id="style1-2-72">.e,.f,.g{font-family:Consolas, Consolas;}.h{fill:#662d91;}.i{fill:#0071bc;}.j{fill:url(#d);}.f,.k{fill:#fff;}.f,.k,.g{font-size:31px;}.l{font-family:Calibri-Light, Calibri;}.m{fill:#93278f;}.n{opacity:.77;}</style><style
       id="style1-6-25">.e,.f,.g{font-family:Consolas, Consolas;}.h{fill:#662d91;}.i{fill:#0071bc;}.j{fill:url(#d);}.f,.k{fill:#fff;}.f,.k,.g{font-size:31px;}.l{font-family:Calibri-Light, Calibri;}.m{fill:#93278f;}.n{opacity:.77;}</style><style
       id="style1-4-910">.e{fill:#662d91;}.f{fill:#0071bc;}.g{fill:url(#d);}.h{fill:#93278f;}.i{opacity:.77;}.j{font-family:Consolas, Consolas;font-size:31px;}</style><style
       id="style1-5-85">.cls-1{fill:#101010;}</style><style
       id="style1-10">.e{fill:#662d91;}.f{fill:#0071bc;}.g{fill:url(#d);}.h{fill:#93278f;}.i{opacity:.77;}.j{font-family:Consolas, Consolas;font-size:31px;}</style><style
       id="style1-2-48">.e,.f,.g{font-family:Consolas, Consolas;}.h{fill:#662d91;}.i{fill:#0071bc;}.j{fill:url(#d);}.f,.k{fill:#fff;}.f,.k,.g{font-size:31px;}.l{font-family:Calibri-Light, Calibri;}.m{fill:#93278f;}.n{opacity:.77;}</style><style
       id="style1-6-5">.e,.f,.g{font-family:Consolas, Consolas;}.h{fill:#662d91;}.i{fill:#0071bc;}.j{fill:url(#d);}.f,.k{fill:#fff;}.f,.k,.g{font-size:31px;}.l{font-family:Calibri-Light, Calibri;}.m{fill:#93278f;}.n{opacity:.77;}</style><style
       id="style1-4-92">.e{fill:#662d91;}.f{fill:#0071bc;}.g{fill:url(#d);}.h{fill:#93278f;}.i{opacity:.77;}.j{font-family:Consolas, Consolas;font-size:31px;}</style><style
       id="style1-5-54">.cls-1{fill:#101010;}</style><style
       id="style1-7">.e{fill:#662d91;}.f{fill:#0071bc;}.g{fill:url(#d);}.h{fill:#93278f;}.i{opacity:.77;}.j{font-family:Consolas, Consolas;font-size:31px;}</style><style
       id="style1-2-96">.e,.f,.g{font-family:Consolas, Consolas;}.h{fill:#662d91;}.i{fill:#0071bc;}.j{fill:url(#d);}.f,.k{fill:#fff;}.f,.k,.g{font-size:31px;}.l{font-family:Calibri-Light, Calibri;}.m{fill:#93278f;}.n{opacity:.77;}</style><style
       id="style1-6-17">.e,.f,.g{font-family:Consolas, Consolas;}.h{fill:#662d91;}.i{fill:#0071bc;}.j{fill:url(#d);}.f,.k{fill:#fff;}.f,.k,.g{font-size:31px;}.l{font-family:Calibri-Light, Calibri;}.m{fill:#93278f;}.n{opacity:.77;}</style><style
       id="style1-4-7">.e{fill:#662d91;}.f{fill:#0071bc;}.g{fill:url(#d);}.h{fill:#93278f;}.i{opacity:.77;}.j{font-family:Consolas, Consolas;font-size:31px;}</style><style
       id="style1-5-19">.cls-1{fill:#101010;}</style><style
       id="style1-75">.e{fill:#662d91;}.f{fill:#0071bc;}.g{fill:url(#d);}.h{fill:#93278f;}.i{opacity:.77;}.j{font-family:Consolas, Consolas;font-size:31px;}</style><style
       id="style1-2-33">.e,.f,.g{font-family:Consolas, Consolas;}.h{fill:#662d91;}.i{fill:#0071bc;}.j{fill:url(#d);}.f,.k{fill:#fff;}.f,.k,.g{font-size:31px;}.l{font-family:Calibri-Light, Calibri;}.m{fill:#93278f;}.n{opacity:.77;}</style><style
       id="style1-6-24">.e,.f,.g{font-family:Consolas, Consolas;}.h{fill:#662d91;}.i{fill:#0071bc;}.j{fill:url(#d);}.f,.k{fill:#fff;}.f,.k,.g{font-size:31px;}.l{font-family:Calibri-Light, Calibri;}.m{fill:#93278f;}.n{opacity:.77;}</style><style
       id="style1-4-12">.e{fill:#662d91;}.f{fill:#0071bc;}.g{fill:url(#d);}.h{fill:#93278f;}.i{opacity:.77;}.j{font-family:Consolas, Consolas;font-size:31px;}</style><style
       id="style1-5-9">.cls-1{fill:#101010;}</style><style
       id="style1-56">.e{fill:#662d91;}.f{fill:#0071bc;}.g{fill:url(#d);}.h{fill:#93278f;}.i{opacity:.77;}.j{font-family:Consolas, Consolas;font-size:31px;}</style><style
       id="style1-2-80">.e,.f,.g{font-family:Consolas, Consolas;}.h{fill:#662d91;}.i{fill:#0071bc;}.j{fill:url(#d);}.f,.k{fill:#fff;}.f,.k,.g{font-size:31px;}.l{font-family:Calibri-Light, Calibri;}.m{fill:#93278f;}.n{opacity:.77;}</style><style
       id="style1-6-77">.e,.f,.g{font-family:Consolas, Consolas;}.h{fill:#662d91;}.i{fill:#0071bc;}.j{fill:url(#d);}.f,.k{fill:#fff;}.f,.k,.g{font-size:31px;}.l{font-family:Calibri-Light, Calibri;}.m{fill:#93278f;}.n{opacity:.77;}</style><style
       id="style1-4-43">.e{fill:#662d91;}.f{fill:#0071bc;}.g{fill:url(#d);}.h{fill:#93278f;}.i{opacity:.77;}.j{font-family:Consolas, Consolas;font-size:31px;}</style><style
       id="style1-5-13">.cls-1{fill:#101010;}</style><style
       id="style1-90">.e{fill:#662d91;}.f{fill:#0071bc;}.g{fill:url(#d);}.h{fill:#93278f;}.i{opacity:.77;}.j{font-family:Consolas, Consolas;font-size:31px;}</style><style
       id="style1-2-429">.e,.f,.g{font-family:Consolas, Consolas;}.h{fill:#662d91;}.i{fill:#0071bc;}.j{fill:url(#d);}.f,.k{fill:#fff;}.f,.k,.g{font-size:31px;}.l{font-family:Calibri-Light, Calibri;}.m{fill:#93278f;}.n{opacity:.77;}</style><style
       id="style1-6-31">.e,.f,.g{font-family:Consolas, Consolas;}.h{fill:#662d91;}.i{fill:#0071bc;}.j{fill:url(#d);}.f,.k{fill:#fff;}.f,.k,.g{font-size:31px;}.l{font-family:Calibri-Light, Calibri;}.m{fill:#93278f;}.n{opacity:.77;}</style><style
       id="style1-4-48">.e{fill:#662d91;}.f{fill:#0071bc;}.g{fill:url(#d);}.h{fill:#93278f;}.i{opacity:.77;}.j{font-family:Consolas, Consolas;font-size:31px;}</style><style
       id="style1-5-20">.cls-1{fill:#101010;}</style><style
       id="style1-66">.e{fill:#662d91;}.f{fill:#0071bc;}.g{fill:url(#d);}.h{fill:#93278f;}.i{opacity:.77;}.j{font-family:Consolas, Consolas;font-size:31px;}</style><style
       id="style1-2-0-5">.e,.f,.g{font-family:Consolas, Consolas;}.h{fill:#662d91;}.i{fill:#0071bc;}.j{fill:url(#d);}.f,.k{fill:#fff;}.f,.k,.g{font-size:31px;}.l{font-family:Calibri-Light, Calibri;}.m{fill:#93278f;}.n{opacity:.77;}</style><style
       id="style1-6-3">.e,.f,.g{font-family:Consolas, Consolas;}.h{fill:#662d91;}.i{fill:#0071bc;}.j{fill:url(#d);}.f,.k{fill:#fff;}.f,.k,.g{font-size:31px;}.l{font-family:Calibri-Light, Calibri;}.m{fill:#93278f;}.n{opacity:.77;}</style><style
       id="style1-4-8-5">.e{fill:#662d91;}.f{fill:#0071bc;}.g{fill:url(#d);}.h{fill:#93278f;}.i{opacity:.77;}.j{font-family:Consolas, Consolas;font-size:31px;}</style><style
       id="style1-5-0-9">.cls-1{fill:#101010;}</style><style
       id="style1-48">.e{fill:#662d91;}.f{fill:#0071bc;}.g{fill:url(#d);}.h{fill:#93278f;}.i{opacity:.77;}.j{font-family:Consolas, Consolas;font-size:31px;}</style><style
       id="style1-2-35">.e,.f,.g{font-family:Consolas, Consolas;}.h{fill:#662d91;}.i{fill:#0071bc;}.j{fill:url(#d);}.f,.k{fill:#fff;}.f,.k,.g{font-size:31px;}.l{font-family:Calibri-Light, Calibri;}.m{fill:#93278f;}.n{opacity:.77;}</style><style
       id="style1-6-52">.e,.f,.g{font-family:Consolas, Consolas;}.h{fill:#662d91;}.i{fill:#0071bc;}.j{fill:url(#d);}.f,.k{fill:#fff;}.f,.k,.g{font-size:31px;}.l{font-family:Calibri-Light, Calibri;}.m{fill:#93278f;}.n{opacity:.77;}</style><style
       id="style1-4-6">.e{fill:#662d91;}.f{fill:#0071bc;}.g{fill:url(#d);}.h{fill:#93278f;}.i{opacity:.77;}.j{font-family:Consolas, Consolas;font-size:31px;}</style><style
       id="style1-5-89">.cls-1{fill:#101010;}</style><style
       id="style1-0">.e{fill:#662d91;}.f{fill:#0071bc;}.g{fill:url(#d);}.h{fill:#93278f;}.i{opacity:.77;}.j{font-family:Consolas, Consolas;font-size:31px;}</style><style
       id="style1-2-58">.e,.f,.g{font-family:Consolas, Consolas;}.h{fill:#662d91;}.i{fill:#0071bc;}.j{fill:url(#d);}.f,.k{fill:#fff;}.f,.k,.g{font-size:31px;}.l{font-family:Calibri-Light, Calibri;}.m{fill:#93278f;}.n{opacity:.77;}</style><style
       id="style1-6-37">.e,.f,.g{font-family:Consolas, Consolas;}.h{fill:#662d91;}.i{fill:#0071bc;}.j{fill:url(#d);}.f,.k{fill:#fff;}.f,.k,.g{font-size:31px;}.l{font-family:Calibri-Light, Calibri;}.m{fill:#93278f;}.n{opacity:.77;}</style><style
       id="style1-4-83">.e{fill:#662d91;}.f{fill:#0071bc;}.g{fill:url(#d);}.h{fill:#93278f;}.i{opacity:.77;}.j{font-family:Consolas, Consolas;font-size:31px;}</style><style
       id="style1-5-7">.cls-1{fill:#101010;}</style><linearGradient
       id="linearGradient55"
       inkscape:collect="always"><stop
         style="stop-color:#2c8bd1;stop-opacity:1;"
         offset="0"
         id="stop55" /><stop
         style="stop-color:#df67a1;stop-opacity:1;"
         offset="1"
         id="stop56" /></linearGradient><style
       id="style1-82">.e{fill:#662d91;}.f{fill:#0071bc;}.g{fill:url(#d);}.h{fill:#93278f;}.i{opacity:.77;}.j{font-family:Consolas, Consolas;font-size:31px;}</style><style
       id="style1-2-801">.e,.f,.g{font-family:Consolas, Consolas;}.h{fill:#662d91;}.i{fill:#0071bc;}.j{fill:url(#d);}.f,.k{fill:#fff;}.f,.k,.g{font-size:31px;}.l{font-family:Calibri-Light, Calibri;}.m{fill:#93278f;}.n{opacity:.77;}</style><style
       id="style1-6-84">.e,.f,.g{font-family:Consolas, Consolas;}.h{fill:#662d91;}.i{fill:#0071bc;}.j{fill:url(#d);}.f,.k{fill:#fff;}.f,.k,.g{font-size:31px;}.l{font-family:Calibri-Light, Calibri;}.m{fill:#93278f;}.n{opacity:.77;}</style><style
       id="style1-4-86">.e{fill:#662d91;}.f{fill:#0071bc;}.g{fill:url(#d);}.h{fill:#93278f;}.i{opacity:.77;}.j{font-family:Consolas, Consolas;font-size:31px;}</style><style
       id="style1-5-09">.cls-1{fill:#101010;}</style><linearGradient
       inkscape:collect="always"
       xlink:href="#linearGradient55"
       id="linearGradient25"
       x1="1026.0774"
       y1="757.80359"
       x2="1736.088"
       y2="757.80359"
       gradientUnits="userSpaceOnUse"
       gradientTransform="translate(0,1.0433271)" /></defs><g
     inkscape:label="Layer 1"
     inkscape:groupmode="layer"
     id="layer1"
     transform="translate(1807.1305,240.15347)"><g
       id="g28"
       transform="matrix(0.26458333,0,0,0.26458333,-2070.5389,-437.58032)"
       inkscape:export-filename="Ascii_Web_Elements\Note_Unprintable.svg"
       inkscape:export-xdpi="96"
       inkscape:export-ydpi="96"><path
         d="m 1034.5967,753.31825 -4.0016,7.10645 v 3.95085 h -1.5228 v -3.98469 l -4.0016,-7.07261 h 1.8189 l 2.1996,4.04391 0.8122,1.62433 0.7445,-1.47205 2.225,-4.19619 z m 9.2769,5.45674 q 0,1.48897 -0.3553,2.57186 -0.3469,1.08289 -0.9476,1.79353 -0.5922,0.70219 -1.3959,1.04905 -0.7952,0.3384 -1.6835,0.3384 -1.066,0 -1.8612,-0.3807 -0.7868,-0.38916 -1.3113,-1.11673 -0.5161,-0.72757 -0.7699,-1.76815 -0.2538,-1.04905 -0.2538,-2.36036 0,-1.47205 0.3469,-2.55494 0.3468,-1.08288 0.939,-1.78507 0.6007,-0.71064 1.3959,-1.04905 0.7953,-0.34686 1.6836,-0.34686 1.066,0 1.8527,0.38916 0.7953,0.38917 1.3198,1.11673 0.5245,0.71911 0.7783,1.75969 0.2623,1.04059 0.2623,2.34344 z m -1.5651,0.10998 q 0,-0.97291 -0.1523,-1.77661 -0.1438,-0.81217 -0.4738,-1.39591 -0.3299,-0.58374 -0.8544,-0.90523 -0.5161,-0.32148 -1.2521,-0.32148 -0.7107,0 -1.2267,0.34686 -0.5076,0.33841 -0.8376,0.93061 -0.3299,0.58374 -0.4907,1.37899 -0.1607,0.78678 -0.1607,1.67509 0,0.98137 0.1523,1.79353 0.1523,0.80371 0.4738,1.38745 0.3299,0.57529 0.846,0.89677 0.516,0.32148 1.2436,0.32148 0.7106,0 1.2267,-0.3384 0.5161,-0.34686 0.846,-0.93061 0.3384,-0.5922 0.4991,-1.37899 0.1608,-0.78678 0.1608,-1.68355 z m 10.8589,1.64125 q 0,0.91369 -0.2623,1.65817 -0.2538,0.73603 -0.7529,1.26055 -0.4991,0.51607 -1.2267,0.80371 -0.7191,0.27918 -1.6582,0.27918 -1.0321,0 -1.7512,-0.27072 -0.7191,-0.27072 -1.176,-0.76141 -0.4483,-0.49914 -0.6598,-1.19287 -0.2031,-0.69372 -0.2031,-1.54819 v -7.43639 h 1.5059 v 7.31795 q 0,0.65143 0.1184,1.14211 0.1269,0.49068 0.4061,0.82063 0.2792,0.32994 0.7191,0.49914 0.4484,0.1692 1.0914,0.1692 1.2013,0 1.7681,-0.69372 0.5753,-0.69373 0.5753,-1.95428 v -7.30103 h 1.5059 z m 10.0214,3.84933 h -1.7005 l -1.6497,-3.53631 q -0.1861,-0.40608 -0.3807,-0.66834 -0.1946,-0.27072 -0.423,-0.423 -0.22,-0.16074 -0.4907,-0.22842 -0.2623,-0.0677 -0.5922,-0.0677 h -0.7106 v 4.92375 h -1.5059 v -11.0573 h 2.961 q 0.9644,0 1.6582,0.2115 0.6937,0.21151 1.1336,0.59221 0.4484,0.3807 0.6514,0.92214 0.2115,0.53299 0.2115,1.18441 0,0.51607 -0.1522,0.98137 -0.1523,0.45684 -0.4569,0.83755 -0.2961,0.37224 -0.7445,0.65142 -0.4399,0.27072 -1.0152,0.40608 0.4653,0.16074 0.7868,0.56683 0.3299,0.39762 0.6684,1.06596 z m -2.4111,-8.02014 q 0,-0.8883 -0.5584,-1.32823 -0.5499,-0.43992 -1.5566,-0.43992 h -1.4213 v 3.65475 h 1.2182 q 0.533,0 0.956,-0.11844 0.4315,-0.12691 0.7276,-0.36379 0.3045,-0.24534 0.4653,-0.5922 0.1692,-0.35532 0.1692,-0.81217 z m 17.0726,-1.76815 h -2.5464 v -1.26901 h 6.6157 v 1.26901 h -2.5464 v 8.50236 h 2.5464 v 1.28593 h -6.6157 v -1.28593 h 2.5464 z m 14.2684,9.78829 h -1.9628 l -3.2232,-6.89495 -0.9306,-2.21653 v 5.57517 3.53631 h -1.4044 v -11.0573 h 1.9373 l 3.071,6.53117 1.1083,2.52956 v -5.92205 -3.13868 h 1.4044 z m 9.8098,-7.67327 q 0,0.6768 -0.2538,1.34515 -0.2538,0.65988 -0.7867,1.1844 -0.533,0.52453 -1.3621,0.85447 -0.8291,0.32148 -1.9797,0.32148 h -1.3705 v 3.96777 h -1.5059 v -11.0573 h 3.1133 q 0.8206,0 1.5736,0.18612 0.7529,0.17766 1.3198,0.58375 0.5752,0.40608 0.9136,1.04905 0.3384,0.64296 0.3384,1.56511 z m -1.5651,0.0677 q 0,-1.06597 -0.7021,-1.63279 -0.6938,-0.56683 -1.9459,-0.56683 h -1.5397 v 4.55151 h 1.4044 q 1.3367,0 2.0558,-0.58374 0.7275,-0.58375 0.7275,-1.76815 z m 11.3243,3.75626 q 0,0.91369 -0.2623,1.65817 -0.2538,0.73603 -0.7529,1.26055 -0.4992,0.51607 -1.2268,0.80371 -0.7191,0.27918 -1.6581,0.27918 -1.0321,0 -1.7513,-0.27072 -0.7191,-0.27072 -1.1759,-0.76141 -0.4484,-0.49914 -0.6599,-1.19287 -0.203,-0.69372 -0.203,-1.54819 v -7.43639 h 1.5059 v 7.31795 q 0,0.65143 0.1184,1.14211 0.1269,0.49068 0.4061,0.82063 0.2792,0.32994 0.7191,0.49914 0.4484,0.1692 1.0913,0.1692 1.2014,0 1.7682,-0.69372 0.5753,-0.69373 0.5753,-1.95428 v -7.30103 h 1.5059 z m 9.9283,-5.92204 h -3.2741 v 9.77137 h -1.5228 v -9.77137 h -3.274 v -1.28593 h 8.0709 z m 19.1708,9.35683 q -1.3283,0.5499 -2.7834,0.5499 -2.3434,0 -3.604,-1.39591 -1.2521,-1.40437 -1.2521,-4.14543 0,-1.32823 0.3469,-2.40265 0.3468,-1.07443 0.9898,-1.81892 0.643,-0.75294 1.5567,-1.15903 0.9136,-0.40608 2.0473,-0.40608 0.7699,0 1.4297,0.13536 0.6599,0.1269 1.2691,0.39763 v 1.48051 q -0.6007,-0.32995 -1.2437,-0.49915 -0.6429,-0.17766 -1.4043,-0.17766 -0.7784,0 -1.4129,0.2961 -0.626,0.28764 -1.0659,0.84601 -0.44,0.5499 -0.6768,1.35361 -0.2369,0.79524 -0.2369,1.81891 0,2.14886 0.8714,3.2402 0.8713,1.09135 2.5549,1.09135 0.7106,0 1.3621,-0.16074 0.6514,-0.1692 1.2521,-0.4653 z m 10.3851,-5.18602 q 0,1.48897 -0.3553,2.57186 -0.3469,1.08289 -0.9475,1.79353 -0.5922,0.70219 -1.3959,1.04905 -0.7953,0.3384 -1.6836,0.3384 -1.066,0 -1.8612,-0.3807 -0.7868,-0.38916 -1.3113,-1.11673 -0.5161,-0.72757 -0.7699,-1.76815 -0.2538,-1.04905 -0.2538,-2.36036 0,-1.47205 0.3469,-2.55494 0.3468,-1.08288 0.939,-1.78507 0.6007,-0.71064 1.396,-1.04905 0.7952,-0.34686 1.6835,-0.34686 1.066,0 1.8528,0.38916 0.7952,0.38917 1.3197,1.11673 0.5246,0.71911 0.7784,1.75969 0.2622,1.04059 0.2622,2.34344 z m -1.5651,0.10998 q 0,-0.97291 -0.1523,-1.77661 -0.1438,-0.81217 -0.4737,-1.39591 -0.33,-0.58374 -0.8545,-0.90523 -0.5161,-0.32148 -1.2521,-0.32148 -0.7106,0 -1.2267,0.34686 -0.5076,0.33841 -0.8376,0.93061 -0.3299,0.58374 -0.4906,1.37899 -0.1608,0.78678 -0.1608,1.67509 0,0.98137 0.1523,1.79353 0.1523,0.80371 0.4738,1.38745 0.3299,0.57529 0.846,0.89677 0.516,0.32148 1.2436,0.32148 0.7106,0 1.2267,-0.3384 0.5161,-0.34686 0.846,-0.93061 0.3384,-0.5922 0.4992,-1.37899 0.1607,-0.78678 0.1607,-1.68355 z m 10.7743,5.49058 h -1.9627 l -3.2233,-6.89495 -0.9306,-2.21653 v 5.57517 3.53631 h -1.4044 v -11.0573 h 1.9374 l 3.071,6.53117 1.1083,2.52956 v -5.92205 -3.13868 h 1.4043 z m 10.0129,-9.77137 h -3.274 v 9.77137 h -1.5228 v -9.77137 h -3.2741 v -1.28593 h 8.0709 z m 10.3852,9.77137 h -1.6413 l -0.7698,-2.41112 h -4.6023 l -0.7783,2.41112 h -1.5651 l 3.6716,-11.0573 h 2.0643 z m -2.8426,-3.75627 -1.8697,-5.91358 -1.8696,5.91358 z m 7.145,-6.03202 h -2.5465 v -1.26901 h 6.6158 v 1.26901 h -2.5465 v 8.50236 h 2.5465 v 1.28593 h -6.6158 v -1.28593 h 2.5465 z m 14.2683,9.78829 h -1.9627 l -3.2233,-6.89495 -0.9306,-2.21653 v 5.57517 3.53631 h -1.4044 v -11.0573 h 1.9374 l 3.071,6.53117 1.1082,2.52956 v -5.92205 -3.13868 h 1.4044 z m 9.6491,-2.99486 q 0,0.78678 -0.3214,1.37899 -0.3215,0.5922 -0.8968,0.98982 -0.5753,0.38917 -1.3875,0.58375 -0.8037,0.19458 -1.7766,0.19458 -0.4399,0 -0.8798,-0.0338 -0.4315,-0.0338 -0.8376,-0.0846 -0.3976,-0.0508 -0.7529,-0.11844 -0.3553,-0.0677 -0.643,-0.14382 V 762.692 q 0.6345,0.23688 1.4213,0.37224 0.7953,0.13536 1.802,0.13536 0.7276,0 1.2352,-0.10998 0.516,-0.11844 0.8375,-0.3384 0.33,-0.22842 0.4738,-0.54991 0.1523,-0.32148 0.1523,-0.73602 0,-0.44838 -0.2538,-0.76141 -0.2454,-0.32148 -0.6515,-0.56682 -0.406,-0.2538 -0.9306,-0.45684 -0.516,-0.2115 -1.0575,-0.43147 -0.5414,-0.21996 -1.0659,-0.47376 -0.5161,-0.26226 -0.9222,-0.60912 -0.4061,-0.35533 -0.6599,-0.82909 -0.2453,-0.47376 -0.2453,-1.12519 0,-0.56682 0.2369,-1.11673 0.2369,-0.5499 0.736,-0.9729 0.4991,-0.43146 1.2775,-0.69373 0.7868,-0.26226 1.8696,-0.26226 0.2792,0 0.6007,0.0254 0.3299,0.0254 0.6599,0.0761 0.3384,0.0423 0.6599,0.10152 0.3299,0.0592 0.6091,0.1269 v 1.35361 q -0.6514,-0.18612 -1.3029,-0.27918 -0.6514,-0.10152 -1.2605,-0.10152 -1.2944,0 -1.9035,0.43146 -0.6091,0.43147 -0.6091,1.15903 0,0.44838 0.2453,0.76987 0.2538,0.32148 0.6599,0.57528 0.4061,0.2538 0.9221,0.4653 0.5246,0.20305 1.066,0.42301 0.5414,0.21996 1.0575,0.48222 0.5245,0.26226 0.9306,0.62604 0.4061,0.35533 0.6514,0.83755 0.2538,0.48222 0.2538,1.14211 z m 19.7292,-0.85447 q 0,0.91369 -0.2623,1.65817 -0.2538,0.73603 -0.7529,1.26055 -0.4992,0.51607 -1.2267,0.80371 -0.7192,0.27918 -1.6582,0.27918 -1.0321,0 -1.7512,-0.27072 -0.7192,-0.27072 -1.176,-0.76141 -0.4484,-0.49914 -0.6599,-1.19287 -0.203,-0.69372 -0.203,-1.54819 v -7.43639 h 1.5059 v 7.31795 q 0,0.65143 0.1184,1.14211 0.1269,0.49068 0.4061,0.82063 0.2792,0.32994 0.7191,0.49914 0.4484,0.1692 1.0913,0.1692 1.2014,0 1.7682,-0.69372 0.5753,-0.69373 0.5753,-1.95428 v -7.30103 h 1.5059 z m 9.6576,3.84933 h -1.9628 l -3.2232,-6.89495 -0.9307,-2.21653 v 5.57517 3.53631 h -1.4043 v -11.0573 h 1.9373 l 3.071,6.53117 1.1083,2.52956 v -5.92205 -3.13868 h 1.4044 z m 9.8098,-7.67327 q 0,0.6768 -0.2538,1.34515 -0.2538,0.65988 -0.7867,1.1844 -0.533,0.52453 -1.3621,0.85447 -0.8291,0.32148 -1.9797,0.32148 h -1.3705 v 3.96777 h -1.5059 v -11.0573 h 3.1133 q 0.8206,0 1.5736,0.18612 0.7529,0.17766 1.3198,0.58375 0.5752,0.40608 0.9136,1.04905 0.3384,0.64296 0.3384,1.56511 z m -1.5651,0.0677 q 0,-1.06597 -0.7022,-1.63279 -0.6937,-0.56683 -1.9458,-0.56683 h -1.5397 v 4.55151 h 1.4044 q 1.3367,0 2.0558,-0.58374 0.7275,-0.58375 0.7275,-1.76815 z m 11.6034,7.60559 h -1.7004 l -1.6497,-3.53631 q -0.1862,-0.40608 -0.3807,-0.66834 -0.1946,-0.27072 -0.423,-0.423 -0.22,-0.16074 -0.4907,-0.22842 -0.2623,-0.0677 -0.5922,-0.0677 h -0.7107 v 4.92375 h -1.5059 v -11.0573 h 2.9611 q 0.9644,0 1.6581,0.2115 0.6937,0.21151 1.1337,0.59221 0.4484,0.3807 0.6514,0.92214 0.2115,0.53299 0.2115,1.18441 0,0.51607 -0.1523,0.98137 -0.1523,0.45684 -0.4568,0.83755 -0.2961,0.37224 -0.7445,0.65142 -0.4399,0.27072 -1.0152,0.40608 0.4653,0.16074 0.7868,0.56683 0.3299,0.39762 0.6683,1.06596 z m -2.4111,-8.02014 q 0,-0.8883 -0.5583,-1.32823 -0.5499,-0.43992 -1.5567,-0.43992 h -1.4213 v 3.65475 h 1.2183 q 0.533,0 0.956,-0.11844 0.4314,-0.12691 0.7275,-0.36379 0.3046,-0.24534 0.4653,-0.5922 0.1692,-0.35532 0.1692,-0.81217 z m 7.2634,-1.76815 h -2.5465 v -1.26901 h 6.6158 v 1.26901 h -2.5465 v 8.50236 h 2.5465 v 1.28593 h -6.6158 v -1.28593 h 2.5465 z m 14.2684,9.78829 h -1.9628 l -3.2233,-6.89495 -0.9306,-2.21653 v 5.57517 3.53631 h -1.4043 v -11.0573 h 1.9373 l 3.071,6.53117 1.1083,2.52956 v -5.92205 -3.13868 h 1.4044 z m 10.0129,-9.77137 h -3.2741 v 9.77137 h -1.5228 v -9.77137 h -3.274 v -1.28593 h 8.0709 z m 10.3851,9.77137 h -1.6412 l -0.7699,-2.41112 h -4.6023 l -0.7783,2.41112 h -1.5651 l 3.6717,-11.0573 h 2.0642 z m -2.8426,-3.75627 -1.8696,-5.91358 -1.8697,5.91358 z m 11.7388,0.44839 q 0,0.79524 -0.313,1.41283 -0.3046,0.60912 -0.8798,1.03212 -0.5669,0.42301 -1.379,0.64297 -0.8037,0.21996 -1.7936,0.21996 h -2.8933 v -11.0573 h 3.1641 q 3.697,0 3.697,2.6903 0,0.89677 -0.4315,1.53973 -0.423,0.64297 -1.3874,0.95599 0.4484,0.0846 0.846,0.28764 0.4061,0.20304 0.7106,0.52452 0.3046,0.32149 0.4823,0.76141 0.1776,0.43992 0.1776,0.98983 z m -1.9627,-4.85608 q 0,-0.3384 -0.1015,-0.6345 -0.1015,-0.30456 -0.3554,-0.51607 -0.2538,-0.21996 -0.6852,-0.34686 -0.4315,-0.1269 -1.0914,-0.1269 h -1.5566 v 3.46017 h 1.5059 q 0.516,0 0.9306,-0.10999 0.423,-0.10998 0.7191,-0.3384 0.3045,-0.22842 0.4653,-0.56682 0.1692,-0.34686 0.1692,-0.82063 z m 0.3638,4.90684 q 0,-0.42301 -0.1777,-0.76141 -0.1776,-0.3384 -0.5161,-0.56682 -0.3384,-0.23688 -0.829,-0.36379 -0.4823,-0.1269 -1.0914,-0.1269 h -1.5397 v 3.80703 h 1.5905 q 1.2944,0 1.9289,-0.48222 0.6345,-0.48223 0.6345,-1.50589 z m 11.0789,3.25712 h -6.362 v -11.0573 h 1.5313 v 9.77137 h 4.8307 z m 9.3953,0 h -6.2858 v -11.0573 h 6.2858 v 1.26901 h -4.78 v 3.42633 h 4.5939 v 1.269 h -4.5939 v 3.80703 h 4.78 z m 21.0066,0 h -1.6413 l -0.7698,-2.41112 h -4.6023 l -0.7783,2.41112 h -1.5651 l 3.6716,-11.0573 h 2.0643 z m -2.8426,-3.75627 -1.8697,-5.91358 -1.8696,5.91358 z m 11.578,0.76141 q 0,0.78678 -0.3215,1.37899 -0.3214,0.5922 -0.8967,0.98982 -0.5753,0.38917 -1.3875,0.58375 -0.8037,0.19458 -1.7766,0.19458 -0.4399,0 -0.8798,-0.0338 -0.4315,-0.0338 -0.8376,-0.0846 -0.3976,-0.0508 -0.7529,-0.11844 -0.3553,-0.0677 -0.643,-0.14382 V 762.692 q 0.6345,0.23688 1.4213,0.37224 0.7953,0.13536 1.802,0.13536 0.7276,0 1.2352,-0.10998 0.516,-0.11844 0.8375,-0.3384 0.33,-0.22842 0.4738,-0.54991 0.1523,-0.32148 0.1523,-0.73602 0,-0.44838 -0.2538,-0.76141 -0.2454,-0.32148 -0.6515,-0.56682 -0.406,-0.2538 -0.9306,-0.45684 -0.516,-0.2115 -1.0575,-0.43147 -0.5414,-0.21996 -1.0659,-0.47376 -0.5161,-0.26226 -0.9222,-0.60912 -0.4061,-0.35533 -0.6599,-0.82909 -0.2453,-0.47376 -0.2453,-1.12519 0,-0.56682 0.2369,-1.11673 0.2368,-0.5499 0.736,-0.9729 0.4991,-0.43146 1.2775,-0.69373 0.7867,-0.26226 1.8696,-0.26226 0.2792,0 0.6007,0.0254 0.3299,0.0254 0.6599,0.0761 0.3384,0.0423 0.6599,0.10152 0.3299,0.0592 0.6091,0.1269 v 1.35361 q -0.6514,-0.18612 -1.3029,-0.27918 -0.6514,-0.10152 -1.2605,-0.10152 -1.2944,0 -1.9035,0.43146 -0.6092,0.43147 -0.6092,1.15903 0,0.44838 0.2454,0.76987 0.2538,0.32148 0.6599,0.57528 0.4061,0.2538 0.9221,0.4653 0.5245,0.20305 1.066,0.42301 0.5414,0.21996 1.0575,0.48222 0.5245,0.26226 0.9306,0.62604 0.4061,0.35533 0.6514,0.83755 0.2538,0.48222 0.2538,1.14211 z m 9.7253,2.58032 q -1.3282,0.5499 -2.7834,0.5499 -2.3434,0 -3.6039,-1.39591 -1.2521,-1.40437 -1.2521,-4.14543 0,-1.32823 0.3468,-2.40265 0.3469,-1.07443 0.9899,-1.81892 0.6429,-0.75294 1.5566,-1.15903 0.9137,-0.40608 2.0473,-0.40608 0.7699,0 1.4298,0.13536 0.6599,0.1269 1.269,0.39763 v 1.48051 q -0.6007,-0.32995 -1.2436,-0.49915 -0.643,-0.17766 -1.4044,-0.17766 -0.7783,0 -1.4128,0.2961 -0.6261,0.28764 -1.066,0.84601 -0.4399,0.5499 -0.6768,1.35361 -0.2369,0.79524 -0.2369,1.81891 0,2.14886 0.8714,3.2402 0.8714,1.09135 2.5549,1.09135 0.7107,0 1.3621,-0.16074 0.6514,-0.1692 1.2521,-0.4653 z m 5.3261,-9.37375 h -2.5465 v -1.26901 h 6.6158 v 1.26901 h -2.5465 v 8.50236 h 2.5465 v 1.28593 h -6.6158 v -1.28593 h 2.5465 z m 9.7422,0 h -2.5465 v -1.26901 h 6.6157 v 1.26901 h -2.5464 v 8.50236 h 2.5464 v 1.28593 h -6.6157 v -1.28593 h 2.5465 z m 23.9676,9.37375 q -1.3282,0.5499 -2.7834,0.5499 -2.3434,0 -3.604,-1.39591 -1.252,-1.40437 -1.252,-4.14543 0,-1.32823 0.3468,-2.40265 0.3469,-1.07443 0.9898,-1.81892 0.643,-0.75294 1.5567,-1.15903 0.9137,-0.40608 2.0473,-0.40608 0.7699,0 1.4298,0.13536 0.6599,0.1269 1.269,0.39763 v 1.48051 q -0.6007,-0.32995 -1.2436,-0.49915 -0.643,-0.17766 -1.4044,-0.17766 -0.7783,0 -1.4128,0.2961 -0.6261,0.28764 -1.066,0.84601 -0.4399,0.5499 -0.6768,1.35361 -0.2369,0.79524 -0.2369,1.81891 0,2.14886 0.8714,3.2402 0.8714,1.09135 2.5549,1.09135 0.7107,0 1.3621,-0.16074 0.6514,-0.1692 1.2521,-0.4653 z m 9.9198,0.41454 h -1.5059 v -5.07604 h -4.6445 v 5.07604 h -1.5059 v -11.0573 h 1.5059 v 4.67841 h 4.6445 v -4.67841 h 1.5059 z m 10.5882,0 h -1.6412 l -0.7699,-2.41112 h -4.6023 l -0.7783,2.41112 h -1.5651 l 3.6717,-11.0573 h 2.0642 z m -2.8426,-3.75627 -1.8696,-5.91358 -1.8697,5.91358 z m 12.0349,3.75627 h -1.7005 l -1.6497,-3.53631 q -0.1861,-0.40608 -0.3807,-0.66834 -0.1946,-0.27072 -0.423,-0.423 -0.2199,-0.16074 -0.4907,-0.22842 -0.2622,-0.0677 -0.5922,-0.0677 h -0.7106 v 4.92375 h -1.5059 v -11.0573 h 2.961 q 0.9645,0 1.6582,0.2115 0.6937,0.21151 1.1336,0.59221 0.4484,0.3807 0.6515,0.92214 0.2115,0.53299 0.2115,1.18441 0,0.51607 -0.1523,0.98137 -0.1523,0.45684 -0.4569,0.83755 -0.2961,0.37224 -0.7444,0.65142 -0.44,0.27072 -1.0153,0.40608 0.4654,0.16074 0.7868,0.56683 0.33,0.39762 0.6684,1.06596 z m -2.4111,-8.02014 q 0,-0.8883 -0.5584,-1.32823 -0.5499,-0.43992 -1.5566,-0.43992 h -1.4213 v 3.65475 h 1.2182 q 0.533,0 0.956,-0.11844 0.4315,-0.12691 0.7276,-0.36379 0.3046,-0.24534 0.4653,-0.5922 0.1692,-0.35532 0.1692,-0.81217 z m 12.7032,8.02014 h -1.6412 l -0.7699,-2.41112 h -4.6023 l -0.7783,2.41112 h -1.5651 l 3.6717,-11.0573 h 2.0642 z m -2.8425,-3.75627 -1.8697,-5.91358 -1.8697,5.91358 z m 11.5611,3.34173 q -1.3283,0.5499 -2.7834,0.5499 -2.3434,0 -3.604,-1.39591 -1.2521,-1.40437 -1.2521,-4.14543 0,-1.32823 0.3469,-2.40265 0.3468,-1.07443 0.9898,-1.81892 0.643,-0.75294 1.5567,-1.15903 0.9136,-0.40608 2.0473,-0.40608 0.7699,0 1.4297,0.13536 0.6599,0.1269 1.2691,0.39763 v 1.48051 q -0.6007,-0.32995 -1.2437,-0.49915 -0.6429,-0.17766 -1.4043,-0.17766 -0.7784,0 -1.4129,0.2961 -0.626,0.28764 -1.0659,0.84601 -0.44,0.5499 -0.6768,1.35361 -0.2369,0.79524 -0.2369,1.81891 0,2.14886 0.8714,3.2402 0.8713,1.09135 2.5549,1.09135 0.7106,0 1.3621,-0.16074 0.6514,-0.1692 1.2521,-0.4653 z m 10.1228,-9.35683 h -3.274 v 9.77137 h -1.5228 v -9.77137 h -3.2741 v -1.28593 h 8.0709 z m 8.9301,9.77137 h -6.2859 v -11.0573 h 6.2859 v 1.26901 h -4.78 v 3.42633 h 4.5938 v 1.269 h -4.5938 v 3.80703 h 4.78 z m 10.6474,0 h -1.7005 l -1.6497,-3.53631 q -0.1861,-0.40608 -0.3807,-0.66834 -0.1946,-0.27072 -0.423,-0.423 -0.2199,-0.16074 -0.4907,-0.22842 -0.2622,-0.0677 -0.5922,-0.0677 h -0.7106 v 4.92375 h -1.5059 v -11.0573 h 2.961 q 0.9645,0 1.6582,0.2115 0.6937,0.21151 1.1336,0.59221 0.4484,0.3807 0.6515,0.92214 0.2115,0.53299 0.2115,1.18441 0,0.51607 -0.1523,0.98137 -0.1523,0.45684 -0.4569,0.83755 -0.2961,0.37224 -0.7444,0.65142 -0.44,0.27072 -1.0153,0.40608 0.4654,0.16074 0.7868,0.56683 0.33,0.39762 0.6684,1.06596 z m -2.4111,-8.02014 q 0,-0.8883 -0.5584,-1.32823 -0.5499,-0.43992 -1.5566,-0.43992 h -1.4213 v 3.65475 h 1.2182 q 0.533,0 0.956,-0.11844 0.4315,-0.12691 0.7276,-0.36379 0.3046,-0.24534 0.4653,-0.5922 0.1692,-0.35532 0.1692,-0.81217 z m 11.6965,5.02528 q 0,0.78678 -0.3215,1.37899 -0.3215,0.5922 -0.8968,0.98982 -0.5753,0.38917 -1.3874,0.58375 -0.8037,0.19458 -1.7767,0.19458 -0.4399,0 -0.8798,-0.0338 -0.4315,-0.0338 -0.8375,-0.0846 -0.3977,-0.0508 -0.753,-0.11844 -0.3553,-0.0677 -0.643,-0.14382 V 762.692 q 0.6345,0.23688 1.4213,0.37224 0.7953,0.13536 1.802,0.13536 0.7276,0 1.2352,-0.10998 0.5161,-0.11844 0.8375,-0.3384 0.33,-0.22842 0.4738,-0.54991 0.1523,-0.32148 0.1523,-0.73602 0,-0.44838 -0.2538,-0.76141 -0.2454,-0.32148 -0.6514,-0.56682 -0.4061,-0.2538 -0.9306,-0.45684 -0.5161,-0.2115 -1.0576,-0.43147 -0.5414,-0.21996 -1.0659,-0.47376 -0.5161,-0.26226 -0.9222,-0.60912 -0.4061,-0.35533 -0.6599,-0.82909 -0.2453,-0.47376 -0.2453,-1.12519 0,-0.56682 0.2369,-1.11673 0.2369,-0.5499 0.736,-0.9729 0.4992,-0.43146 1.2775,-0.69373 0.7868,-0.26226 1.8697,-0.26226 0.2791,0 0.6006,0.0254 0.33,0.0254 0.6599,0.0761 0.3384,0.0423 0.6599,0.10152 0.3299,0.0592 0.6091,0.1269 v 1.35361 q -0.6514,-0.18612 -1.3028,-0.27918 -0.6515,-0.10152 -1.2606,-0.10152 -1.2944,0 -1.9035,0.43146 -0.6091,0.43147 -0.6091,1.15903 0,0.44838 0.2453,0.76987 0.2538,0.32148 0.6599,0.57528 0.4061,0.2538 0.9221,0.4653 0.5246,0.20305 1.066,0.42301 0.5415,0.21996 1.0575,0.48222 0.5245,0.26226 0.9306,0.62604 0.4061,0.35533 0.6515,0.83755 0.2538,0.48222 0.2538,1.14211 z m 20.2621,-8.06244 -0.7445,11.0573 h -1.9543 l -1.3705,-3.93393 -0.3807,-1.26055 -0.3976,1.36207 -1.269,3.83241 h -1.8866 l -0.7614,-11.0573 h 1.4213 l 0.4314,7.52099 0.1269,2.06426 0.533,-1.75123 1.3367,-4.10313 h 1.0406 l 1.5397,4.39923 0.5161,1.45513 0.034,-1.52281 0.4399,-8.06244 z m 9.1923,11.0573 h -1.5059 v -5.07604 h -4.6446 v 5.07604 h -1.5059 v -11.0573 h 1.5059 v 4.67841 h 4.6446 v -4.67841 h 1.5059 z m 5.1483,-9.78829 h -2.5464 v -1.26901 h 6.6157 v 1.26901 h -2.5464 v 8.50236 h 2.5464 v 1.28593 h -6.6157 v -1.28593 h 2.5464 z m 14.1584,9.37375 q -1.3282,0.5499 -2.7834,0.5499 -2.3434,0 -3.604,-1.39591 -1.2521,-1.40437 -1.2521,-4.14543 0,-1.32823 0.3469,-2.40265 0.3469,-1.07443 0.9898,-1.81892 0.643,-0.75294 1.5567,-1.15903 0.9137,-0.40608 2.0473,-0.40608 0.7699,0 1.4298,0.13536 0.6599,0.1269 1.269,0.39763 v 1.48051 q -0.6007,-0.32995 -1.2436,-0.49915 -0.643,-0.17766 -1.4044,-0.17766 -0.7783,0 -1.4128,0.2961 -0.6261,0.28764 -1.066,0.84601 -0.4399,0.5499 -0.6768,1.35361 -0.2369,0.79524 -0.2369,1.81891 0,2.14886 0.8714,3.2402 0.8714,1.09135 2.5549,1.09135 0.7107,0 1.3621,-0.16074 0.6514,-0.1692 1.2521,-0.4653 z m 9.9198,0.41454 h -1.5059 v -5.07604 h -4.6445 v 5.07604 h -1.5059 v -11.0573 h 1.5059 v 4.67841 h 4.6445 v -4.67841 h 1.5059 z m 20.3975,0 h -1.6412 l -0.7699,-2.41112 h -4.6022 l -0.7784,2.41112 h -1.5651 l 3.6717,-11.0573 h 2.0642 z m -2.8425,-3.75627 -1.8697,-5.91358 -1.8697,5.91358 z m 12.0348,3.75627 h -1.7004 l -1.6498,-3.53631 q -0.1861,-0.40608 -0.3807,-0.66834 -0.1945,-0.27072 -0.423,-0.423 -0.2199,-0.16074 -0.4906,-0.22842 -0.2623,-0.0677 -0.5922,-0.0677 h -0.7107 v 4.92375 h -1.5059 v -11.0573 h 2.961 q 0.9645,0 1.6582,0.2115 0.6937,0.21151 1.1337,0.59221 0.4483,0.3807 0.6514,0.92214 0.2115,0.53299 0.2115,1.18441 0,0.51607 -0.1523,0.98137 -0.1523,0.45684 -0.4568,0.83755 -0.2961,0.37224 -0.7445,0.65142 -0.4399,0.27072 -1.0152,0.40608 0.4653,0.16074 0.7868,0.56683 0.3299,0.39762 0.6683,1.06596 z m -2.4111,-8.02014 q 0,-0.8883 -0.5583,-1.32823 -0.55,-0.43992 -1.5567,-0.43992 h -1.4213 v 3.65475 h 1.2183 q 0.5329,0 0.9559,-0.11844 0.4315,-0.12691 0.7276,-0.36379 0.3046,-0.24534 0.4653,-0.5922 0.1692,-0.35532 0.1692,-0.81217 z m 11.2481,8.02014 h -6.2858 v -11.0573 h 6.2858 v 1.26901 h -4.7799 v 3.42633 h 4.5938 v 1.269 h -4.5938 v 3.80703 h 4.7799 z m 19.9998,-2.99486 q 0,0.78678 -0.3215,1.37899 -0.3214,0.5922 -0.8967,0.98982 -0.5753,0.38917 -1.3875,0.58375 -0.8037,0.19458 -1.7766,0.19458 -0.4399,0 -0.8798,-0.0338 -0.4315,-0.0338 -0.8376,-0.0846 -0.3976,-0.0508 -0.7529,-0.11844 -0.3553,-0.0677 -0.643,-0.14382 V 762.692 q 0.6345,0.23688 1.4213,0.37224 0.7953,0.13536 1.802,0.13536 0.7276,0 1.2352,-0.10998 0.516,-0.11844 0.8375,-0.3384 0.33,-0.22842 0.4738,-0.54991 0.1523,-0.32148 0.1523,-0.73602 0,-0.44838 -0.2538,-0.76141 -0.2454,-0.32148 -0.6515,-0.56682 -0.4061,-0.2538 -0.9306,-0.45684 -0.516,-0.2115 -1.0575,-0.43147 -0.5414,-0.21996 -1.0659,-0.47376 -0.5161,-0.26226 -0.9222,-0.60912 -0.4061,-0.35533 -0.6599,-0.82909 -0.2453,-0.47376 -0.2453,-1.12519 0,-0.56682 0.2369,-1.11673 0.2368,-0.5499 0.736,-0.9729 0.4991,-0.43146 1.2775,-0.69373 0.7867,-0.26226 1.8696,-0.26226 0.2792,0 0.6007,0.0254 0.3299,0.0254 0.6599,0.0761 0.3384,0.0423 0.6599,0.10152 0.3299,0.0592 0.6091,0.1269 v 1.35361 q -0.6514,-0.18612 -1.3029,-0.27918 -0.6514,-0.10152 -1.2605,-0.10152 -1.2944,0 -1.9035,0.43146 -0.6092,0.43147 -0.6092,1.15903 0,0.44838 0.2454,0.76987 0.2538,0.32148 0.6599,0.57528 0.4061,0.2538 0.9221,0.4653 0.5245,0.20305 1.066,0.42301 0.5414,0.21996 1.0575,0.48222 0.5245,0.26226 0.9306,0.62604 0.4061,0.35533 0.6514,0.83755 0.2538,0.48222 0.2538,1.14211 z m 10.1652,2.99486 h -1.895 l -4.137,-5.4229 v 5.4229 h -1.5059 v -11.0573 h 1.5059 v 5.13526 l 4.0524,-5.13526 h 1.785 l -4.3654,5.2537 z m 4.8862,-9.78829 h -2.5465 v -1.26901 h 6.6158 v 1.26901 h -2.5465 v 8.50236 h 2.5465 v 1.28593 h -6.6158 v -1.28593 h 2.5465 z m 14.336,2.11502 q 0,0.6768 -0.2538,1.34515 -0.2538,0.65988 -0.7868,1.1844 -0.533,0.52453 -1.3621,0.85447 -0.829,0.32148 -1.9796,0.32148 h -1.3705 v 3.96777 h -1.5059 v -11.0573 h 3.1133 q 0.8206,0 1.5735,0.18612 0.753,0.17766 1.3198,0.58375 0.5753,0.40608 0.9137,1.04905 0.3384,0.64296 0.3384,1.56511 z m -1.5651,0.0677 q 0,-1.06597 -0.7022,-1.63279 -0.6937,-0.56683 -1.9458,-0.56683 h -1.5397 v 4.55151 h 1.4043 q 1.3367,0 2.0558,-0.58374 0.7276,-0.58375 0.7276,-1.76815 z m 11.3073,-0.0677 q 0,0.6768 -0.2538,1.34515 -0.2538,0.65988 -0.7868,1.1844 -0.533,0.52453 -1.3621,0.85447 -0.8291,0.32148 -1.9796,0.32148 h -1.3706 v 3.96777 h -1.5058 v -11.0573 h 3.1133 q 0.8206,0 1.5735,0.18612 0.753,0.17766 1.3198,0.58375 0.5753,0.40608 0.9137,1.04905 0.3384,0.64296 0.3384,1.56511 z m -1.5651,0.0677 q 0,-1.06597 -0.7022,-1.63279 -0.6937,-0.56683 -1.9458,-0.56683 h -1.5398 v 4.55151 h 1.4044 q 1.3367,0 2.0558,-0.58374 0.7276,-0.58375 0.7276,-1.76815 z m 10.6981,7.60559 h -6.2858 v -11.0573 h 6.2858 v 1.26901 h -4.7799 v 3.42633 h 4.5938 v 1.269 h -4.5938 v 3.80703 h 4.7799 z m 10.6644,-5.65132 q 0,0.79525 -0.1269,1.52281 -0.1185,0.72757 -0.3892,1.35361 -0.2707,0.62604 -0.7022,1.14211 -0.4314,0.5076 -1.0575,0.87138 -0.626,0.36379 -1.4551,0.56683 -0.8291,0.19458 -1.8866,0.19458 h -2.3688 v -11.0573 h 2.851 q 2.5888,0 3.8578,1.33669 1.2775,1.32823 1.2775,4.06929 z m -1.5821,0.10998 q 0,-1.17595 -0.2199,-1.98811 -0.22,-0.81217 -0.6684,-1.31131 -0.4483,-0.49915 -1.1251,-0.71911 -0.6769,-0.22842 -1.5905,-0.22842 h -1.2944 v 8.48544 h 1.1252 q 3.7731,0 3.7731,-4.23849 z"
         id="Reset_Button-3"
         style="font-size:17.3262px;font-family:Consolas, Consolas;-inkscape-font-specification:'Consolas, Consolas, Normal';letter-spacing:0.216169px;word-spacing:0.0670872px;fill:url(#linearGradient25);stroke-width:58.6;stroke-opacity:0.612903"
         aria-label="YOUR INPUT CONTAINS UNPRINTABLE ASCII CHARACTERS WHICH ARE SKIPPED" /><g
         style="fill:#3a7bb3;fill-opacity:1;stroke:#030303;stroke-opacity:1"
         id="g25"
         transform="matrix(1.3333333,0,0,1.3333333,994.8925,745.51356)"><path
           fill-rule="evenodd"
           d="m 10,3 a 7,7 0 1 0 0,14 7,7 0 0 0 0,-14 z m -9,7 a 9,9 0 1 1 18,0 9,9 0 0 1 -18,0 z m 10.01,4 a 1,1 0 0 1 -1,1 H 10 a 1,1 0 1 1 0,-2 h 0.01 a 1,1 0 0 1 1,1 z M 11,6 A 1,1 0 1 0 9,6 v 5 a 1,1 0 1 0 2,0 z"
           id="path1-52"
           style="fill:#3a7bb3;fill-opacity:1;stroke:#030303;stroke-opacity:1"
           fill="#000000" /></g></g></g></svg>
