<?xml version="1.0" encoding="UTF-8" standalone="no"?>
<!-- Created with Inkscape (http://www.inkscape.org/) -->

<svg
   width="247.16269mm"
   height="138.72012mm"
   viewBox="0 0 247.16269 138.72012"
   version="1.1"
   id="svg1"
   xml:space="preserve"
   xmlns:inkscape="http://www.inkscape.org/namespaces/inkscape"
   xmlns:sodipodi="http://sodipodi.sourceforge.net/DTD/sodipodi-0.dtd"
   xmlns:xlink="http://www.w3.org/1999/xlink"
   xmlns="http://www.w3.org/2000/svg"
   xmlns:svg="http://www.w3.org/2000/svg"><sodipodi:namedview
     id="namedview1"
     pagecolor="#505050"
     bordercolor="#eeeeee"
     borderopacity="1"
     inkscape:showpageshadow="0"
     inkscape:pageopacity="0"
     inkscape:pagecheckerboard="0"
     inkscape:deskcolor="#505050"
     inkscape:document-units="mm"><inkscape:page
       x="0"
       y="0"
       width="247.16269"
       height="138.72012"
       id="page2"
       margin="0"
       bleed="0" /></sodipodi:namedview><defs
     id="defs1"><style
       id="style1">.e{fill:#662d91;}.f{fill:#0071bc;}.g{fill:url(#d);}.h{fill:#93278f;}.i{opacity:.77;}.j{font-family:Consolas, Consolas;font-size:31px;}</style><style
       id="style1-2">.e,.f,.g{font-family:Consolas, Consolas;}.h{fill:#662d91;}.i{fill:#0071bc;}.j{fill:url(#d);}.f,.k{fill:#fff;}.f,.k,.g{font-size:31px;}.l{font-family:Calibri-Light, Calibri;}.m{fill:#93278f;}.n{opacity:.77;}</style><style
       id="style1-6">.e,.f,.g{font-family:Consolas, Consolas;}.h{fill:#662d91;}.i{fill:#0071bc;}.j{fill:url(#d);}.f,.k{fill:#fff;}.f,.k,.g{font-size:31px;}.l{font-family:Calibri-Light, Calibri;}.m{fill:#93278f;}.n{opacity:.77;}</style><style
       id="style1-4">.e{fill:#662d91;}.f{fill:#0071bc;}.g{fill:url(#d);}.h{fill:#93278f;}.i{opacity:.77;}.j{font-family:Consolas, Consolas;font-size:31px;}</style><style
       id="style1-5">.cls-1{fill:#101010;}</style><style
       id="style1-51">.e{fill:#662d91;}.f{fill:#0071bc;}.g{fill:url(#d);}.h{fill:#93278f;}.i{opacity:.77;}.j{font-family:Consolas, Consolas;font-size:31px;}</style><style
       id="style1-2-2">.e,.f,.g{font-family:Consolas, Consolas;}.h{fill:#662d91;}.i{fill:#0071bc;}.j{fill:url(#d);}.f,.k{fill:#fff;}.f,.k,.g{font-size:31px;}.l{font-family:Calibri-Light, Calibri;}.m{fill:#93278f;}.n{opacity:.77;}</style><style
       id="style1-6-2">.e,.f,.g{font-family:Consolas, Consolas;}.h{fill:#662d91;}.i{fill:#0071bc;}.j{fill:url(#d);}.f,.k{fill:#fff;}.f,.k,.g{font-size:31px;}.l{font-family:Calibri-Light, Calibri;}.m{fill:#93278f;}.n{opacity:.77;}</style><style
       id="style1-4-2">.e{fill:#662d91;}.f{fill:#0071bc;}.g{fill:url(#d);}.h{fill:#93278f;}.i{opacity:.77;}.j{font-family:Consolas, Consolas;font-size:31px;}</style><style
       id="style1-5-6">.cls-1{fill:#101010;}</style><style
       id="style1-3">.e{fill:#662d91;}.f{fill:#0071bc;}.g{fill:url(#d);}.h{fill:#93278f;}.i{opacity:.77;}.j{font-family:Consolas, Consolas;font-size:31px;}</style><style
       id="style1-2-4">.e,.f,.g{font-family:Consolas, Consolas;}.h{fill:#662d91;}.i{fill:#0071bc;}.j{fill:url(#d);}.f,.k{fill:#fff;}.f,.k,.g{font-size:31px;}.l{font-family:Calibri-Light, Calibri;}.m{fill:#93278f;}.n{opacity:.77;}</style><style
       id="style1-6-0">.e,.f,.g{font-family:Consolas, Consolas;}.h{fill:#662d91;}.i{fill:#0071bc;}.j{fill:url(#d);}.f,.k{fill:#fff;}.f,.k,.g{font-size:31px;}.l{font-family:Calibri-Light, Calibri;}.m{fill:#93278f;}.n{opacity:.77;}</style><style
       id="style1-4-0">.e{fill:#662d91;}.f{fill:#0071bc;}.g{fill:url(#d);}.h{fill:#93278f;}.i{opacity:.77;}.j{font-family:Consolas, Consolas;font-size:31px;}</style><style
       id="style1-5-5">.cls-1{fill:#101010;}</style><style
       id="style1-50">.f{font-family:EdwardianScriptITC, Edwardian Script ITC;font-size:355px;}.f,.g,.h{fill:#fff;}.i{fill:#662d91;}.j{stroke-width:3px;}.j,.k,.l,.m{fill:none;}.j,.k,.m{stroke:#fff;stroke-miterlimit:10;}.k{stroke-width:2px;}.n{fill:#0071bc;}.o{fill:url(#d);}.p{fill:url(#e);}.h,.q{font-family:Consolas, Consolas;font-size:31px;}.r{opacity:.69;}.r,.s{fill:#29abe2;}.t{fill:#93278f;}.m{stroke-width:4px;}.u{opacity:.77;}</style><style
       id="style1-3-0">.f{opacity:.83;}.g{font-family:EdwardianScriptITC, Edwardian Script ITC;font-size:249.87px;}.g,.h{fill:#fff;}.i{fill:#662d91;}.j{stroke-width:3px;}.j,.k{fill:none;stroke:#fff;stroke-miterlimit:10;}.l{fill:#0071bc;}.m{fill:url(#d);}.n{fill:url(#e);}.h,.o{font-family:Consolas, Consolas;font-size:31px;}.p{opacity:.69;}.p,.q{fill:#29abe2;}.r{fill:#93278f;}.k{stroke-width:4px;}</style><style
       id="style1-2-45">.f{opacity:.83;}.g{font-family:EdwardianScriptITC, Edwardian Script ITC;font-size:275.28px;}.g,.h{fill:#fff;}.i{fill:#662d91;}.j{stroke-width:2px;}.j,.k{fill:none;stroke:#fff;stroke-miterlimit:10;}.l{fill:#0071bc;}.m{fill:url(#d);}.n{fill:url(#e);}.h,.o{font-family:Consolas, Consolas;font-size:31px;}.p{opacity:.69;}.p,.q{fill:#29abe2;}.r{fill:#93278f;}.k{stroke-width:4px;}</style><style
       id="style1-68">.e{fill:#662d91;}.f{fill:#0071bc;}.g{fill:url(#d);}.h{fill:#93278f;}.i{opacity:.77;}.j{font-family:Consolas, Consolas;font-size:31px;}</style><style
       id="style1-2-3">.e,.f,.g{font-family:Consolas, Consolas;}.h{fill:#662d91;}.i{fill:#0071bc;}.j{fill:url(#d);}.f,.k{fill:#fff;}.f,.k,.g{font-size:31px;}.l{font-family:Calibri-Light, Calibri;}.m{fill:#93278f;}.n{opacity:.77;}</style><style
       id="style1-6-1">.e,.f,.g{font-family:Consolas, Consolas;}.h{fill:#662d91;}.i{fill:#0071bc;}.j{fill:url(#d);}.f,.k{fill:#fff;}.f,.k,.g{font-size:31px;}.l{font-family:Calibri-Light, Calibri;}.m{fill:#93278f;}.n{opacity:.77;}</style><style
       id="style1-4-4">.e{fill:#662d91;}.f{fill:#0071bc;}.g{fill:url(#d);}.h{fill:#93278f;}.i{opacity:.77;}.j{font-family:Consolas, Consolas;font-size:31px;}</style><style
       id="style1-5-8">.cls-1{fill:#101010;}</style><style
       id="style1-8">.f{font-family:EdwardianScriptITC, Edwardian Script ITC;font-size:355px;}.f,.g,.h{fill:#fff;}.i{fill:#662d91;}.j{stroke-width:3px;}.j,.k,.l,.m{fill:none;}.j,.k,.m{stroke:#fff;stroke-miterlimit:10;}.k{stroke-width:2px;}.n{fill:#0071bc;}.o{fill:url(#d);}.p{fill:url(#e);}.h,.q{font-family:Consolas, Consolas;font-size:31px;}.r{opacity:.69;}.r,.s{fill:#29abe2;}.t{fill:#93278f;}.m{stroke-width:4px;}.u{opacity:.77;}</style><style
       id="style1-3-4">.f{opacity:.83;}.g{font-family:EdwardianScriptITC, Edwardian Script ITC;font-size:249.87px;}.g,.h{fill:#fff;}.i{fill:#662d91;}.j{stroke-width:3px;}.j,.k{fill:none;stroke:#fff;stroke-miterlimit:10;}.l{fill:#0071bc;}.m{fill:url(#d);}.n{fill:url(#e);}.h,.o{font-family:Consolas, Consolas;font-size:31px;}.p{opacity:.69;}.p,.q{fill:#29abe2;}.r{fill:#93278f;}.k{stroke-width:4px;}</style><style
       id="style1-2-9">.f{opacity:.83;}.g{font-family:EdwardianScriptITC, Edwardian Script ITC;font-size:275.28px;}.g,.h{fill:#fff;}.i{fill:#662d91;}.j{stroke-width:2px;}.j,.k{fill:none;stroke:#fff;stroke-miterlimit:10;}.l{fill:#0071bc;}.m{fill:url(#d);}.n{fill:url(#e);}.h,.o{font-family:Consolas, Consolas;font-size:31px;}.p{opacity:.69;}.p,.q{fill:#29abe2;}.r{fill:#93278f;}.k{stroke-width:4px;}</style><style
       id="style1-9">.f{font-family:EdwardianScriptITC, Edwardian Script ITC;font-size:355px;}.f,.g,.h{fill:#fff;}.i{fill:#662d91;}.j{stroke-width:3px;}.j,.k,.l,.m{fill:none;}.j,.k,.m{stroke:#fff;stroke-miterlimit:10;}.k{stroke-width:2px;}.n{fill:#0071bc;}.o{fill:url(#d);}.p{fill:url(#e);}.h,.q{font-family:Consolas, Consolas;font-size:31px;}.r{opacity:.69;}.r,.s{fill:#29abe2;}.t{fill:#93278f;}.m{stroke-width:4px;}.u{opacity:.77;}</style><style
       id="style1-3-8">.f{opacity:.83;}.g{font-family:EdwardianScriptITC, Edwardian Script ITC;font-size:249.87px;}.g,.h{fill:#fff;}.i{fill:#662d91;}.j{stroke-width:3px;}.j,.k{fill:none;stroke:#fff;stroke-miterlimit:10;}.l{fill:#0071bc;}.m{fill:url(#d);}.n{fill:url(#e);}.h,.o{font-family:Consolas, Consolas;font-size:31px;}.p{opacity:.69;}.p,.q{fill:#29abe2;}.r{fill:#93278f;}.k{stroke-width:4px;}</style><style
       id="style1-2-30">.f{opacity:.83;}.g{font-family:EdwardianScriptITC, Edwardian Script ITC;font-size:275.28px;}.g,.h{fill:#fff;}.i{fill:#662d91;}.j{stroke-width:2px;}.j,.k{fill:none;stroke:#fff;stroke-miterlimit:10;}.l{fill:#0071bc;}.m{fill:url(#d);}.n{fill:url(#e);}.h,.o{font-family:Consolas, Consolas;font-size:31px;}.p{opacity:.69;}.p,.q{fill:#29abe2;}.r{fill:#93278f;}.k{stroke-width:4px;}</style><style
       id="style1-30">.f{font-family:EdwardianScriptITC, Edwardian Script ITC;font-size:355px;}.f,.g,.h{fill:#fff;}.i{fill:#662d91;}.j{stroke-width:3px;}.j,.k,.l,.m{fill:none;}.j,.k,.m{stroke:#fff;stroke-miterlimit:10;}.k{stroke-width:2px;}.n{fill:#0071bc;}.o{fill:url(#d);}.p{fill:url(#e);}.h,.q{font-family:Consolas, Consolas;font-size:31px;}.r{opacity:.69;}.r,.s{fill:#29abe2;}.t{fill:#93278f;}.m{stroke-width:4px;}.u{opacity:.77;}</style><style
       id="style1-3-04">.f{opacity:.83;}.g{font-family:EdwardianScriptITC, Edwardian Script ITC;font-size:249.87px;}.g,.h{fill:#fff;}.i{fill:#662d91;}.j{stroke-width:3px;}.j,.k{fill:none;stroke:#fff;stroke-miterlimit:10;}.l{fill:#0071bc;}.m{fill:url(#d);}.n{fill:url(#e);}.h,.o{font-family:Consolas, Consolas;font-size:31px;}.p{opacity:.69;}.p,.q{fill:#29abe2;}.r{fill:#93278f;}.k{stroke-width:4px;}</style><style
       id="style1-2-8">.f{opacity:.83;}.g{font-family:EdwardianScriptITC, Edwardian Script ITC;font-size:275.28px;}.g,.h{fill:#fff;}.i{fill:#662d91;}.j{stroke-width:2px;}.j,.k{fill:none;stroke:#fff;stroke-miterlimit:10;}.l{fill:#0071bc;}.m{fill:url(#d);}.n{fill:url(#e);}.h,.o{font-family:Consolas, Consolas;font-size:31px;}.p{opacity:.69;}.p,.q{fill:#29abe2;}.r{fill:#93278f;}.k{stroke-width:4px;}</style><style
       id="style1-57">.f{font-family:EdwardianScriptITC, Edwardian Script ITC;font-size:355px;}.f,.g,.h{fill:#fff;}.i{fill:#662d91;}.j{stroke-width:3px;}.j,.k,.l,.m{fill:none;}.j,.k,.m{stroke:#fff;stroke-miterlimit:10;}.k{stroke-width:2px;}.n{fill:#0071bc;}.o{fill:url(#d);}.p{fill:url(#e);}.h,.q{font-family:Consolas, Consolas;font-size:31px;}.r{opacity:.69;}.r,.s{fill:#29abe2;}.t{fill:#93278f;}.m{stroke-width:4px;}.u{opacity:.77;}</style><style
       id="style1-3-7">.f{opacity:.83;}.g{font-family:EdwardianScriptITC, Edwardian Script ITC;font-size:249.87px;}.g,.h{fill:#fff;}.i{fill:#662d91;}.j{stroke-width:3px;}.j,.k{fill:none;stroke:#fff;stroke-miterlimit:10;}.l{fill:#0071bc;}.m{fill:url(#d);}.n{fill:url(#e);}.h,.o{font-family:Consolas, Consolas;font-size:31px;}.p{opacity:.69;}.p,.q{fill:#29abe2;}.r{fill:#93278f;}.k{stroke-width:4px;}</style><style
       id="style1-47">.f{font-family:EdwardianScriptITC, Edwardian Script ITC;font-size:355px;}.f,.g,.h{fill:#fff;}.i{fill:#662d91;}.j{stroke-width:3px;}.j,.k,.l,.m{fill:none;}.j,.k,.m{stroke:#fff;stroke-miterlimit:10;}.k{stroke-width:2px;}.n{fill:#0071bc;}.o{fill:url(#d);}.p{fill:url(#e);}.h,.q{font-family:Consolas, Consolas;font-size:31px;}.r{opacity:.69;}.r,.s{fill:#29abe2;}.t{fill:#93278f;}.m{stroke-width:4px;}.u{opacity:.77;}</style><style
       id="style1-3-83">.f{opacity:.83;}.g{font-family:EdwardianScriptITC, Edwardian Script ITC;font-size:249.87px;}.g,.h{fill:#fff;}.i{fill:#662d91;}.j{stroke-width:3px;}.j,.k{fill:none;stroke:#fff;stroke-miterlimit:10;}.l{fill:#0071bc;}.m{fill:url(#d);}.n{fill:url(#e);}.h,.o{font-family:Consolas, Consolas;font-size:31px;}.p{opacity:.69;}.p,.q{fill:#29abe2;}.r{fill:#93278f;}.k{stroke-width:4px;}</style><style
       id="style1-35">.f{font-family:EdwardianScriptITC, Edwardian Script ITC;font-size:355px;}.f,.g,.h{fill:#fff;}.i{fill:#662d91;}.j{stroke-width:3px;}.j,.k,.l,.m{fill:none;}.j,.k,.m{stroke:#fff;stroke-miterlimit:10;}.k{stroke-width:2px;}.n{fill:#0071bc;}.o{fill:url(#d);}.p{fill:url(#e);}.h,.q{font-family:Consolas, Consolas;font-size:31px;}.r{opacity:.69;}.r,.s{fill:#29abe2;}.t{fill:#93278f;}.m{stroke-width:4px;}.u{opacity:.77;}</style><style
       id="style1-3-6">.f{opacity:.83;}.g{font-family:EdwardianScriptITC, Edwardian Script ITC;font-size:249.87px;}.g,.h{fill:#fff;}.i{fill:#662d91;}.j{stroke-width:3px;}.j,.k{fill:none;stroke:#fff;stroke-miterlimit:10;}.l{fill:#0071bc;}.m{fill:url(#d);}.n{fill:url(#e);}.h,.o{font-family:Consolas, Consolas;font-size:31px;}.p{opacity:.69;}.p,.q{fill:#29abe2;}.r{fill:#93278f;}.k{stroke-width:4px;}</style><style
       id="style1-27">.f{font-family:EdwardianScriptITC, Edwardian Script ITC;font-size:355px;}.f,.g,.h{fill:#fff;}.i{fill:#662d91;}.j{stroke-width:3px;}.j,.k,.l,.m{fill:none;}.j,.k,.m{stroke:#fff;stroke-miterlimit:10;}.k{stroke-width:2px;}.n{fill:#0071bc;}.o{fill:url(#d);}.p{fill:url(#e);}.h,.q{font-family:Consolas, Consolas;font-size:31px;}.r{opacity:.69;}.r,.s{fill:#29abe2;}.t{fill:#93278f;}.m{stroke-width:4px;}.u{opacity:.77;}</style><style
       id="style1-3-2">.f{opacity:.83;}.g{font-family:EdwardianScriptITC, Edwardian Script ITC;font-size:249.87px;}.g,.h{fill:#fff;}.i{fill:#662d91;}.j{stroke-width:3px;}.j,.k{fill:none;stroke:#fff;stroke-miterlimit:10;}.l{fill:#0071bc;}.m{fill:url(#d);}.n{fill:url(#e);}.h,.o{font-family:Consolas, Consolas;font-size:31px;}.p{opacity:.69;}.p,.q{fill:#29abe2;}.r{fill:#93278f;}.k{stroke-width:4px;}</style><style
       id="style1-44">.e{fill:#662d91;}.f{fill:#0071bc;}.g{fill:url(#d);}.h{fill:#93278f;}.i{opacity:.77;}.j{font-family:Consolas, Consolas;font-size:31px;}</style><style
       id="style1-2-42">.e,.f,.g{font-family:Consolas, Consolas;}.h{fill:#662d91;}.i{fill:#0071bc;}.j{fill:url(#d);}.f,.k{fill:#fff;}.f,.k,.g{font-size:31px;}.l{font-family:Calibri-Light, Calibri;}.m{fill:#93278f;}.n{opacity:.77;}</style><style
       id="style1-6-7">.e,.f,.g{font-family:Consolas, Consolas;}.h{fill:#662d91;}.i{fill:#0071bc;}.j{fill:url(#d);}.f,.k{fill:#fff;}.f,.k,.g{font-size:31px;}.l{font-family:Calibri-Light, Calibri;}.m{fill:#93278f;}.n{opacity:.77;}</style><style
       id="style1-4-9">.e{fill:#662d91;}.f{fill:#0071bc;}.g{fill:url(#d);}.h{fill:#93278f;}.i{opacity:.77;}.j{font-family:Consolas, Consolas;font-size:31px;}</style><style
       id="style1-5-1">.cls-1{fill:#101010;}</style><style
       id="style1-53">.e{fill:#662d91;}.f{fill:#0071bc;}.g{fill:url(#d);}.h{fill:#93278f;}.i{opacity:.77;}.j{font-family:Consolas, Consolas;font-size:31px;}</style><style
       id="style1-2-0">.e,.f,.g{font-family:Consolas, Consolas;}.h{fill:#662d91;}.i{fill:#0071bc;}.j{fill:url(#d);}.f,.k{fill:#fff;}.f,.k,.g{font-size:31px;}.l{font-family:Calibri-Light, Calibri;}.m{fill:#93278f;}.n{opacity:.77;}</style><style
       id="style1-6-8">.e,.f,.g{font-family:Consolas, Consolas;}.h{fill:#662d91;}.i{fill:#0071bc;}.j{fill:url(#d);}.f,.k{fill:#fff;}.f,.k,.g{font-size:31px;}.l{font-family:Calibri-Light, Calibri;}.m{fill:#93278f;}.n{opacity:.77;}</style><style
       id="style1-4-91">.e{fill:#662d91;}.f{fill:#0071bc;}.g{fill:url(#d);}.h{fill:#93278f;}.i{opacity:.77;}.j{font-family:Consolas, Consolas;font-size:31px;}</style><style
       id="style1-5-3">.cls-1{fill:#101010;}</style><style
       id="style1-36">.e{fill:#662d91;}.f{fill:#0071bc;}.g{fill:url(#d);}.h{fill:#93278f;}.i{opacity:.77;}.j{font-family:Consolas, Consolas;font-size:31px;}</style><style
       id="style1-2-5">.e,.f,.g{font-family:Consolas, Consolas;}.h{fill:#662d91;}.i{fill:#0071bc;}.j{fill:url(#d);}.f,.k{fill:#fff;}.f,.k,.g{font-size:31px;}.l{font-family:Calibri-Light, Calibri;}.m{fill:#93278f;}.n{opacity:.77;}</style><style
       id="style1-6-28">.e,.f,.g{font-family:Consolas, Consolas;}.h{fill:#662d91;}.i{fill:#0071bc;}.j{fill:url(#d);}.f,.k{fill:#fff;}.f,.k,.g{font-size:31px;}.l{font-family:Calibri-Light, Calibri;}.m{fill:#93278f;}.n{opacity:.77;}</style><style
       id="style1-4-1">.e{fill:#662d91;}.f{fill:#0071bc;}.g{fill:url(#d);}.h{fill:#93278f;}.i{opacity:.77;}.j{font-family:Consolas, Consolas;font-size:31px;}</style><style
       id="style1-5-0">.cls-1{fill:#101010;}</style><style
       id="style1-1">.e{fill:#662d91;}.f{fill:#0071bc;}.g{fill:url(#d);}.h{fill:#93278f;}.i{opacity:.77;}.j{font-family:Consolas, Consolas;font-size:31px;}</style><style
       id="style1-2-7">.e,.f,.g{font-family:Consolas, Consolas;}.h{fill:#662d91;}.i{fill:#0071bc;}.j{fill:url(#d);}.f,.k{fill:#fff;}.f,.k,.g{font-size:31px;}.l{font-family:Calibri-Light, Calibri;}.m{fill:#93278f;}.n{opacity:.77;}</style><style
       id="style1-6-4">.e,.f,.g{font-family:Consolas, Consolas;}.h{fill:#662d91;}.i{fill:#0071bc;}.j{fill:url(#d);}.f,.k{fill:#fff;}.f,.k,.g{font-size:31px;}.l{font-family:Calibri-Light, Calibri;}.m{fill:#93278f;}.n{opacity:.77;}</style><style
       id="style1-4-8">.e{fill:#662d91;}.f{fill:#0071bc;}.g{fill:url(#d);}.h{fill:#93278f;}.i{opacity:.77;}.j{font-family:Consolas, Consolas;font-size:31px;}</style><style
       id="style1-5-2">.cls-1{fill:#101010;}</style><style
       id="style1-80">.e{fill:#662d91;}.f{fill:#0071bc;}.g{fill:url(#d);}.h{fill:#93278f;}.i{opacity:.77;}.j{font-family:Consolas, Consolas;font-size:31px;}</style><style
       id="style1-2-72">.e,.f,.g{font-family:Consolas, Consolas;}.h{fill:#662d91;}.i{fill:#0071bc;}.j{fill:url(#d);}.f,.k{fill:#fff;}.f,.k,.g{font-size:31px;}.l{font-family:Calibri-Light, Calibri;}.m{fill:#93278f;}.n{opacity:.77;}</style><style
       id="style1-6-25">.e,.f,.g{font-family:Consolas, Consolas;}.h{fill:#662d91;}.i{fill:#0071bc;}.j{fill:url(#d);}.f,.k{fill:#fff;}.f,.k,.g{font-size:31px;}.l{font-family:Calibri-Light, Calibri;}.m{fill:#93278f;}.n{opacity:.77;}</style><style
       id="style1-4-910">.e{fill:#662d91;}.f{fill:#0071bc;}.g{fill:url(#d);}.h{fill:#93278f;}.i{opacity:.77;}.j{font-family:Consolas, Consolas;font-size:31px;}</style><style
       id="style1-5-85">.cls-1{fill:#101010;}</style><style
       id="style1-10">.e{fill:#662d91;}.f{fill:#0071bc;}.g{fill:url(#d);}.h{fill:#93278f;}.i{opacity:.77;}.j{font-family:Consolas, Consolas;font-size:31px;}</style><style
       id="style1-2-48">.e,.f,.g{font-family:Consolas, Consolas;}.h{fill:#662d91;}.i{fill:#0071bc;}.j{fill:url(#d);}.f,.k{fill:#fff;}.f,.k,.g{font-size:31px;}.l{font-family:Calibri-Light, Calibri;}.m{fill:#93278f;}.n{opacity:.77;}</style><style
       id="style1-6-5">.e,.f,.g{font-family:Consolas, Consolas;}.h{fill:#662d91;}.i{fill:#0071bc;}.j{fill:url(#d);}.f,.k{fill:#fff;}.f,.k,.g{font-size:31px;}.l{font-family:Calibri-Light, Calibri;}.m{fill:#93278f;}.n{opacity:.77;}</style><style
       id="style1-4-92">.e{fill:#662d91;}.f{fill:#0071bc;}.g{fill:url(#d);}.h{fill:#93278f;}.i{opacity:.77;}.j{font-family:Consolas, Consolas;font-size:31px;}</style><style
       id="style1-5-54">.cls-1{fill:#101010;}</style><style
       id="style1-7">.e{fill:#662d91;}.f{fill:#0071bc;}.g{fill:url(#d);}.h{fill:#93278f;}.i{opacity:.77;}.j{font-family:Consolas, Consolas;font-size:31px;}</style><linearGradient
       id="d-0"
       x1="0"
       y1="491.51001"
       x2="1826.86"
       y2="491.51001"
       gradientUnits="userSpaceOnUse"><stop
         offset="0"
         stop-color="#ff7bac"
         id="stop1-3" /><stop
         offset=".58"
         stop-color="#3a62a8"
         stop-opacity=".8"
         id="stop2-6" /></linearGradient><style
       id="style1-2-96">.e,.f,.g{font-family:Consolas, Consolas;}.h{fill:#662d91;}.i{fill:#0071bc;}.j{fill:url(#d);}.f,.k{fill:#fff;}.f,.k,.g{font-size:31px;}.l{font-family:Calibri-Light, Calibri;}.m{fill:#93278f;}.n{opacity:.77;}</style><style
       id="style1-6-17">.e,.f,.g{font-family:Consolas, Consolas;}.h{fill:#662d91;}.i{fill:#0071bc;}.j{fill:url(#d);}.f,.k{fill:#fff;}.f,.k,.g{font-size:31px;}.l{font-family:Calibri-Light, Calibri;}.m{fill:#93278f;}.n{opacity:.77;}</style><style
       id="style1-4-7">.e{fill:#662d91;}.f{fill:#0071bc;}.g{fill:url(#d);}.h{fill:#93278f;}.i{opacity:.77;}.j{font-family:Consolas, Consolas;font-size:31px;}</style><style
       id="style1-5-19">.cls-1{fill:#101010;}</style><style
       id="style1-75">.e{fill:#662d91;}.f{fill:#0071bc;}.g{fill:url(#d);}.h{fill:#93278f;}.i{opacity:.77;}.j{font-family:Consolas, Consolas;font-size:31px;}</style><style
       id="style1-2-33">.e,.f,.g{font-family:Consolas, Consolas;}.h{fill:#662d91;}.i{fill:#0071bc;}.j{fill:url(#d);}.f,.k{fill:#fff;}.f,.k,.g{font-size:31px;}.l{font-family:Calibri-Light, Calibri;}.m{fill:#93278f;}.n{opacity:.77;}</style><style
       id="style1-6-24">.e,.f,.g{font-family:Consolas, Consolas;}.h{fill:#662d91;}.i{fill:#0071bc;}.j{fill:url(#d);}.f,.k{fill:#fff;}.f,.k,.g{font-size:31px;}.l{font-family:Calibri-Light, Calibri;}.m{fill:#93278f;}.n{opacity:.77;}</style><style
       id="style1-4-12">.e{fill:#662d91;}.f{fill:#0071bc;}.g{fill:url(#d);}.h{fill:#93278f;}.i{opacity:.77;}.j{font-family:Consolas, Consolas;font-size:31px;}</style><style
       id="style1-5-9">.cls-1{fill:#101010;}</style><style
       id="style1-56">.e{fill:#662d91;}.f{fill:#0071bc;}.g{fill:url(#d);}.h{fill:#93278f;}.i{opacity:.77;}.j{font-family:Consolas, Consolas;font-size:31px;}</style><style
       id="style1-2-80">.e,.f,.g{font-family:Consolas, Consolas;}.h{fill:#662d91;}.i{fill:#0071bc;}.j{fill:url(#d);}.f,.k{fill:#fff;}.f,.k,.g{font-size:31px;}.l{font-family:Calibri-Light, Calibri;}.m{fill:#93278f;}.n{opacity:.77;}</style><style
       id="style1-6-77">.e,.f,.g{font-family:Consolas, Consolas;}.h{fill:#662d91;}.i{fill:#0071bc;}.j{fill:url(#d);}.f,.k{fill:#fff;}.f,.k,.g{font-size:31px;}.l{font-family:Calibri-Light, Calibri;}.m{fill:#93278f;}.n{opacity:.77;}</style><style
       id="style1-4-43">.e{fill:#662d91;}.f{fill:#0071bc;}.g{fill:url(#d);}.h{fill:#93278f;}.i{opacity:.77;}.j{font-family:Consolas, Consolas;font-size:31px;}</style><style
       id="style1-5-13">.cls-1{fill:#101010;}</style><style
       id="style1-90">.e{fill:#662d91;}.f{fill:#0071bc;}.g{fill:url(#d);}.h{fill:#93278f;}.i{opacity:.77;}.j{font-family:Consolas, Consolas;font-size:31px;}</style><style
       id="style1-2-429">.e,.f,.g{font-family:Consolas, Consolas;}.h{fill:#662d91;}.i{fill:#0071bc;}.j{fill:url(#d);}.f,.k{fill:#fff;}.f,.k,.g{font-size:31px;}.l{font-family:Calibri-Light, Calibri;}.m{fill:#93278f;}.n{opacity:.77;}</style><style
       id="style1-6-31">.e,.f,.g{font-family:Consolas, Consolas;}.h{fill:#662d91;}.i{fill:#0071bc;}.j{fill:url(#d);}.f,.k{fill:#fff;}.f,.k,.g{font-size:31px;}.l{font-family:Calibri-Light, Calibri;}.m{fill:#93278f;}.n{opacity:.77;}</style><style
       id="style1-4-48">.e{fill:#662d91;}.f{fill:#0071bc;}.g{fill:url(#d);}.h{fill:#93278f;}.i{opacity:.77;}.j{font-family:Consolas, Consolas;font-size:31px;}</style><style
       id="style1-5-20">.cls-1{fill:#101010;}</style><style
       id="style1-66">.e{fill:#662d91;}.f{fill:#0071bc;}.g{fill:url(#d);}.h{fill:#93278f;}.i{opacity:.77;}.j{font-family:Consolas, Consolas;font-size:31px;}</style><style
       id="style1-2-0-5">.e,.f,.g{font-family:Consolas, Consolas;}.h{fill:#662d91;}.i{fill:#0071bc;}.j{fill:url(#d);}.f,.k{fill:#fff;}.f,.k,.g{font-size:31px;}.l{font-family:Calibri-Light, Calibri;}.m{fill:#93278f;}.n{opacity:.77;}</style><style
       id="style1-6-3">.e,.f,.g{font-family:Consolas, Consolas;}.h{fill:#662d91;}.i{fill:#0071bc;}.j{fill:url(#d);}.f,.k{fill:#fff;}.f,.k,.g{font-size:31px;}.l{font-family:Calibri-Light, Calibri;}.m{fill:#93278f;}.n{opacity:.77;}</style><style
       id="style1-4-8-5">.e{fill:#662d91;}.f{fill:#0071bc;}.g{fill:url(#d);}.h{fill:#93278f;}.i{opacity:.77;}.j{font-family:Consolas, Consolas;font-size:31px;}</style><style
       id="style1-5-0-9">.cls-1{fill:#101010;}</style><style
       id="style1-48">.e{fill:#662d91;}.f{fill:#0071bc;}.g{fill:url(#d);}.h{fill:#93278f;}.i{opacity:.77;}.j{font-family:Consolas, Consolas;font-size:31px;}</style><style
       id="style1-2-35">.e,.f,.g{font-family:Consolas, Consolas;}.h{fill:#662d91;}.i{fill:#0071bc;}.j{fill:url(#d);}.f,.k{fill:#fff;}.f,.k,.g{font-size:31px;}.l{font-family:Calibri-Light, Calibri;}.m{fill:#93278f;}.n{opacity:.77;}</style><style
       id="style1-6-52">.e,.f,.g{font-family:Consolas, Consolas;}.h{fill:#662d91;}.i{fill:#0071bc;}.j{fill:url(#d);}.f,.k{fill:#fff;}.f,.k,.g{font-size:31px;}.l{font-family:Calibri-Light, Calibri;}.m{fill:#93278f;}.n{opacity:.77;}</style><style
       id="style1-4-6">.e{fill:#662d91;}.f{fill:#0071bc;}.g{fill:url(#d);}.h{fill:#93278f;}.i{opacity:.77;}.j{font-family:Consolas, Consolas;font-size:31px;}</style><style
       id="style1-5-89">.cls-1{fill:#101010;}</style><style
       id="style1-0">.e{fill:#662d91;}.f{fill:#0071bc;}.g{fill:url(#d);}.h{fill:#93278f;}.i{opacity:.77;}.j{font-family:Consolas, Consolas;font-size:31px;}</style><style
       id="style1-2-58">.e,.f,.g{font-family:Consolas, Consolas;}.h{fill:#662d91;}.i{fill:#0071bc;}.j{fill:url(#d);}.f,.k{fill:#fff;}.f,.k,.g{font-size:31px;}.l{font-family:Calibri-Light, Calibri;}.m{fill:#93278f;}.n{opacity:.77;}</style><style
       id="style1-6-37">.e,.f,.g{font-family:Consolas, Consolas;}.h{fill:#662d91;}.i{fill:#0071bc;}.j{fill:url(#d);}.f,.k{fill:#fff;}.f,.k,.g{font-size:31px;}.l{font-family:Calibri-Light, Calibri;}.m{fill:#93278f;}.n{opacity:.77;}</style><style
       id="style1-4-83">.e{fill:#662d91;}.f{fill:#0071bc;}.g{fill:url(#d);}.h{fill:#93278f;}.i{opacity:.77;}.j{font-family:Consolas, Consolas;font-size:31px;}</style><style
       id="style1-5-7">.cls-1{fill:#101010;}</style><style
       id="style1-82">.e{fill:#662d91;}.f{fill:#0071bc;}.g{fill:url(#d);}.h{fill:#93278f;}.i{opacity:.77;}.j{font-family:Consolas, Consolas;font-size:31px;}</style><style
       id="style1-2-801">.e,.f,.g{font-family:Consolas, Consolas;}.h{fill:#662d91;}.i{fill:#0071bc;}.j{fill:url(#d);}.f,.k{fill:#fff;}.f,.k,.g{font-size:31px;}.l{font-family:Calibri-Light, Calibri;}.m{fill:#93278f;}.n{opacity:.77;}</style><style
       id="style1-6-84">.e,.f,.g{font-family:Consolas, Consolas;}.h{fill:#662d91;}.i{fill:#0071bc;}.j{fill:url(#d);}.f,.k{fill:#fff;}.f,.k,.g{font-size:31px;}.l{font-family:Calibri-Light, Calibri;}.m{fill:#93278f;}.n{opacity:.77;}</style><style
       id="style1-4-86">.e{fill:#662d91;}.f{fill:#0071bc;}.g{fill:url(#d);}.h{fill:#93278f;}.i{opacity:.77;}.j{font-family:Consolas, Consolas;font-size:31px;}</style><style
       id="style1-5-09">.cls-1{fill:#101010;}</style><linearGradient
       id="linearGradient133"
       inkscape:collect="always"><stop
         style="stop-color:#3f76d7;stop-opacity:1;"
         offset="0.06234415"
         id="stop132" /><stop
         style="stop-color:#df67a1;stop-opacity:1;"
         offset="0.88279307"
         id="stop133" /></linearGradient><style
       id="style1-76">.e{fill:#662d91;}.f{fill:#0071bc;}.g{fill:url(#d);}.h{fill:#93278f;}.i{opacity:.77;}.j{font-family:Consolas, Consolas;font-size:31px;}</style><style
       id="style1-2-6">.e,.f,.g{font-family:Consolas, Consolas;}.h{fill:#662d91;}.i{fill:#0071bc;}.j{fill:url(#d);}.f,.k{fill:#fff;}.f,.k,.g{font-size:31px;}.l{font-family:Calibri-Light, Calibri;}.m{fill:#93278f;}.n{opacity:.77;}</style><style
       id="style1-6-58">.e,.f,.g{font-family:Consolas, Consolas;}.h{fill:#662d91;}.i{fill:#0071bc;}.j{fill:url(#d);}.f,.k{fill:#fff;}.f,.k,.g{font-size:31px;}.l{font-family:Calibri-Light, Calibri;}.m{fill:#93278f;}.n{opacity:.77;}</style><style
       id="style1-4-3">.e{fill:#662d91;}.f{fill:#0071bc;}.g{fill:url(#d);}.h{fill:#93278f;}.i{opacity:.77;}.j{font-family:Consolas, Consolas;font-size:31px;}</style><linearGradient
       inkscape:collect="always"
       xlink:href="#d-0"
       id="linearGradient1"
       gradientUnits="userSpaceOnUse"
       x1="0"
       y1="491.51001"
       x2="1826.86"
       y2="491.51001"
       gradientTransform="matrix(-0.13567448,0,0,0.14151306,504.69284,230.95442)" /><style
       id="style1-5-94">.cls-1{fill:#101010;}</style><linearGradient
       inkscape:collect="always"
       xlink:href="#linearGradient133"
       gradientUnits="userSpaceOnUse"
       gradientTransform="matrix(0.13740261,0,0,0.13740261,268.25743,232.63275)"
       x1="0"
       y1="318.51001"
       x2="1826.86"
       y2="318.51001"
       id="linearGradient132" /></defs><g
     inkscape:label="Layer 1"
     inkscape:groupmode="layer"
     id="layer1"
     transform="translate(1841.7856,300.17004)"><g
       id="Output_Area"
       transform="matrix(0.99718818,0,0,0.99718818,-2097.8965,-530.47394)"
       inkscape:export-filename="Ascii_Web_Elements\Output_Area.svg"
       inkscape:export-xdpi="96"
       inkscape:export-ydpi="96"><g
         id="g728"><rect
           width="247.85828"
           height="139.11017"
           rx="3.9345598"
           ry="4.103879"
           id="Output_Container"
           x="-504.69284"
           y="230.95331"
           style="opacity:0.77;stroke:none;stroke-width:21.1001;stroke-dasharray:none"
           transform="scale(-1,1)" /><path
           class="j"
           d="m 260.76776,231.37896 c -1.94557,0 -3.52753,1.65004 -3.52753,3.67934 v 130.90241 c 0,2.0293 1.58196,3.67934 3.52753,3.67934 h 239.99052 c 1.94557,0 3.52754,-1.65004 3.52754,-3.67934 V 235.0583 c 0,-2.0293 -1.58197,-3.67934 -3.52754,-3.67934 H 260.76776 m 0,-0.42454 h 239.99052 c 2.17351,0 3.93456,1.83684 3.93456,4.10388 v 130.90241 c 0,2.26704 -1.76105,4.10388 -3.93456,4.10388 H 260.76776 c -2.1735,0 -3.93456,-1.83684 -3.93456,-4.10388 V 235.0583 c 0.001,-2.26704 1.76241,-4.10388 3.93456,-4.10388 z"
           id="Output_Container_Stroke"
           style="opacity:0.77;fill:url(#linearGradient1);stroke:none;stroke-width:21.1001;stroke-dasharray:none" /><path
           style="font-size:4.25948px;font-family:Consolas, Consolas;opacity:0.77;fill:url(#linearGradient132);stroke-width:0.136418"
           d="m 269.87968,231.78356 q -0.0187,0.13311 -0.0208,0.22046 -0.002,0.0874 0.0104,0.13727 0.0146,0.0499 0.0437,0.0707 0.0291,0.0187 0.0728,0.0187 0.0582,0 0.11023,-0.0603 0.052,-0.0624 0.0915,-0.18926 0.0416,-0.12895 0.0645,-0.32445 0.025,-0.19551 0.025,-0.4638 0,-0.2995 -0.0374,-0.53452 -0.0374,-0.23502 -0.11855,-0.39932 -0.0811,-0.16431 -0.21214,-0.24958 -0.12895,-0.0874 -0.31406,-0.0874 -0.14143,0 -0.27453,0.0728 -0.13103,0.0707 -0.24542,0.20174 -0.11231,0.12895 -0.20591,0.31198 -0.0915,0.18094 -0.15806,0.4014 -0.0645,0.22046 -0.10191,0.4742 -0.0354,0.25374 -0.0354,0.52828 0,0.6697 0.20174,0.99831 0.20174,0.33069 0.56779,0.33069 0.18511,0 0.34525,-0.0437 0.16015,-0.0416 0.33278,-0.12687 v 0.2683 q -0.17055,0.079 -0.34109,0.11855 -0.17055,0.0395 -0.35773,0.0395 -0.53036,0 -0.78618,-0.39724 -0.25374,-0.39725 -0.2579,-1.18342 -0.002,-0.31406 0.0416,-0.60107 0.0437,-0.2891 0.12479,-0.53868 0.0832,-0.24958 0.19966,-0.4534 0.11855,-0.2059 0.26622,-0.34941 0.14975,-0.14559 0.32445,-0.22462 0.17471,-0.0811 0.37229,-0.0811 0.2475,0 0.42845,0.10191 0.18302,0.0998 0.30157,0.29117 0.11855,0.18927 0.17471,0.46588 0.0582,0.27662 0.0582,0.63019 -0.002,0.35773 -0.0478,0.61355 -0.0437,0.25374 -0.12479,0.41596 -0.0811,0.16223 -0.19758,0.23918 -0.11439,0.0749 -0.25582,0.0749 -0.16222,0 -0.24126,-0.0832 -0.079,-0.0832 -0.079,-0.22462 -0.079,0.16015 -0.17055,0.23502 -0.0915,0.0728 -0.22046,0.0728 -0.1955,0 -0.29325,-0.14559 -0.0977,-0.14767 -0.0977,-0.4638 0,-0.11439 0.0125,-0.24542 0.0145,-0.13103 0.0457,-0.26206 0.0333,-0.13311 0.0853,-0.25374 0.052,-0.12271 0.12687,-0.21422 0.077,-0.0936 0.18095,-0.14975 0.10399,-0.0562 0.2371,-0.0562 0.079,0 0.14767,0.0187 0.0686,0.0187 0.0998,0.0374 l 0.26829,-0.0645 z m -0.21214,-0.74042 q -0.0187,-0.025 -0.0582,-0.0437 -0.0374,-0.0208 -0.0957,-0.0208 -0.0624,0 -0.11231,0.0437 -0.0499,0.0437 -0.0894,0.11647 -0.0374,0.0728 -0.0645,0.16639 -0.025,0.0915 -0.0437,0.18926 -0.0166,0.0977 -0.025,0.19343 -0.006,0.0936 -0.006,0.16846 0,0.19966 0.025,0.28702 0.0249,0.0873 0.0957,0.0873 0.025,0 0.0499,-0.0104 0.025,-0.0104 0.052,-0.0395 0.0291,-0.0312 0.0624,-0.0853 0.0333,-0.0541 0.0728,-0.14143 z m 3.01366,-0.83817 -1.38724,2.08191 h 1.41428 v 0.34525 h -1.87808 v -0.27662 l 1.39556,-2.10478 h -1.35812 v -0.33693 h 1.8136 z m 2.48747,1.05031 q 0,0.36605 -0.0874,0.63227 -0.0853,0.26622 -0.23294,0.44092 -0.14559,0.17263 -0.34317,0.2579 -0.19551,0.0832 -0.41389,0.0832 -0.26206,0 -0.45756,-0.0936 -0.19342,-0.0957 -0.32237,-0.27454 -0.12687,-0.17886 -0.18927,-0.43468 -0.0624,-0.2579 -0.0624,-0.58027 0,-0.36189 0.0853,-0.62811 0.0853,-0.26621 0.23086,-0.43884 0.14767,-0.17471 0.34317,-0.2579 0.19551,-0.0853 0.41389,-0.0853 0.26206,0 0.45548,0.0957 0.1955,0.0957 0.32445,0.27454 0.12895,0.17678 0.19135,0.4326 0.0645,0.25582 0.0645,0.57611 z m -0.38477,0.027 q 0,-0.23918 -0.0374,-0.43676 -0.0354,-0.19967 -0.11647,-0.34317 -0.0811,-0.14351 -0.21007,-0.22255 -0.12686,-0.079 -0.30781,-0.079 -0.1747,0 -0.30157,0.0853 -0.12479,0.0832 -0.20591,0.22878 -0.0811,0.14351 -0.12063,0.33902 -0.0395,0.19342 -0.0395,0.4118 0,0.24126 0.0374,0.44092 0.0374,0.19759 0.11647,0.3411 0.0811,0.14142 0.20799,0.22046 0.12687,0.079 0.30573,0.079 0.17471,0 0.30158,-0.0832 0.12686,-0.0853 0.20798,-0.22878 0.0832,-0.14559 0.12271,-0.33902 0.0395,-0.19342 0.0395,-0.41388 z m 2.59562,1.34981 h -0.48251 l -0.79242,-1.69506 -0.22878,-0.54491 v 1.3706 0.86937 h -0.34525 v -2.71833 h 0.47628 l 0.75498,1.60562 0.27245,0.62187 v -1.45588 -0.77161 h 0.34525 z m 2.20878,0 h -1.54531 v -2.71833 h 1.54531 v 0.31197 h -1.1751 v 0.84233 h 1.12934 v 0.31197 h -1.12934 v 0.93592 h 1.1751 z m 2.53738,-1.35813 q 0,0.31197 -0.0624,0.56987 -0.0624,0.25582 -0.18927,0.44093 -0.12686,0.18302 -0.31613,0.28493 -0.18718,0.0998 -0.44092,0.0998 -0.21838,0 -0.39725,-0.0811 -0.17886,-0.0832 -0.30573,-0.25374 -0.12687,-0.17054 -0.19551,-0.43468 -0.0686,-0.26414 -0.0686,-0.62603 0,-0.31197 0.0624,-0.56987 0.0645,-0.2579 0.18927,-0.44092 0.12687,-0.18511 0.31613,-0.28494 0.18927,-0.10191 0.44092,-0.10191 0.21839,0 0.39725,0.0832 0.17887,0.0811 0.30574,0.25374 0.12686,0.17055 0.1955,0.43468 0.0686,0.26414 0.0686,0.62603 z m -0.36605,0.0125 q 0,-0.0707 -0.006,-0.13935 -0.004,-0.0707 -0.0104,-0.13727 l -1.15015,0.85481 q 0.0312,0.10815 0.079,0.19966 0.0478,0.0915 0.11439,0.15807 0.0686,0.0645 0.1539,0.10191 0.0874,0.0354 0.19759,0.0354 0.14142,0 0.25581,-0.0686 0.11648,-0.0686 0.19759,-0.20382 0.0811,-0.13519 0.12479,-0.33485 0.0437,-0.20174 0.0437,-0.46588 z m -1.24373,-0.025 q 0,0.0645 0,0.12895 0.002,0.0645 0.008,0.12479 l 1.15014,-0.85065 q -0.0312,-0.10607 -0.079,-0.19342 -0.0478,-0.0874 -0.11439,-0.14975 -0.0666,-0.0645 -0.15183,-0.0998 -0.0853,-0.0354 -0.19134,-0.0354 -0.14143,0 -0.2579,0.0686 -0.11439,0.0686 -0.19551,0.2059 -0.0811,0.13519 -0.12478,0.33693 -0.0437,0.19966 -0.0437,0.4638 z m 3.86639,1.37061 h -1.70753 v -0.33694 h 0.69882 v -1.98415 l -0.65099,0.35357 -0.13311,-0.30781 0.86521,-0.45548 h 0.32029 v 2.39387 h 0.60731 z m 2.50827,0 h -0.36189 l -0.0541,-1.69506 -0.0229,-0.65099 -0.12687,0.37853 -0.40141,1.08151 h -0.25582 l -0.38268,-1.03991 -0.12687,-0.42013 -0.008,0.68011 -0.0478,1.66594 h -0.34941 l 0.13311,-2.71833 h 0.43884 l 0.36605,1.02327 0.11855,0.34525 0.11439,-0.34525 0.38477,-1.02327 h 0.45132 z m 1.08567,-2.40636 h -0.62603 v -0.31197 h 1.62642 v 0.31197 h -0.62602 v 2.09022 h 0.62602 v 0.31614 h -1.62642 v -0.31614 h 0.62603 z m 3.45459,2.40636 h -0.48252 l -0.79242,-1.69506 -0.22878,-0.54491 v 1.3706 0.86937 h -0.34525 v -2.71833 h 0.47628 l 0.75498,1.60562 0.27246,0.62187 v -1.45588 -0.77161 h 0.34525 z m 2.33772,-2.25245 q -0.15183,-0.0811 -0.31198,-0.12479 -0.16014,-0.0458 -0.34941,-0.0458 -0.2163,0 -0.38476,0.077 -0.16847,0.077 -0.28494,0.21839 -0.11439,0.13934 -0.17678,0.33693 -0.0603,0.19758 -0.0603,0.43676 0,0.24958 0.0499,0.44716 0.0499,0.19759 0.15598,0.33485 0.10607,0.13727 0.27038,0.21007 0.16639,0.0728 0.39725,0.0728 0.0395,0 0.0853,-0.004 0.0458,-0.004 0.0915,-0.0104 0.0458,-0.008 0.0874,-0.0187 0.0437,-0.0104 0.077,-0.0229 v -0.86521 h -0.55531 v -0.30574 h 0.92136 v 1.38933 q -0.0853,0.0395 -0.18095,0.0707 -0.0936,0.0312 -0.19342,0.052 -0.0978,0.0208 -0.1955,0.0312 -0.0978,0.0104 -0.18927,0.0104 -0.27869,0 -0.50332,-0.0873 -0.22254,-0.0874 -0.3806,-0.2579 -0.15599,-0.17262 -0.24126,-0.42844 -0.0832,-0.25582 -0.0832,-0.59275 0,-0.33485 0.0936,-0.59899 0.0936,-0.26622 0.26205,-0.44924 0.17055,-0.18511 0.40765,-0.28078 0.23918,-0.0977 0.52619,-0.0977 0.18303,0 0.34734,0.0333 0.16638,0.0312 0.31821,0.10191 z m 2.49787,-0.46588 -0.18303,2.71833 h -0.48044 l -0.33693,-0.96712 -0.0936,-0.3099 -0.0977,0.33486 -0.31198,0.94216 h -0.4638 l -0.18718,-2.71833 h 0.34941 l 0.10607,1.84896 0.0312,0.50748 0.13103,-0.43053 0.32861,-1.00871 h 0.25582 l 0.37853,1.08151 0.12687,0.35773 0.008,-0.37437 0.10816,-1.98207 z m 2.30028,1.27077 q 0.002,0.15806 -0.0333,0.29325 -0.0354,0.13311 -0.11023,0.23086 -0.0749,0.0978 -0.18719,0.15391 -0.11023,0.0541 -0.2579,0.0541 -0.11439,0 -0.2059,-0.0374 -0.0915,-0.0395 -0.17054,-0.0978 -0.077,-0.0582 -0.14351,-0.12687 -0.0645,-0.0686 -0.12895,-0.12687 -0.0624,-0.0582 -0.12479,-0.0957 -0.0624,-0.0395 -0.13311,-0.0395 -0.12271,0 -0.18302,0.0977 -0.0582,0.0978 -0.0582,0.30782 h -0.33277 q -0.004,-0.15807 0.0312,-0.29118 0.0374,-0.13519 0.11023,-0.23294 0.0749,-0.0998 0.1851,-0.15391 0.11231,-0.0562 0.25998,-0.0562 0.11439,0 0.2059,0.0395 0.0915,0.0374 0.16847,0.0957 0.079,0.0582 0.14351,0.12687 0.0666,0.0686 0.12894,0.12687 0.0645,0.0582 0.12687,0.0978 0.0624,0.0374 0.13311,0.0374 0.13103,0 0.18719,-0.0957 0.0562,-0.0957 0.0562,-0.30781 z m 2.2171,-0.9796 -1.38725,2.08191 h 1.41428 v 0.34525 h -1.87808 v -0.27662 l 1.39556,-2.10478 h -1.35812 v -0.33693 h 1.81361 z m 2.48746,1.05031 q 0,0.36605 -0.0874,0.63227 -0.0853,0.26622 -0.23294,0.44092 -0.14559,0.17263 -0.34317,0.2579 -0.1955,0.0832 -0.41389,0.0832 -0.26205,0 -0.45756,-0.0936 -0.19342,-0.0957 -0.32237,-0.27454 -0.12687,-0.17886 -0.18926,-0.43468 -0.0624,-0.2579 -0.0624,-0.58027 0,-0.36189 0.0853,-0.62811 0.0853,-0.26621 0.23087,-0.43884 0.14766,-0.17471 0.34317,-0.2579 0.1955,-0.0853 0.41388,-0.0853 0.26206,0 0.45548,0.0957 0.19551,0.0957 0.32446,0.27454 0.12894,0.17678 0.19134,0.4326 0.0645,0.25582 0.0645,0.57611 z m -0.38476,0.027 q 0,-0.23918 -0.0374,-0.43676 -0.0354,-0.19967 -0.11647,-0.34317 -0.0811,-0.14351 -0.21006,-0.22255 -0.12687,-0.079 -0.30782,-0.079 -0.1747,0 -0.30157,0.0853 -0.12479,0.0832 -0.2059,0.22878 -0.0811,0.14351 -0.12063,0.33902 -0.0395,0.19342 -0.0395,0.4118 0,0.24126 0.0374,0.44092 0.0374,0.19759 0.11647,0.3411 0.0811,0.14142 0.20798,0.22046 0.12687,0.079 0.30573,0.079 0.17471,0 0.30158,-0.0832 0.12687,-0.0853 0.20798,-0.22878 0.0832,-0.14559 0.12271,-0.33902 0.0395,-0.19342 0.0395,-0.41388 z m 2.59562,1.34981 h -0.48252 l -0.79241,-1.69506 -0.22878,-0.54491 v 1.3706 0.86937 h -0.34525 v -2.71833 h 0.47628 l 0.75497,1.60562 0.27246,0.62187 v -1.45588 -0.77161 h 0.34525 z m 2.20877,0 h -1.54531 v -2.71833 h 1.54531 v 0.31197 h -1.1751 v 0.84233 h 1.12935 v 0.31197 h -1.12935 v 0.93592 h 1.1751 z m 2.53739,-1.35813 q 0,0.31197 -0.0624,0.56987 -0.0624,0.25582 -0.18926,0.44093 -0.12687,0.18302 -0.31614,0.28493 -0.18718,0.0998 -0.44092,0.0998 -0.21838,0 -0.39725,-0.0811 -0.17886,-0.0832 -0.30573,-0.25374 -0.12687,-0.17054 -0.1955,-0.43468 -0.0686,-0.26414 -0.0686,-0.62603 0,-0.31197 0.0624,-0.56987 0.0645,-0.2579 0.18926,-0.44092 0.12687,-0.18511 0.31613,-0.28494 0.18927,-0.10191 0.44093,-0.10191 0.21838,0 0.39724,0.0832 0.17887,0.0811 0.30574,0.25374 0.12687,0.17055 0.1955,0.43468 0.0686,0.26414 0.0686,0.62603 z m -0.36605,0.0125 q 0,-0.0707 -0.006,-0.13935 -0.004,-0.0707 -0.0104,-0.13727 l -1.15014,0.85481 q 0.0312,0.10815 0.079,0.19966 0.0478,0.0915 0.11439,0.15807 0.0686,0.0645 0.15391,0.10191 0.0873,0.0354 0.19758,0.0354 0.14143,0 0.25582,-0.0686 0.11647,-0.0686 0.19758,-0.20382 0.0811,-0.13519 0.12479,-0.33485 0.0437,-0.20174 0.0437,-0.46588 z m -1.24374,-0.025 q 0,0.0645 0,0.12895 0.002,0.0645 0.008,0.12479 l 1.15014,-0.85065 q -0.0312,-0.10607 -0.079,-0.19342 -0.0478,-0.0874 -0.11439,-0.14975 -0.0666,-0.0645 -0.15183,-0.0998 -0.0853,-0.0354 -0.19134,-0.0354 -0.14143,0 -0.2579,0.0686 -0.11439,0.0686 -0.1955,0.2059 -0.0811,0.13519 -0.12479,0.33693 -0.0437,0.19966 -0.0437,0.4638 z m 3.8664,1.37061 h -1.70754 v -0.33694 h 0.69882 v -1.98415 l -0.65098,0.35357 -0.13311,-0.30781 0.86521,-0.45548 h 0.32029 v 2.39387 h 0.60731 z m 2.27948,-2.9388 -1.42676,3.38596 h -0.34525 l 1.42676,-3.38596 z m 2.55819,1.56195 q 0,0.36605 -0.0874,0.63227 -0.0853,0.26622 -0.23294,0.44092 -0.14558,0.17263 -0.34317,0.2579 -0.1955,0.0832 -0.41388,0.0832 -0.26206,0 -0.45756,-0.0936 -0.19343,-0.0957 -0.32238,-0.27454 -0.12687,-0.17886 -0.18926,-0.43468 -0.0624,-0.2579 -0.0624,-0.58027 0,-0.36189 0.0853,-0.62811 0.0853,-0.26621 0.23086,-0.43884 0.14767,-0.17471 0.34317,-0.2579 0.1955,-0.0853 0.41388,-0.0853 0.26206,0 0.45549,0.0957 0.1955,0.0957 0.32445,0.27454 0.12895,0.17678 0.19134,0.4326 0.0645,0.25582 0.0645,0.57611 z m -0.38477,0.027 q 0,-0.23918 -0.0374,-0.43676 -0.0354,-0.19967 -0.11647,-0.34317 -0.0811,-0.14351 -0.21006,-0.22255 -0.12687,-0.079 -0.30781,-0.079 -0.17471,0 -0.30158,0.0853 -0.12479,0.0832 -0.2059,0.22878 -0.0811,0.14351 -0.12063,0.33902 -0.0395,0.19342 -0.0395,0.4118 0,0.24126 0.0374,0.44092 0.0374,0.19759 0.11647,0.3411 0.0811,0.14142 0.20798,0.22046 0.12687,0.079 0.30574,0.079 0.1747,0 0.30157,-0.0832 0.12687,-0.0853 0.20798,-0.22878 0.0832,-0.14559 0.12271,-0.33902 0.0395,-0.19342 0.0395,-0.41388 z m 2.61642,0.40349 q 0,0.22462 -0.0645,0.40764 -0.0624,0.18095 -0.18511,0.3099 -0.12271,0.12686 -0.30157,0.19758 -0.17679,0.0686 -0.40765,0.0686 -0.25374,0 -0.43052,-0.0665 -0.17679,-0.0666 -0.2891,-0.18719 -0.11023,-0.12271 -0.16222,-0.29325 -0.0499,-0.17055 -0.0499,-0.38061 v -1.82816 h 0.37021 v 1.79904 q 0,0.16015 0.0291,0.28078 0.0312,0.12063 0.0998,0.20174 0.0686,0.0811 0.17678,0.12271 0.11023,0.0416 0.2683,0.0416 0.29534,0 0.43468,-0.17055 0.14143,-0.17054 0.14143,-0.48044 v -1.79488 h 0.37021 z m 2.04863,-1.77201 v 1.88848 q 0,0.1747 -0.052,0.33277 -0.052,0.15598 -0.15807,0.27245 -0.10607,0.11647 -0.26621,0.18511 -0.16015,0.0686 -0.37645,0.0686 -0.0811,0 -0.16639,-0.0125 -0.0832,-0.0104 -0.16222,-0.0291 -0.077,-0.0208 -0.14559,-0.0478 -0.0686,-0.0291 -0.11855,-0.0624 v -0.37229 q 0.12895,0.0936 0.28493,0.14767 0.15807,0.0541 0.31198,0.0541 0.2267,0 0.34941,-0.13727 0.12271,-0.13935 0.12271,-0.39932 v -1.56819 h -1.03367 v -0.32029 z m 2.70793,1.329 q 0,0.19551 -0.0312,0.37437 -0.0291,0.17887 -0.0957,0.33277 -0.0666,0.15391 -0.17263,0.28078 -0.10607,0.12479 -0.25998,0.21422 -0.1539,0.0894 -0.35773,0.13935 -0.20382,0.0478 -0.4638,0.0478 h -0.58235 v -2.71833 h 0.7009 q 0.63643,0 0.9484,0.32861 0.31406,0.32653 0.31406,1.00039 z m -0.38893,0.027 q 0,-0.28909 -0.0541,-0.48876 -0.0541,-0.19966 -0.1643,-0.32237 -0.11023,-0.12271 -0.27662,-0.17679 -0.16639,-0.0562 -0.39101,-0.0562 h -0.31821 v 2.08606 h 0.27662 q 0.9276,0 0.9276,-1.04199 z m 2.86184,1.36229 h -0.40349 l -0.18926,-0.59275 h -1.13143 l -0.19134,0.59275 h -0.38477 l 0.90265,-2.71833 h 0.50747 z m -0.69882,-0.92345 -0.45964,-1.45379 -0.45964,1.45379 z m 2.73081,-2.01535 -1.42676,3.38596 h -0.34525 l 1.42676,-3.38596 z m 2.65177,2.9388 h -0.40349 l -0.18926,-0.59275 h -1.13142 l -0.19135,0.59275 h -0.38476 l 0.90264,-2.71833 h 0.50748 z m -0.69882,-0.92345 -0.45964,-1.45379 -0.45964,1.45379 z m 2.7932,0.18719 q 0,0.19342 -0.079,0.33901 -0.079,0.14559 -0.22046,0.24334 -0.14143,0.0957 -0.34109,0.14351 -0.19759,0.0478 -0.43677,0.0478 -0.10815,0 -0.2163,-0.008 -0.10607,-0.008 -0.2059,-0.0208 -0.0977,-0.0125 -0.18511,-0.0291 -0.0873,-0.0166 -0.15806,-0.0354 v -0.35773 q 0.15599,0.0582 0.34941,0.0915 0.1955,0.0333 0.443,0.0333 0.17887,0 0.30366,-0.027 0.12686,-0.0291 0.2059,-0.0832 0.0811,-0.0562 0.11647,-0.13519 0.0374,-0.079 0.0374,-0.18094 0,-0.11023 -0.0624,-0.18719 -0.0603,-0.079 -0.16015,-0.13935 -0.0998,-0.0624 -0.22878,-0.11231 -0.12687,-0.052 -0.25997,-0.10607 -0.13311,-0.0541 -0.26206,-0.11647 -0.12687,-0.0645 -0.2267,-0.14975 -0.0998,-0.0873 -0.16223,-0.20382 -0.0603,-0.11647 -0.0603,-0.27661 0,-0.13935 0.0582,-0.27454 0.0582,-0.13519 0.18095,-0.23918 0.1227,-0.10607 0.31405,-0.17055 0.19342,-0.0645 0.45964,-0.0645 0.0686,0 0.14767,0.006 0.0811,0.006 0.16222,0.0187 0.0832,0.0104 0.16223,0.0249 0.0811,0.0146 0.14975,0.0312 V 230.29 q -0.16015,-0.0457 -0.3203,-0.0686 -0.16014,-0.025 -0.30989,-0.025 -0.31821,0 -0.46796,0.10607 -0.14975,0.10607 -0.14975,0.28494 0,0.11023 0.0603,0.18926 0.0624,0.079 0.16222,0.14143 0.0998,0.0624 0.2267,0.11439 0.12895,0.0499 0.26206,0.10399 0.13311,0.0541 0.25998,0.11855 0.12895,0.0645 0.22878,0.15391 0.0998,0.0874 0.16015,0.2059 0.0624,0.11855 0.0624,0.28078 z m 2.33772,0.63434 q -0.32653,0.13519 -0.68426,0.13519 -0.57611,0 -0.886,-0.34317 -0.30782,-0.34525 -0.30782,-1.01911 0,-0.32653 0.0853,-0.59067 0.0853,-0.26414 0.24333,-0.44716 0.15807,-0.18511 0.38269,-0.28494 0.22462,-0.0998 0.50332,-0.0998 0.18926,0 0.35149,0.0333 0.16223,0.0312 0.31197,0.0977 v 0.36397 q -0.14766,-0.0811 -0.30573,-0.12271 -0.15807,-0.0437 -0.34525,-0.0437 -0.19135,0 -0.34733,0.0728 -0.15391,0.0707 -0.26206,0.20799 -0.10815,0.13519 -0.16639,0.33277 -0.0582,0.1955 -0.0582,0.44716 0,0.52828 0.21422,0.79657 0.21422,0.2683 0.62811,0.2683 0.1747,0 0.33485,-0.0395 0.16015,-0.0416 0.30781,-0.11439 z m 1.25622,-2.30444 h -0.62602 v -0.31197 h 1.62642 v 0.31197 h -0.62603 v 2.09022 h 0.62603 v 0.31614 h -1.62642 v -0.31614 h 0.62602 z m 2.34188,0 h -0.62602 v -0.31197 h 1.62642 v 0.31197 H 339.872 v 2.09022 h 0.62603 v 0.31614 h -1.62642 v -0.31614 h 0.62602 z m 3.15094,1.4434 h -1.24374 v -0.34109 h 1.24374 z m 2.87015,0.96296 h -0.40348 l -0.18927,-0.59275 h -1.13142 l -0.19134,0.59275 h -0.38477 l 0.90264,-2.71833 h 0.50748 z m -0.69882,-0.92345 -0.45964,-1.45379 -0.45964,1.45379 z m 2.90552,0.92345 h -0.41805 l -0.40556,-0.86937 q -0.0458,-0.0998 -0.0936,-0.16431 -0.0478,-0.0666 -0.10399,-0.10399 -0.0541,-0.0395 -0.12063,-0.0562 -0.0645,-0.0166 -0.14559,-0.0166 h -0.1747 v 1.21046 h -0.37021 v -2.71833 h 0.72794 q 0.2371,0 0.40764,0.052 0.17055,0.052 0.2787,0.14559 0.11023,0.0936 0.16015,0.2267 0.052,0.13103 0.052,0.29118 0,0.12686 -0.0374,0.24125 -0.0374,0.11232 -0.11231,0.20591 -0.0728,0.0915 -0.18303,0.16014 -0.10815,0.0666 -0.24958,0.0998 0.11439,0.0395 0.19343,0.13934 0.0811,0.0978 0.1643,0.26206 z m -0.59275,-1.97168 q 0,-0.21838 -0.13727,-0.32653 -0.13519,-0.10815 -0.38269,-0.10815 h -0.34941 v 0.89848 h 0.29949 q 0.13103,0 0.23502,-0.0291 0.10607,-0.0312 0.17887,-0.0894 0.0749,-0.0603 0.11439,-0.14558 0.0416,-0.0874 0.0416,-0.19967 z m 2.91175,-0.43052 h -0.80489 v 2.4022 h -0.37437 v -2.4022 h -0.80489 v -0.31613 h 1.98415 z m 1.97167,1.43924 h -1.24373 v -0.34109 h 1.24373 z m 2.79737,-1.75537 -0.18302,2.71833 H 354.15 l -0.33694,-0.96712 -0.0936,-0.3099 -0.0978,0.33486 -0.31197,0.94216 h -0.4638 l -0.18719,-2.71833 h 0.34941 l 0.10607,1.84896 0.0312,0.50748 0.13103,-0.43053 0.32861,-1.00871 h 0.25582 l 0.37853,1.08151 0.12687,0.35773 0.008,-0.37437 0.10815,-1.98207 z m 2.05695,2.71833 h -1.54531 v -2.71833 h 1.54531 v 0.31197 h -1.17511 v 0.84233 h 1.12935 v 0.31197 h -1.12935 v 0.93592 h 1.17511 z m 2.49162,-0.81322 q 0,0.19551 -0.077,0.34734 -0.0749,0.14974 -0.2163,0.25373 -0.13935,0.10399 -0.33901,0.15807 -0.19759,0.0541 -0.44093,0.0541 h -0.7113 v -2.71833 h 0.77786 q 0.90888,0 0.90888,0.66138 0,0.22046 -0.10607,0.37853 -0.10399,0.15806 -0.34109,0.23502 0.11023,0.0208 0.20798,0.0707 0.0998,0.0499 0.17471,0.12895 0.0749,0.079 0.11855,0.18719 0.0437,0.10815 0.0437,0.24333 z m -0.48252,-1.19381 q 0,-0.0832 -0.0249,-0.15599 -0.025,-0.0749 -0.0874,-0.12687 -0.0624,-0.0541 -0.16846,-0.0853 -0.10607,-0.0312 -0.2683,-0.0312 h -0.38269 v 0.85065 h 0.37021 q 0.12687,0 0.22878,-0.027 0.10399,-0.027 0.17679,-0.0832 0.0749,-0.0562 0.11439,-0.13935 0.0416,-0.0853 0.0416,-0.20174 z m 0.0894,1.20629 q 0,-0.10399 -0.0437,-0.18718 -0.0437,-0.0832 -0.12687,-0.13935 -0.0832,-0.0582 -0.20382,-0.0894 -0.11855,-0.0312 -0.2683,-0.0312 h -0.37853 v 0.93592 h 0.39101 q 0.31821,0 0.4742,-0.11855 0.15599,-0.11855 0.15599,-0.37021 z m 2.63305,-2.13806 -1.42676,3.38596 h -0.34525 l 1.42676,-3.38596 z m 2.55819,1.56195 q 0,0.36605 -0.0874,0.63227 -0.0853,0.26622 -0.23294,0.44092 -0.14559,0.17263 -0.34317,0.2579 -0.1955,0.0832 -0.41388,0.0832 -0.26206,0 -0.45757,-0.0936 -0.19342,-0.0957 -0.32237,-0.27454 -0.12687,-0.17886 -0.18926,-0.43468 -0.0624,-0.2579 -0.0624,-0.58027 0,-0.36189 0.0853,-0.62811 0.0853,-0.26621 0.23086,-0.43884 0.14766,-0.17471 0.34317,-0.2579 0.1955,-0.0853 0.41388,-0.0853 0.26206,0 0.45548,0.0957 0.19551,0.0957 0.32446,0.27454 0.12895,0.17678 0.19134,0.4326 0.0645,0.25582 0.0645,0.57611 z m -0.38477,0.027 q 0,-0.23918 -0.0374,-0.43676 -0.0354,-0.19967 -0.11647,-0.34317 -0.0811,-0.14351 -0.21006,-0.22255 -0.12687,-0.079 -0.30782,-0.079 -0.1747,0 -0.30157,0.0853 -0.12479,0.0832 -0.2059,0.22878 -0.0811,0.14351 -0.12063,0.33902 -0.0395,0.19342 -0.0395,0.4118 0,0.24126 0.0374,0.44092 0.0374,0.19759 0.11647,0.3411 0.0811,0.14142 0.20798,0.22046 0.12687,0.079 0.30573,0.079 0.17471,0 0.30158,-0.0832 0.12687,-0.0853 0.20798,-0.22878 0.0832,-0.14559 0.12271,-0.33902 0.0395,-0.19342 0.0395,-0.41388 z m 2.61642,0.40349 q 0,0.22462 -0.0645,0.40764 -0.0624,0.18095 -0.1851,0.3099 -0.12271,0.12686 -0.30158,0.19758 -0.17678,0.0686 -0.40764,0.0686 -0.25374,0 -0.43053,-0.0665 -0.17678,-0.0666 -0.28909,-0.18719 -0.11023,-0.12271 -0.16223,-0.29325 -0.0499,-0.17055 -0.0499,-0.38061 v -1.82816 h 0.3702 v 1.79904 q 0,0.16015 0.0291,0.28078 0.0312,0.12063 0.0998,0.20174 0.0686,0.0811 0.17679,0.12271 0.11023,0.0416 0.2683,0.0416 0.29533,0 0.43468,-0.17055 0.14143,-0.17054 0.14143,-0.48044 v -1.79488 h 0.37021 z m 2.38764,-1.45588 h -0.80489 v 2.4022 h -0.37437 v -2.4022 h -0.80489 v -0.31613 h 1.98415 z m 2.29196,0.5158 q 0,0.16638 -0.0624,0.33069 -0.0624,0.16222 -0.19342,0.29117 -0.13103,0.12895 -0.33486,0.21006 -0.20382,0.079 -0.48667,0.079 h -0.33694 v 0.97544 h -0.3702 v -2.71833 h 0.76537 q 0.20174,0 0.38685,0.0457 0.1851,0.0437 0.32445,0.14351 0.14143,0.0998 0.22462,0.2579 0.0832,0.15806 0.0832,0.38477 z m -0.38476,0.0166 q 0,-0.26205 -0.17263,-0.4014 -0.17054,-0.13935 -0.47836,-0.13935 h -0.37853 v 1.11895 h 0.34526 q 0.32861,0 0.50539,-0.14351 0.17887,-0.14351 0.17887,-0.43469 z m 2.73081,0.92345 q 0,0.22462 -0.0645,0.40764 -0.0624,0.18095 -0.1851,0.3099 -0.12271,0.12686 -0.30158,0.19758 -0.17678,0.0686 -0.40764,0.0686 -0.25374,0 -0.43053,-0.0665 -0.17678,-0.0666 -0.28909,-0.18719 -0.11023,-0.12271 -0.16223,-0.29325 -0.0499,-0.17055 -0.0499,-0.38061 v -1.82816 h 0.3702 v 1.79904 q 0,0.16015 0.0291,0.28078 0.0312,0.12063 0.0998,0.20174 0.0686,0.0811 0.17679,0.12271 0.11023,0.0416 0.2683,0.0416 0.29533,0 0.43468,-0.17055 0.14143,-0.17054 0.14143,-0.48044 v -1.79488 h 0.37021 z m 2.38763,-1.45588 h -0.80489 v 2.4022 h -0.37437 v -2.4022 h -0.80489 v -0.31613 h 1.98415 z"
           id="text4-6-8"
           class="g"
           transform="scale(0.97095345,1.0299155)"
           aria-label="@ZONE01MINGW~ZONE01/OUJDA/ASCII-ART-WEB/OUTPUT" /></g></g></g></svg>
