<?xml version="1.0" encoding="UTF-8" standalone="no"?>
<!-- Created with Inkscape (http://www.inkscape.org/) -->

<svg
   width="36.533203"
   height="42.620785"
   viewBox="0 0 9.6660765 11.276749"
   version="1.1"
   id="svg1"
   xml:space="preserve"
   inkscape:version="1.3.2 (091e20e, 2023-11-25, custom)"
   sodipodi:docname="Ascii_Template_Elements.svg"
   inkscape:export-filename="Ascii_Web_Elements\ThinkerToy_Button.svg"
   inkscape:export-xdpi="96"
   inkscape:export-ydpi="96"
   xmlns:inkscape="http://www.inkscape.org/namespaces/inkscape"
   xmlns:sodipodi="http://sodipodi.sourceforge.net/DTD/sodipodi-0.dtd"
   xmlns="http://www.w3.org/2000/svg"
   xmlns:svg="http://www.w3.org/2000/svg"><sodipodi:namedview
     id="namedview1"
     pagecolor="#505050"
     bordercolor="#eeeeee"
     borderopacity="1"
     inkscape:showpageshadow="0"
     inkscape:pageopacity="0"
     inkscape:pagecheckerboard="0"
     inkscape:deskcolor="#505050"
     inkscape:document-units="mm"
     inkscape:zoom="0.67954657"
     inkscape:cx="-254.58152"
     inkscape:cy="691.63766"
     inkscape:window-width="1350"
     inkscape:window-height="720"
     inkscape:window-x="0"
     inkscape:window-y="0"
     inkscape:window-maximized="0"
     inkscape:current-layer="layer1" /><defs
     id="defs1"><style
       id="style1">.e{fill:#662d91;}.f{fill:#0071bc;}.g{fill:url(#d);}.h{fill:#93278f;}.i{opacity:.77;}.j{font-family:Consolas, Consolas;font-size:31px;}</style><style
       id="style1-2">.e,.f,.g{font-family:Consolas, Consolas;}.h{fill:#662d91;}.i{fill:#0071bc;}.j{fill:url(#d);}.f,.k{fill:#fff;}.f,.k,.g{font-size:31px;}.l{font-family:Calibri-Light, Calibri;}.m{fill:#93278f;}.n{opacity:.77;}</style><style
       id="style1-6">.e,.f,.g{font-family:Consolas, Consolas;}.h{fill:#662d91;}.i{fill:#0071bc;}.j{fill:url(#d);}.f,.k{fill:#fff;}.f,.k,.g{font-size:31px;}.l{font-family:Calibri-Light, Calibri;}.m{fill:#93278f;}.n{opacity:.77;}</style><style
       id="style1-4">.e{fill:#662d91;}.f{fill:#0071bc;}.g{fill:url(#d);}.h{fill:#93278f;}.i{opacity:.77;}.j{font-family:Consolas, Consolas;font-size:31px;}</style><style
       id="style1-5">.cls-1{fill:#101010;}</style></defs><g
     id="layer1"
     inkscape:groupmode="layer"
     inkscape:label="Layer 1"
     transform="translate(-432.03431,-157.24287)"><g
       id="PDF_Button"
       transform="translate(0,-46.56669)"><polygon
         style="fill:#b12a27"
         points="475.435,512 47.791,512 47.791,0.002 357.613,0.002 412.491,54.881 475.435,117.825 "
         id="polygon1"
         transform="matrix(0.02202491,0,0,0.02202491,431.22898,203.80956)" /><rect
         x="432.03433"
         y="204.56398"
         style="fill:#f2f2f2;stroke-width:0.0220249"
         width="4.5172429"
         height="2.0211818"
         id="rect1-2" /><path
         style="fill:#b12a27;stroke-width:0.0220249"
         d="m 433.65463,205.2275 c -0.0199,-0.0481 -0.0465,-0.0913 -0.083,-0.12783 -0.0365,-0.0365 -0.0814,-0.0664 -0.13284,-0.0863 -0.0531,-0.0216 -0.1129,-0.0315 -0.1793,-0.0315 h -0.49644 v 1.28174 h 0.25071 v -0.48316 h 0.24573 c 0.0664,0 0.12618,-0.01 0.1793,-0.0315 0.0515,-0.0199 0.0963,-0.0498 0.13284,-0.0863 0.0365,-0.0365 0.0631,-0.078 0.083,-0.12783 0.0183,-0.0481 0.0282,-0.0996 0.0282,-0.15274 -2e-5,-0.0548 -0.01,-0.10627 -0.0282,-0.15442 z m -0.27064,0.28058 c -0.0332,0.0315 -0.0797,0.0481 -0.13614,0.0481 h -0.2341 v -0.35198 h 0.2341 c 0.0564,0 0.10294,0.0166 0.13614,0.0498 0.0315,0.0315 0.0481,0.0747 0.0481,0.12783 2e-5,0.0515 -0.0166,0.0947 -0.0481,0.12621 z"
         id="path1-9" /><path
         style="fill:#b12a27;stroke-width:0.0220249"
         d="m 434.85336,205.47819 c -0.002,-0.0448 -0.003,-0.0847 -0.008,-0.1212 -0.005,-0.0365 -0.0133,-0.0697 -0.0249,-0.10127 -0.0116,-0.0299 -0.0266,-0.0598 -0.0465,-0.0863 -0.0448,-0.0648 -0.0996,-0.1129 -0.16105,-0.14279 -0.0631,-0.0299 -0.13781,-0.0448 -0.2258,-0.0448 h -0.46155 v 1.28174 h 0.46155 c 0.088,0 0.1627,-0.0149 0.2258,-0.0448 0.0614,-0.0299 0.11623,-0.078 0.16105,-0.14279 0.0199,-0.0266 0.0349,-0.0565 0.0465,-0.0863 0.0116,-0.0315 0.0199,-0.0648 0.0249,-0.10127 0.005,-0.0365 0.007,-0.0764 0.008,-0.1212 0.002,-0.0432 0.002,-0.0913 0.002,-0.14444 0,-0.0531 0,-0.10129 -0.002,-0.14446 z m -0.25071,0.27397 c 0,0.0382 -0.003,0.0681 -0.007,0.0946 -0.003,0.0249 -0.008,0.0481 -0.0149,0.0647 -0.007,0.0183 -0.0166,0.0349 -0.0282,0.0498 -0.0415,0.0531 -0.1046,0.078 -0.18761,0.078 h -0.19093 v -0.83514 h 0.19093 c 0.083,0 0.14611,0.0266 0.18761,0.0797 0.0116,0.0149 0.0216,0.0299 0.0282,0.0481 0.007,0.0182 0.0116,0.0398 0.0149,0.0664 0.003,0.0249 0.007,0.0565 0.007,0.093 0.002,0.0365 0.002,0.0814 0.002,0.13116 2e-5,0.0498 2e-5,0.093 -0.002,0.12955 z"
         id="path2-5" /><path
         style="fill:#b12a27;stroke-width:0.0220249"
         d="m 435.92425,205.20424 v -0.22247 h -0.8451 v 1.28174 h 0.25071 v -0.51966 h 0.5064 v -0.22414 h -0.5064 v -0.31547 z"
         id="path3" /><path
         style="fill:#b12a27;stroke-width:0.0220249"
         d="m 433.65463,205.2275 c -0.0199,-0.0481 -0.0465,-0.0913 -0.083,-0.12783 -0.0365,-0.0365 -0.0814,-0.0664 -0.13284,-0.0863 -0.0531,-0.0216 -0.1129,-0.0315 -0.1793,-0.0315 h -0.49644 v 1.28174 h 0.25071 v -0.48316 h 0.24573 c 0.0664,0 0.12618,-0.01 0.1793,-0.0315 0.0515,-0.0199 0.0963,-0.0498 0.13284,-0.0863 0.0365,-0.0365 0.0631,-0.078 0.083,-0.12783 0.0183,-0.0481 0.0282,-0.0996 0.0282,-0.15274 -2e-5,-0.0548 -0.01,-0.10627 -0.0282,-0.15442 z m -0.27064,0.28058 c -0.0332,0.0315 -0.0797,0.0481 -0.13614,0.0481 h -0.2341 v -0.35198 h 0.2341 c 0.0564,0 0.10294,0.0166 0.13614,0.0498 0.0315,0.0315 0.0481,0.0747 0.0481,0.12783 2e-5,0.0515 -0.0166,0.0947 -0.0481,0.12621 z"
         id="path4" /><polygon
         style="opacity:0.08;fill:#040000"
         points="475.435,512 47.791,512 47.791,419.581 247.705,219.667 259.54,207.832 266.098,201.273 277.029,190.343 289.995,177.377 412.491,54.881 475.435,117.825 "
         id="polygon5"
         transform="matrix(0.02202491,0,0,0.02202491,431.22898,203.80956)" /><polygon
         style="fill:#771b1b"
         points="357.599,117.836 357.599,0 475.435,117.836 "
         id="polygon6"
         transform="matrix(0.02202491,0,0,0.02202491,431.22898,203.80956)" /><path
         style="fill:#f2f2f2;stroke-width:0.0220249"
         d="m 440.35557,211.97327 c -0.0548,-0.0963 -0.1295,-0.18761 -0.22247,-0.27062 -0.0764,-0.0697 -0.16602,-0.13449 -0.26732,-0.19426 -0.40843,-0.24073 -0.99118,-0.35696 -1.78315,-0.35696 h -0.0797 c -0.0432,-0.0398 -0.088,-0.0797 -0.13448,-0.1212 -0.30051,-0.27062 -0.53959,-0.5645 -0.72555,-0.89157 0.36526,-0.80525 0.53959,-1.52249 0.518,-2.13349 -0.003,-0.10294 -0.0183,-0.19923 -0.0448,-0.2889 -0.0398,-0.14444 -0.10624,-0.27229 -0.19923,-0.37689 -0.002,-0.002 -0.002,-0.002 -0.003,-0.003 -0.14776,-0.16603 -0.35363,-0.26067 -0.56285,-0.26067 -0.21086,0 -0.4051,0.0913 -0.54624,0.25901 -0.13946,0.16603 -0.21417,0.3935 -0.21749,0.6608 -0.005,0.40843 0.0282,0.79527 0.098,1.15223 0.007,0.0282 0.0116,0.0565 0.0183,0.0847 0.0697,0.32377 0.17268,0.63091 0.30549,0.91648 -0.15607,0.31712 -0.31379,0.59106 -0.42339,0.77702 -0.083,0.14113 -0.17432,0.2889 -0.26896,0.43666 -0.42669,0.0764 -0.78865,0.16935 -1.10409,0.28558 -0.42669,0.15442 -0.76871,0.35363 -1.01445,0.59106 -0.15939,0.15274 -0.26731,0.31546 -0.32044,0.48481 -0.0564,0.17433 -0.0531,0.34866 0.01,0.50472 0.0581,0.14444 0.1627,0.26565 0.30218,0.34866 0.0332,0.0199 0.0681,0.0365 0.1046,0.0515 0.10627,0.0432 0.22247,0.0664 0.34367,0.0664 0.2806,0 0.56948,-0.12121 0.81354,-0.3387 0.45492,-0.40678 0.92478,-1.06092 1.20205,-1.47435 0.22745,-0.0349 0.47484,-0.0647 0.75378,-0.0946 0.32875,-0.0332 0.6193,-0.0531 0.88329,-0.0631 0.0814,0.073 0.15939,0.14278 0.2341,0.20919 0.41508,0.37024 0.73052,0.63756 1.0161,0.82516 0,0.002 0.002,0.002 0.003,0.002 0.1129,0.0747 0.22083,0.13613 0.32875,0.18595 0.1212,0.0565 0.24406,0.0863 0.37024,0.0863 0.15939,0 0.30881,-0.0481 0.43334,-0.13614 0.12618,-0.0913 0.21749,-0.22247 0.25901,-0.37024 0.0481,-0.1776 0.0199,-0.37517 -0.0797,-0.55282 z m -3.67091,-3.32556 c -0.0232,-0.20589 -0.0332,-0.42006 -0.0299,-0.64586 0.003,-0.21417 0.0814,-0.35863 0.19591,-0.35863 0.0863,0 0.17766,0.078 0.21915,0.22745 0.0116,0.0448 0.0199,0.0963 0.0216,0.15439 0.003,0.0697 0.002,0.14279 -0.002,0.2175 -0.01,0.21086 -0.0465,0.43499 -0.10957,0.67574 -0.0382,0.15442 -0.088,0.31547 -0.14942,0.48314 -0.0697,-0.23573 -0.11955,-0.48644 -0.14611,-0.75373 z m -2.76937,4.36987 c -0.0282,-0.0697 0.003,-0.20421 0.176,-0.37024 0.26399,-0.25236 0.6774,-0.4516 1.25353,-0.60269 -0.10957,0.14942 -0.2175,0.28558 -0.32209,0.41008 -0.1594,0.19259 -0.31214,0.35531 -0.44995,0.47816 -0.11788,0.10625 -0.24738,0.17268 -0.37024,0.18929 -0.0216,0.003 -0.0432,0.005 -0.0648,0.005 -0.10795,3e-5 -0.19594,-0.0431 -0.2225,-0.10957 z m 2.65314,-1.76488 0.0116,-0.0183 -0.0183,0.003 c 0.003,-0.008 0.008,-0.0166 0.0133,-0.0232 0.0697,-0.11787 0.15772,-0.26897 0.25236,-0.44329 l 0.008,0.0183 0.0216,-0.0448 c 0.0697,0.0996 0.14611,0.19758 0.2258,0.2922 0.0382,0.0448 0.078,0.088 0.11787,0.13116 l -0.0266,0.002 0.0232,0.0216 c -0.0681,0.005 -0.13947,0.0116 -0.21087,0.0183 -0.0448,0.005 -0.0913,0.008 -0.13781,0.0133 -0.0963,0.01 -0.19091,0.0199 -0.28058,0.0299 z m 2.79428,1.03601 c -0.19758,-0.12618 -0.41838,-0.30383 -0.69068,-0.54126 0.38685,0.0398 0.69068,0.12453 0.90653,0.25071 0.0946,0.0548 0.16602,0.11125 0.21417,0.16602 0.0797,0.0847 0.10792,0.16105 0.093,0.21252 -0.0133,0.0515 -0.0714,0.0863 -0.14278,0.0863 -0.0415,0 -0.0847,-0.01 -0.12951,-0.0315 -0.0764,-0.0365 -0.15607,-0.0814 -0.24073,-0.13614 -0.003,0 -0.007,-0.003 -0.01,-0.007 z"
         id="path6" /></g></g></svg>
