<?xml version="1.0" encoding="UTF-8" standalone="no"?>
<!-- Created with Inkscape (http://www.inkscape.org/) -->

<svg
   width="35.574097"
   height="42.985287"
   viewBox="0 0 9.4123129 11.37319"
   version="1.1"
   id="svg1"
   xml:space="preserve"
   inkscape:version="1.3.2 (091e20e, 2023-11-25, custom)"
   sodipodi:docname="Ascii_Template_Elements.svg"
   inkscape:export-filename="Ascii_Web_Elements\ThinkerToy_Button.svg"
   inkscape:export-xdpi="96"
   inkscape:export-ydpi="96"
   xmlns:inkscape="http://www.inkscape.org/namespaces/inkscape"
   xmlns:sodipodi="http://sodipodi.sourceforge.net/DTD/sodipodi-0.dtd"
   xmlns="http://www.w3.org/2000/svg"
   xmlns:svg="http://www.w3.org/2000/svg"><sodipodi:namedview
     id="namedview1"
     pagecolor="#505050"
     bordercolor="#eeeeee"
     borderopacity="1"
     inkscape:showpageshadow="0"
     inkscape:pageopacity="0"
     inkscape:pagecheckerboard="0"
     inkscape:deskcolor="#505050"
     inkscape:document-units="mm"
     inkscape:zoom="0.67954657"
     inkscape:cx="-254.58152"
     inkscape:cy="691.63766"
     inkscape:window-width="1350"
     inkscape:window-height="720"
     inkscape:window-x="0"
     inkscape:window-y="0"
     inkscape:window-maximized="0"
     inkscape:current-layer="layer1" /><defs
     id="defs1"><style
       id="style1">.e{fill:#662d91;}.f{fill:#0071bc;}.g{fill:url(#d);}.h{fill:#93278f;}.i{opacity:.77;}.j{font-family:Consolas, Consolas;font-size:31px;}</style><style
       id="style1-2">.e,.f,.g{font-family:Consolas, Consolas;}.h{fill:#662d91;}.i{fill:#0071bc;}.j{fill:url(#d);}.f,.k{fill:#fff;}.f,.k,.g{font-size:31px;}.l{font-family:Calibri-Light, Calibri;}.m{fill:#93278f;}.n{opacity:.77;}</style><style
       id="style1-6">.e,.f,.g{font-family:Consolas, Consolas;}.h{fill:#662d91;}.i{fill:#0071bc;}.j{fill:url(#d);}.f,.k{fill:#fff;}.f,.k,.g{font-size:31px;}.l{font-family:Calibri-Light, Calibri;}.m{fill:#93278f;}.n{opacity:.77;}</style><style
       id="style1-4">.e{fill:#662d91;}.f{fill:#0071bc;}.g{fill:url(#d);}.h{fill:#93278f;}.i{opacity:.77;}.j{font-family:Consolas, Consolas;font-size:31px;}</style><style
       id="style1-5">.cls-1{fill:#101010;}</style></defs><g
     id="layer1"
     inkscape:groupmode="layer"
     inkscape:label="Layer 1"
     transform="translate(-417.12888,-157.19466)"><g
       id="TXT_Button"
       transform="translate(0,-46.56669)"><path
         style="fill:#e4eaf8;stroke-width:0.0222133"
         d="m 418.30541,204.15352 c 0,-0.2166 0.17558,-0.39217 0.3922,-0.39217 h 5.88269 l 1.9609,1.9609 v 9.02011 c 0,0.2166 -0.17558,0.39217 -0.39218,0.39217 h -7.45141 c -0.2166,0 -0.39217,-0.17557 -0.39217,-0.39217 v -10.58884 z"
         id="path1-89" /><path
         style="fill:#d5dced;stroke-width:0.0222133"
         d="m 424.58028,203.76135 v 1.56872 c 0,0.21658 0.17559,0.39218 0.39217,0.39218 h 1.56873 z"
         id="path2-76" /><path
         style="fill:#d5dced;stroke-width:0.0222133"
         d="m 422.81548,214.15409 h -4.51007 v -3.5296 h 4.51005 c 0.43318,0 0.78435,0.35117 0.78435,0.78435 v 1.9609 c 2e-5,0.43318 -0.35115,0.78435 -0.78433,0.78435 z"
         id="path3-7" /><path
         style="fill:#707487;stroke-width:0.0222133"
         d="m 422.81548,213.76191 h -5.29442 c -0.2166,0 -0.39217,-0.17557 -0.39217,-0.39217 v -1.9609 c 0,-0.2166 0.17557,-0.39218 0.39217,-0.39218 h 5.29442 c 0.2166,0 0.39218,0.17558 0.39218,0.39218 v 1.9609 c 0,0.2166 -0.17558,0.39217 -0.39218,0.39217 z"
         id="path4-8" /><path
         style="fill:#7f8499;stroke-width:0.0222133"
         d="m 420.93671,209.27268 -0.57359,0.24581 c -0.10576,0.0453 -0.2127,-0.0616 -0.16736,-0.16735 l 0.24581,-0.57359 c 0.0295,-0.0688 0.0718,-0.13133 0.12473,-0.18424 l 2.42149,-2.42149 c 0.0766,-0.0766 0.20074,-0.0766 0.27731,0 l 0.27731,0.27731 c 0.0766,0.0766 0.0766,0.20074 0,0.27731 l -2.42147,2.42153 c -0.0529,0.0529 -0.11546,0.0952 -0.18423,0.12471 z"
         id="path5-3" /><path
         style="fill:#ffffff;stroke-width:0.0222133"
         d="m 420.78412,211.65032 c -0.0837,-0.0691 -0.20682,-0.058 -0.27631,0.0251 l -0.33953,0.40743 -0.33953,-0.40743 c -0.0693,-0.0831 -0.19283,-0.0942 -0.27631,-0.0251 -0.0831,0.0693 -0.0944,0.19303 -0.0251,0.27631 l 0.38554,0.46266 -0.38554,0.46265 c -0.0693,0.0833 -0.058,0.20701 0.0251,0.27632 0.0368,0.0304 0.0812,0.0454 0.12542,0.0454 0.0563,0 0.11202,-0.0239 0.15089,-0.0705 l 0.33953,-0.40744 0.33953,0.40744 c 0.0389,0.0465 0.0946,0.0705 0.1509,0.0705 0.0443,0 0.0887,-0.0149 0.12541,-0.0454 0.0831,-0.0693 0.0944,-0.19304 0.0251,-0.27632 l -0.38553,-0.46265 0.38553,-0.46266 c 0.0693,-0.0833 0.058,-0.20698 -0.0251,-0.27631 z"
         id="path6-1" /><path
         style="fill:#ffffff;stroke-width:0.0222133"
         d="m 419.08979,211.60492 h -1.17655 c -0.10838,0 -0.1961,0.0877 -0.1961,0.19609 0,0.1084 0.0877,0.1961 0.1961,0.1961 h 0.39217 v 0.98045 c 0,0.10838 0.0877,0.1961 0.1961,0.1961 0.10838,0 0.1961,-0.0877 0.1961,-0.1961 v -0.98045 h 0.39218 c 0.10837,0 0.19609,-0.0877 0.19609,-0.1961 0,-0.1084 -0.0877,-0.19609 -0.19609,-0.19609 z"
         id="path7-1" /><path
         style="fill:#ffffff;stroke-width:0.0222133"
         d="m 422.42331,211.60492 h -1.17655 c -0.10838,0 -0.1961,0.0877 -0.1961,0.19609 0,0.1084 0.0877,0.1961 0.1961,0.1961 h 0.39217 v 0.98045 c 0,0.10838 0.0877,0.1961 0.1961,0.1961 0.10838,0 0.1961,-0.0877 0.1961,-0.1961 v -0.98045 h 0.39218 c 0.10837,0 0.19609,-0.0877 0.19609,-0.1961 0,-0.1084 -0.0877,-0.19609 -0.19609,-0.19609 z"
         id="path8-3" /><path
         style="fill:#5b5d6e;stroke-width:0.0222133"
         d="m 424.58028,209.84012 h -3.13742 c -0.10838,0 -0.1961,-0.0877 -0.1961,-0.1961 0,-0.10838 0.0877,-0.1961 0.1961,-0.1961 h 3.13742 c 0.10838,0 0.1961,0.0877 0.1961,0.1961 0,0.1084 -0.0877,0.1961 -0.1961,0.1961 z"
         id="path9-87" /><path
         style="fill:#7f8499;stroke-width:0.0222133"
         d="m 423.79593,209.05577 h -1.56872 c -0.10838,0 -0.1961,-0.0877 -0.1961,-0.1961 0,-0.1084 0.0877,-0.1961 0.1961,-0.1961 h 1.56872 c 0.10838,0 0.1961,0.0877 0.1961,0.1961 0,0.1084 -0.0877,0.1961 -0.1961,0.1961 z"
         id="path10" /><rect
         x="444.88266"
         y="-153.0685"
         transform="rotate(45)"
         style="fill:#5b5d6e;stroke-width:0.022213"
         width="0.78434241"
         height="3.0978968"
         id="rect10" /></g></g></svg>
