<?xml version="1.0" encoding="UTF-8" standalone="no"?>
<!-- Created with Inkscape (http://www.inkscape.org/) -->

<svg
   width="52.450073"
   height="51.249268"
   viewBox="0 0 13.877415 13.559702"
   version="1.1"
   id="svg1"
   xml:space="preserve"
   inkscape:version="1.3.2 (091e20e, 2023-11-25, custom)"
   sodipodi:docname="Ascii_Template_Elements.svg"
   inkscape:export-filename="Ascii_Web_Elements\ThinkerToy_Button.svg"
   inkscape:export-xdpi="96"
   inkscape:export-ydpi="96"
   xmlns:inkscape="http://www.inkscape.org/namespaces/inkscape"
   xmlns:sodipodi="http://sodipodi.sourceforge.net/DTD/sodipodi-0.dtd"
   xmlns="http://www.w3.org/2000/svg"
   xmlns:svg="http://www.w3.org/2000/svg"><sodipodi:namedview
     id="namedview1"
     pagecolor="#505050"
     bordercolor="#eeeeee"
     borderopacity="1"
     inkscape:showpageshadow="0"
     inkscape:pageopacity="0"
     inkscape:pagecheckerboard="0"
     inkscape:deskcolor="#505050"
     inkscape:document-units="mm"
     inkscape:zoom="0.67954657"
     inkscape:cx="-254.58152"
     inkscape:cy="691.63766"
     inkscape:window-width="1350"
     inkscape:window-height="720"
     inkscape:window-x="0"
     inkscape:window-y="0"
     inkscape:window-maximized="0"
     inkscape:current-layer="layer1" /><defs
     id="defs1"><style
       id="style1">.e{fill:#662d91;}.f{fill:#0071bc;}.g{fill:url(#d);}.h{fill:#93278f;}.i{opacity:.77;}.j{font-family:Consolas, Consolas;font-size:31px;}</style><style
       id="style1-2">.e,.f,.g{font-family:Consolas, Consolas;}.h{fill:#662d91;}.i{fill:#0071bc;}.j{fill:url(#d);}.f,.k{fill:#fff;}.f,.k,.g{font-size:31px;}.l{font-family:Calibri-Light, Calibri;}.m{fill:#93278f;}.n{opacity:.77;}</style><style
       id="style1-6">.e,.f,.g{font-family:Consolas, Consolas;}.h{fill:#662d91;}.i{fill:#0071bc;}.j{fill:url(#d);}.f,.k{fill:#fff;}.f,.k,.g{font-size:31px;}.l{font-family:Calibri-Light, Calibri;}.m{fill:#93278f;}.n{opacity:.77;}</style><style
       id="style1-4">.e{fill:#662d91;}.f{fill:#0071bc;}.g{fill:url(#d);}.h{fill:#93278f;}.i{opacity:.77;}.j{font-family:Consolas, Consolas;font-size:31px;}</style><style
       id="style1-5">.cls-1{fill:#101010;}</style></defs><g
     id="layer1"
     inkscape:groupmode="layer"
     inkscape:label="Layer 1"
     transform="translate(-447.44077,-156.10095)"><g
       id="Word_Button"
       transform="translate(0,-46.56669)"><path
         d="m 455.63606,202.66859 v 1.26131 c 1.68506,0.009 3.5287,-0.0173 5.21425,0.009 a 0.38805744,0.38805744 0 0 1 0.45199,0.42672 c 0.0268,3.10545 -0.006,6.38833 0.0159,9.49427 -0.01,0.19824 0.004,0.55409 -0.0263,0.75183 -0.0392,0.25226 -0.15165,0.30083 -0.40491,0.33503 -0.14174,0.0193 -0.37864,0.0169 -0.5179,0.0233 -1.38373,-0.007 -2.76646,-0.005 -4.15019,-0.005 h -0.58233 v 1.2623 l -8.19579,-1.26329 q 0,-5.51756 0,-11.03213 l 8.19529,-1.26429"
         style="fill:#283c82;stroke-width:0.495603"
         id="path1-8" /><path
         d="m 455.63606,204.4027 h 5.20384 v 10.0895 h -5.20384 v -1.26131 h 4.09864 v -0.63041 h -4.09864 v -0.78801 h 4.09864 v -0.6309 h -4.09864 v -0.78801 h 4.09864 v -0.63091 h -4.09864 v -0.78801 h 4.09864 v -0.6309 h -4.09864 v -0.78801 h 4.09864 v -0.6309 h -4.09864 v -0.78801 h 4.09864 v -0.6309 h -4.09864 v -1.10322"
         style="fill:#ffffff;stroke-width:0.495603"
         id="path2-8" /><path
         d="m 450.69837,207.18849 c 0.29736,-0.0174 0.59918,-0.0297 0.89853,-0.0456 0.20964,1.06406 0.42423,2.12664 0.65122,3.18624 0.17792,-1.09429 0.37517,-2.18512 0.56598,-3.27743 0.3152,-0.0109 0.63041,-0.0282 0.94412,-0.0496 -0.35634,1.52745 -0.66857,3.06779 -1.05761,4.58632 -0.26317,0.13728 -0.65717,-0.006 -0.9694,0.0159 -0.20965,-1.04375 -0.45398,-2.08154 -0.64181,-3.12924 -0.18437,1.02143 -0.42424,2.029 -0.63536,3.04102 q -0.45398,-0.0238 -0.91142,-0.055 c -0.26168,-1.38769 -0.56895,-2.76498 -0.81328,-4.15564 0.2696,-0.0124 0.5407,-0.0238 0.81031,-0.0332 0.16255,1.00409 0.34692,2.00372 0.48866,3.0093 0.22203,-1.03086 0.44951,-2.06221 0.67006,-3.09306"
         style="fill:#ffffff;stroke-width:0.495603"
         id="path3-1" /></g></g></svg>
